<?xml version="1.0" encoding="utf-8"?>
<!-- Generator: Adobe Illustrator 19.0.0, SVG Export Plug-In . SVG Version: 6.00 Build 0)  -->
<svg version="1.1" id="a8904fed-7223-4ff2-9071-b444910320a0"
	 xmlns="http://www.w3.org/2000/svg" xmlns:xlink="http://www.w3.org/1999/xlink" x="0px" y="0px" viewBox="269 -51 1137 402"
	 style="enable-background:new 269 -51 1137 402;" xml:space="preserve">
<style type="text/css">
	.st0{fill:#EA8A8A;}
	.st1{fill:#FFFFFF;}
	.st2{fill:#CCCCCC;}
	.st3{fill:#3F3D56;}
	.st4{opacity:0.1;enable-background:new    ;}
	.st5{fill:#F2F2F2;}
	.st6{fill:none;stroke:#000000;stroke-miterlimit:10;}
</style>
<g>
	<g>
		<g>
			<path class="st0" d="M1139.1,132c0.2-0.1,0.2-0.4,0.2-0.5C1139,131.4,1139.3,131.8,1139.1,132z M1139,60.5
				c-0.1,0.2-0.1,0.3-0.3,0.3c-0.2-0.2-0.2-0.4-0.3-0.7C1138.7,59.9,1138.6,60.5,1139,60.5z M1138.6,133.4c-0.2,0.1-0.1,0.5-0.3,0.5
				c0.2-0.3,0.1-0.6,0.2-0.8C1138.6,133.1,1138.6,133.4,1138.6,133.4z M1137.5,140.5c0.2,0.6-0.2,1.4-0.2,1.9
				C1137.2,141.8,1137.5,141.2,1137.5,140.5z M1137.2,143.8c-0.2-0.5,0-1.8,0-0.6C1137.2,143.3,1137.2,143.6,1137.2,143.8z
				 M1135.5,136c0.2,0.1,0.1,0.7,0,0.8C1135.4,136.6,1135.4,136.4,1135.5,136z M1135.4,139.1c-0.2,0.1-0.2-0.2-0.2-0.5
				C1135.3,138.8,1135.4,138.9,1135.4,139.1z M1135.1,134.2c-0.2,0,0.1-0.5-0.2-0.5C1135.1,133.3,1135.2,134.1,1135.1,134.2z
				 M1133.2,122.5c-0.3-0.1-0.2-0.9-0.1-1.1C1133.2,121.7,1133.3,122.1,1133.2,122.5z M1141.2,75.5c-0.2-0.2-0.1-0.5-0.2-0.8
				C1141.1,74.9,1141.2,75.1,1141.2,75.5z M1140.1,67.4L1140.1,67.4c-0.2,1.5-0.1,3.6-0.2,4.7c0-2.2-0.1-4.4,0.4-6
				c0.2-0.9,0.7-1.7,0.2-2.6c0.2,0.1,0.5,0.5,0.5,0.7c0.2,0.9-0.7,1.8-0.7,2.7c0,0.5,0.2,0.6,0.2,1.2
				C1140.2,67.9,1140.2,67.7,1140.1,67.4z M1138.6,132.9c-0.3,0-0.1-0.4-0.1-0.5c-0.1,0.2-0.3,0.2-0.2,0.5c-0.1-0.2-0.2-0.2-0.2-0.4
				c-0.4,0.9-0.2,1.2-0.3,1.9c-0.1,0-0.1-0.2-0.2-0.2c-0.2,0.6-0.2,1.7-0.1,2.6c-0.2,0-0.2-0.2-0.2-0.5c-0.2,0.1-0.1,0.9-0.3,0.5
				c0,0.6,0.2,0.5,0.1,1.2c-0.2-0.6-0.3-0.8-0.3-1.6c-0.1,0.1-0.1,0.3-0.2,0.5c-0.2-0.2,0.1-0.4,0-0.6c-0.3,1.1-0.3,2.3-0.3,3.6
				c-0.1-0.4-0.2-1.1-0.2-1.8c-0.2,0.5-0.2,1.2-0.2,1.7c-0.2-0.5-0.2,0.1-0.2,0.4c-0.1-2.9-0.2-3.8-0.3-7c0,0.5-0.1,0.9,0,1.4
				c0,0.2-0.2,0.3-0.2,0.1c-0.1,0.1,0.2,0.5-0.1,0.5c-0.5-0.4-0.2-1.6-0.5-2.3c-0.1,0.1-0.1,0.3-0.3,0.2c0,0.4,0.3-0.2,0.2,0.5
				c-0.5-0.5-0.2-1.3-0.3-1.7c0-0.5-0.2-0.9-0.1-1.6c-0.3,0.4-0.1,1.4-0.2,2c-0.1,0.2-0.1-0.1-0.1-0.2c-0.1-1.2-0.2-3.3-0.2-4.4
				c-0.3,0.5-0.1,1-0.1,1.8c-0.1,0-0.1-0.2-0.1-0.3c-0.2,1.2,0,3.6,0.2,5.1c0.1,0.5,0.2,0.8,0.3,1.2c0,0.4,0,1.3,0.3,1.6
				c-0.2,0.5,0,0.8,0.2,1.2c-0.2,0-0.2-0.2-0.2,0c-0.1,0.3,0.2,0.2,0.3,0.3c-0.1,0.2-0.3,0.5-0.1,0.7c-0.3-0.1,0,0.6,0.1,1.2
				c0.1-0.2,0.1-0.5,0.2-0.6c0.2,0.9,0,1.6,0,2.7c-0.2-0.6,0-1.7,0-2.5c-0.2,0.1-0.2,0.6-0.2,1c-1.3-3.9-2.1-11-2-16.2
				c0.4,0,0.5-1.1,0.5-1.8c0.2,0.2,0.2,0.1,0.4,0.3c-0.1,0.2,0.1,0.5,0,0.9c0.2-0.4,0-1.6,0.1-2.3c-0.2,0,0,0.3-0.1,0.5
				s-0.1-0.7-0.2-0.9c-0.2,0.6-0.1,0.9-0.1,1.5c-0.4-0.2,0.1-1.7-0.2-2.3c0.1-0.3,0.2,0.1,0.2,0.3c0.1-0.9,0.2-1.8,0.1-2.6
				c-0.1,0.3-0.1,1.1-0.1,1.9c-0.3-0.5,0.1-1.6-0.1-2.6c0.2-0.1,0.2,0.2,0.2,0.5c0.2-0.2,0-0.6-0.2-0.6c0.1-0.3,0.1-0.6-0.1-0.9
				c0.2,1.4-0.4,2.8-0.2,4.1c0.1,0,0.1-0.2,0.1-0.4c0.2,0.2,0,1,0.1,1.7c-0.1-0.1-0.1-0.2-0.2-0.3c-0.2,0.5,0.1,1.6-0.2,2.3
				c-0.1-3.4-0.2-6.8,0.2-10.2c0.3,0.5,0.1,1.6,0.3,2.3c0.1-0.3,0.1-1.5,0.1-1.9c0.3,0.5-0.1,1.8,0.2,2.7c0.2-4.1,0.2-7.6-0.1-12.1
				c-0.1,1.8,0.1,3,0.1,4.5c-0.1-0.1-0.2-0.2-0.2-0.3c-0.1,0.9,0.1,2.9-0.1,3.9c-0.2-0.1,0-0.5-0.1-0.7c-0.1,0.5-0.2,0.9-0.2,1.6
				c-0.4-2.3-0.4-4.8-0.7-7.3c0.1-0.1,0.1-0.3,0.3-0.2c0.1-5.6-0.3-11.5,0-16.4c0-0.2-0.2-0.2-0.2-0.4c0.4-2.8-0.4-6.2,0.1-9.5
				c0.2-0.9-0.2-2,0.2-2.8c-0.2-2.6-0.4-6.7,0.3-8.7V68c0.2-0.2,0.3-0.3,0.4-0.5c-0.3-0.5,0-1.2,0.2-1.9c-0.1-0.2-0.2-0.2-0.3-0.2
				c0.2,0.4,0,0.2,0,0.8c-0.1,0.1-0.1-0.7-0.2-1c0.2,0.2,0.4-0.2,0.4,0.2c0.2-0.5,0.3-1.2,0.2-2c0.2,0.1,0,0.2,0.2,0.4
				c0.2-0.5,0.5-0.8,0.2-1.5c0.5,0.2,0.5-1.3,1.2-1c0.2,0,0-0.3,0.1-0.5c0.3,0.2,0.5-0.7,1.1-0.5c0,0.6,1,0.6,1.4,1.1
				c0.2-0.1-0.2-0.5,0.2-0.4c-0.1,0.5,0.4,1,0.5,1.5s-0.2,0.7-0.3,1.1c0.3,0.9,0.6,1.3,0.5,2.3c0,0.2-0.1,0.5-0.1,0.6
				s0.2,0.3,0.2,0.3c0,0.1-0.2,0.3-0.2,0.5c0,0.3,0.3,0.5,0.3,0.7s-0.2,0.5-0.2,0.7c0,0.5,0.2,1.1,0.2,1.7c0.2,3.4,0,7.7,0.2,11.5
				c0.1,1,0.1,2.2,0.1,3.2c-0.1,4.2,0,8.4,0.2,12.7c0,0.2-0.1,1-0.1,1.6c0.2,8.1,0.5,18.8,0.3,27.7c-0.2,0.1-0.1,0.3-0.2,0.1
				c0,0.2,0.1,0.2,0.2,0.2c-0.1,0.5-0.2,0.5-0.2,0.9c-0.2,1-0.2,2.7-0.6,3.2c0.2-1.6,0.5-3.4,0.5-5c-0.5,1-0.3,2.8-0.9,3.6
				c0.2,0.5-0.2,0.9,0.1,1.2C1138.4,131.1,1138.8,132.4,1138.6,132.9z M1136.2,138.9V138C1136,137.8,1136.2,138.9,1136.2,138.9z
				 M1135.5,133.9c0.2,0.3-0.1,0.5,0.2,0.5C1135.6,134.2,1135.8,133.9,1135.5,133.9z M1139.9,123.6c0-0.5-0.2-0.5,0-0.7
				C1139.6,122.8,1139.7,123.6,1139.9,123.6z M1139.9,124.7c-0.1-0.2,0.1-0.5-0.1-0.6C1139.7,124.1,1139.7,124.6,1139.9,124.7z
				 M1134.1,65.1c0,0.5-0.3,1.3,0.2,1.4C1134.2,65.9,1134.2,65.4,1134.1,65.1z M1138.5,134.2c0.1,0.2-0.2,0.2,0,0.5
				c-0.2,0.1-0.1-0.4-0.2-0.5C1138.5,134.3,1138.5,134.3,1138.5,134.2z M1137.9,135.7L1137.9,135.7c-0.2-0.1-0.2-0.5-0.2-0.7
				C1138,135,1137.6,135.6,1137.9,135.7z M1135.6,138.2c-0.2-0.1,0-0.5-0.2-0.6C1135.6,137.4,1135.6,138,1135.6,138.2z M1134.7,61.4
				c0.1,0.2-0.3,1-0.5,0.9C1134.3,62,1134.6,61.7,1134.7,61.4z"/>
		</g>
	</g>
	<g>
		<g>
			<path class="st0" d="M1122.4,26.7c-0.2,0-0.2,0.1-0.2,0.2C1122.5,26.9,1122.3,26.8,1122.4,26.7z M1122,45c0.1,0,0.1-0.1,0.3-0.1
				c0.2,0.1,0.2,0.1,0.3,0.2C1122.2,45.2,1122.4,45,1122,45z M1122.9,26.4c0.2,0,0.1-0.2,0.3-0.2C1123,26.3,1123.1,26.4,1122.9,26.4
				C1122.9,26.5,1123,26.4,1122.9,26.4z M1124.2,24.6c-0.2-0.2,0.2-0.4,0.2-0.5C1124.5,24.3,1124.2,24.4,1124.2,24.6z M1124.5,23.7
				c0.2,0.2,0,0.5,0,0.2C1124.5,23.8,1124.5,23.7,1124.5,23.7z M1126.2,25.8c-0.2,0-0.1-0.2,0-0.2
				C1126.5,25.7,1126.3,25.8,1126.2,25.8z M1126.5,25c0.2,0,0.2,0.1,0.2,0.2C1126.5,25.1,1126.5,25.1,1126.5,25z M1126.7,26.2
				c0.2,0-0.1,0.2,0.2,0.2C1126.7,26.5,1126.6,26.3,1126.7,26.2z M1128.6,29.3c0.3,0,0.2,0.2,0.1,0.3
				C1128.6,29.5,1128.5,29.4,1128.6,29.3z M1119.7,41c0.2,0.1,0.1,0.2,0.2,0.2C1119.8,41.2,1119.7,41.2,1119.7,41z M1120.8,43.1
				C1120.9,43.1,1120.9,43.1,1120.8,43.1c0.2-0.4,0.1-0.9,0.3-1.2c0,0.5,0.1,1.1-0.5,1.6c-0.2,0.2-0.8,0.5-0.2,0.6
				c-0.2,0-0.5-0.2-0.5-0.2c-0.2-0.2,0.8-0.5,0.8-0.6s-0.2-0.2-0.2-0.3C1120.7,43,1120.7,43,1120.8,43.1z M1122.9,26.5
				c0.3,0,0.1,0.1,0.1,0.2c0.1,0,0.3-0.1,0.2-0.2c0.1,0.1,0.2,0.1,0.2,0.1c0.4-0.2,0.2-0.3,0.3-0.5c0.1,0,0.1,0.1,0.2,0.1
				c0.2-0.2,0.2-0.5,0.1-0.6c0.2,0,0.2,0.1,0.2,0.2c0.2,0,0.1-0.2,0.3-0.1c0-0.2-0.2-0.2-0.1-0.3c0.2,0.2,0.3,0.2,0.3,0.4
				c0.1,0,0.1-0.1,0.2-0.1c0.2,0.1-0.1,0.1,0,0.2c0.3-0.3,0.3-0.5,0.4-0.9c0.1,0.1,0.2,0.3,0.2,0.5c0.2-0.1,0.2-0.3,0.2-0.5
				c0.2,0.2,0.2,0,0.2-0.1c0.1,0.7,0.2,1,0.2,1.8c0-0.2,0.1-0.2,0-0.4c0-0.1,0.2-0.1,0.2,0c0.1,0-0.2-0.2,0.1-0.2
				c0.5,0.1,0.2,0.5,0.5,0.5c0.1,0,0.1-0.1,0.3,0c0-0.1-0.3,0-0.2-0.2c0.5,0.2,0.2,0.3,0.3,0.5c0,0.2,0.2,0.2,0.1,0.5
				c0.3-0.1,0.1-0.4,0.2-0.5c0.1,0,0.1,0,0.1,0.1c0.1,0.3,0.2,0.9,0.2,1.1c0.3-0.1,0.1-0.3,0.1-0.5c0.1,0,0.1,0.1,0.1,0.1
				c0.2-0.3,0-0.9-0.2-1.3c-0.1-0.2-0.2-0.2-0.3-0.3c0-0.1,0-0.3-0.3-0.5c0.2-0.2,0-0.2-0.2-0.3c0.2,0,0.2,0.1,0.2,0
				c0.1-0.1-0.2-0.1-0.3-0.1c0.1,0,0.3-0.2,0.1-0.2c0.3,0,0-0.2-0.1-0.3c-0.1,0.1-0.1,0.2-0.2,0.2c-0.2-0.2,0-0.5,0-0.6
				c0.2,0.2,0,0.5,0,0.6c0.2,0,0.2-0.2,0.2-0.2c1.4,1,2.2,2.9,2,4.2c-0.4,0-0.5,0.3-0.5,0.5c-0.2-0.1-0.2,0-0.4-0.1
				c0.1,0-0.1-0.2,0-0.2c-0.2,0.1,0,0.5-0.1,0.5c0.2,0,0-0.1,0.1-0.1s0.1,0.2,0.2,0.2c0.2-0.2,0.1-0.2,0.1-0.4
				c0.4,0.1-0.1,0.5,0.2,0.5c-0.1,0.1-0.2,0-0.2-0.1c-0.1,0.2-0.2,0.5-0.1,0.6c0.1-0.1,0.1-0.3,0.1-0.5c0.3,0.2-0.1,0.5,0.1,0.6
				c-0.2,0-0.2-0.1-0.2-0.2c-0.2,0.1,0,0.2,0.2,0.2c-0.1,0.1-0.1,0.2,0.1,0.2c-0.2-0.4,0.5-0.7,0.3-1c-0.1,0-0.1,0.1-0.1,0.1
				c-0.2-0.1,0-0.3-0.1-0.5c0.1,0,0.1,0.1,0.2,0.1c0.2-0.2-0.1-0.5,0.2-0.5c0.1,0.9,0.2,1.7-0.2,2.7c-0.3-0.2-0.1-0.5-0.3-0.5
				c-0.1,0.1-0.1,0.4-0.1,0.5c-0.3-0.2,0.1-0.5-0.2-0.6c-0.2,1-0.2,1.9,0,3c0.1-0.5-0.1-0.8-0.1-1.2c0.1,0,0.2,0.1,0.2,0.1
				c0.1-0.2-0.1-0.7,0.1-1c0.2,0,0,0.2,0.1,0.2c0.1-0.1,0.2-0.2,0.2-0.4c0.4,0.5,0.4,1.3,0.7,1.9c-0.1,0-0.1,0.1-0.3,0
				c-0.2,1.5,0.2,2.9-0.2,4.1c0,0.1,0.2,0.1,0.2,0.1c-0.5,0.7,0.4,1.6-0.2,2.4c-0.2,0.2,0.2,0.5-0.2,0.7c0.2,0.6,0.4,1.7-0.4,2.2
				v0.2c-0.2,0.1-0.3,0.1-0.4,0.2c0.3,0.2,0,0.3-0.2,0.5c0.3,0,0.4,0,0.5,0c-0.2-0.1,0-0.1,0-0.2c0.1,0,0.1,0.2,0.2,0.3
				c-0.2-0.1-0.4,0.1-0.4,0c-0.2,0.2-0.3,0.3-0.2,0.5c-0.2,0,0-0.1-0.2-0.1c-0.2,0.2-0.5,0.2-0.2,0.4c-0.5-0.1-0.5,0.3-1.3,0.2
				c-0.2,0,0,0.1-0.1,0.1c-0.3-0.1-0.5,0.2-1.2,0.1c0-0.2-1.1-0.2-1.5-0.3c-0.2,0,0.2,0.2-0.2,0.1c0.1-0.2-0.4-0.3-0.5-0.4
				c-0.1-0.2,0.2-0.2,0.3-0.3c-0.3-0.2-0.6-0.4-0.5-0.5c0-0.1,0.1-0.1,0.1-0.2c0-0.1-0.2-0.1-0.2-0.1l0.2-0.1c0-0.1-0.3-0.2-0.3-0.2
				c0-0.1,0.2-0.2,0.2-0.2c0-0.2-0.2-0.3-0.2-0.5c-0.2-0.9,0.1-2-0.1-2.9c-0.1-0.3-0.1-0.5-0.1-0.8c0.2-1.1,0.1-2.1-0.1-3.2
				c0-0.1,0.1-0.3,0.1-0.5c-0.2-2-0.5-4.8-0.1-7c0.2,0,0.1-0.1,0.2,0c0-0.1-0.1-0.1-0.2-0.1c0.1-0.1,0.2-0.1,0.2-0.2
				c0.2-0.2,0.2-0.6,0.7-0.8c-0.2,0.5-0.6,0.8-0.6,1.3c0.5-0.2,0.4-0.7,1-0.9c-0.2-0.2,0.2-0.2-0.1-0.3
				C1123.2,26.9,1122.7,26.6,1122.9,26.5z M1125.6,25v0.2C1125.7,25.3,1125.6,25,1125.6,25z M1126.2,26.3c-0.2-0.1,0.1-0.1-0.2-0.2
				C1126.1,26.2,1125.9,26.3,1126.2,26.3z M1121.4,28.8c0,0.2,0.2,0.2,0,0.2C1121.8,29.1,1121.7,28.8,1121.4,28.8z M1121.5,28.6
				c0.1,0.1-0.1,0.2,0.1,0.2S1121.7,28.6,1121.5,28.6z M1127.2,44c0-0.2,0.3-0.3-0.2-0.4C1127.1,43.7,1127.1,43.9,1127.2,44z
				 M1123.1,26.1c-0.1-0.1,0.2-0.1,0-0.2c0.2,0,0.1,0.1,0.2,0.2C1123.2,26.1,1123.1,26.1,1123.1,26.1z M1123.7,25.8
				C1123.6,25.8,1123.7,25.8,1123.7,25.8c0.2,0.1,0.2,0.2,0.2,0.2C1123.6,25.9,1124,25.8,1123.7,25.8z M1126.2,25.2
				c0.2,0,0,0.2,0.2,0.2C1126.1,25.5,1126.2,25.3,1126.2,25.2z M1126.6,44.9c-0.1-0.1,0.3-0.2,0.5-0.2
				C1126.8,44.8,1126.7,44.8,1126.6,44.9z"/>
		</g>
	</g>
	<g>
		<g>
			<path class="st0" d="M1044.1,132c0.2-0.1,0.2-0.4,0.2-0.5C1044.1,131.4,1044.3,131.8,1044.1,132z M1043.9,60.5
				c0,0.2-0.1,0.3-0.2,0.3c-0.2-0.2-0.2-0.4-0.3-0.7C1043.8,59.9,1043.7,60.5,1043.9,60.5z M1043.8,133.4c-0.2,0.1-0.1,0.5-0.3,0.5
				c0.2-0.3,0.1-0.6,0.2-0.8C1043.8,133.1,1043.7,133.4,1043.8,133.4z M1042.6,140.5c0.2,0.6-0.2,1.4-0.2,1.9
				C1042.3,141.8,1042.6,141.2,1042.6,140.5z M1042.3,143.8c-0.2-0.5,0-1.8,0-0.6C1042.3,143.3,1042.3,143.6,1042.3,143.8z
				 M1040.6,136c0.2,0.1,0.1,0.7,0,0.8C1040.5,136.6,1040.6,136.4,1040.6,136z M1040.5,139.1c-0.2,0.1-0.2-0.2-0.2-0.5
				C1040.4,138.8,1040.5,138.9,1040.5,139.1z M1040.1,134.2c-0.2,0,0.1-0.5-0.2-0.5C1040.1,133.3,1040.2,134.1,1040.1,134.2z
				 M1038.4,122.5c-0.3-0.1-0.2-0.9-0.1-1.1C1038.4,121.7,1038.4,122.1,1038.4,122.5z M1046.2,75.5c-0.2-0.2-0.2-0.5-0.2-0.8
				C1046.2,74.9,1046.2,75.1,1046.2,75.5z M1045.1,67.4L1045.1,67.4c-0.2,1.5-0.1,3.6-0.2,4.7c0-2.2-0.1-4.4,0.4-6
				c0.2-0.9,0.7-1.7,0.2-2.6c0.2,0.1,0.5,0.5,0.5,0.7c0.2,0.9-0.7,1.8-0.7,2.7c0,0.5,0.2,0.6,0.2,1.2
				C1045.2,67.9,1045.2,67.7,1045.1,67.4z M1043.7,132.9c-0.3,0-0.1-0.4-0.1-0.5c-0.1,0.2-0.3,0.2-0.2,0.5c-0.1-0.2-0.2-0.2-0.2-0.4
				c-0.4,0.9-0.2,1.2-0.3,1.9c-0.1,0-0.1-0.2-0.2-0.2c-0.2,0.6-0.2,1.7-0.1,2.6c-0.2,0-0.2-0.2-0.2-0.5c-0.2,0.1-0.1,0.9-0.3,0.5
				c0,0.6,0.2,0.5,0.1,1.2c-0.2-0.6-0.3-0.8-0.3-1.6c-0.1,0.1-0.1,0.3-0.2,0.5c-0.2-0.2,0.1-0.4,0-0.6c-0.3,1.1-0.3,2.3-0.3,3.6
				c-0.1-0.4-0.2-1.1-0.2-1.8c-0.2,0.5-0.2,1.2-0.2,1.7c-0.2-0.5-0.2,0.1-0.2,0.4c-0.1-2.9-0.2-3.8-0.3-7c0,0.5-0.1,0.9,0,1.4
				c0,0.2-0.2,0.3-0.2,0.1c-0.1,0.1,0.2,0.5-0.1,0.5c-0.5-0.4-0.2-1.6-0.5-2.3c-0.1,0.1-0.1,0.3-0.3,0.2c0,0.4,0.3-0.2,0.2,0.5
				c-0.5-0.5-0.2-1.3-0.3-1.7c0-0.5-0.2-0.9-0.1-1.6c-0.3,0.4-0.1,1.4-0.2,2c-0.1,0.2-0.1-0.1-0.1-0.2c-0.1-1.2-0.2-3.3-0.2-4.4
				c-0.3,0.5-0.1,1-0.1,1.8c-0.1,0-0.1-0.2-0.1-0.3c-0.2,1.2,0,3.6,0.2,5.1c0.1,0.5,0.2,0.8,0.3,1.2c0,0.4,0,1.3,0.3,1.6
				c-0.2,0.5,0,0.8,0.2,1.2c-0.2,0-0.2-0.2-0.2,0c-0.1,0.3,0.2,0.2,0.3,0.3c-0.1,0.2-0.3,0.5-0.1,0.7c-0.3-0.1,0,0.6,0.1,1.2
				c0.1-0.2,0.1-0.5,0.2-0.6c0.2,0.9,0,1.6,0,2.7c-0.2-0.6,0-1.7,0-2.5c-0.2,0.1-0.2,0.6-0.2,1c-1.3-3.9-2.1-11-2-16.2
				c0.4,0,0.5-1.1,0.5-1.8c0.2,0.2,0.2,0.1,0.4,0.3c-0.1,0.2,0.1,0.5,0,0.9c0.2-0.4,0-1.6,0.1-2.3c-0.2,0,0,0.3-0.1,0.5
				s-0.1-0.7-0.2-0.9c-0.2,0.6-0.1,0.9-0.1,1.5c-0.4-0.2,0.1-1.7-0.2-2.3c0.1-0.3,0.2,0.1,0.2,0.3c0.1-0.9,0.2-1.8,0.1-2.6
				c-0.1,0.3-0.1,1.1-0.1,1.9c-0.3-0.5,0.1-1.6-0.1-2.6c0.2-0.1,0.2,0.2,0.2,0.5c0.2-0.2,0-0.6-0.2-0.6c0.1-0.3,0.1-0.6-0.1-0.9
				c0.2,1.4-0.4,2.8-0.2,4.1c0.1,0,0.1-0.2,0.1-0.4c0.2,0.2,0,1,0.1,1.7c-0.1-0.1-0.1-0.2-0.2-0.3c-0.2,0.5,0.1,1.6-0.2,2.3
				c-0.1-3.4-0.2-6.8,0.2-10.2c0.3,0.5,0.1,1.6,0.3,2.3c0.1-0.3,0.1-1.5,0.1-1.9c0.3,0.5-0.1,1.8,0.2,2.7c0.2-4.1,0.2-7.6-0.1-12.1
				c-0.1,1.8,0.1,3,0.1,4.5c-0.1-0.1-0.2-0.2-0.2-0.3c-0.1,0.9,0.1,2.9-0.1,3.9c-0.2-0.1,0-0.5-0.1-0.7c-0.1,0.5-0.2,0.9-0.2,1.6
				c-0.4-2.3-0.4-4.8-0.7-7.3c0.1-0.1,0.1-0.3,0.3-0.2c0.1-5.6-0.3-11.5,0-16.4c0-0.2-0.2-0.2-0.2-0.4c0.4-2.8-0.4-6.2,0.1-9.5
				c0.2-0.9-0.2-2,0.2-2.8c-0.2-2.6-0.4-6.7,0.3-8.7V68c0.2-0.2,0.3-0.3,0.4-0.5c-0.3-0.5,0-1.2,0.2-1.9c-0.1-0.2-0.2-0.2-0.3-0.2
				c0.2,0.4,0,0.2,0,0.8c-0.1,0.1-0.1-0.7-0.2-1c0.2,0.2,0.4-0.2,0.4,0.2c0.2-0.5,0.3-1.2,0.2-2c0.2,0.1,0,0.2,0.2,0.4
				c0.2-0.5,0.5-0.8,0.2-1.5c0.5,0.2,0.5-1.3,1.2-1c0.2,0,0-0.3,0.1-0.5c0.3,0.2,0.5-0.7,1.1-0.5c0,0.6,1,0.6,1.4,1.1
				c0.2-0.1-0.2-0.5,0.2-0.4c-0.1,0.5,0.4,1,0.5,1.5s-0.2,0.7-0.3,1.1c0.3,0.9,0.6,1.3,0.5,2.3c0,0.2-0.1,0.5-0.1,0.6
				s0.2,0.3,0.2,0.3c0,0.1-0.2,0.3-0.2,0.5c0,0.3,0.3,0.5,0.3,0.7s-0.2,0.5-0.2,0.7c0,0.5,0.2,1.1,0.2,1.7c0.2,3.4,0,7.7,0.2,11.5
				c0.1,1,0.1,2.2,0.1,3.2c-0.1,4.2,0,8.4,0.2,12.7c0,0.2-0.1,1-0.1,1.6c0.2,8.1,0.5,18.8,0.3,27.7c-0.2,0.1-0.1,0.3-0.2,0.1
				c0,0.2,0.1,0.2,0.2,0.2c-0.1,0.5-0.2,0.5-0.2,0.9c-0.2,1-0.2,2.7-0.6,3.2c0.2-1.6,0.5-3.4,0.5-5c-0.5,1-0.3,2.8-0.9,3.6
				c0.2,0.5-0.2,0.9,0.1,1.2C1043.4,131.1,1043.8,132.4,1043.7,132.9z M1041.2,138.9V138C1041,137.8,1041.2,138.9,1041.2,138.9z
				 M1040.6,133.9c0.2,0.3-0.1,0.5,0.2,0.5C1040.6,134.2,1040.9,133.9,1040.6,133.9z M1044.9,123.6c0-0.5-0.2-0.5,0-0.7
				C1044.7,122.8,1044.9,123.6,1044.9,123.6z M1044.9,124.7c-0.1-0.2,0.1-0.5-0.1-0.6C1044.8,124.1,1044.9,124.6,1044.9,124.7z
				 M1039.1,65.1c0,0.5-0.3,1.3,0.2,1.4C1039.3,65.9,1039.3,65.4,1039.1,65.1z M1043.6,134.2c0.1,0.2-0.2,0.2,0,0.5
				c-0.2,0.1-0.1-0.4-0.2-0.5C1043.5,134.3,1043.6,134.3,1043.6,134.2z M1042.9,135.7C1043,135.7,1042.9,135.7,1042.9,135.7
				c-0.2-0.1-0.2-0.5-0.2-0.7C1043,135,1042.7,135.6,1042.9,135.7z M1040.6,138.2c-0.2-0.1,0-0.5-0.2-0.6
				C1040.6,137.4,1040.6,138,1040.6,138.2z M1039.7,61.4c0.1,0.2-0.3,1-0.5,0.9C1039.4,62,1039.6,61.7,1039.7,61.4z"/>
		</g>
	</g>
	<g>
		<g>
			<path class="st0" d="M1034.1,62.2c0.2,0.2,0.4-0.1,0.5-0.2C1034.4,61.8,1034.4,62.3,1034.1,62.2z M1086,21.6
				c-0.2,0-0.3,0.2-0.4,0c0.1-0.2,0.2-0.4,0.4-0.6C1086.4,21.2,1085.8,21.4,1086,21.6z M1032.8,62.7c-0.2-0.2-0.5,0.2-0.5,0.1
				c0.3-0.2,0.5-0.4,0.6-0.4C1033,62.4,1032.7,62.6,1032.8,62.7z M1026.9,65.9c-0.3,0.5-1.2,0.7-1.4,1.1
				C1025.8,66.6,1026.5,66.4,1026.9,65.9z M1024.4,67.7c0.3-0.5,1.3-1.1,0.5-0.4C1024.7,67.4,1024.5,67.7,1024.4,67.7z M1028.9,61.8
				c0,0.2-0.5,0.5-0.5,0.5C1028.4,62.1,1028.7,62,1028.9,61.8z M1026.6,63.6c-0.2-0.2,0-0.3,0.2-0.4
				C1026.8,63.3,1026.7,63.4,1026.6,63.6z M1029.9,60.3c-0.1-0.2,0.5-0.3,0.3-0.5C1030.5,59.8,1030,60.4,1029.9,60.3z M1037.2,52.2
				c-0.2-0.3,0.5-0.6,0.7-0.6C1037.6,51.7,1037.4,51.9,1037.2,52.2z M1076.3,31.7c0-0.2,0.4-0.5,0.5-0.5
				C1076.7,31.3,1076.6,31.5,1076.3,31.7z M1081.7,26.4C1081.7,26.3,1081.6,26.3,1081.7,26.4c-1.2,0.6-2.7,1.9-3.5,2.3
				c1.6-1.3,3.2-2.5,4.7-3c0.9-0.4,1.7-0.4,2-1.3c0,0.2-0.1,0.5-0.3,0.9c-0.5,0.5-1.8,0.4-2.5,0.9c-0.5,0.3-0.4,0.5-0.8,0.7
				C1081.3,26.8,1081.5,26.6,1081.7,26.4z M1033.1,62.4c-0.2-0.2,0.3-0.2,0.3-0.4c-0.2,0-0.3,0-0.5,0.2c0.1-0.2,0-0.2,0.2-0.4
				c-0.9,0.2-0.9,0.5-1.6,0.9c0-0.1,0.2-0.2,0.1-0.2c-0.5,0.3-1.5,0.9-1.9,1.4c-0.1-0.2,0.1-0.2,0.2-0.4c-0.2-0.2-0.6,0.5-0.5,0
				c-0.5,0.5-0.3,0.5-0.8,0.7c0.4-0.5,0.4-0.7,0.9-1.1c-0.2-0.1-0.3,0.2-0.5,0.2c0-0.2,0.4-0.2,0.5-0.4c-0.9,0.5-1.8,1.1-2.7,1.8
				c0.2-0.2,0.7-0.8,1.3-1.2c-0.5,0.2-0.9,0.6-1.4,0.9c0.3-0.5-0.2-0.1-0.5,0.1c2-1.7,2.7-2.3,4.8-4.3c-0.5,0.3-0.7,0.5-1,0.8
				c-0.1,0.1-0.4,0.1-0.2-0.2c-0.1-0.1-0.2,0.4-0.5,0.3c0-0.5,1.1-1.2,1.4-1.7c-0.1-0.1-0.2,0.1-0.3-0.1c-0.3,0.2,0.3,0.1-0.2,0.4
				c0-0.6,0.6-0.9,1.1-1.3c0.4-0.3,0.6-0.6,1.1-1c-0.5,0-1,0.7-1.6,1.1c-0.2,0.1,0-0.1,0.1-0.2c0.8-0.7,2.3-2,3-2.7
				c-0.5,0-0.7,0.5-1.3,0.9c0-0.1,0.1-0.2,0.2-0.2c-0.9,0.5-2.7,2-3.6,3.2c-0.2,0.3-0.5,0.6-0.6,0.9c-0.3,0.2-0.9,0.7-0.9,1.3
				c-0.5,0.2-0.5,0.5-0.7,0.8c-0.1-0.1,0-0.2-0.1-0.2c-0.3,0.2,0,0.2,0,0.4c-0.2,0.1-0.5,0.2-0.5,0.4c-0.2-0.3-0.5,0.4-0.8,0.7
				c0.2,0,0.5-0.3,0.6-0.2c-0.5,0.6-1.2,0.9-1.8,1.6c0.4-0.5,1.2-1,1.7-1.5c-0.2-0.2-0.5,0.3-0.8,0.5c2-3.4,6.5-8.1,10.4-11.1
				c0.2,0.3,1.1-0.2,1.6-0.6c-0.1,0.2,0.1,0.2,0.1,0.5c-0.2,0-0.3,0.4-0.6,0.5c0.4-0.1,1.1-0.9,1.7-1.3c-0.1-0.2-0.3,0.2-0.4,0.2
				c-0.2,0,0.5-0.5,0.5-0.6c-0.5,0.2-0.7,0.5-1.1,0.8c-0.2-0.4,1.3-0.9,1.6-1.5c0.3-0.2,0,0.2-0.2,0.2c0.6-0.5,1.5-0.9,1.9-1.4
				c-0.2,0.1-0.8,0.5-1.4,1.1c0.2-0.5,1.3-0.9,1.7-1.6c0.2,0.2,0,0.3-0.2,0.4c0.3,0,0.5-0.4,0.4-0.5c0.3-0.2,0.5-0.4,0.5-0.5
				c-0.9,0.9-2.3,1.4-3.1,2.3c0.1,0.1,0.2-0.1,0.3-0.2c0.1,0.3-0.7,0.5-1.2,1c0-0.1,0.1-0.2,0.2-0.2c-0.5,0.2-1.2,1-1.7,1.3
				c2.5-2,4.8-4.1,7.5-5.9c-0.2,0.5-1.1,1-1.5,1.6c0.3-0.2,1.2-0.8,1.4-1.1c-0.2,0.5-1.3,0.9-1.8,1.6c3.1-2.3,5.6-4.2,8.8-7
				c-1.4,1.2-2.2,2-3.2,2.8c0-0.1,0-0.2,0.2-0.2c-0.7,0.5-2,1.7-2.8,2.2c0-0.2,0.3-0.4,0.5-0.5c-0.4,0.2-0.7,0.5-1.3,0.8
				c1.5-1.6,3.2-3,4.8-4.8c0.1,0.1,0.3-0.2,0.3,0.1c4.1-3.2,8.2-6.8,12-9.3c0.2-0.1,0.1-0.2,0.2-0.4c2.3-1.3,4.5-3.8,7-5.3
				c0.8-0.5,1.4-1.4,2.2-1.5c1.7-1.6,4.8-4.1,6.6-4.6l0.5-0.5c0.2,0,0.4,0.1,0.6,0c0.2-0.5,0.9-0.6,1.6-0.9c0.1-0.1,0.1-0.2-0.1-0.3
				c0,0.4-0.2,0.1-0.5,0.5c-0.1,0,0.5-0.5,0.6-0.6c-0.1,0.2,0.4,0.2,0.2,0.5c0.5-0.1,1-0.4,1.6-0.9c0,0.2-0.2,0.1-0.2,0.3
				c0.5-0.2,0.9-0.1,1.3-0.5c0.2,0.5,1.1-0.4,1.5,0.4c0.1,0.2,0.3-0.2,0.4-0.2c0.2,0.4,0.8,0,0.9,0.5c-0.5,0.4,0.2,1.2,0,1.7
				c0.2,0.2,0.2-0.4,0.4-0.2c-0.5,0.3-0.5,0.8-0.7,1.3c-0.4,0.4-0.7,0.2-0.9,0.4c-0.5,0.7-0.5,1.2-1.4,1.8c-0.2,0.1-0.4,0.2-0.5,0.3
				c-0.2,0.1-0.2,0.2-0.2,0.2c-0.1,0.1-0.3,0.1-0.5,0.2c-0.2,0.2-0.2,0.5-0.4,0.6c-0.2,0.2-0.5,0.2-0.6,0.3c-0.5,0.3-0.8,0.6-1.2,1
				c-2.5,2-5.6,4.1-8.3,6.5c-0.7,0.5-1.6,1.3-2.3,1.8c-3.1,2.3-6.1,4.7-9.2,7.2c-0.1,0.1-0.7,0.5-1.3,0.9
				c-5.8,4.8-13.4,11.3-19.9,16.2c-0.2-0.1-0.2,0.1-0.2-0.2c-0.2,0.1-0.1,0.2-0.1,0.2c-0.5,0.2-0.5,0.2-0.9,0.4
				c-0.9,0.5-2,1.4-2.7,1.4c1.3-0.7,2.8-1.6,3.9-2.5c-1,0.3-2.2,1.4-3.1,1.4c-0.3,0.5-0.8,0.3-0.8,0.7
				C1034.2,61.2,1033.7,62.3,1033.1,62.4z M1027.3,64l0.6-0.5C1027.9,63.3,1027.3,64,1027.3,64z M1030.4,60.5
				c-0.2,0.2-0.4,0.2-0.3,0.5C1030.3,60.9,1030.6,60.8,1030.4,60.5z M1040.6,58c0.3-0.2,0.2-0.3,0.5-0.5
				C1040.9,57.3,1040.6,57.8,1040.6,58z M1039.8,58.5c0.2-0.2,0.5-0.3,0.4-0.5C1040.1,58.1,1039.8,58.4,1039.8,58.5z M1079.8,20.3
				c-0.4,0.2-1.2,0.5-0.9,0.9C1079.3,20.8,1079.6,20.4,1079.8,20.3z M1032.1,63c-0.1,0.2-0.2,0-0.4,0.4
				C1031.6,63.3,1032,63.2,1032.1,63C1032,63,1032,63.1,1032.1,63z M1030.6,63.4C1030.6,63.5,1030.5,63.5,1030.6,63.4
				c0-0.2,0.2-0.3,0.5-0.5C1031.2,63.2,1030.6,63.2,1030.6,63.4z M1027.4,63.2c-0.1-0.2,0.4-0.4,0.4-0.5
				C1028,62.7,1027.5,63,1027.4,63.2z M1082.9,18.6c-0.2,0.2-0.9,0.4-0.9,0.2C1082.3,18.6,1082.6,18.8,1082.9,18.6z"/>
		</g>
	</g>
	<g>
		<g>
			<path class="st0" d="M1096,26.7c-0.1,0.2,0.2,0.3,0.2,0.5C1096.5,26.9,1096.1,26.9,1096,26.7z M1146.1,65c-0.1-0.2-0.2-0.2,0-0.4
				c0.2,0,0.5,0.1,0.6,0.2C1146.6,65.2,1146.3,64.7,1146.1,65z M1095.3,25.7c0.1-0.2-0.3-0.4-0.2-0.5c0.2,0.2,0.5,0.4,0.5,0.5
				C1095.5,25.8,1095.3,25.6,1095.3,25.7z M1090.6,21.2c-0.5-0.2-0.9-0.9-1.3-1C1089.8,20.3,1090.1,20.8,1090.6,21.2z M1088.3,19.4
				c0.5,0.2,1.4,0.8,0.5,0.3C1088.7,19.5,1088.5,19.4,1088.3,19.4z M1095.1,21.7c-0.2,0.1-0.5-0.3-0.5-0.4
				C1094.6,21.4,1094.8,21.5,1095.1,21.7z M1092.8,20.1c0.1-0.2,0.2-0.1,0.5,0.1C1093.1,20.2,1092.9,20.1,1092.8,20.1z M1096.6,22.2
				c0.1-0.2,0.4,0.4,0.5,0.2C1097.3,22.6,1096.7,22.4,1096.6,22.2z M1106.2,26.6c0.2-0.3,0.8,0.3,0.8,0.5
				C1106.8,27,1106.4,26.9,1106.2,26.6z M1134.6,58.2c0.2-0.1,0.5,0.3,0.7,0.3C1135.1,58.4,1134.8,58.4,1134.6,58.2z M1140.7,62
				C1140.7,62,1140.7,61.9,1140.7,62c-0.9-0.9-2.4-2.1-3-2.7c1.5,1.3,3,2.4,3.8,3.8c0.5,0.7,0.6,1.6,1.6,1.6c-0.2,0.2-0.5,0.1-0.8,0
				c-0.6-0.4-0.7-1.6-1.3-2.2c-0.3-0.4-0.6-0.2-0.9-0.5C1140.4,61.6,1140.5,61.9,1140.7,62z M1095.6,25.8c0.1-0.2,0.4,0.2,0.5,0.2
				c-0.1-0.2,0-0.3-0.3-0.5c0.2,0,0.2-0.2,0.4,0.1c-0.5-0.7-0.7-0.6-1.3-1.2c0.1-0.1,0.2,0,0.2-0.1c-0.4-0.5-1.1-1.1-1.8-1.3
				c0.1-0.2,0.2,0,0.5,0.2c0-0.2-0.6-0.5-0.2-0.5c-0.5-0.4-0.5-0.2-0.9-0.5c0.5,0.2,0.7,0.2,1.3,0.5c0-0.2-0.2-0.2-0.2-0.3
				c0.2-0.2,0.3,0.2,0.5,0.3c-0.6-0.7-1.6-1.4-2.5-2c0.3,0.1,0.9,0.5,1.5,0.8c-0.2-0.3-0.8-0.6-1.2-1c0.5,0.2,0-0.2-0.1-0.4
				c2.2,1.4,2.8,1.8,5.3,3.2c-0.5-0.3-0.5-0.5-1-0.6c-0.1,0-0.1-0.3,0-0.2c0-0.2-0.5-0.1-0.4-0.4c0.5-0.2,1.4,0.6,2,0.8
				c0-0.1-0.2-0.2,0-0.3c-0.3-0.2,0,0.3-0.5-0.1c0.5-0.2,1,0.5,1.4,0.5c0.4,0.2,0.7,0.4,1.3,0.7c-0.1-0.4-0.9-0.7-1.4-1.1
				c-0.1-0.2,0.1-0.1,0.2,0c0.9,0.5,2.6,1.5,3.4,2c-0.2-0.5-0.6-0.5-1.3-0.9c0.1-0.1,0.2,0,0.2,0.1c-0.8-0.6-2.6-1.8-3.8-2.4
				c-0.5-0.2-0.7-0.2-1.1-0.4c-0.3-0.2-0.9-0.6-1.4-0.5c-0.3-0.5-0.5-0.4-0.9-0.5c0-0.1,0.2-0.1,0.1-0.2c-0.2-0.2-0.2,0.2-0.4,0.1
				c-0.1-0.1-0.2-0.5-0.5-0.5c0.2-0.2-0.5-0.3-0.9-0.5c0.1,0.2,0.4,0.4,0.3,0.5c-0.8-0.2-1.3-0.8-2-1.3c0.5,0.2,1.3,0.8,1.8,1.2
				c0-0.2-0.4-0.5-0.6-0.6c3.7,0.8,9.4,3.7,13.1,6.5c-0.2,0.3,0.5,0.9,1,1.4c-0.2,0-0.2,0.2-0.4,0.2c-0.1-0.2-0.5-0.2-0.6-0.5
				c0.2,0.3,1.2,0.8,1.6,1.3c0.1-0.2-0.2-0.2-0.4-0.3c-0.1-0.2,0.5,0.4,0.8,0.3c-0.4-0.5-0.5-0.5-1-0.8c0.3-0.2,1.3,0.9,1.6,1.1
				c0.2,0.2-0.2,0.2-0.3,0c0.5,0.5,1.3,1.1,1.8,1.3c-0.2-0.2-0.7-0.5-1.3-1c0.5,0.1,1.2,0.9,1.9,1.3c-0.1,0.2-0.2,0.1-0.5-0.1
				c0,0.3,0.5,0.4,0.5,0.2c0.2,0.2,0.5,0.5,0.6,0.5c-1-0.6-1.8-1.6-2.9-2.3c0,0.1,0.2,0.2,0.3,0.2c-0.2,0.2-0.7-0.5-1.3-0.8
				c0.1,0,0.2,0,0.3,0c-0.3-0.5-1.3-0.8-1.6-1.3c2.5,1.6,5,3.3,7.3,5.4c-0.5-0.1-1.3-0.7-1.8-0.9c0.2,0.2,1,0.9,1.3,1
				c-0.6-0.1-1.3-1-2-1.3c2.9,2.3,5.4,4.1,8.8,6.3c-1.3-1-2.3-1.6-3.3-2.4c0.1-0.1,0.2-0.1,0.3,0c-0.6-0.5-2.1-1.5-2.7-2.1
				c0.2-0.1,0.5,0.3,0.5,0.4c-0.2-0.3-0.6-0.5-1.1-0.9c2,0.9,3.7,2.2,5.7,3.3c0,0.1,0.2,0.2,0,0.3c4,3,8.4,5.9,11.6,8.9
				c0.2,0.1,0.2-0.1,0.4,0.1c1.7,1.8,4.6,3.2,6.6,5.3c0.5,0.6,1.6,0.9,1.8,1.6c1.9,1.3,4.8,3.6,5.8,5.2l0.5,0.5
				c0.1,0.2-0.1,0.4,0.2,0.5c0.5,0.1,0.8,0.6,1.3,1.2c0.2,0,0.2,0,0.3-0.1c-0.4,0-0.2-0.2-0.5-0.5c0-0.1,0.5,0.3,0.7,0.5
				c-0.2,0-0.2,0.5-0.4,0.2c0.2,0.5,0.5,0.9,1.3,1.3c-0.2,0.2-0.2-0.1-0.4-0.2c0.2,0.4,0.2,0.9,0.8,1.1c-0.5,0.3,0.5,1-0.1,1.5
				c-0.1,0.1,0.2,0.2,0.2,0.3c-0.3,0.2,0.2,0.7-0.5,1c-0.5-0.4-1.1,0.4-1.6,0.5c-0.1,0.2,0.5,0.2,0.2,0.3c-0.4-0.5-0.9-0.4-1.3-0.4
				c-0.5-0.3-0.4-0.5-0.5-0.9c-0.8-0.3-1.3-0.2-2-0.9c-0.2-0.2-0.2-0.3-0.4-0.5c-0.2-0.1-0.3,0-0.3,0c-0.1-0.1-0.2-0.2-0.2-0.3
				c-0.2-0.2-0.5-0.1-0.7-0.2s-0.3-0.5-0.4-0.5c-0.4-0.4-0.8-0.5-1.3-0.9c-2.4-1.8-5.2-4.3-7.9-6.2c-0.7-0.5-1.6-1.2-2.2-1.6
				c-2.8-2.3-5.8-4.6-8.9-6.8c-0.1-0.1-0.6-0.5-1.2-0.9c-5.9-4.1-13.6-9.5-19.9-14.1c0-0.2-0.2-0.2,0-0.2c-0.2-0.1-0.2,0-0.2,0.1
				c-0.2-0.3-0.2-0.3-0.5-0.6c-0.5-0.7-1.8-1.5-2-2.1c1.1,0.9,2.2,2.2,3.3,3c-0.5-0.9-1.8-1.6-2-2.6c-0.5-0.2-0.5-0.5-0.9-0.5
				C1097.1,26.5,1095.8,26.2,1095.6,25.8z M1092.5,20.8l0.6,0.5C1093.3,21.2,1092.4,20.8,1092.5,20.8z M1096.6,22.7
				c-0.3,0-0.2-0.3-0.5-0.2C1096.4,22.7,1096.5,22.9,1096.6,22.7z M1101.7,31.5c0.3,0.2,0.4,0.2,0.5,0.4
				C1102.3,31.7,1101.8,31.5,1101.7,31.5z M1100.9,31.1c0.2,0.1,0.4,0.4,0.5,0.3C1101.4,31.2,1101,31,1100.9,31.1z M1146.1,58.7
				c-0.3-0.2-0.7-0.9-1-0.7C1145.6,58.2,1145.9,58.7,1146.1,58.7z M1094.7,25.1c-0.2,0-0.2-0.2-0.5-0.3
				C1094.3,24.7,1094.5,24.9,1094.7,25.1C1094.7,25,1094.6,25,1094.7,25.1z M1093.9,23.8C1093.9,23.9,1093.9,23.8,1093.9,23.8
				c0.1-0.1,0.4,0.2,0.5,0.3C1094.4,24.4,1094.3,23.7,1093.9,23.8z M1093.3,20.7c0.2-0.2,0.5,0.3,0.5,0.2
				C1093.9,21.2,1093.5,20.8,1093.3,20.7z M1148.3,61.3c-0.2-0.1-0.5-0.8-0.4-0.9C1148.2,60.7,1148.2,61,1148.3,61.3z"/>
		</g>
	</g>
</g>
<path class="st1" d="M1092.1,126.2c150.9,0,205.3,119.1,56.1,96.6c-127.5-19.2-64.6,26.8-169.6,28.1
	C827.8,252.8,941.2,126.2,1092.1,126.2z"/>
<title>best place</title>
<path class="st2" d="M815,352.4l-1.3-0.3c14-63.4,49-121,98.6-162.1c122.2-101.1,301.2-81.6,400,43.3c27.2,34.5,46.4,74.8,56.1,118
	l-1.2,0.3c-29.6-132.5-143-225.1-276.1-225.1C959.9,126.5,843.8,221.6,815,352.4z"/>
<rect x="1284.4" y="300.1" class="st3" width="1.3" height="50.6"/>
<path class="st0" d="M1297.4,306.6c0.1,17.7-12.4,32.1-12.4,32.1s-12.5-14.3-12.7-31.9c-0.1-17.7,12.4-32.1,12.4-32.1
	S1297.4,288.8,1297.4,306.6z"/>
<path class="st4" d="M1297.4,306.6c0.1,17.7-12.4,32.1-12.4,32.1s-12.5-14.3-12.7-31.9c-0.1-17.7,12.4-32.1,12.4-32.1
	S1297.4,288.8,1297.4,306.6z"/>
<path class="st3" d="M758.9,344c1.1,4,4.8,6.5,4.8,6.5s2-4,0.9-8s-4.8-6.5-4.8-6.5S757.8,340,758.9,344z"/>
<path class="st0" d="M760.5,343.2c2.9,2.8,3.3,7.3,3.3,7.3s-4.5-0.3-7.4-3.1c-2.9-2.8-3.3-7.3-3.3-7.3S757.5,340.2,760.5,343.2z"/>
<path class="st3" d="M1150.8,345.1c1.1,4,4.8,6.5,4.8,6.5s2-4,0.9-8c-1.1-3.9-4.8-6.5-4.8-6.5S1149.7,341.1,1150.8,345.1z"/>
<path class="st0" d="M1152.5,344.3c2.9,2.8,3.3,7.3,3.3,7.3s-4.5-0.3-7.4-3.1c-2.9-2.8-3.3-7.3-3.3-7.3S1149.4,341.3,1152.5,344.3z"
	/>
<polygon class="st3" points="766.2,314.9 763.6,310.5 788.3,289.4 852,289.4 852,295.5 829,320.2 802.5,325.5 "/>
<polygon class="st2" points="862.9,301.7 862.9,287.9 854.5,287.9 854.5,292.3 852,289.4 830.7,310.5 827.2,314.1 822.8,331.6 
	830.7,351.1 871.4,351.1 871.4,311.3 "/>
<rect x="763.6" y="310.5" class="st5" width="67.2" height="40.6"/>
<rect x="807.3" y="323.3" class="st3" width="14.2" height="12.4"/>
<rect x="789.2" y="322.9" class="st2" width="12.4" height="28.3"/>
<polygon class="st3" points="775.1,326.2 775.1,321.9 769.8,321.9 769.8,326.2 774.6,326.2 "/>
<polygon class="st3" points="774.6,329.7 769.8,329.7 769.8,334.2 775.1,334.2 775.1,329.7 "/>
<rect x="778.6" y="322.9" class="st3" width="5.3" height="4.4"/>
<rect x="778.6" y="330.8" class="st3" width="5.3" height="4.4"/>
<polygon class="st3" points="849.8,327.7 849.8,323.3 844.5,323.3 844.5,327.7 849.3,327.7 "/>
<polygon class="st3" points="849.3,331.3 844.5,331.3 844.5,335.7 849.8,335.7 849.8,331.3 "/>
<rect x="853.2" y="323.3" class="st3" width="5.3" height="4.4"/>
<rect x="853.2" y="331.3" class="st3" width="5.3" height="4.4"/>
<polygon class="st3" points="1021.8,314.9 1019.2,310.5 1043.9,289.4 1107.4,289.4 1107.4,295.5 1084.6,320.2 1058,325.5 "/>
<polygon class="st2" points="1118.4,301.7 1118.4,287.9 1110.1,287.9 1110.1,292.3 1107.4,289.4 1086.3,310.5 1082.7,314.1 
	1078.3,331.6 1086.3,351.1 1126.8,351.1 1126.8,311.3 "/>
<rect x="1019.2" y="310.5" class="st5" width="67.2" height="40.6"/>
<rect x="1063" y="323.3" class="st3" width="14.2" height="12.4"/>
<rect x="1044.9" y="322.9" class="st2" width="12.4" height="28.3"/>
<polygon class="st3" points="1030.6,327.3 1030.6,322.9 1025.5,322.9 1025.5,327.3 1030.2,327.3 "/>
<polygon class="st3" points="1030.2,330.8 1025.5,330.8 1025.5,335.3 1030.6,335.3 1030.6,330.8 "/>
<rect x="1034.1" y="322.9" class="st3" width="5.3" height="4.4"/>
<rect x="1034.1" y="330.8" class="st3" width="5.3" height="4.4"/>
<polygon class="st3" points="1105.2,327.7 1105.2,323.3 1100,323.3 1100,327.7 1104.9,327.7 "/>
<polygon class="st3" points="1104.9,331.3 1100,331.3 1100,335.7 1105.2,335.7 1105.2,331.3 "/>
<rect x="1108.9" y="323.3" class="st3" width="5.3" height="4.4"/>
<rect x="1108.9" y="331.3" class="st3" width="5.3" height="4.4"/>
<polygon class="st3" points="902.3,240.7 897.8,237.2 922.6,215.1 985.3,215.1 985.3,234.6 944.7,261.9 "/>
<polygon class="st2" points="996.7,227.5 996.7,215.5 988.4,215.5 988.4,218.5 985.3,215.1 965,237.2 957,242.5 944.7,332.6 
	963.3,351.1 1006.4,351.1 1006.4,238.1 "/>
<rect x="897.8" y="237.2" class="st5" width="67.2" height="113.9"/>
<rect x="923.9" y="323.3" class="st2" width="12.4" height="27.8"/>
<polygon class="st3" points="910.6,331.3 910.6,326.9 905.3,326.9 905.3,331.3 910.2,331.3 "/>
<polygon class="st3" points="910.2,334.8 905.3,334.8 905.3,339.2 910.6,339.2 910.6,334.8 "/>
<rect x="914.2" y="326.9" class="st3" width="5.3" height="4.4"/>
<rect x="914.2" y="334.8" class="st3" width="5.3" height="4.4"/>
<polygon class="st3" points="946.9,331.3 946.9,326.9 941.5,326.9 941.5,331.3 946.5,331.3 "/>
<polygon class="st3" points="946.5,334.8 941.5,334.8 941.5,339.2 946.9,339.2 946.9,334.8 "/>
<rect x="950.4" y="326.9" class="st3" width="5.3" height="4.4"/>
<rect x="950.4" y="334.8" class="st3" width="5.3" height="4.4"/>
<polygon class="st3" points="984,243 984,238.6 978.7,238.6 978.7,243 983.5,243 "/>
<polygon class="st3" points="983.5,246.5 978.7,246.5 978.7,250.9 984,250.9 984,246.5 "/>
<rect x="987.5" y="238.6" class="st3" width="5.3" height="4.4"/>
<rect x="987.5" y="246.5" class="st3" width="5.3" height="4.4"/>
<polygon class="st3" points="984,267.7 984,263.3 978.7,263.3 978.7,267.7 983.5,267.7 "/>
<polygon class="st3" points="983.5,271.3 978.7,271.3 978.7,275.6 984,275.6 984,271.3 "/>
<rect x="987.5" y="263.3" class="st3" width="5.3" height="4.4"/>
<rect x="987.5" y="271.3" class="st3" width="5.3" height="4.4"/>
<polygon class="st3" points="984,292.4 984,288 978.7,288 978.7,292.4 983.5,292.4 "/>
<polygon class="st3" points="983.5,296 978.7,296 978.7,300.4 984,300.4 984,296 "/>
<rect x="987.5" y="288" class="st3" width="5.3" height="4.4"/>
<rect x="987.5" y="296" class="st3" width="5.3" height="4.4"/>
<polygon class="st3" points="984,317.1 984,312.7 978.7,312.7 978.7,317.1 983.5,317.1 "/>
<polygon class="st3" points="983.5,320.7 978.7,320.7 978.7,325.1 984,325.1 984,320.7 "/>
<rect x="987.5" y="312.7" class="st3" width="5.3" height="4.4"/>
<rect x="987.5" y="320.7" class="st3" width="5.3" height="4.4"/>
<polygon class="st3" points="1160.4,240.7 1155.9,237.2 1180.6,215.1 1243.4,215.1 1243.4,234.6 1202.8,261.9 "/>
<polygon class="st2" points="1254.8,227.5 1254.8,215.5 1246.5,215.5 1246.5,218.5 1243.4,215.1 1223.1,237.2 1215.1,242.5 
	1202.8,332.6 1221.4,351.1 1264.5,351.1 1264.5,238.1 "/>
<rect x="1155.9" y="237.2" class="st5" width="67.2" height="113.9"/>
<rect x="1182.1" y="323.3" class="st2" width="12.4" height="27.8"/>
<polygon class="st3" points="1168.7,331.3 1168.7,326.9 1163.4,326.9 1163.4,331.3 1168.4,331.3 "/>
<polygon class="st3" points="1168.4,334.8 1163.4,334.8 1163.4,339.2 1168.7,339.2 1168.7,334.8 "/>
<rect x="1172.3" y="326.9" class="st3" width="5.3" height="4.4"/>
<rect x="1172.3" y="334.8" class="st3" width="5.3" height="4.4"/>
<polygon class="st3" points="1205,331.3 1205,326.9 1199.8,326.9 1199.8,331.3 1204.5,331.3 "/>
<polygon class="st3" points="1204.5,334.8 1199.8,334.8 1199.8,339.2 1205,339.2 1205,334.8 "/>
<rect x="1208.6" y="326.9" class="st3" width="5.3" height="4.4"/>
<rect x="1208.6" y="334.8" class="st3" width="5.3" height="4.4"/>
<polygon class="st3" points="1242,243 1242,238.6 1236.8,238.6 1236.8,243 1241.7,243 "/>
<polygon class="st3" points="1241.7,246.5 1236.8,246.5 1236.8,250.9 1242,250.9 1242,246.5 "/>
<rect x="1245.6" y="238.6" class="st3" width="5.3" height="4.4"/>
<rect x="1245.6" y="246.5" class="st3" width="5.3" height="4.4"/>
<polygon class="st3" points="1242,267.7 1242,263.3 1236.8,263.3 1236.8,267.7 1241.7,267.7 "/>
<polygon class="st3" points="1241.7,271.3 1236.8,271.3 1236.8,275.6 1242,275.6 1242,271.3 "/>
<rect x="1245.6" y="263.3" class="st3" width="5.3" height="4.4"/>
<rect x="1245.6" y="271.3" class="st3" width="5.3" height="4.4"/>
<polygon class="st3" points="1242,292.4 1242,288 1236.8,288 1236.8,292.4 1241.7,292.4 "/>
<polygon class="st3" points="1241.7,296 1236.8,296 1236.8,300.4 1242,300.4 1242,296 "/>
<rect x="1245.6" y="288" class="st3" width="5.3" height="4.4"/>
<rect x="1245.6" y="296" class="st3" width="5.3" height="4.4"/>
<polygon class="st3" points="1242,317.1 1242,312.7 1236.8,312.7 1236.8,317.1 1241.7,317.1 "/>
<polygon class="st3" points="1241.7,320.7 1236.8,320.7 1236.8,325.1 1242,325.1 1242,320.7 "/>
<rect x="1245.6" y="312.7" class="st3" width="5.3" height="4.4"/>
<rect x="1245.6" y="320.7" class="st3" width="5.3" height="4.4"/>
<polygon class="st3" points="1302,240.7 1297.5,237.2 1322.2,215.1 1384.9,215.1 1384.9,234.6 1344.3,261.9 "/>
<polygon class="st2" points="1396.5,227.5 1396.5,215.5 1388.1,215.5 1388.1,218.5 1384.9,215.1 1364.6,237.2 1356.7,242.5 
	1344.3,332.6 1362.9,351.1 1406.1,351.1 1406.1,238.1 "/>
<rect x="1297.5" y="237.2" class="st5" width="67.2" height="113.9"/>
<rect x="1323.6" y="323.3" class="st2" width="12.4" height="27.8"/>
<polygon class="st3" points="1310.3,331.3 1310.3,326.9 1305,326.9 1305,331.3 1309.8,331.3 "/>
<polygon class="st3" points="1309.8,334.8 1305,334.8 1305,339.2 1310.3,339.2 1310.3,334.8 "/>
<rect x="1313.9" y="326.9" class="st3" width="5.3" height="4.4"/>
<rect x="1313.9" y="334.8" class="st3" width="5.3" height="4.4"/>
<polygon class="st3" points="1346.6,331.3 1346.6,326.9 1341.3,326.9 1341.3,331.3 1346.2,331.3 "/>
<polygon class="st3" points="1346.2,334.8 1341.3,334.8 1341.3,339.2 1346.6,339.2 1346.6,334.8 "/>
<rect x="1350.1" y="326.9" class="st3" width="5.3" height="4.4"/>
<rect x="1350.1" y="334.8" class="st3" width="5.3" height="4.4"/>
<polygon class="st3" points="1383.7,243 1383.7,238.6 1378.3,238.6 1378.3,243 1383.2,243 "/>
<polygon class="st3" points="1383.2,246.5 1378.3,246.5 1378.3,250.9 1383.7,250.9 1383.7,246.5 "/>
<rect x="1387.2" y="238.6" class="st3" width="5.3" height="4.4"/>
<rect x="1387.2" y="246.5" class="st3" width="5.3" height="4.4"/>
<polygon class="st3" points="1383.7,267.7 1383.7,263.3 1378.3,263.3 1378.3,267.7 1383.2,267.7 "/>
<polygon class="st3" points="1383.2,271.3 1378.3,271.3 1378.3,275.6 1383.7,275.6 1383.7,271.3 "/>
<rect x="1387.2" y="263.3" class="st3" width="5.3" height="4.4"/>
<rect x="1387.2" y="271.3" class="st3" width="5.3" height="4.4"/>
<polygon class="st3" points="1383.7,292.4 1383.7,288 1378.3,288 1378.3,292.4 1383.2,292.4 "/>
<polygon class="st3" points="1383.2,296 1378.3,296 1378.3,300.4 1383.7,300.4 1383.7,296 "/>
<rect x="1387.2" y="288" class="st3" width="5.3" height="4.4"/>
<rect x="1387.2" y="296" class="st3" width="5.3" height="4.4"/>
<polygon class="st3" points="1383.7,317.1 1383.7,312.7 1378.3,312.7 1378.3,317.1 1383.2,317.1 "/>
<polygon class="st3" points="1383.2,320.7 1378.3,320.7 1378.3,325.1 1383.7,325.1 1383.7,320.7 "/>
<rect x="1387.2" y="312.7" class="st3" width="5.3" height="4.4"/>
<rect x="1387.2" y="320.7" class="st3" width="5.3" height="4.4"/>
<rect x="1305" y="243" class="st0" width="18.6" height="10.5"/>
<rect x="1305" y="264.1" class="st3" width="18.6" height="10.5"/>
<rect x="1305" y="285.3" class="st3" width="18.6" height="10.5"/>
<rect x="1305" y="306.5" class="st3" width="18.6" height="10.5"/>
<rect x="1337.3" y="243" class="st3" width="18.6" height="10.5"/>
<rect x="1337.3" y="264.1" class="st3" width="18.6" height="10.5"/>
<rect x="1337.3" y="285.3" class="st3" width="18.6" height="10.5"/>
<rect x="1337.3" y="306.5" class="st3" width="18.6" height="10.5"/>
<rect x="1162.9" y="243" class="st3" width="18.6" height="10.5"/>
<rect x="1162.9" y="264.1" class="st3" width="18.6" height="10.5"/>
<rect x="1162.9" y="285.3" class="st3" width="18.6" height="10.5"/>
<rect x="1162.9" y="306.5" class="st3" width="18.6" height="10.5"/>
<rect x="1195.2" y="243" class="st3" width="18.6" height="10.5"/>
<rect x="1195.2" y="264.1" class="st3" width="18.6" height="10.5"/>
<rect x="1195.2" y="285.3" class="st0" width="18.6" height="10.5"/>
<rect x="1195.2" y="306.5" class="st3" width="18.6" height="10.5"/>
<rect x="904.7" y="243" class="st3" width="18.6" height="10.5"/>
<rect x="904.7" y="264.1" class="st0" width="18.6" height="10.5"/>
<rect x="904.7" y="285.3" class="st3" width="18.6" height="10.5"/>
<rect x="904.7" y="306.5" class="st3" width="18.6" height="10.5"/>
<rect x="937" y="243" class="st3" width="18.6" height="10.5"/>
<rect x="937" y="264.1" class="st3" width="18.6" height="10.5"/>
<rect x="937" y="285.3" class="st3" width="18.6" height="10.5"/>
<rect x="937" y="306.5" class="st3" width="18.6" height="10.5"/>
<rect x="884" y="300.1" class="st3" width="1.3" height="50.6"/>
<path class="st0" d="M897.2,306.6c0.1,17.7-12.4,32.1-12.4,32.1s-12.5-14.3-12.7-31.9c-0.2-17.7,12.4-32.1,12.4-32.1
	S897,288.8,897.2,306.6z"/>
<rect x="1012.2" y="300.1" class="st3" width="1.3" height="50.6"/>
<path class="st0" d="M1025.3,306.6c0.1,17.7-12.4,32.1-12.4,32.1s-12.5-14.3-12.7-31.9c-0.1-17.7,12.4-32.1,12.4-32.1
	S1025.1,288.8,1025.3,306.6z"/>
<rect x="1267.7" y="300.1" class="st3" width="1.3" height="50.6"/>
<path class="st0" d="M1280.7,306.6c0.1,17.7-12.4,32.1-12.4,32.1s-12.5-14.3-12.7-31.9c-0.1-17.7,12.4-32.1,12.4-32.1
	S1280.7,288.8,1280.7,306.6z"/>
<g>
	<ellipse class="st0" cx="1090" cy="158.6" rx="23.3" ry="5.2"/>
	<path class="st0" d="M1116.4,85c0,14.9-27.1,57.3-27.1,57.3s-27.1-42.2-27.1-57.3c0-14.9,12.2-27.1,27.1-27.1
		C1104.2,57.9,1116.4,70,1116.4,85z"/>
	<circle class="st5" cx="1089.2" cy="85" r="15.4"/>
</g>
<g>
	<path class="st6" d="M1044.4,65.7"/>
</g>
</svg>
