<?xml version="1.0" encoding="utf-8"?>
<!-- Generator: Adobe Illustrator 19.0.0, SVG Export Plug-In . SVG Version: 6.00 Build 0)  -->
<svg version="1.1" id="b8eef085-bbb0-4c81-9a53-f8aa424b48dc"
	 xmlns="http://www.w3.org/2000/svg" xmlns:xlink="http://www.w3.org/1999/xlink" x="0px" y="0px" viewBox="-84 106 131 90"
	 style="enable-background:new -84 106 131 90;" xml:space="preserve">
<style type="text/css">
	.st0{fill:#EDEDED;enable-background:new    ;}
	.st1{fill:#E5E5E5;enable-background:new    ;}
</style>
<title>aircraft</title>
<path class="st0" d="M37.5,146.1L22,155.9l9.4-17.1c-2.7-2.1-6-3.3-9.4-3.4h-0.2c-1.1,0-2.2-0.1-3.2-0.2l-5.3,3.3l2.2-4.1
	c-3.7-1.3-6.9-3.8-9.2-7l-9.4,6l5.9-10.8c-5.5-6.6-12.9-10.7-21.1-10.7c-9.8,0-18.5,5.8-24.1,14.9c-3.4,5.5-9.5,8.8-16,8.6H-59
	c-10.8,0-19.6,12.2-19.6,27.4s8.8,27.4,19.6,27.4c2.4,0,4.7-0.6,6.8-1.7c7.4-3.6,16.1-3.8,23.7-0.5c6.4,2.9,13.7,2.9,20.1,0.1
	c7.5-3.3,16.1-3.1,23.5,0.4c2.1,1.1,4.4,1.7,6.8,1.7c10.8,0,19.6-12.2,19.6-27.4C41.6,157,40.1,151.2,37.5,146.1z"/>
<path class="st1" d="M8.2,186.1c-5.6-1.1-11.5-0.4-16.8,1.8c-6.4,2.9-13.7,2.9-20.1,0c-7.6-3.3-16.2-3.2-23.7,0.5
	c-2.1,1.1-4.4,1.7-6.8,1.7c-9.6,0-17.6-9.7-19.2-22.4c1.9-1.4,3.6-3.2,4.8-5.2c5.6-9.1,14.4-14.9,24.1-14.9c9.8,0,18.4,5.7,24,14.7
	c3.4,5.5,9.5,8.9,16,8.8h0.2C-1.6,171.1,5,177.2,8.2,186.1z"/>
</svg>
