<?xml version="1.0" encoding="utf-8"?>
<!-- Generator: Adobe Illustrator 19.0.0, SVG Export Plug-In . SVG Version: 6.00 Build 0)  -->
<svg version="1.1" id="Layer_1" xmlns="http://www.w3.org/2000/svg" xmlns:xlink="http://www.w3.org/1999/xlink" x="0px" y="0px"
	 viewBox="-83 -159 527 350" style="enable-background:new -83 -159 527 350;" xml:space="preserve">
<style type="text/css">
	.st0{fill:#808080;}
	.st1{fill:none;stroke:#000000;stroke-miterlimit:10;}
	.st2{fill:#FFFFFF;}
</style>
<rect x="-83" y="-159" class="st0" width="527" height="350"/>
<g>
	<path class="st1" d="M4,97.9"/>
</g>
<g>
	<g>
		<g>
			<path class="st2" d="M260.2,91.9c0.2-0.1,0.3-0.6,0.3-0.8C260.1,91,260.4,91.5,260.2,91.9z M260-18.8c-0.1,0.2-0.1,0.5-0.5,0.5
				c-0.2-0.3-0.3-0.6-0.5-1.1C259.6-19.7,259.4-18.8,260-18.8z M259.5,94c-0.3,0.1-0.1,0.8-0.5,0.8c0.2-0.5,0.1-1,0.2-1.2
				C259.5,93.5,259.4,94,259.5,94z M257.7,105c0.2,1-0.2,2.1-0.2,2.9C257.3,107.1,257.7,106.2,257.7,105z M257.3,110.1
				c-0.2-0.8,0-2.8,0-1C257.3,109.4,257.3,109.8,257.3,110.1z M254.7,98.1c0.2,0.1,0.1,1.1,0,1.2C254.4,99,254.5,98.6,254.7,98.1z
				 M254.4,102.9c-0.3,0.1-0.3-0.3-0.3-0.7C254.3,102.3,254.4,102.6,254.4,102.9z M254,95.2c-0.2,0,0.1-0.9-0.2-0.9
				C254,93.9,254.1,95.1,254,95.2z M251.2,77.2c-0.5-0.1-0.3-1.4-0.1-1.7C251.2,76,251.3,76.6,251.2,77.2z M263.5,4.5
				c-0.2-0.2-0.1-0.9-0.3-1.2C263.3,3.5,263.5,3.8,263.5,4.5z M261.8-8c-0.1,0-0.1,0-0.1,0.1c-0.2,2.1,0,5.4-0.2,7.1
				c0-3.4-0.1-6.8,0.6-9.4c0.3-1.5,1.1-2.7,0.2-3.9c0.3,0.1,0.7,0.7,0.8,1.1c0.2,1.4-1.1,2.8-1.1,4.3c0,0.8,0.3,1,0.2,1.8
				C261.9-7.3,261.9-7.7,261.8-8z M259.5,93.3c-0.5,0-0.1-0.6-0.1-0.9c-0.1,0.2-0.5,0.3-0.3,0.8c-0.1-0.2-0.3-0.2-0.3-0.6
				c-0.6,1.4-0.2,1.8-0.5,2.9c-0.1,0-0.1-0.2-0.2-0.3c-0.2,1-0.3,2.7-0.1,3.9c-0.2,0-0.2-0.3-0.2-0.7c-0.3,0.1-0.1,1.4-0.5,0.7
				c0,1,0.2,0.9,0.1,1.8c-0.2-1-0.5-1.2-0.5-2.4c-0.1,0.1-0.1,0.5-0.2,0.7c-0.3-0.2,0.1-0.6,0-1c-0.5,1.7-0.5,3.6-0.5,5.5
				c-0.1-0.6-0.2-1.7-0.2-2.8c-0.2,0.7-0.2,1.8-0.3,2.7c-0.2-0.9-0.2,0.1-0.3,0.6c-0.1-4.5-0.2-6-0.5-10.8c0,0.9-0.1,1.4,0,2.1
				c0,0.2-0.3,0.5-0.3,0.1c-0.1,0.1,0.3,0.7-0.1,0.8c-0.7-0.6-0.3-2.6-0.7-3.6c-0.1,0.1-0.1,0.5-0.5,0.2c0,0.6,0.5-0.2,0.3,0.7
				c-0.8-0.7-0.3-1.9-0.5-2.7c0-0.7-0.2-1.5-0.1-2.5c-0.5,0.6-0.1,2.1-0.2,3c-0.1,0.2-0.1-0.1-0.1-0.3c-0.1-1.8-0.3-5.1-0.3-6.8
				c-0.5,0.7-0.1,1.6-0.1,2.8c-0.1,0-0.1-0.2-0.1-0.5c-0.2,1.8,0,5.5,0.3,7.9c0.1,0.7,0.3,1.2,0.5,1.8c0,0.6,0,1.9,0.5,2.5
				c-0.2,0.9,0,1.2,0.3,1.8c-0.2,0-0.2-0.2-0.3,0c-0.1,0.5,0.3,0.2,0.5,0.5c-0.1,0.2-0.5,0.8-0.1,1.1c-0.5-0.1,0,1,0.1,1.8
				c0.1-0.3,0.1-0.9,0.3-1c0.3,1.4,0,2.6,0,4.1c-0.2-1,0-2.7,0-3.8c-0.3,0.1-0.2,1-0.3,1.6c-2-6.1-3.3-17-3-25
				c0.6,0,0.8-1.7,0.8-2.8c0.2,0.3,0.3,0.1,0.6,0.5c-0.1,0.2,0.1,0.8,0,1.4c0.3-0.6,0-2.5,0.1-3.6c-0.2,0,0,0.5-0.1,0.7
				s-0.1-1.1-0.3-1.4c-0.2,1-0.1,1.5-0.1,2.3c-0.6-0.2,0.1-2.7-0.2-3.5c0.1-0.5,0.3,0.1,0.2,0.5c0.1-1.4,0.2-2.8,0.1-3.9
				c-0.1,0.5-0.1,1.7-0.1,2.9c-0.5-0.8,0.1-2.6-0.1-3.9c0.3-0.1,0.3,0.3,0.3,0.7c0.3-0.3,0-1-0.3-1c0.1-0.5,0.1-1-0.1-1.4
				c0.2,2.1-0.6,4.4-0.3,6.4c0.1,0,0.1-0.3,0.1-0.6c0.3,0.2,0,1.6,0.1,2.7c-0.1-0.1-0.1-0.2-0.2-0.5c-0.2,0.9,0.1,2.6-0.2,3.5
				c-0.1-5.3-0.3-10.5,0.2-15.8c0.5,0.8,0.1,2.5,0.5,3.5c0.1-0.5,0.1-2.3,0.1-2.9c0.5,0.9-0.1,2.8,0.2,4.1
				c0.2-6.4,0.2-11.7-0.1-18.7c-0.1,2.8,0.1,4.7,0.1,7c-0.1-0.1-0.2-0.2-0.2-0.5c-0.1,1.5,0.1,4.5-0.1,6.1c-0.2-0.1,0-0.8-0.1-1.1
				c-0.1,0.7-0.2,1.5-0.2,2.4c-0.6-3.6-0.6-7.3-1.1-11.3c0.1-0.1,0.1-0.5,0.5-0.2c0.1-8.7-0.5-17.8,0-25.4c0-0.3-0.2-0.2-0.3-0.6
				c0.6-4.4-0.6-9.7,0.1-14.7c0.2-1.5-0.3-3.2,0.2-4.4C250.4,2.4,250-4,251.1-7v-1.1c0.2-0.3,0.5-0.5,0.6-0.9
				c-0.5-0.7,0-1.8,0.2-2.9c-0.1-0.2-0.2-0.2-0.5-0.2c0.3,0.6,0,0.3,0,1.2c-0.1,0.1-0.1-1.1-0.2-1.6c0.2,0.3,0.6-0.3,0.6,0.2
				c0.3-0.8,0.5-1.8,0.3-3.2c0.3,0.1,0,0.3,0.2,0.6c0.2-0.8,0.8-1.2,0.3-2.3c0.8,0.2,0.7-1.9,1.8-1.6c0.2,0,0-0.5,0.1-0.7
				c0.5,0.2,0.7-1.1,1.7-0.7c0,1,1.6,1,2.1,1.7c0.3-0.1-0.2-0.7,0.2-0.6c-0.1,0.9,0.6,1.6,0.9,2.3c0.1,0.9-0.3,1.1-0.5,1.7
				c0.5,1.4,1,2,0.9,3.6c0,0.3-0.1,0.7-0.1,1s0.2,0.5,0.2,0.5c0,0.1-0.2,0.5-0.2,0.7c0,0.5,0.5,0.9,0.5,1.1s-0.2,0.9-0.2,1.1
				c0,0.9,0.2,1.7,0.2,2.7c0.2,5.3,0,11.8,0.2,17.8c0.1,1.6,0.1,3.4,0.1,5c-0.1,6.5,0,13,0.2,19.6c0,0.2-0.1,1.6-0.1,2.6
				c0.3,12.5,0.9,29.2,0.5,42.8c-0.2,0.1-0.1,0.5-0.3,0.1c0,0.2,0.1,0.2,0.2,0.3c-0.1,0.7-0.2,0.7-0.3,1.4c-0.3,1.6-0.3,4.1-1,5
				c0.3-2.5,0.9-5.2,0.9-7.8c-0.7,1.6-0.5,4.4-1.5,5.5c0.3,0.9-0.3,1.4,0.1,1.8C259.1,90.5,259.7,92.5,259.5,93.3z M255.7,102.6
				v-1.4C255.3,101,255.7,102.6,255.7,102.6z M254.7,94.8c0.2,0.5-0.1,0.7,0.2,0.8C254.8,95.2,255.1,94.8,254.7,94.8z M261.4,78.9
				c0-0.7-0.2-0.7,0-1.1C261,77.8,261.2,78.9,261.4,78.9z M261.4,80.5c-0.1-0.3,0.1-0.9-0.1-1C261.1,79.7,261.2,80.4,261.4,80.5z
				 M252.4-11.6c0,0.7-0.5,2,0.2,2.1C252.6-10.3,252.6-11.2,252.4-11.6z M259.3,95.2c0.1,0.2-0.2,0.3,0,0.9
				c-0.3,0.1-0.1-0.6-0.2-0.9C259.2,95.3,259.3,95.5,259.3,95.2z M258.3,97.6c0.1,0.1,0,0.1-0.1,0.1c-0.1-0.2-0.1-0.8-0.1-1.2
				C258.5,96.6,257.9,97.4,258.3,97.6z M254.8,101.5c-0.3-0.1,0-0.8-0.2-1C254.8,100.2,254.8,101.2,254.8,101.5z M253.3-17.4
				c0.1,0.3-0.5,1.6-0.7,1.5C252.9-16.5,253.2-16.8,253.3-17.4z"/>
		</g>
	</g>
	<g>
		<g>
			<path class="st2" d="M234.4-71.1c-0.2,0-0.3,0.1-0.3,0.2C234.5-70.8,234.1-71,234.4-71.1z M233.7-42.8c0.1,0,0.1-0.1,0.5-0.1
				c0.2,0.1,0.3,0.1,0.5,0.3C234-42.5,234.4-42.8,233.7-42.8z M235-71.5c0.3,0,0.1-0.2,0.5-0.2c-0.2,0.1-0.1,0.2-0.2,0.3
				C235-71.4,235.3-71.5,235-71.5z M237.1-74.3c-0.2-0.2,0.2-0.6,0.2-0.8C237.6-74.8,237.1-74.6,237.1-74.3z M237.6-75.6
				c0.2,0.2,0,0.7,0,0.2C237.6-75.5,237.6-75.6,237.6-75.6z M240.2-72.4c-0.2,0-0.1-0.3,0-0.3C240.6-72.6,240.3-72.5,240.2-72.4z
				 M240.6-73.7c0.3,0,0.3,0.1,0.3,0.2C240.7-73.5,240.6-73.5,240.6-73.7z M240.9-71.7c0.2,0-0.1,0.2,0.2,0.2
				C240.9-71.4,240.8-71.6,240.9-71.7z M243.8-67c0.5,0,0.3,0.3,0.1,0.5C243.8-66.7,243.7-66.9,243.8-67z M230.2-48.9
				c0.2,0.1,0.1,0.2,0.3,0.3C230.3-48.6,230.2-48.6,230.2-48.9z M231.9-45.6C232-45.6,232-45.6,231.9-45.6c0.3-0.6,0.1-1.4,0.5-1.8
				c0,0.9,0.1,1.7-0.7,2.4c-0.3,0.3-1.2,0.7-0.2,1c-0.3,0-0.7-0.2-0.8-0.3c-0.2-0.3,1.2-0.7,1.2-1c0-0.2-0.3-0.2-0.2-0.5
				C231.8-45.8,231.8-45.7,231.9-45.6z M235-71.4c0.5,0,0.1,0.1,0.1,0.2c0.1,0,0.5-0.1,0.3-0.2c0.1,0.1,0.3,0.1,0.3,0.1
				c0.6-0.3,0.2-0.5,0.5-0.8c0.1,0,0.1,0.1,0.2,0.1c0.2-0.2,0.3-0.7,0.1-1c0.2,0,0.2,0.1,0.2,0.2c0.3,0,0.1-0.3,0.5-0.1
				c0-0.2-0.2-0.2-0.1-0.5c0.2,0.2,0.5,0.3,0.5,0.6c0.1,0,0.1-0.1,0.2-0.1c0.3,0.1-0.1,0.1,0,0.2c0.5-0.5,0.5-0.9,0.6-1.4
				c0.1,0.1,0.2,0.5,0.2,0.7c0.2-0.1,0.2-0.5,0.3-0.7c0.2,0.2,0.2,0,0.3-0.1c0.1,1.1,0.2,1.6,0.3,2.8c0-0.2,0.1-0.3,0-0.6
				c0-0.1,0.3-0.1,0.3,0c0.1,0-0.3-0.2,0.1-0.2c0.7,0.1,0.3,0.7,0.7,0.9c0.1,0,0.1-0.1,0.5,0c0-0.1-0.5,0-0.3-0.2
				c0.8,0.2,0.3,0.5,0.5,0.7c0,0.2,0.2,0.3,0.1,0.7c0.5-0.1,0.1-0.6,0.2-0.8c0.1,0,0.1,0,0.1,0.1c0.1,0.5,0.3,1.4,0.3,1.7
				c0.5-0.1,0.1-0.5,0.1-0.7c0.1,0,0.1,0.1,0.1,0.1c0.2-0.5,0-1.5-0.3-2c-0.1-0.2-0.3-0.3-0.5-0.5c0-0.1,0-0.5-0.5-0.7
				c0.2-0.2,0-0.3-0.3-0.5c0.2,0,0.2,0.1,0.3,0s-0.3-0.1-0.5-0.1c0.1,0,0.5-0.2,0.1-0.3c0.5,0,0-0.2-0.1-0.5
				c-0.1,0.1-0.1,0.2-0.3,0.2c-0.3-0.3,0-0.7,0-1c0.2,0.2,0,0.7,0,1c0.3,0,0.2-0.2,0.3-0.3c2.1,1.6,3.4,4.5,3,6.5
				c-0.6,0-0.9,0.5-0.9,0.7c-0.2-0.1-0.3,0-0.6-0.1c0.1,0-0.1-0.2,0-0.3c-0.3,0.1,0,0.7-0.1,0.9c0.2,0,0-0.1,0.1-0.1
				s0.1,0.3,0.3,0.3c0.2-0.2,0.1-0.3,0.1-0.6c0.6,0.1-0.1,0.7,0.2,0.9c-0.1,0.1-0.3,0-0.2-0.1c-0.1,0.3-0.2,0.7-0.1,1
				c0.1-0.1,0.1-0.5,0.1-0.8c0.5,0.2-0.1,0.7,0.1,1c-0.3,0-0.3-0.1-0.3-0.2c-0.3,0.1,0,0.2,0.3,0.2c-0.1,0.1-0.1,0.2,0.1,0.3
				c-0.2-0.6,0.7-1.1,0.5-1.6c-0.1,0-0.1,0.1-0.1,0.1c-0.3-0.1,0-0.5-0.1-0.7c0.1,0,0.1,0.1,0.2,0.1c0.2-0.2-0.1-0.7,0.2-0.9
				c0.1,1.4,0.2,2.7-0.3,4.1c-0.5-0.2-0.1-0.7-0.5-0.9c-0.1,0.1-0.1,0.6-0.1,0.8c-0.5-0.2,0.1-0.7-0.2-1c-0.3,1.6-0.3,2.9,0,4.7
				c0.1-0.7-0.1-1.2-0.1-1.8c0.1,0,0.2,0.1,0.2,0.1c0.1-0.3-0.1-1.1,0.1-1.6c0.2,0,0,0.2,0.1,0.3c0.1-0.1,0.2-0.3,0.2-0.6
				c0.6,0.9,0.6,1.9,1.1,2.9c-0.1,0-0.1,0.1-0.5,0c-0.2,2.3,0.3,4.5-0.2,6.4c0,0.1,0.2,0.1,0.3,0.1c-0.7,1.1,0.6,2.5-0.2,3.7
				c-0.2,0.3,0.3,0.8-0.2,1.1c0.2,1,0.6,2.7-0.6,3.4v0.3c-0.2,0.1-0.5,0.1-0.6,0.2c0.5,0.2,0,0.5-0.2,0.8c0.5,0,0.6,0,0.8,0
				c-0.3-0.1,0-0.1,0-0.3c0.1,0,0.1,0.3,0.2,0.5c-0.2-0.1-0.6,0.1-0.6,0c-0.3,0.2-0.5,0.5-0.3,0.8c-0.3,0,0-0.1-0.2-0.1
				c-0.2,0.2-0.9,0.3-0.3,0.6c-0.8-0.1-0.7,0.5-1.9,0.3c-0.2,0,0,0.1-0.1,0.1c-0.5-0.1-0.7,0.2-1.8,0.1c0-0.2-1.7-0.3-2.3-0.5
				c-0.3,0,0.2,0.2-0.2,0.1c0.1-0.2-0.6-0.5-0.9-0.6c-0.1-0.2,0.3-0.2,0.5-0.5c-0.5-0.3-1-0.6-0.9-0.9c0-0.1,0.1-0.1,0.1-0.2
				c0-0.1-0.2-0.1-0.2-0.1L234-45c0-0.1-0.5-0.2-0.5-0.3s0.2-0.2,0.2-0.2c0-0.2-0.2-0.5-0.2-0.7c-0.2-1.4,0.1-3-0.1-4.5
				c-0.1-0.5-0.1-0.9-0.1-1.2c0.2-1.7,0.1-3.3-0.1-5c0-0.1,0.1-0.5,0.1-0.7c-0.2-3.2-0.7-7.4-0.1-10.9c0.2,0,0.1-0.1,0.3,0
				c0-0.1-0.1-0.1-0.2-0.1c0.1-0.1,0.2-0.1,0.3-0.3c0.3-0.3,0.3-1,1.1-1.2c-0.3,0.7-1,1.2-1,1.9c0.7-0.3,0.6-1.1,1.6-1.4
				c-0.3-0.2,0.3-0.3-0.1-0.5C235.5-70.6,234.8-71.2,235-71.4z M239.2-73.7v0.3C239.5-73.2,239.2-73.7,239.2-73.7z M240.2-71.6
				c-0.2-0.1,0.1-0.1-0.2-0.2C240.1-71.7,239.8-71.6,240.2-71.6z M232.9-67.8c0,0.2,0.2,0.2,0,0.3C233.5-67.5,233.2-67.8,232.9-67.8
				z M233-68.1c0.1,0.1-0.1,0.2,0.1,0.2S233.2-68.1,233-68.1z M241.8-44.3c0-0.2,0.5-0.5-0.2-0.6C241.6-44.7,241.6-44.5,241.8-44.3z
				 M235.4-71.9c-0.1-0.1,0.2-0.1,0-0.2c0.3,0,0.1,0.1,0.2,0.2C235.5-71.9,235.4-72,235.4-71.9z M236.4-72.4c-0.1,0,0,0,0.1,0
				c0.1,0.1,0.1,0.2,0.1,0.3C236.2-72.2,236.8-72.4,236.4-72.4z M240.2-73.3c0.3,0,0,0.2,0.2,0.2C240.1-73,240.2-73.2,240.2-73.3z
				 M240.8-42.9c-0.1-0.1,0.5-0.3,0.7-0.3C241.2-43.1,240.9-43.1,240.8-42.9z"/>
		</g>
	</g>
	<g>
		<path class="st2" d="M184.1,7c0.6,1,0.9,2,0.9,3.2s0,2.1,0.2,3.4c0.1,0.2,0.1,0.5,0.2,0.7s0.1,0.3,0.1,0.7c0,0.1,0,0.2,0,0.5h-0.1
			c0,1.5,0.2,2.8,0.5,3.9c0.2,1.2,0.3,2.5,0.5,3.7c0.1,0.3,0.1,0.8,0.1,1.4c-0.2,0.3-0.2,0.9,0,1.8c0,0.2-0.1,0.5-0.1,0.5
			c-0.1,0-0.1,0.1-0.1,0.2c0,0.8,0.1,1.5,0.3,2.1c0.2,0.6,0.3,1.4,0.3,2.1c0,0.1-0.1,0.2-0.2,0.2c0,0.1-0.1,0.3,0,0.5
			c0,0.7,0,1.2,0.1,1.8c0.1,0.6,0.1,1.1,0.1,1.8c0.1,0.6,0.1,1.2,0.3,2c0.1,0.8,0.2,1.6,0.1,2.3c-0.1,0.3-0.1,0.7,0.1,1
			c0.2,0.5,0.2,1,0.3,1.8c0,0.2-0.1,0.5-0.2,0.7c-0.1,0.2-0.2,0.5-0.2,0.7c0,0.7,0.1,1.4,0.3,1.9s0.3,1.2,0.5,2
			c0,0.1-0.1,0.2-0.2,0.2s-0.1,0.1,0,0.5c0,0.2,0,0.5,0.1,0.7c0.1,0.2,0.1,0.3,0.2,0.5c0.1,1.5,0.2,2.9,0.3,4.4s0.2,3.2,0.2,4.8
			l-0.2,0.1l-0.2,0.7c0.1,0.7,0.2,1.1,0.5,1.5c0.2,0.3,0.2,0.8,0.1,1.4c0,0.2-0.1,0.6-0.2,0.8s-0.2,0.5-0.2,0.8
			c0,0.6,0.1,1.1,0.3,1.9s0.3,1.5,0.3,2.1c0,0.1,0,0.2-0.1,0.2s-0.1,0.1,0,0.5c0,0.3,0.1,0.7,0.1,0.9c0.1,0.2,0,0.3-0.1,0.5
			c0,0.2-0.1,0.5-0.3,0.6s-0.3,0.3-0.2,0.8c0.6,1,0.9,2,0.9,2.9c0,0.9,0,1.8,0.1,2.8c0,0.1,0.1,0.3,0.2,0.6s0.1,0.5,0.1,0.8
			c-0.1-0.1-0.2-0.1-0.3-0.1s-0.1,0.1-0.1,0.2s0.1,0.3,0.2,0.6s0.1,0.5,0.1,0.6l-0.6,0.1c0,0.3,0.2,0.8,0.6,1.4
			c0.3,0.5,0.3,0.8-0.1,0.9c0.5,1.4,0.7,2.1,0.8,2.5c0.1,0.3,0.5,0.9,0.8,1.9c-0.2,0.3-0.2,0.8,0,1.4c0.2,0.6,0.2,1.2,0.2,1.7
			c0,0.1-0.1,0.2-0.2,0.2s-0.1,0.2,0,0.6c0.2,0.8,0.3,1.8,0.2,3.4c-0.1,1.5-0.5,2.6-1,3.3c-0.3,0-0.6,0.2-0.6,0.6
			c0,0.3-0.1,0.7-0.5,0.8c-0.2,0.1-0.5,0-0.7-0.3c-0.2-0.2-0.5-0.3-0.8-0.2c-1.2,0.1-2.6,0.2-4.1,0.3c-1.5,0.1-2.9,0-4.3-0.2
			c-0.8-1.8-1.4-3.5-1.6-5.3s-0.5-3.5-0.7-5c-0.2-1.5-0.5-3-0.7-4.5c-0.2-1.5-0.1-2.8,0.3-3.9c-0.3-1-0.6-1.9-0.8-2.8
			c-0.2-0.9-0.3-1.9-0.5-3c0-0.3,0-1-0.1-1.9c0-0.9,0-1.7-0.1-2.5c0-0.2,0-0.5-0.1-0.6s-0.1-0.2-0.2-0.3c0-0.2,0.1-0.5,0.2-0.5
			c0.1,0,0.2-0.1,0.1-0.2c-0.1-1-0.2-1.9-0.3-2.7c-0.1-0.8-0.2-1.5-0.3-2.1c0-0.2,0-0.5-0.1-0.7s-0.2-0.3-0.2-0.7
			c0-0.1,0.2-0.3,0.5-0.7c0.2-0.2,0.3-0.5,0.3-0.6c0-0.7-0.1-1.4-0.5-2c-0.2-0.7-0.3-1.4-0.3-1.9c-0.2-1.1-0.3-2.4-0.5-3.8
			c0-0.6,0.1-0.9,0.2-1c0.1-0.1,0.1-0.6,0-1.5c0-0.1-0.1-0.7-0.2-1.7c0-0.2,0-0.5,0.1-0.5c0,0,0.1-0.1,0.1-0.2
			c0.1-0.6,0.1-1.4,0-2.4s-0.2-2-0.3-3c0-0.8,0-1.4,0-1.8c0-0.2,0.1-0.6,0.2-0.8c0.1-0.2,0.2-0.5,0.2-0.8c0-0.6,0-1.1-0.1-1.7
			c-0.1-0.6-0.1-1.1,0.1-1.7c0-0.2,0.1-0.6,0.2-0.9c0.1-0.3,0.1-0.6,0.2-0.9c0-0.2-0.1-0.6-0.3-0.9c-0.2-0.3-0.3-0.8-0.3-1.4
			c0-0.1,0-0.2,0.2-0.5c0.2-0.2,0.3-0.5,0.3-0.7c0-0.7-0.1-1.2-0.1-1.8c-0.1-0.5-0.1-1.1-0.1-2c0-0.1,0.1-0.3,0.2-0.6
			c0.1-0.2,0.2-0.5,0.2-0.8c0-0.6-0.1-1.2-0.5-2c-0.3-0.8-0.1-1.2,0.6-1.1c-0.2-0.6-0.3-1.1-0.3-1.5c-0.1-0.3,0-0.9,0.1-1.5
			c0-0.1,0-0.5,0-0.8c-0.1-0.3-0.1-0.7-0.1-1c0.1,0,0.2,0,0.5,0s0.2,0,0.2-0.2c0.2-0.3,0.1-0.6-0.1-0.9c-0.2-0.2-0.5-0.6-0.5-1
			c0.2-0.3,0.3-0.6,0.5-0.7c0.1-0.1,0.2-0.3,0.3-0.7c0-0.1,0-0.3-0.1-0.6s-0.2-0.5-0.1-0.6c0.1-0.3,0.1-0.6,0.2-0.9
			c0-0.2,0.1-0.6,0.2-0.9c0.1-0.5,0.2-0.8,0.3-1.1s0.2-0.8,0.2-1.5c1.2,0,2.7-0.2,4.2-0.9C181.7,6.3,183,6.3,184.1,7z M178.9,91.7
			c-0.2-0.3-0.3-0.7-0.2-0.9c0-0.2,0-0.6,0.1-0.7c0-0.2,0-0.3,0-0.5s-0.2-0.2-0.6-0.2c0,0.2,0,0.8,0,1.5
			C178.2,91.5,178.4,91.9,178.9,91.7z M178,85.2c-0.2-0.6-0.1-1.4,0.1-2.1c0.2-0.8,0.1-1.2-0.5-1.4c0.2,0.6,0.2,1.2-0.2,1.9
			C177.1,84.4,177.2,84.9,178,85.2z M181.5,33.5c0.1,0.9,0.3,1.5,0.7,1.6s0.6,0.6,0.7,1.2c-0.2,0.1-0.3,0.2-0.2,0.5
			c0.1,0.2,0.1,0.5,0.1,0.8c0,0.1-0.1,0.3-0.3,0.6c-0.1,0.2-0.3,0.6-0.5,0.8c0,0.2,0,0.6,0.1,0.8s0.1,0.7,0.2,1.1
			c0,0.1-0.1,0.3-0.2,0.6c-0.1,0.2-0.2,0.5-0.2,0.8c0,0.6,0,1.1,0.1,1.8s0.1,1.2,0.1,1.9l-0.2,0.2l-0.1,0.2
			c-0.1,0.3-0.1,0.8-0.1,1.5s0.3,0.9,0.8,0.8c-0.2-0.5-0.3-0.8-0.2-1c0.1-0.2,0.1-0.5,0.1-0.7c-0.1-0.5-0.1-0.9,0-1.4
			c0.2-0.3,0.2-0.8,0.1-1.1c-0.1-0.2-0.1-0.3,0-0.3s0.1-0.1,0.2-0.3c0.1-0.5,0.1-0.8,0-1.2c-0.1-0.3-0.1-0.8,0-1.4
			c0.2-0.8,0.5-1.6,0.7-2.5c0.1-0.9,0.2-1.6,0.1-1.9c-0.1-0.7-0.1-1.2,0-1.9s0.1-1.2,0.1-1.9c0-0.2,0-0.7,0.1-1.1c0-0.5,0-1,0-1.5
			c0.1-0.3,0.1-0.8-0.1-1.4c-0.2-0.6-0.1-1.1,0.1-1.5c-0.2-0.3-0.3-0.7-0.5-1s-0.2-0.6-0.5-0.7c-0.5,1.2-0.6,2.5-0.6,3.9
			C182.2,31.2,181.9,32.4,181.5,33.5z M184.2-34.2c0.2,0.6,0.5,1.2,0.5,1.8c0,0.7,0.1,1.4,0.1,2.1c0,0.1,0,0.2-0.1,0.2l-0.1,0.5
			c0,0.3,0.1,0.8,0.2,1.1s0.2,0.9,0.2,1.6c0,0.7,0.1,1.4,0.1,1.9c0.1,0.7,0.1,1.4,0,2c0,0.3-0.1,0.8-0.6,1.1c-0.1,0.3-0.1,0.7,0,1
			s-0.1,0.6-0.6,0.6c0.3,0.5,0.5,0.8,0.3,1c-0.1,0.2-0.2,0.5-0.2,0.8c0,0.1,0.1,0.3,0.2,0.6c0.1,0.2,0.1,0.5,0.1,0.6h-0.1h-0.1
			c0,0.1,0,0.3,0.1,0.6c0.1,0.2,0.2,0.5,0.2,0.8l-0.5,0.1c0,0.1,0.1,0.3,0.2,0.6s0.1,0.5,0.1,0.6c-0.2,0.3-0.2,0.7,0.1,1.1
			c0.2,0.5,0.2,0.9,0.1,1.1c-0.1,0.5-0.1,1.2,0,2.4c0,0.7,0.1,1.2,0.2,1.8s0.2,1.1,0.2,1.8c-1.8,0.7-3.4,0.3-4.8-1.1
			c-0.7,0.1-1.4,0.1-1.9,0.2c-0.7,0.1-1.2,0-1.8-0.2c-0.3-0.3-0.7-0.7-1-1.2s-0.7-0.7-1.1-0.6c-0.2-1.4-0.6-2.8-1.1-4.2
			c-0.6-1.4-0.8-2.7-0.8-4.1c0-0.1,0.1-0.2,0.2-0.2c0.1,0,0.1-0.1,0-0.5l-0.1-0.3c0-0.1,0.2-0.3,0.3-0.7c-0.1-0.6-0.1-1.1-0.1-1.8
			c0-0.7-0.1-1.4-0.3-2.1c-0.1-0.2-0.1-0.6-0.2-1.1c-0.1-0.5-0.1-0.9,0-1.2c0-0.1,0.2-0.2,0.5-0.3c0.2-0.1,0.3-0.1,0.2-0.3
			c0-0.7-0.1-1.2-0.3-1.7c-0.2-0.5-0.2-0.9-0.1-1.1c0.1-0.5,0.2-0.8,0.3-1.1c0.1-0.3,0.2-0.6,0.3-0.9s0.1-0.6,0.1-0.7
			c0-0.2-0.1-0.5-0.1-0.7c0-0.2,0.1-0.7,0.3-1.2c0.2-0.6,0.3-1,0.3-1.6c1-0.5,2-0.7,2.9-0.8c0.9-0.1,1.7,0.2,2.4,1
			c1-0.6,1.9-0.7,2.6-0.3C182.8-35,183.5-34.6,184.2-34.2z"/>
	</g>
	<g>
		<g>
			<path class="st2" d="M113.3,91.9c0.2-0.1,0.3-0.6,0.3-0.8C113.2,91,113.5,91.5,113.3,91.9z M112.9-18.8c0,0.2-0.1,0.5-0.3,0.5
				c-0.2-0.3-0.3-0.6-0.5-1.1C112.7-19.7,112.5-18.8,112.9-18.8z M112.6,94c-0.3,0.1-0.1,0.8-0.5,0.8c0.2-0.5,0.1-1,0.2-1.2
				C112.6,93.5,112.5,94,112.6,94z M110.8,105c0.2,1-0.2,2.1-0.2,2.9C110.3,107.1,110.8,106.2,110.8,105z M110.3,110.1
				c-0.2-0.8,0-2.8,0-1C110.3,109.4,110.3,109.8,110.3,110.1z M107.7,98.1c0.2,0.1,0.1,1.1,0,1.2C107.5,99,107.6,98.6,107.7,98.1z
				 M107.5,102.9c-0.3,0.1-0.3-0.3-0.3-0.7C107.4,102.3,107.5,102.6,107.5,102.9z M107,95.2c-0.2,0,0.1-0.9-0.2-0.9
				C107,93.9,107.2,95.1,107,95.2z M104.3,77.2c-0.5-0.1-0.3-1.4-0.1-1.7C104.3,76,104.3,76.6,104.3,77.2z M116.5,4.5
				c-0.3-0.2-0.2-0.9-0.3-1.2C116.4,3.5,116.5,3.8,116.5,4.5z M114.9-8c-0.1,0-0.1,0-0.1,0.1c-0.2,2.1,0,5.4-0.2,7.1
				c0-3.4-0.1-6.8,0.6-9.4c0.3-1.5,1.1-2.7,0.2-3.9c0.3,0.1,0.7,0.7,0.8,1.1c0.2,1.4-1.1,2.8-1.1,4.3c0,0.8,0.3,1,0.2,1.8
				C115-7.3,115-7.7,114.9-8z M112.5,93.3c-0.5,0-0.1-0.6-0.1-0.9c-0.1,0.2-0.5,0.3-0.3,0.8c-0.1-0.2-0.3-0.2-0.3-0.6
				c-0.6,1.4-0.2,1.8-0.5,2.9c-0.1,0-0.1-0.2-0.2-0.3c-0.2,1-0.3,2.7-0.1,3.9c-0.2,0-0.2-0.3-0.2-0.7c-0.3,0.1-0.1,1.4-0.5,0.7
				c0,1,0.2,0.9,0.1,1.8c-0.2-1-0.5-1.2-0.5-2.4c-0.1,0.1-0.1,0.5-0.2,0.7c-0.3-0.2,0.1-0.6,0-1c-0.5,1.7-0.5,3.6-0.5,5.5
				c-0.1-0.6-0.2-1.7-0.2-2.8c-0.2,0.7-0.2,1.8-0.3,2.7c-0.2-0.9-0.2,0.1-0.3,0.6c-0.1-4.5-0.2-6-0.5-10.8c0,0.9-0.1,1.4,0,2.1
				c0,0.2-0.3,0.5-0.3,0.1c-0.1,0.1,0.3,0.7-0.1,0.8c-0.7-0.6-0.3-2.6-0.7-3.6c-0.1,0.1-0.1,0.5-0.5,0.2c0,0.6,0.5-0.2,0.3,0.7
				c-0.8-0.7-0.3-1.9-0.5-2.7c0-0.7-0.2-1.5-0.1-2.5c-0.5,0.6-0.1,2.1-0.2,3c-0.1,0.2-0.1-0.1-0.1-0.3c-0.1-1.8-0.3-5.1-0.3-6.8
				c-0.5,0.7-0.1,1.6-0.1,2.8c-0.1,0-0.1-0.2-0.1-0.5c-0.2,1.8,0,5.5,0.3,7.9c0.1,0.7,0.3,1.2,0.5,1.8c0,0.6,0,1.9,0.5,2.5
				c-0.2,0.9,0,1.2,0.3,1.8c-0.2,0-0.2-0.2-0.3,0c-0.1,0.5,0.3,0.2,0.5,0.5c-0.1,0.2-0.5,0.8-0.1,1.1c-0.5-0.1,0,1,0.1,1.8
				c0.1-0.3,0.1-0.9,0.3-1c0.3,1.4,0,2.6,0,4.1c-0.2-1,0-2.7,0-3.8c-0.3,0.1-0.2,1-0.3,1.6c-2-6.1-3.3-17-3-25
				c0.6,0,0.8-1.7,0.8-2.8c0.2,0.3,0.3,0.1,0.6,0.5c-0.1,0.2,0.1,0.8,0,1.4c0.3-0.6,0-2.5,0.1-3.6c-0.2,0,0,0.5-0.1,0.7
				s-0.1-1.1-0.3-1.4c-0.2,1-0.1,1.5-0.1,2.3c-0.6-0.2,0.1-2.7-0.2-3.5c0.1-0.5,0.3,0.1,0.2,0.5c0.1-1.4,0.2-2.8,0.1-3.9
				c-0.1,0.5-0.1,1.7-0.1,2.9c-0.5-0.8,0.1-2.6-0.1-3.9c0.3-0.1,0.3,0.3,0.3,0.7c0.3-0.3,0-1-0.3-1c0.1-0.5,0.1-1-0.1-1.4
				c0.2,2.1-0.6,4.4-0.3,6.4c0.1,0,0.1-0.3,0.1-0.6c0.3,0.2,0,1.6,0.1,2.7c-0.1-0.1-0.1-0.2-0.2-0.5c-0.2,0.9,0.1,2.6-0.2,3.5
				c-0.1-5.3-0.3-10.5,0.2-15.8c0.5,0.8,0.1,2.5,0.5,3.5c0.1-0.5,0.1-2.3,0.1-2.9c0.5,0.9-0.1,2.8,0.2,4.1
				c0.2-6.4,0.2-11.7-0.1-18.7c-0.1,2.8,0.1,4.7,0.1,7c-0.1-0.1-0.2-0.2-0.2-0.5c-0.1,1.5,0.1,4.5-0.1,6.1c-0.2-0.1,0-0.8-0.1-1.1
				c-0.1,0.7-0.2,1.5-0.2,2.4c-0.6-3.6-0.6-7.3-1.1-11.3c0.1-0.1,0.1-0.5,0.5-0.2c0.1-8.7-0.5-17.8,0-25.4c0-0.3-0.2-0.2-0.3-0.6
				c0.6-4.4-0.6-9.7,0.1-14.7c0.2-1.5-0.3-3.2,0.2-4.4C103.4,2.4,103-4,104-7v-1.1c0.2-0.3,0.5-0.5,0.6-0.9c-0.5-0.7,0-1.8,0.2-2.9
				c-0.1-0.2-0.2-0.2-0.5-0.2c0.3,0.6,0,0.3,0,1.2c-0.1,0.1-0.1-1.1-0.2-1.6c0.2,0.3,0.6-0.3,0.6,0.2c0.3-0.8,0.5-1.8,0.3-3.2
				c0.3,0.1,0,0.3,0.2,0.6c0.2-0.8,0.8-1.2,0.3-2.3c0.8,0.2,0.7-1.9,1.8-1.6c0.2,0,0-0.5,0.1-0.7c0.5,0.2,0.7-1.1,1.7-0.7
				c0,1,1.6,1,2.1,1.7c0.3-0.1-0.2-0.7,0.2-0.6c-0.1,0.9,0.6,1.6,0.9,2.3c0.1,0.9-0.3,1.1-0.5,1.7c0.5,1.4,1,2,0.9,3.6
				c0,0.3-0.1,0.7-0.1,1S113-10,113-10c0,0.1-0.2,0.5-0.2,0.7c0,0.5,0.5,0.9,0.5,1.1S113-7.3,113-7c0,0.9,0.2,1.7,0.2,2.7
				c0.2,5.3,0,11.8,0.2,17.8c0.1,1.6,0.1,3.4,0.1,5c-0.1,6.5,0,13,0.2,19.6c0,0.2-0.1,1.6-0.1,2.6c0.3,12.5,0.9,29.2,0.5,42.8
				c-0.2,0.1-0.1,0.5-0.3,0.1c0,0.2,0.1,0.2,0.2,0.3c-0.1,0.7-0.2,0.7-0.3,1.4c-0.3,1.6-0.3,4.1-1,5c0.3-2.5,0.9-5.2,0.9-7.8
				c-0.7,1.6-0.5,4.4-1.5,5.5c0.3,0.9-0.3,1.4,0.1,1.8C112.1,90.5,112.8,92.5,112.5,93.3z M108.8,102.6v-1.4
				C108.4,101,108.8,102.6,108.8,102.6z M107.7,94.8c0.2,0.5-0.1,0.7,0.2,0.8C107.9,95.2,108.2,94.8,107.7,94.8z M114.5,78.9
				c0-0.7-0.2-0.7,0-1.1C114.1,77.8,114.3,78.9,114.5,78.9z M114.5,80.5c-0.1-0.3,0.1-0.9-0.1-1C114.2,79.7,114.3,80.4,114.5,80.5z
				 M105.5-11.6c0,0.7-0.5,2,0.2,2.1C105.7-10.3,105.7-11.2,105.5-11.6z M112.4,95.2c0.1,0.2-0.2,0.3,0,0.9
				c-0.3,0.1-0.1-0.6-0.2-0.9C112.3,95.3,112.4,95.5,112.4,95.2z M111.4,97.6C111.5,97.7,111.4,97.7,111.4,97.6
				c-0.2-0.1-0.2-0.7-0.2-1.1C111.6,96.6,111,97.4,111.4,97.6z M107.9,101.5c-0.3-0.1,0-0.8-0.2-1
				C107.9,100.2,107.9,101.2,107.9,101.5z M106.4-17.4c0.1,0.3-0.5,1.6-0.7,1.5C105.8-16.5,106.3-16.8,106.4-17.4z"/>
		</g>
	</g>
	<g>
		<g>
			<path class="st2" d="M97.6-16.2c0.2,0.2,0.6-0.1,0.9-0.2C98.3-16.7,98.2-16,97.6-16.2z M178.1-78.8c-0.2,0-0.5,0.2-0.6,0
				c0.1-0.3,0.2-0.6,0.6-1C178.6-79.6,177.8-79.3,178.1-78.8z M95.7-15.3c-0.2-0.2-0.7,0.3-0.9,0.1c0.5-0.2,0.7-0.6,1-0.6
				C96-15.7,95.6-15.5,95.7-15.3z M86.6-10.3c-0.5,0.8-1.8,1.1-2.1,1.7C84.9-9.4,85.9-9.6,86.6-10.3z M82.7-7.6
				c0.5-0.7,1.9-1.7,0.7-0.6C83.2-8,82.9-7.7,82.7-7.6z M89.7-16.7c0,0.2-0.7,0.8-0.9,0.8C88.9-16.3,89.3-16.4,89.7-16.7z M86-13.9
				c-0.2-0.2,0-0.5,0.2-0.6C86.4-14.5,86.3-14.2,86-13.9z M91.3-19c-0.1-0.2,0.7-0.5,0.5-0.7C92.2-19.8,91.4-18.9,91.3-19z
				 M102.4-31.6c-0.2-0.5,0.8-1,1.1-1C103.2-32.3,102.9-31.9,102.4-31.6z M163.1-63.3c0-0.3,0.6-0.7,0.8-0.9
				C163.7-63.9,163.4-63.5,163.1-63.3z M171.3-71.5C171.3-71.6,171.2-71.6,171.3-71.5c-1.8,1-4.2,2.9-5.4,3.6c2.6-1.9,5-3.8,7.2-4.7
				c1.4-0.6,2.7-0.6,3-2c0,0.3-0.1,0.9-0.5,1.4c-0.9,0.9-2.8,0.6-3.8,1.4c-0.7,0.5-0.6,0.9-1.2,1.1C170.7-71,171.1-71.2,171.3-71.5z
				 M96.2-15.8c-0.2-0.3,0.5-0.3,0.5-0.6c-0.2,0-0.5,0-0.8,0.2c0.1-0.2,0-0.3,0.2-0.6c-1.4,0.3-1.5,0.9-2.5,1.4
				c0-0.1,0.2-0.2,0.1-0.3c-0.9,0.5-2.3,1.4-2.9,2.1c-0.1-0.2,0.1-0.3,0.3-0.6c-0.2-0.2-1,0.8-0.8,0c-0.7,0.7-0.5,0.7-1.2,1.1
				c0.6-0.8,0.6-1.1,1.5-1.7c-0.2-0.1-0.5,0.2-0.7,0.3c0-0.3,0.6-0.3,0.7-0.6c-1.5,0.7-2.8,1.7-4.2,2.8c0.3-0.3,1.1-1.2,1.9-1.8
				c-0.7,0.2-1.4,1-2.1,1.4c0.5-0.7-0.2-0.1-0.7,0.1c3.2-2.7,4.1-3.6,7.4-6.7c-0.7,0.5-1.1,0.7-1.6,1.2c-0.1,0.1-0.6,0.1-0.2-0.2
				c-0.1-0.1-0.2,0.6-0.7,0.5c0-0.9,1.7-1.8,2.1-2.7c-0.1-0.1-0.3,0.1-0.5-0.1c-0.5,0.3,0.5,0.1-0.3,0.6c0-1,1-1.4,1.7-1.9
				c0.6-0.5,1-1,1.7-1.6c-0.7,0-1.6,1.1-2.4,1.7c-0.2,0.1,0-0.1,0.1-0.2c1.2-1.1,3.5-3.2,4.7-4.3c-0.8,0-1.1,0.8-2,1.5
				c0-0.1,0.1-0.2,0.2-0.3c-1.4,0.9-4.1,3.2-5.5,5c-0.3,0.5-0.7,1-1,1.4c-0.5,0.3-1.4,1.1-1.5,1.9c-0.8,0.3-0.8,0.7-1.1,1.2
				c-0.1-0.1,0-0.3-0.1-0.2c-0.5,0.2,0,0.3,0,0.6c-0.2,0.1-0.9,0.2-0.8,0.6c-0.2-0.5-0.7,0.6-1.2,1.1c0.3,0,0.8-0.5,1-0.2
				c-0.8,1-1.8,1.5-2.8,2.4c0.6-0.9,1.8-1.6,2.7-2.3c-0.3-0.2-0.9,0.5-1.2,0.8c3-5.2,10-12.5,16.1-17.1c0.2,0.5,1.7-0.3,2.5-1
				c-0.1,0.3,0.1,0.3,0.1,0.7c-0.2,0-0.5,0.6-1,0.8c0.6-0.1,1.7-1.5,2.7-2c-0.1-0.2-0.5,0.2-0.6,0.3c-0.2,0,0.8-0.8,0.8-1
				c-0.9,0.3-1.1,0.7-1.7,1.2c-0.2-0.6,2-1.5,2.5-2.3c0.5-0.2,0,0.3-0.2,0.3c1-0.7,2.3-1.5,2.9-2.1c-0.3,0.1-1.2,0.8-2.1,1.7
				c0.3-0.8,1.9-1.4,2.7-2.4c0.2,0.2,0,0.5-0.3,0.6c0.5,0,0.8-0.6,0.6-0.8c0.5-0.2,0.8-0.6,0.9-0.9c-1.5,1.4-3.5,2.1-4.8,3.5
				c0.1,0.1,0.3-0.1,0.5-0.2c0.1,0.5-1.1,0.8-1.8,1.6c0-0.1,0.1-0.2,0.2-0.3c-0.8,0.3-1.8,1.6-2.7,1.9c3.8-3.2,7.3-6.3,11.6-9
				c-0.3,0.7-1.7,1.6-2.3,2.4c0.5-0.2,1.8-1.2,2.1-1.7c-0.3,0.9-2,1.5-2.8,2.5c4.8-3.6,8.7-6.5,13.5-10.8c-2.1,1.8-3.4,3-5,4.4
				c0-0.1,0-0.2,0.2-0.3c-1.1,0.8-3.2,2.7-4.4,3.4c0-0.2,0.5-0.6,0.7-0.8c-0.6,0.3-1.1,0.7-1.9,1.2c2.3-2.6,5-4.7,7.4-7.3
				c0.1,0.1,0.5-0.2,0.5,0.1c6.4-5,12.7-10.5,18.5-14.4c0.2-0.1,0.1-0.3,0.2-0.6c3.6-2,6.9-5.9,10.8-8.2c1.2-0.8,2.1-2.1,3.4-2.3
				c2.7-2.4,7.3-6.3,10.3-7.1l0.8-0.7c0.3,0,0.6,0.1,1,0c0.3-0.7,1.4-1,2.4-1.5c0.1-0.1,0.1-0.3-0.1-0.5c0,0.6-0.2,0.1-0.8,0.7
				c-0.1,0,0.7-0.8,1-1c-0.1,0.3,0.6,0.2,0.2,0.7c0.8-0.1,1.6-0.6,2.6-1.4c0,0.3-0.3,0.1-0.3,0.5c0.7-0.2,1.5-0.1,1.9-0.9
				c0.3,0.8,1.7-0.6,2.3,0.6c0.1,0.2,0.5-0.2,0.6-0.3c0.2,0.6,1.2,0,1.5,0.9c-0.7,0.6,0.2,1.8,0,2.7c0.2,0.2,0.3-0.6,0.6-0.2
				c-0.8,0.5-0.9,1.2-1.1,1.9c-0.6,0.6-1.1,0.3-1.5,0.6c-0.8,1.1-0.9,1.8-2.1,2.8c-0.3,0.1-0.6,0.3-0.8,0.5
				c-0.2,0.1-0.2,0.3-0.2,0.3c-0.1,0.1-0.5,0.1-0.7,0.2c-0.3,0.2-0.3,0.8-0.6,1c-0.2,0.2-0.8,0.3-1,0.5c-0.7,0.5-1.2,1-1.8,1.6
				c-3.8,3.2-8.7,6.4-12.9,10c-1.1,0.9-2.4,2-3.5,2.8c-4.8,3.6-9.5,7.2-14.1,11.2c-0.1,0.1-1.1,0.7-1.9,1.4
				c-8.9,7.3-20.6,17.4-30.7,25c-0.2-0.1-0.3,0.1-0.2-0.2c-0.2,0.1-0.1,0.2-0.1,0.3c-0.7,0.3-0.7,0.2-1.4,0.6
				c-1.4,0.7-3.2,2.1-4.2,2.1c2-1.1,4.4-2.4,6.1-3.8c-1.6,0.5-3.4,2.1-4.8,2.1c-0.5,0.8-1.2,0.5-1.2,1.1C97.9-17.7,97-16,96.2-15.8z
				 M87.1-13.3l1-0.8C88.1-14.5,87.1-13.3,87.1-13.3z M92-18.6c-0.2,0.3-0.6,0.3-0.5,0.7C91.9-18.2,92.3-18.3,92-18.6z M107.7-22.7
				c0.5-0.3,0.3-0.5,0.8-0.7C108.3-23.6,107.6-22.9,107.7-22.7z M106.6-21.8c0.2-0.2,0.8-0.5,0.6-0.7C107-22.5,106.5-22,106.6-21.8z
				 M168.4-81c-0.6,0.3-1.8,0.8-1.5,1.4C167.6-80.2,168.2-80.7,168.4-81z M94.7-14.8c-0.1,0.2-0.3,0-0.6,0.6
				c-0.3-0.2,0.3-0.3,0.5-0.7C94.6-14.8,94.6-14.7,94.7-14.8z M92.3-14.2C92.3-14.1,92.2-14,92.3-14.2c0-0.2,0.3-0.5,0.7-0.8
				C93.2-14.6,92.3-14.6,92.3-14.2z M87.3-14.6c-0.1-0.3,0.6-0.6,0.6-0.8C88.2-15.4,87.5-14.8,87.3-14.6z M173.3-83.6
				c-0.2,0.2-1.5,0.6-1.5,0.2C172.2-83.5,172.8-83.2,173.3-83.6z"/>
		</g>
	</g>
	<g>
		<g>
			<path class="st2" d="M193.4-71.1c-0.1,0.2,0.2,0.5,0.3,0.7C194.2-70.6,193.7-70.6,193.4-71.1z M271.1-11.8
				c-0.1-0.2-0.2-0.3,0-0.6c0.3,0,0.7,0.1,1,0.3C271.8-11.4,271.3-12.2,271.1-11.8z M192.3-72.6c0.1-0.3-0.5-0.6-0.3-0.8
				c0.2,0.3,0.7,0.6,0.8,0.8C192.6-72.4,192.4-72.8,192.3-72.6z M185.1-79.6c-0.9-0.2-1.5-1.4-2-1.6C183.9-81,184.3-80.1,185.1-79.6
				z M181.6-82.5c0.8,0.2,2.1,1.2,0.8,0.5C182.2-82.1,181.9-82.3,181.6-82.5z M192.1-78.7c-0.2,0.1-0.9-0.5-0.9-0.6
				C191.4-79.3,191.6-79.1,192.1-78.7z M188.5-81.3c0.1-0.3,0.3-0.1,0.7,0.1C188.9-81.1,188.7-81.2,188.5-81.3z M194.5-77.9
				c0.1-0.2,0.6,0.6,0.8,0.2C195.5-77.3,194.6-77.7,194.5-77.9z M209.2-71.2c0.2-0.5,1.2,0.5,1.2,0.8
				C210.1-70.5,209.7-70.7,209.2-71.2z M253.2-22.2c0.2-0.1,0.8,0.5,1.1,0.5C253.9-21.9,253.5-21.9,253.2-22.2z M262.7-16.5
				C262.8-16.5,262.7-16.6,262.7-16.5c-1.4-1.5-3.7-3.3-4.6-4.3c2.3,2,4.6,3.7,5.9,5.8c0.8,1.1,1,2.4,2.6,2.4
				c-0.3,0.2-0.9,0.1-1.2,0c-1-0.6-1.1-2.4-2-3.4c-0.5-0.6-1-0.3-1.4-0.9C262.1-16.9,262.3-16.6,262.7-16.5z M192.9-72.3
				c0.1-0.3,0.6,0.2,0.7,0.3c-0.1-0.2,0-0.5-0.5-0.7c0.2,0,0.3-0.2,0.6,0.1c-0.7-1.1-1.1-1-1.9-1.8c0.1-0.1,0.2,0,0.3-0.1
				c-0.6-0.8-1.7-1.7-2.8-2c0.1-0.2,0.3,0,0.7,0.2c0-0.3-1-0.8-0.2-0.7c-0.7-0.6-0.8-0.2-1.4-0.9c0.9,0.3,1.1,0.2,1.9,0.8
				c0-0.2-0.3-0.3-0.3-0.5c0.3-0.2,0.5,0.3,0.8,0.5c-1-1.1-2.5-2.1-3.8-3c0.5,0.1,1.4,0.7,2.3,1.2c-0.3-0.5-1.2-1-1.8-1.6
				c0.8,0.2,0-0.3-0.1-0.6c3.4,2.1,4.4,2.8,8.2,5c-0.7-0.5-0.9-0.8-1.6-1c-0.1,0-0.1-0.5,0-0.3c0-0.2-0.7-0.1-0.6-0.6
				c0.8-0.2,2.1,1,3.2,1.2c0-0.1-0.3-0.2,0-0.5c-0.5-0.2,0,0.5-0.7-0.1c0.9-0.3,1.6,0.7,2.1,0.9c0.6,0.2,1.1,0.6,1.9,1.1
				c-0.1-0.6-1.5-1.1-2.1-1.7c-0.1-0.2,0.1-0.1,0.2,0c1.4,0.9,3.9,2.3,5.2,3.2c-0.2-0.7-1-0.8-1.9-1.5c0.1-0.1,0.2,0,0.3,0.1
				c-1.2-1-3.9-2.8-6-3.7c-0.7-0.3-1.1-0.3-1.7-0.6c-0.5-0.2-1.4-1-2.1-0.8c-0.5-0.7-0.8-0.6-1.5-0.7c0-0.1,0.3-0.1,0.1-0.2
				c-0.3-0.2-0.3,0.2-0.6,0.1c-0.1-0.1-0.3-0.7-0.8-0.7c0.3-0.3-0.8-0.5-1.4-0.9c0.1,0.2,0.6,0.6,0.5,0.9c-1.2-0.3-1.9-1.2-3-1.9
				c0.9,0.3,2,1.2,2.8,1.8c0-0.3-0.6-0.7-1-1c5.6,1.2,14.5,5.6,20.2,10c-0.3,0.5,0.7,1.5,1.6,2.1c-0.3,0-0.2,0.2-0.6,0.2
				c-0.1-0.2-0.7-0.3-1-0.7c0.2,0.5,1.8,1.2,2.6,1.9c0.1-0.2-0.3-0.2-0.6-0.5c-0.1-0.2,0.9,0.6,1.2,0.5c-0.6-0.8-0.9-0.9-1.6-1.2
				c0.5-0.3,1.9,1.5,2.6,1.7c0.3,0.3-0.2,0.2-0.5,0c0.9,0.8,1.9,1.7,2.8,2c-0.3-0.2-1.1-0.9-2-1.6c0.9,0.1,1.8,1.4,2.9,1.9
				c-0.1,0.3-0.3,0.1-0.7-0.1c0,0.5,0.7,0.6,0.9,0.2c0.2,0.3,0.7,0.7,1,0.7c-1.6-1-2.8-2.6-4.5-3.6c0,0.1,0.2,0.2,0.5,0.3
				c-0.3,0.2-1.1-0.8-2-1.2c0.1,0,0.2,0,0.5,0c-0.5-0.7-2-1.2-2.5-2c3.8,2.6,7.8,5.1,11.4,8.3c-0.8-0.1-1.9-1.1-2.8-1.5
				c0.3,0.3,1.6,1.4,2,1.6c-1-0.1-1.9-1.6-3-1.9c4.5,3.6,8.3,6.3,13.5,9.8c-1.9-1.6-3.5-2.5-5.1-3.7c0.1-0.1,0.2-0.1,0.5,0
				c-1-0.8-3.3-2.3-4.3-3.3c0.2-0.1,0.7,0.5,0.8,0.6c-0.3-0.5-1-0.9-1.7-1.5c3,1.4,5.6,3.4,8.8,5.1c0,0.1,0.3,0.2,0,0.5
				c6.2,4.7,13.1,9.2,18,13.8c0.2,0.1,0.3-0.1,0.6,0.1c2.7,2.8,7.1,5,10.3,8.2c0.9,1,2.5,1.5,2.8,2.6c2.9,2,7.6,5.5,8.9,8l0.7,0.7
				c0.1,0.3-0.1,0.6,0.2,0.9c0.8,0.1,1.2,1,1.9,1.8c0.2,0,0.3,0,0.5-0.1c-0.6,0-0.2-0.2-0.8-0.7c0-0.1,0.9,0.5,1.1,0.7
				c-0.3,0-0.2,0.7-0.6,0.2c0.2,0.7,0.9,1.4,1.9,2c-0.2,0.2-0.2-0.1-0.6-0.2c0.3,0.6,0.2,1.4,1.2,1.7c-0.7,0.5,0.8,1.6-0.1,2.3
				c-0.1,0.1,0.3,0.3,0.3,0.5c-0.5,0.2,0.3,1.1-0.7,1.6c-0.7-0.6-1.7,0.6-2.6,0.7c-0.1,0.3,0.7,0.2,0.2,0.5c-0.6-0.7-1.5-0.6-2-0.6
				c-0.7-0.5-0.6-0.9-0.9-1.4c-1.2-0.5-2-0.3-3-1.4c-0.2-0.2-0.3-0.5-0.6-0.7c-0.2-0.1-0.5,0-0.5,0c-0.1-0.1-0.2-0.3-0.3-0.5
				c-0.3-0.2-0.9-0.1-1.1-0.2c-0.2-0.1-0.5-0.7-0.6-0.8c-0.6-0.6-1.2-0.8-2-1.4c-3.7-2.8-8-6.7-12.2-9.7c-1.1-0.8-2.4-1.8-3.4-2.6
				c-4.4-3.6-8.9-7.1-13.8-10.5c-0.1-0.1-1-0.9-1.8-1.5c-9-6.4-21.1-14.7-30.8-21.8c0-0.2-0.3-0.2,0-0.3c-0.2-0.1-0.2,0-0.3,0.1
				c-0.3-0.5-0.3-0.5-0.8-1c-0.9-1.1-2.8-2.3-3-3.3c1.7,1.5,3.4,3.4,5.1,4.6c-0.8-1.4-2.8-2.5-3.2-3.9c-0.8-0.2-0.8-0.9-1.4-0.9
				C195.1-71.3,193.2-71.7,192.9-72.3z M188.1-80.1l1,0.7C189.4-79.5,188-80.2,188.1-80.1z M194.5-77.2c-0.5,0-0.3-0.5-0.8-0.2
				C194-77.2,194.2-76.8,194.5-77.2z M202.2-63.5c0.5,0.2,0.6,0.2,0.8,0.6C203.2-63.3,202.3-63.6,202.2-63.5z M201-64.3
				c0.2,0.1,0.6,0.6,0.8,0.5C201.8-64.2,201.3-64.4,201-64.3z M271.1-21.6c-0.5-0.3-1.1-1.5-1.6-1.1
				C270.2-22.2,270.7-21.6,271.1-21.6z M191.5-73.5c-0.2,0-0.2-0.2-0.7-0.5c0-0.3,0.5,0.1,0.8,0.2C191.5-73.7,191.4-73.7,191.5-73.5
				z M190.3-75.5c-0.1,0.1-0.1,0-0.1-0.1c0.2,0,0.7,0.3,0.9,0.6C191-74.7,190.7-75.7,190.3-75.5z M189.4-80.3
				c0.3-0.2,0.7,0.5,0.9,0.3C190.3-79.6,189.6-80.2,189.4-80.3z M274.5-17.6c-0.2-0.1-0.8-1.2-0.6-1.4
				C274.3-18.4,274.3-18,274.5-17.6z"/>
		</g>
	</g>
</g>
</svg>
