<?xml version="1.0" encoding="utf-8"?>
<!-- Generator: Adobe Illustrator 19.0.0, SVG Export Plug-In . SVG Version: 6.00 Build 0)  -->
<svg version="1.1" id="a8904fed-7223-4ff2-9071-b444910320a0"
	 xmlns="http://www.w3.org/2000/svg" xmlns:xlink="http://www.w3.org/1999/xlink" x="0px" y="0px" viewBox="319 50 1137 402"
	 style="enable-background:new 319 50 1137 402;" xml:space="preserve">
<style type="text/css">
	.st0{fill:#EA8A8A;}
	.st1{fill:#FFFFFF;}
	.st2{fill:#CCCCCC;}
	.st3{fill:#3F3D56;}
	.st4{opacity:0.1;enable-background:new    ;}
	.st5{fill:#F2F2F2;}
	.st6{fill:none;stroke:#000000;stroke-miterlimit:10;}
</style>
<g>
	<g>
		<g>
			<path class="st0" d="M1189,233.1c0.2-0.1,0.2-0.4,0.2-0.5C1188.9,232.5,1189.2,232.9,1189,233.1z M1188.9,161.6
				c-0.1,0.2-0.1,0.3-0.3,0.3c-0.2-0.2-0.2-0.4-0.3-0.7C1188.6,161,1188.5,161.6,1188.9,161.6z M1188.5,234.5
				c-0.2,0.1-0.1,0.5-0.3,0.5c0.2-0.3,0.1-0.6,0.2-0.8C1188.5,234.2,1188.5,234.5,1188.5,234.5z M1187.4,241.6
				c0.2,0.6-0.2,1.4-0.2,1.9C1187.1,242.9,1187.4,242.3,1187.4,241.6z M1187.1,244.9c-0.2-0.5,0-1.8,0-0.6
				C1187.1,244.4,1187.1,244.7,1187.1,244.9z M1185.4,237.1c0.2,0.1,0.1,0.7,0,0.8C1185.3,237.7,1185.3,237.5,1185.4,237.1z
				 M1185.3,240.2c-0.2,0.1-0.2-0.2-0.2-0.5C1185.2,239.9,1185.3,240,1185.3,240.2z M1185,235.3c-0.2,0,0.1-0.5-0.2-0.5
				C1185,234.4,1185.1,235.2,1185,235.3z M1183.1,223.6c-0.3-0.1-0.2-0.9-0.1-1.1C1183.1,222.8,1183.2,223.2,1183.1,223.6z
				 M1191.1,176.6c-0.2-0.2-0.1-0.5-0.2-0.8C1191,176,1191.1,176.2,1191.1,176.6z M1190,168.5L1190,168.5c-0.2,1.5-0.1,3.6-0.2,4.7
				c0-2.2-0.1-4.4,0.4-6c0.2-0.9,0.7-1.7,0.2-2.6c0.2,0.1,0.5,0.5,0.5,0.7c0.2,0.9-0.7,1.8-0.7,2.7c0,0.5,0.2,0.6,0.2,1.2
				C1190.1,169,1190.1,168.8,1190,168.5z M1188.5,234c-0.3,0-0.1-0.4-0.1-0.5c-0.1,0.2-0.3,0.2-0.2,0.5c-0.1-0.2-0.2-0.2-0.2-0.4
				c-0.4,0.9-0.2,1.2-0.3,1.9c-0.1,0-0.1-0.2-0.2-0.2c-0.2,0.6-0.2,1.7-0.1,2.6c-0.2,0-0.2-0.2-0.2-0.5c-0.2,0.1-0.1,0.9-0.3,0.5
				c0,0.6,0.2,0.5,0.1,1.2c-0.2-0.6-0.3-0.8-0.3-1.6c-0.1,0.1-0.1,0.3-0.2,0.5c-0.2-0.2,0.1-0.4,0-0.6c-0.3,1.1-0.3,2.3-0.3,3.6
				c-0.1-0.4-0.2-1.1-0.2-1.8c-0.2,0.5-0.2,1.2-0.2,1.7c-0.2-0.5-0.2,0.1-0.2,0.4c-0.1-2.9-0.2-3.8-0.3-7c0,0.5-0.1,0.9,0,1.4
				c0,0.2-0.2,0.3-0.2,0.1c-0.1,0.1,0.2,0.5-0.1,0.5c-0.5-0.4-0.2-1.6-0.5-2.3c-0.1,0.1-0.1,0.3-0.3,0.2c0,0.4,0.3-0.2,0.2,0.5
				c-0.5-0.5-0.2-1.3-0.3-1.7c0-0.5-0.2-0.9-0.1-1.6c-0.3,0.4-0.1,1.4-0.2,2c-0.1,0.2-0.1-0.1-0.1-0.2c-0.1-1.2-0.2-3.3-0.2-4.4
				c-0.3,0.5-0.1,1-0.1,1.8c-0.1,0-0.1-0.2-0.1-0.3c-0.2,1.2,0,3.6,0.2,5.1c0.1,0.5,0.2,0.8,0.3,1.2c0,0.4,0,1.3,0.3,1.6
				c-0.2,0.5,0,0.8,0.2,1.2c-0.2,0-0.2-0.2-0.2,0c-0.1,0.3,0.2,0.2,0.3,0.3c-0.1,0.2-0.3,0.5-0.1,0.7c-0.3-0.1,0,0.6,0.1,1.2
				c0.1-0.2,0.1-0.5,0.2-0.6c0.2,0.9,0,1.6,0,2.7c-0.2-0.6,0-1.7,0-2.5c-0.2,0.1-0.2,0.6-0.2,1c-1.3-3.9-2.1-11-2-16.2
				c0.4,0,0.5-1.1,0.5-1.8c0.2,0.2,0.2,0.1,0.4,0.3c-0.1,0.2,0.1,0.5,0,0.9c0.2-0.4,0-1.6,0.1-2.3c-0.2,0,0,0.3-0.1,0.5
				s-0.1-0.7-0.2-0.9c-0.2,0.6-0.1,0.9-0.1,1.5c-0.4-0.2,0.1-1.7-0.2-2.3c0.1-0.3,0.2,0.1,0.2,0.3c0.1-0.9,0.2-1.8,0.1-2.6
				c-0.1,0.3-0.1,1.1-0.1,1.9c-0.3-0.5,0.1-1.6-0.1-2.6c0.2-0.1,0.2,0.2,0.2,0.5c0.2-0.2,0-0.6-0.2-0.6c0.1-0.3,0.1-0.6-0.1-0.9
				c0.2,1.4-0.4,2.8-0.2,4.1c0.1,0,0.1-0.2,0.1-0.4c0.2,0.2,0,1,0.1,1.7c-0.1-0.1-0.1-0.2-0.2-0.3c-0.2,0.5,0.1,1.6-0.2,2.3
				c-0.1-3.4-0.2-6.8,0.2-10.2c0.3,0.5,0.1,1.6,0.3,2.3c0.1-0.3,0.1-1.5,0.1-1.9c0.3,0.5-0.1,1.8,0.2,2.7c0.2-4.1,0.2-7.6-0.1-12.1
				c-0.1,1.8,0.1,3,0.1,4.5c-0.1-0.1-0.2-0.2-0.2-0.3c-0.1,0.9,0.1,2.9-0.1,3.9c-0.2-0.1,0-0.5-0.1-0.7c-0.1,0.5-0.2,0.9-0.2,1.6
				c-0.4-2.3-0.4-4.8-0.7-7.3c0.1-0.1,0.1-0.3,0.3-0.2c0.1-5.6-0.3-11.5,0-16.4c0-0.2-0.2-0.2-0.2-0.4c0.4-2.8-0.4-6.2,0.1-9.5
				c0.2-0.9-0.2-2,0.2-2.8c-0.2-2.6-0.4-6.7,0.3-8.7v-0.7c0.2-0.2,0.3-0.3,0.4-0.5c-0.3-0.5,0-1.2,0.2-1.9c-0.1-0.2-0.2-0.2-0.3-0.2
				c0.2,0.4,0,0.2,0,0.8c-0.1,0.1-0.1-0.7-0.2-1c0.2,0.2,0.4-0.2,0.4,0.2c0.2-0.5,0.3-1.2,0.2-2c0.2,0.1,0,0.2,0.2,0.4
				c0.2-0.5,0.5-0.8,0.2-1.5c0.5,0.2,0.5-1.3,1.2-1c0.2,0,0-0.3,0.1-0.5c0.3,0.2,0.5-0.7,1.1-0.5c0,0.6,1,0.6,1.4,1.1
				c0.2-0.1-0.2-0.5,0.2-0.4c-0.1,0.5,0.4,1,0.5,1.5c0.1,0.5-0.2,0.7-0.3,1.1c0.3,0.9,0.6,1.3,0.5,2.3c0,0.2-0.1,0.5-0.1,0.6
				s0.2,0.3,0.2,0.3c0,0.1-0.2,0.3-0.2,0.5c0,0.3,0.3,0.5,0.3,0.7c0,0.2-0.2,0.5-0.2,0.7c0,0.5,0.2,1.1,0.2,1.7
				c0.2,3.4,0,7.7,0.2,11.5c0.1,1,0.1,2.2,0.1,3.2c-0.1,4.2,0,8.4,0.2,12.7c0,0.2-0.1,1-0.1,1.6c0.2,8.1,0.5,18.8,0.3,27.7
				c-0.2,0.1-0.1,0.3-0.2,0.1c0,0.2,0.1,0.2,0.2,0.2c-0.1,0.5-0.2,0.5-0.2,0.9c-0.2,1-0.2,2.7-0.6,3.2c0.2-1.6,0.5-3.4,0.5-5
				c-0.5,1-0.3,2.8-0.9,3.6c0.2,0.5-0.2,0.9,0.1,1.2C1188.3,232.2,1188.7,233.5,1188.5,234z M1186.1,240v-0.9
				C1185.9,238.9,1186.1,240,1186.1,240z M1185.4,235c0.2,0.3-0.1,0.5,0.2,0.5C1185.5,235.3,1185.7,235,1185.4,235z M1189.8,224.7
				c0-0.5-0.2-0.5,0-0.7C1189.5,223.9,1189.6,224.7,1189.8,224.7z M1189.8,225.8c-0.1-0.2,0.1-0.5-0.1-0.6
				C1189.6,225.2,1189.6,225.7,1189.8,225.8z M1184,166.2c0,0.5-0.3,1.3,0.2,1.4C1184.1,167,1184.1,166.5,1184,166.2z M1188.4,235.3
				c0.1,0.2-0.2,0.2,0,0.5c-0.2,0.1-0.1-0.4-0.2-0.5C1188.4,235.4,1188.4,235.4,1188.4,235.3z M1187.8,236.8L1187.8,236.8
				c-0.2-0.1-0.2-0.5-0.2-0.7C1187.9,236.1,1187.5,236.7,1187.8,236.8z M1185.5,239.3c-0.2-0.1,0-0.5-0.2-0.6
				C1185.5,238.5,1185.5,239.1,1185.5,239.3z M1184.6,162.5c0.1,0.2-0.3,1-0.5,0.9C1184.2,163.1,1184.5,162.8,1184.6,162.5z"/>
		</g>
	</g>
	<g>
		<g>
			<path class="st0" d="M1172.3,127.8c-0.2,0-0.2,0.1-0.2,0.2C1172.4,128,1172.2,127.9,1172.3,127.8z M1171.9,146.1
				c0.1,0,0.1-0.1,0.3-0.1c0.2,0.1,0.2,0.1,0.3,0.2C1172.1,146.3,1172.3,146.1,1171.9,146.1z M1172.8,127.5c0.2,0,0.1-0.2,0.3-0.2
				C1172.9,127.4,1173,127.5,1172.8,127.5C1172.8,127.6,1172.9,127.5,1172.8,127.5z M1174.1,125.7c-0.2-0.2,0.2-0.4,0.2-0.5
				C1174.4,125.4,1174.1,125.5,1174.1,125.7z M1174.4,124.8c0.2,0.2,0,0.5,0,0.2C1174.4,124.9,1174.4,124.8,1174.4,124.8z
				 M1176.1,126.9c-0.2,0-0.1-0.2,0-0.2C1176.4,126.8,1176.2,126.9,1176.1,126.9z M1176.4,126.1c0.2,0,0.2,0.1,0.2,0.2
				C1176.4,126.2,1176.4,126.2,1176.4,126.1z M1176.6,127.3c0.2,0-0.1,0.2,0.2,0.2C1176.6,127.6,1176.5,127.4,1176.6,127.3z
				 M1178.5,130.4c0.3,0,0.2,0.2,0.1,0.3C1178.5,130.6,1178.4,130.5,1178.5,130.4z M1169.6,142.1c0.2,0.1,0.1,0.2,0.2,0.2
				C1169.7,142.3,1169.6,142.3,1169.6,142.1z M1170.7,144.2C1170.8,144.2,1170.8,144.2,1170.7,144.2c0.2-0.4,0.1-0.9,0.3-1.2
				c0,0.5,0.1,1.1-0.5,1.6c-0.2,0.2-0.8,0.5-0.2,0.6c-0.2,0-0.5-0.2-0.5-0.2c-0.2-0.2,0.8-0.5,0.8-0.6s-0.2-0.2-0.2-0.3
				C1170.6,144.1,1170.6,144.1,1170.7,144.2z M1172.8,127.6c0.3,0,0.1,0.1,0.1,0.2c0.1,0,0.3-0.1,0.2-0.2c0.1,0.1,0.2,0.1,0.2,0.1
				c0.4-0.2,0.2-0.3,0.3-0.5c0.1,0,0.1,0.1,0.2,0.1c0.2-0.2,0.2-0.5,0.1-0.6c0.2,0,0.2,0.1,0.2,0.2c0.2,0,0.1-0.2,0.3-0.1
				c0-0.2-0.2-0.2-0.1-0.3c0.2,0.2,0.3,0.2,0.3,0.4c0.1,0,0.1-0.1,0.2-0.1c0.2,0.1-0.1,0.1,0,0.2c0.3-0.3,0.3-0.5,0.4-0.9
				c0.1,0.1,0.2,0.3,0.2,0.5c0.2-0.1,0.2-0.3,0.2-0.5c0.2,0.2,0.2,0,0.2-0.1c0.1,0.7,0.2,1,0.2,1.8c0-0.2,0.1-0.2,0-0.4
				c0-0.1,0.2-0.1,0.2,0c0.1,0-0.2-0.2,0.1-0.2c0.5,0.1,0.2,0.5,0.5,0.5c0.1,0,0.1-0.1,0.3,0c0-0.1-0.3,0-0.2-0.2
				c0.5,0.2,0.2,0.3,0.3,0.5c0,0.2,0.2,0.2,0.1,0.5c0.3-0.1,0.1-0.4,0.2-0.5c0.1,0,0.1,0,0.1,0.1c0.1,0.3,0.2,0.9,0.2,1.1
				c0.3-0.1,0.1-0.3,0.1-0.5c0.1,0,0.1,0.1,0.1,0.1c0.2-0.3,0-0.9-0.2-1.3c-0.1-0.2-0.2-0.2-0.3-0.3c0-0.1,0-0.3-0.3-0.5
				c0.2-0.2,0-0.2-0.2-0.3c0.2,0,0.2,0.1,0.2,0c0.1-0.1-0.2-0.1-0.3-0.1c0.1,0,0.3-0.2,0.1-0.2c0.3,0,0-0.2-0.1-0.3
				c-0.1,0.1-0.1,0.2-0.2,0.2c-0.2-0.2,0-0.5,0-0.6c0.2,0.2,0,0.5,0,0.6c0.2,0,0.2-0.2,0.2-0.2c1.4,1,2.2,2.9,2,4.2
				c-0.4,0-0.5,0.3-0.5,0.5c-0.2-0.1-0.2,0-0.4-0.1c0.1,0-0.1-0.2,0-0.2c-0.2,0.1,0,0.5-0.1,0.5c0.2,0,0-0.1,0.1-0.1
				c0.1,0,0.1,0.2,0.2,0.2c0.2-0.2,0.1-0.2,0.1-0.4c0.4,0.1-0.1,0.5,0.2,0.5c-0.1,0.1-0.2,0-0.2-0.1c-0.1,0.2-0.2,0.5-0.1,0.6
				c0.1-0.1,0.1-0.3,0.1-0.5c0.3,0.2-0.1,0.5,0.1,0.6c-0.2,0-0.2-0.1-0.2-0.2c-0.2,0.1,0,0.2,0.2,0.2c-0.1,0.1-0.1,0.2,0.1,0.2
				c-0.2-0.4,0.5-0.7,0.3-1c-0.1,0-0.1,0.1-0.1,0.1c-0.2-0.1,0-0.3-0.1-0.5c0.1,0,0.1,0.1,0.2,0.1c0.2-0.2-0.1-0.5,0.2-0.5
				c0.1,0.9,0.2,1.7-0.2,2.7c-0.3-0.2-0.1-0.5-0.3-0.5c-0.1,0.1-0.1,0.4-0.1,0.5c-0.3-0.2,0.1-0.5-0.2-0.6c-0.2,1-0.2,1.9,0,3
				c0.1-0.5-0.1-0.8-0.1-1.2c0.1,0,0.2,0.1,0.2,0.1c0.1-0.2-0.1-0.7,0.1-1c0.2,0,0,0.2,0.1,0.2c0.1-0.1,0.2-0.2,0.2-0.4
				c0.4,0.5,0.4,1.3,0.7,1.9c-0.1,0-0.1,0.1-0.3,0c-0.2,1.5,0.2,2.9-0.2,4.1c0,0.1,0.2,0.1,0.2,0.1c-0.5,0.7,0.4,1.6-0.2,2.4
				c-0.2,0.2,0.2,0.5-0.2,0.7c0.2,0.6,0.4,1.7-0.4,2.2v0.2c-0.2,0.1-0.3,0.1-0.4,0.2c0.3,0.2,0,0.3-0.2,0.5c0.3,0,0.4,0,0.5,0
				c-0.2-0.1,0-0.1,0-0.2c0.1,0,0.1,0.2,0.2,0.3c-0.2-0.1-0.4,0.1-0.4,0c-0.2,0.2-0.3,0.3-0.2,0.5c-0.2,0,0-0.1-0.2-0.1
				c-0.2,0.2-0.5,0.2-0.2,0.4c-0.5-0.1-0.5,0.3-1.3,0.2c-0.2,0,0,0.1-0.1,0.1c-0.3-0.1-0.5,0.2-1.2,0.1c0-0.2-1.1-0.2-1.5-0.3
				c-0.2,0,0.2,0.2-0.2,0.1c0.1-0.2-0.4-0.3-0.5-0.4c-0.1-0.2,0.2-0.2,0.3-0.3c-0.3-0.2-0.6-0.4-0.5-0.5c0-0.1,0.1-0.1,0.1-0.2
				c0-0.1-0.2-0.1-0.2-0.1l0.2-0.1c0-0.1-0.3-0.2-0.3-0.2c0-0.1,0.2-0.2,0.2-0.2c0-0.2-0.2-0.3-0.2-0.5c-0.2-0.9,0.1-2-0.1-2.9
				c-0.1-0.3-0.1-0.5-0.1-0.8c0.2-1.1,0.1-2.1-0.1-3.2c0-0.1,0.1-0.3,0.1-0.5c-0.2-2-0.5-4.8-0.1-7c0.2,0,0.1-0.1,0.2,0
				c0-0.1-0.1-0.1-0.2-0.1c0.1-0.1,0.2-0.1,0.2-0.2c0.2-0.2,0.2-0.6,0.7-0.8c-0.2,0.5-0.6,0.8-0.6,1.3c0.5-0.2,0.4-0.7,1-0.9
				c-0.2-0.2,0.2-0.2-0.1-0.3C1173.1,128,1172.6,127.7,1172.8,127.6z M1175.5,126.1v0.2C1175.6,126.4,1175.5,126.1,1175.5,126.1z
				 M1176.1,127.4c-0.2-0.1,0.1-0.1-0.2-0.2C1176,127.3,1175.8,127.4,1176.1,127.4z M1171.3,129.9c0,0.2,0.2,0.2,0,0.2
				C1171.7,130.2,1171.6,129.9,1171.3,129.9z M1171.4,129.7c0.1,0.1-0.1,0.2,0.1,0.2S1171.6,129.7,1171.4,129.7z M1177.1,145.1
				c0-0.2,0.3-0.3-0.2-0.4C1177,144.8,1177,145,1177.1,145.1z M1173,127.2c-0.1-0.1,0.2-0.1,0-0.2c0.2,0,0.1,0.1,0.2,0.2
				C1173.1,127.2,1173,127.2,1173,127.2z M1173.6,126.9C1173.5,126.9,1173.6,126.9,1173.6,126.9c0.2,0.1,0.2,0.2,0.2,0.2
				C1173.5,127,1173.9,126.9,1173.6,126.9z M1176.1,126.3c0.2,0,0,0.2,0.2,0.2C1176,126.6,1176.1,126.4,1176.1,126.3z M1176.5,146
				c-0.1-0.1,0.3-0.2,0.5-0.2C1176.7,145.9,1176.6,145.9,1176.5,146z"/>
		</g>
	</g>
	<g>
		<g>
			<path class="st0" d="M1094,233.1c0.2-0.1,0.2-0.4,0.2-0.5C1094,232.5,1094.2,232.9,1094,233.1z M1093.8,161.6
				c0,0.2-0.1,0.3-0.2,0.3c-0.2-0.2-0.2-0.4-0.3-0.7C1093.7,161,1093.6,161.6,1093.8,161.6z M1093.7,234.5c-0.2,0.1-0.1,0.5-0.3,0.5
				c0.2-0.3,0.1-0.6,0.2-0.8C1093.7,234.2,1093.6,234.5,1093.7,234.5z M1092.5,241.6c0.2,0.6-0.2,1.4-0.2,1.9
				C1092.2,242.9,1092.5,242.3,1092.5,241.6z M1092.2,244.9c-0.2-0.5,0-1.8,0-0.6C1092.2,244.4,1092.2,244.7,1092.2,244.9z
				 M1090.5,237.1c0.2,0.1,0.1,0.7,0,0.8C1090.4,237.7,1090.5,237.5,1090.5,237.1z M1090.4,240.2c-0.2,0.1-0.2-0.2-0.2-0.5
				C1090.3,239.9,1090.4,240,1090.4,240.2z M1090,235.3c-0.2,0,0.1-0.5-0.2-0.5C1090,234.4,1090.1,235.2,1090,235.3z M1088.3,223.6
				c-0.3-0.1-0.2-0.9-0.1-1.1C1088.3,222.8,1088.3,223.2,1088.3,223.6z M1096.1,176.6c-0.2-0.2-0.2-0.5-0.2-0.8
				C1096.1,176,1096.1,176.2,1096.1,176.6z M1095,168.5L1095,168.5c-0.2,1.5-0.1,3.6-0.2,4.7c0-2.2-0.1-4.4,0.4-6
				c0.2-0.9,0.7-1.7,0.2-2.6c0.2,0.1,0.5,0.5,0.5,0.7c0.2,0.9-0.7,1.8-0.7,2.7c0,0.5,0.2,0.6,0.2,1.2
				C1095.1,169,1095.1,168.8,1095,168.5z M1093.6,234c-0.3,0-0.1-0.4-0.1-0.5c-0.1,0.2-0.3,0.2-0.2,0.5c-0.1-0.2-0.2-0.2-0.2-0.4
				c-0.4,0.9-0.2,1.2-0.3,1.9c-0.1,0-0.1-0.2-0.2-0.2c-0.2,0.6-0.2,1.7-0.1,2.6c-0.2,0-0.2-0.2-0.2-0.5c-0.2,0.1-0.1,0.9-0.3,0.5
				c0,0.6,0.2,0.5,0.1,1.2c-0.2-0.6-0.3-0.8-0.3-1.6c-0.1,0.1-0.1,0.3-0.2,0.5c-0.2-0.2,0.1-0.4,0-0.6c-0.3,1.1-0.3,2.3-0.3,3.6
				c-0.1-0.4-0.2-1.1-0.2-1.8c-0.2,0.5-0.2,1.2-0.2,1.7c-0.2-0.5-0.2,0.1-0.2,0.4c-0.1-2.9-0.2-3.8-0.3-7c0,0.5-0.1,0.9,0,1.4
				c0,0.2-0.2,0.3-0.2,0.1c-0.1,0.1,0.2,0.5-0.1,0.5c-0.5-0.4-0.2-1.6-0.5-2.3c-0.1,0.1-0.1,0.3-0.3,0.2c0,0.4,0.3-0.2,0.2,0.5
				c-0.5-0.5-0.2-1.3-0.3-1.7c0-0.5-0.2-0.9-0.1-1.6c-0.3,0.4-0.1,1.4-0.2,2c-0.1,0.2-0.1-0.1-0.1-0.2c-0.1-1.2-0.2-3.3-0.2-4.4
				c-0.3,0.5-0.1,1-0.1,1.8c-0.1,0-0.1-0.2-0.1-0.3c-0.2,1.2,0,3.6,0.2,5.1c0.1,0.5,0.2,0.8,0.3,1.2c0,0.4,0,1.3,0.3,1.6
				c-0.2,0.5,0,0.8,0.2,1.2c-0.2,0-0.2-0.2-0.2,0c-0.1,0.3,0.2,0.2,0.3,0.3c-0.1,0.2-0.3,0.5-0.1,0.7c-0.3-0.1,0,0.6,0.1,1.2
				c0.1-0.2,0.1-0.5,0.2-0.6c0.2,0.9,0,1.6,0,2.7c-0.2-0.6,0-1.7,0-2.5c-0.2,0.1-0.2,0.6-0.2,1c-1.3-3.9-2.1-11-2-16.2
				c0.4,0,0.5-1.1,0.5-1.8c0.2,0.2,0.2,0.1,0.4,0.3c-0.1,0.2,0.1,0.5,0,0.9c0.2-0.4,0-1.6,0.1-2.3c-0.2,0,0,0.3-0.1,0.5
				s-0.1-0.7-0.2-0.9c-0.2,0.6-0.1,0.9-0.1,1.5c-0.4-0.2,0.1-1.7-0.2-2.3c0.1-0.3,0.2,0.1,0.2,0.3c0.1-0.9,0.2-1.8,0.1-2.6
				c-0.1,0.3-0.1,1.1-0.1,1.9c-0.3-0.5,0.1-1.6-0.1-2.6c0.2-0.1,0.2,0.2,0.2,0.5c0.2-0.2,0-0.6-0.2-0.6c0.1-0.3,0.1-0.6-0.1-0.9
				c0.2,1.4-0.4,2.8-0.2,4.1c0.1,0,0.1-0.2,0.1-0.4c0.2,0.2,0,1,0.1,1.7c-0.1-0.1-0.1-0.2-0.2-0.3c-0.2,0.5,0.1,1.6-0.2,2.3
				c-0.1-3.4-0.2-6.8,0.2-10.2c0.3,0.5,0.1,1.6,0.3,2.3c0.1-0.3,0.1-1.5,0.1-1.9c0.3,0.5-0.1,1.8,0.2,2.7c0.2-4.1,0.2-7.6-0.1-12.1
				c-0.1,1.8,0.1,3,0.1,4.5c-0.1-0.1-0.2-0.2-0.2-0.3c-0.1,0.9,0.1,2.9-0.1,3.9c-0.2-0.1,0-0.5-0.1-0.7c-0.1,0.5-0.2,0.9-0.2,1.6
				c-0.4-2.3-0.4-4.8-0.7-7.3c0.1-0.1,0.1-0.3,0.3-0.2c0.1-5.6-0.3-11.5,0-16.4c0-0.2-0.2-0.2-0.2-0.4c0.4-2.8-0.4-6.2,0.1-9.5
				c0.2-0.9-0.2-2,0.2-2.8c-0.2-2.6-0.4-6.7,0.3-8.7v-0.7c0.2-0.2,0.3-0.3,0.4-0.5c-0.3-0.5,0-1.2,0.2-1.9c-0.1-0.2-0.2-0.2-0.3-0.2
				c0.2,0.4,0,0.2,0,0.8c-0.1,0.1-0.1-0.7-0.2-1c0.2,0.2,0.4-0.2,0.4,0.2c0.2-0.5,0.3-1.2,0.2-2c0.2,0.1,0,0.2,0.2,0.4
				c0.2-0.5,0.5-0.8,0.2-1.5c0.5,0.2,0.5-1.3,1.2-1c0.2,0,0-0.3,0.1-0.5c0.3,0.2,0.5-0.7,1.1-0.5c0,0.6,1,0.6,1.4,1.1
				c0.2-0.1-0.2-0.5,0.2-0.4c-0.1,0.5,0.4,1,0.5,1.5c0.1,0.5-0.2,0.7-0.3,1.1c0.3,0.9,0.6,1.3,0.5,2.3c0,0.2-0.1,0.5-0.1,0.6
				s0.2,0.3,0.2,0.3c0,0.1-0.2,0.3-0.2,0.5c0,0.3,0.3,0.5,0.3,0.7c0,0.2-0.2,0.5-0.2,0.7c0,0.5,0.2,1.1,0.2,1.7
				c0.2,3.4,0,7.7,0.2,11.5c0.1,1,0.1,2.2,0.1,3.2c-0.1,4.2,0,8.4,0.2,12.7c0,0.2-0.1,1-0.1,1.6c0.2,8.1,0.5,18.8,0.3,27.7
				c-0.2,0.1-0.1,0.3-0.2,0.1c0,0.2,0.1,0.2,0.2,0.2c-0.1,0.5-0.2,0.5-0.2,0.9c-0.2,1-0.2,2.7-0.6,3.2c0.2-1.6,0.5-3.4,0.5-5
				c-0.5,1-0.3,2.8-0.9,3.6c0.2,0.5-0.2,0.9,0.1,1.2C1093.3,232.2,1093.7,233.5,1093.6,234z M1091.1,240v-0.9
				C1090.9,238.9,1091.1,240,1091.1,240z M1090.5,235c0.2,0.3-0.1,0.5,0.2,0.5C1090.5,235.3,1090.8,235,1090.5,235z M1094.8,224.7
				c0-0.5-0.2-0.5,0-0.7C1094.6,223.9,1094.8,224.7,1094.8,224.7z M1094.8,225.8c-0.1-0.2,0.1-0.5-0.1-0.6
				C1094.7,225.2,1094.8,225.7,1094.8,225.8z M1089,166.2c0,0.5-0.3,1.3,0.2,1.4C1089.2,167,1089.2,166.5,1089,166.2z M1093.5,235.3
				c0.1,0.2-0.2,0.2,0,0.5c-0.2,0.1-0.1-0.4-0.2-0.5C1093.4,235.4,1093.5,235.4,1093.5,235.3z M1092.8,236.8
				C1092.9,236.8,1092.8,236.8,1092.8,236.8c-0.2-0.1-0.2-0.5-0.2-0.7C1092.9,236.1,1092.6,236.7,1092.8,236.8z M1090.5,239.3
				c-0.2-0.1,0-0.5-0.2-0.6C1090.5,238.5,1090.5,239.1,1090.5,239.3z M1089.6,162.5c0.1,0.2-0.3,1-0.5,0.9
				C1089.3,163.1,1089.5,162.8,1089.6,162.5z"/>
		</g>
	</g>
	<g>
		<g>
			<path class="st0" d="M1084,163.3c0.2,0.2,0.4-0.1,0.5-0.2C1084.3,162.9,1084.3,163.4,1084,163.3z M1135.9,122.7
				c-0.2,0-0.3,0.2-0.4,0c0.1-0.2,0.2-0.4,0.4-0.6C1136.3,122.3,1135.7,122.5,1135.9,122.7z M1082.7,163.8c-0.2-0.2-0.5,0.2-0.5,0.1
				c0.3-0.2,0.5-0.4,0.6-0.4C1082.9,163.5,1082.6,163.7,1082.7,163.8z M1076.8,167c-0.3,0.5-1.2,0.7-1.4,1.1
				C1075.7,167.7,1076.4,167.5,1076.8,167z M1074.3,168.8c0.3-0.5,1.3-1.1,0.5-0.4C1074.6,168.5,1074.4,168.8,1074.3,168.8z
				 M1078.8,162.9c0,0.2-0.5,0.5-0.5,0.5C1078.3,163.2,1078.6,163.1,1078.8,162.9z M1076.5,164.7c-0.2-0.2,0-0.3,0.2-0.4
				C1076.7,164.4,1076.6,164.5,1076.5,164.7z M1079.8,161.4c-0.1-0.2,0.5-0.3,0.3-0.5C1080.4,160.9,1079.9,161.5,1079.8,161.4z
				 M1087.1,153.3c-0.2-0.3,0.5-0.6,0.7-0.6C1087.5,152.8,1087.3,153,1087.1,153.3z M1126.2,132.8c0-0.2,0.4-0.5,0.5-0.5
				C1126.6,132.4,1126.5,132.6,1126.2,132.8z M1131.6,127.5C1131.6,127.4,1131.5,127.4,1131.6,127.5c-1.2,0.6-2.7,1.9-3.5,2.3
				c1.6-1.3,3.2-2.5,4.7-3c0.9-0.4,1.7-0.4,2-1.3c0,0.2-0.1,0.5-0.3,0.9c-0.5,0.5-1.8,0.4-2.5,0.9c-0.5,0.3-0.4,0.5-0.8,0.7
				C1131.2,127.9,1131.4,127.7,1131.6,127.5z M1083,163.5c-0.2-0.2,0.3-0.2,0.3-0.4c-0.2,0-0.3,0-0.5,0.2c0.1-0.2,0-0.2,0.2-0.4
				c-0.9,0.2-0.9,0.5-1.6,0.9c0-0.1,0.2-0.2,0.1-0.2c-0.5,0.3-1.5,0.9-1.9,1.4c-0.1-0.2,0.1-0.2,0.2-0.4c-0.2-0.2-0.6,0.5-0.5,0
				c-0.5,0.5-0.3,0.5-0.8,0.7c0.4-0.5,0.4-0.7,0.9-1.1c-0.2-0.1-0.3,0.2-0.5,0.2c0-0.2,0.4-0.2,0.5-0.4c-0.9,0.5-1.8,1.1-2.7,1.8
				c0.2-0.2,0.7-0.8,1.3-1.2c-0.5,0.2-0.9,0.6-1.4,0.9c0.3-0.5-0.2-0.1-0.5,0.1c2-1.7,2.7-2.3,4.8-4.3c-0.5,0.3-0.7,0.5-1,0.8
				c-0.1,0.1-0.4,0.1-0.2-0.2c-0.1-0.1-0.2,0.4-0.5,0.3c0-0.5,1.1-1.2,1.4-1.7c-0.1-0.1-0.2,0.1-0.3-0.1c-0.3,0.2,0.3,0.1-0.2,0.4
				c0-0.6,0.6-0.9,1.1-1.3c0.4-0.3,0.6-0.6,1.1-1c-0.5,0-1,0.7-1.6,1.1c-0.2,0.1,0-0.1,0.1-0.2c0.8-0.7,2.3-2,3-2.7
				c-0.5,0-0.7,0.5-1.3,0.9c0-0.1,0.1-0.2,0.2-0.2c-0.9,0.5-2.7,2-3.6,3.2c-0.2,0.3-0.5,0.6-0.6,0.9c-0.3,0.2-0.9,0.7-0.9,1.3
				c-0.5,0.2-0.5,0.5-0.7,0.8c-0.1-0.1,0-0.2-0.1-0.2c-0.3,0.2,0,0.2,0,0.4c-0.2,0.1-0.5,0.2-0.5,0.4c-0.2-0.3-0.5,0.4-0.8,0.7
				c0.2,0,0.5-0.3,0.6-0.2c-0.5,0.6-1.2,0.9-1.8,1.6c0.4-0.5,1.2-1,1.7-1.5c-0.2-0.2-0.5,0.3-0.8,0.5c2-3.4,6.5-8.1,10.4-11.1
				c0.2,0.3,1.1-0.2,1.6-0.6c-0.1,0.2,0.1,0.2,0.1,0.5c-0.2,0-0.3,0.4-0.6,0.5c0.4-0.1,1.1-0.9,1.7-1.3c-0.1-0.2-0.3,0.2-0.4,0.2
				c-0.2,0,0.5-0.5,0.5-0.6c-0.5,0.2-0.7,0.5-1.1,0.8c-0.2-0.4,1.3-0.9,1.6-1.5c0.3-0.2,0,0.2-0.2,0.2c0.6-0.5,1.5-0.9,1.9-1.4
				c-0.2,0.1-0.8,0.5-1.4,1.1c0.2-0.5,1.3-0.9,1.7-1.6c0.2,0.2,0,0.3-0.2,0.4c0.3,0,0.5-0.4,0.4-0.5c0.3-0.2,0.5-0.4,0.5-0.5
				c-0.9,0.9-2.3,1.4-3.1,2.3c0.1,0.1,0.2-0.1,0.3-0.2c0.1,0.3-0.7,0.5-1.2,1c0-0.1,0.1-0.2,0.2-0.2c-0.5,0.2-1.2,1-1.7,1.3
				c2.5-2,4.8-4.1,7.5-5.9c-0.2,0.5-1.1,1-1.5,1.6c0.3-0.2,1.2-0.8,1.4-1.1c-0.2,0.5-1.3,0.9-1.8,1.6c3.1-2.3,5.6-4.2,8.8-7
				c-1.4,1.2-2.2,2-3.2,2.8c0-0.1,0-0.2,0.2-0.2c-0.7,0.5-2,1.7-2.8,2.2c0-0.2,0.3-0.4,0.5-0.5c-0.4,0.2-0.7,0.5-1.3,0.8
				c1.5-1.6,3.2-3,4.8-4.8c0.1,0.1,0.3-0.2,0.3,0.1c4.1-3.2,8.2-6.8,12-9.3c0.2-0.1,0.1-0.2,0.2-0.4c2.3-1.3,4.5-3.8,7-5.3
				c0.8-0.5,1.4-1.4,2.2-1.5c1.7-1.6,4.8-4.1,6.6-4.6l0.5-0.5c0.2,0,0.4,0.1,0.6,0c0.2-0.5,0.9-0.6,1.6-0.9c0.1-0.1,0.1-0.2-0.1-0.3
				c0,0.4-0.2,0.1-0.5,0.5c-0.1,0,0.5-0.5,0.6-0.6c-0.1,0.2,0.4,0.2,0.2,0.5c0.5-0.1,1-0.4,1.6-0.9c0,0.2-0.2,0.1-0.2,0.3
				c0.5-0.2,0.9-0.1,1.3-0.5c0.2,0.5,1.1-0.4,1.5,0.4c0.1,0.2,0.3-0.2,0.4-0.2c0.2,0.4,0.8,0,0.9,0.5c-0.5,0.4,0.2,1.2,0,1.7
				c0.2,0.2,0.2-0.4,0.4-0.2c-0.5,0.3-0.5,0.8-0.7,1.3c-0.4,0.4-0.7,0.2-0.9,0.4c-0.5,0.7-0.5,1.2-1.4,1.8c-0.2,0.1-0.4,0.2-0.5,0.3
				c-0.2,0.1-0.2,0.2-0.2,0.2c-0.1,0.1-0.3,0.1-0.5,0.2c-0.2,0.2-0.2,0.5-0.4,0.6c-0.2,0.2-0.5,0.2-0.6,0.3c-0.5,0.3-0.8,0.6-1.2,1
				c-2.5,2-5.6,4.1-8.3,6.5c-0.7,0.5-1.6,1.3-2.3,1.8c-3.1,2.3-6.1,4.7-9.2,7.2c-0.1,0.1-0.7,0.5-1.3,0.9
				c-5.8,4.8-13.4,11.3-19.9,16.2c-0.2-0.1-0.2,0.1-0.2-0.2c-0.2,0.1-0.1,0.2-0.1,0.2c-0.5,0.2-0.5,0.2-0.9,0.4
				c-0.9,0.5-2,1.4-2.7,1.4c1.3-0.7,2.8-1.6,3.9-2.5c-1,0.3-2.2,1.4-3.1,1.4c-0.3,0.5-0.8,0.3-0.8,0.7
				C1084.1,162.3,1083.6,163.4,1083,163.5z M1077.2,165.1l0.6-0.5C1077.8,164.4,1077.2,165.1,1077.2,165.1z M1080.3,161.6
				c-0.2,0.2-0.4,0.2-0.3,0.5C1080.2,162,1080.5,161.9,1080.3,161.6z M1090.5,159.1c0.3-0.2,0.2-0.3,0.5-0.5
				C1090.8,158.4,1090.5,158.9,1090.5,159.1z M1089.7,159.6c0.2-0.2,0.5-0.3,0.4-0.5C1090,159.2,1089.7,159.5,1089.7,159.6z
				 M1129.7,121.4c-0.4,0.2-1.2,0.5-0.9,0.9C1129.2,121.9,1129.5,121.5,1129.7,121.4z M1082,164.1c-0.1,0.2-0.2,0-0.4,0.4
				C1081.5,164.4,1081.9,164.3,1082,164.1C1081.9,164.1,1081.9,164.2,1082,164.1z M1080.5,164.5
				C1080.5,164.6,1080.4,164.6,1080.5,164.5c0-0.2,0.2-0.3,0.5-0.5C1081.1,164.3,1080.5,164.3,1080.5,164.5z M1077.3,164.3
				c-0.1-0.2,0.4-0.4,0.4-0.5C1077.9,163.8,1077.4,164.1,1077.3,164.3z M1132.8,119.7c-0.2,0.2-0.9,0.4-0.9,0.2
				C1132.2,119.7,1132.5,119.9,1132.8,119.7z"/>
		</g>
	</g>
	<g>
		<g>
			<path class="st0" d="M1145.9,127.8c-0.1,0.2,0.2,0.3,0.2,0.5C1146.4,128,1146,128,1145.9,127.8z M1196,166.1
				c-0.1-0.2-0.2-0.2,0-0.4c0.2,0,0.5,0.1,0.6,0.2C1196.5,166.3,1196.2,165.8,1196,166.1z M1145.2,126.8c0.1-0.2-0.3-0.4-0.2-0.5
				c0.2,0.2,0.5,0.4,0.5,0.5C1145.4,126.9,1145.2,126.7,1145.2,126.8z M1140.5,122.3c-0.5-0.2-0.9-0.9-1.3-1
				C1139.7,121.4,1140,121.9,1140.5,122.3z M1138.2,120.5c0.5,0.2,1.4,0.8,0.5,0.3C1138.6,120.6,1138.4,120.5,1138.2,120.5z
				 M1145,122.8c-0.2,0.1-0.5-0.3-0.5-0.4C1144.5,122.5,1144.7,122.6,1145,122.8z M1142.7,121.2c0.1-0.2,0.2-0.1,0.5,0.1
				C1143,121.3,1142.8,121.2,1142.7,121.2z M1146.5,123.3c0.1-0.2,0.4,0.4,0.5,0.2C1147.2,123.7,1146.6,123.5,1146.5,123.3z
				 M1156.1,127.7c0.2-0.3,0.8,0.3,0.8,0.5C1156.7,128.1,1156.3,128,1156.1,127.7z M1184.5,159.3c0.2-0.1,0.5,0.3,0.7,0.3
				C1185,159.5,1184.7,159.5,1184.5,159.3z M1190.6,163.1C1190.6,163.1,1190.6,163,1190.6,163.1c-0.9-0.9-2.4-2.1-3-2.7
				c1.5,1.3,3,2.4,3.8,3.8c0.5,0.7,0.6,1.6,1.6,1.6c-0.2,0.2-0.5,0.1-0.8,0c-0.6-0.4-0.7-1.6-1.3-2.2c-0.3-0.4-0.6-0.2-0.9-0.5
				C1190.3,162.7,1190.4,163,1190.6,163.1z M1145.5,126.9c0.1-0.2,0.4,0.2,0.5,0.2c-0.1-0.2,0-0.3-0.3-0.5c0.2,0,0.2-0.2,0.4,0.1
				c-0.5-0.7-0.7-0.6-1.3-1.2c0.1-0.1,0.2,0,0.2-0.1c-0.4-0.5-1.1-1.1-1.8-1.3c0.1-0.2,0.2,0,0.5,0.2c0-0.2-0.6-0.5-0.2-0.5
				c-0.5-0.4-0.5-0.2-0.9-0.5c0.5,0.2,0.7,0.2,1.3,0.5c0-0.2-0.2-0.2-0.2-0.3c0.2-0.2,0.3,0.2,0.5,0.3c-0.6-0.7-1.6-1.4-2.5-2
				c0.3,0.1,0.9,0.5,1.5,0.8c-0.2-0.3-0.8-0.6-1.2-1c0.5,0.2,0-0.2-0.1-0.4c2.2,1.4,2.8,1.8,5.3,3.2c-0.5-0.3-0.5-0.5-1-0.6
				c-0.1,0-0.1-0.3,0-0.2c0-0.2-0.5-0.1-0.4-0.4c0.5-0.2,1.4,0.6,2,0.8c0-0.1-0.2-0.2,0-0.3c-0.3-0.2,0,0.3-0.5-0.1
				c0.5-0.2,1,0.5,1.4,0.5c0.4,0.2,0.7,0.4,1.3,0.7c-0.1-0.4-0.9-0.7-1.4-1.1c-0.1-0.2,0.1-0.1,0.2,0c0.9,0.5,2.6,1.5,3.4,2
				c-0.2-0.5-0.6-0.5-1.3-0.9c0.1-0.1,0.2,0,0.2,0.1c-0.8-0.6-2.6-1.8-3.8-2.4c-0.5-0.2-0.7-0.2-1.1-0.4c-0.3-0.2-0.9-0.6-1.4-0.5
				c-0.3-0.5-0.5-0.4-0.9-0.5c0-0.1,0.2-0.1,0.1-0.2c-0.2-0.2-0.2,0.2-0.4,0.1c-0.1-0.1-0.2-0.5-0.5-0.5c0.2-0.2-0.5-0.3-0.9-0.5
				c0.1,0.2,0.4,0.4,0.3,0.5c-0.8-0.2-1.3-0.8-2-1.3c0.5,0.2,1.3,0.8,1.8,1.2c0-0.2-0.4-0.5-0.6-0.6c3.7,0.8,9.4,3.7,13.1,6.5
				c-0.2,0.3,0.5,0.9,1,1.4c-0.2,0-0.2,0.2-0.4,0.2c-0.1-0.2-0.5-0.2-0.6-0.5c0.2,0.3,1.2,0.8,1.6,1.3c0.1-0.2-0.2-0.2-0.4-0.3
				c-0.1-0.2,0.5,0.4,0.8,0.3c-0.4-0.5-0.5-0.5-1-0.8c0.3-0.2,1.3,0.9,1.6,1.1c0.2,0.2-0.2,0.2-0.3,0c0.5,0.5,1.3,1.1,1.8,1.3
				c-0.2-0.2-0.7-0.5-1.3-1c0.5,0.1,1.2,0.9,1.9,1.3c-0.1,0.2-0.2,0.1-0.5-0.1c0,0.3,0.5,0.4,0.5,0.2c0.2,0.2,0.5,0.5,0.6,0.5
				c-1-0.6-1.8-1.6-2.9-2.3c0,0.1,0.2,0.2,0.3,0.2c-0.2,0.2-0.7-0.5-1.3-0.8c0.1,0,0.2,0,0.3,0c-0.3-0.5-1.3-0.8-1.6-1.3
				c2.5,1.6,5,3.3,7.3,5.4c-0.5-0.1-1.3-0.7-1.8-0.9c0.2,0.2,1,0.9,1.3,1c-0.6-0.1-1.3-1-2-1.3c2.9,2.3,5.4,4.1,8.8,6.3
				c-1.3-1-2.3-1.6-3.3-2.4c0.1-0.1,0.2-0.1,0.3,0c-0.6-0.5-2.1-1.5-2.7-2.1c0.2-0.1,0.5,0.3,0.5,0.4c-0.2-0.3-0.6-0.5-1.1-0.9
				c2,0.9,3.7,2.2,5.7,3.3c0,0.1,0.2,0.2,0,0.3c4,3,8.4,5.9,11.6,8.9c0.2,0.1,0.2-0.1,0.4,0.1c1.7,1.8,4.6,3.2,6.6,5.3
				c0.5,0.6,1.6,0.9,1.8,1.6c1.9,1.3,4.8,3.6,5.8,5.2l0.5,0.5c0.1,0.2-0.1,0.4,0.2,0.5c0.5,0.1,0.8,0.6,1.3,1.2c0.2,0,0.2,0,0.3-0.1
				c-0.4,0-0.2-0.2-0.5-0.5c0-0.1,0.5,0.3,0.7,0.5c-0.2,0-0.2,0.5-0.4,0.2c0.2,0.5,0.5,0.9,1.3,1.3c-0.2,0.2-0.2-0.1-0.4-0.2
				c0.2,0.4,0.2,0.9,0.8,1.1c-0.5,0.3,0.5,1-0.1,1.5c-0.1,0.1,0.2,0.2,0.2,0.3c-0.3,0.2,0.2,0.7-0.5,1c-0.5-0.4-1.1,0.4-1.6,0.5
				c-0.1,0.2,0.5,0.2,0.2,0.3c-0.4-0.5-0.9-0.4-1.3-0.4c-0.5-0.3-0.4-0.5-0.5-0.9c-0.8-0.3-1.3-0.2-2-0.9c-0.2-0.2-0.2-0.3-0.4-0.5
				c-0.2-0.1-0.3,0-0.3,0c-0.1-0.1-0.2-0.2-0.2-0.3c-0.2-0.2-0.5-0.1-0.7-0.2s-0.3-0.5-0.4-0.5c-0.4-0.4-0.8-0.5-1.3-0.9
				c-2.4-1.8-5.2-4.3-7.9-6.2c-0.7-0.5-1.6-1.2-2.2-1.6c-2.8-2.3-5.8-4.6-8.9-6.8c-0.1-0.1-0.6-0.5-1.2-0.9
				c-5.9-4.1-13.6-9.5-19.9-14.1c0-0.2-0.2-0.2,0-0.2c-0.2-0.1-0.2,0-0.2,0.1c-0.2-0.3-0.2-0.3-0.5-0.6c-0.5-0.7-1.8-1.5-2-2.1
				c1.1,0.9,2.2,2.2,3.3,3c-0.5-0.9-1.8-1.6-2-2.6c-0.5-0.2-0.5-0.5-0.9-0.5C1147,127.6,1145.7,127.3,1145.5,126.9z M1142.4,121.9
				l0.6,0.5C1143.2,122.3,1142.3,121.9,1142.4,121.9z M1146.5,123.8c-0.3,0-0.2-0.3-0.5-0.2C1146.3,123.8,1146.4,124,1146.5,123.8z
				 M1151.6,132.6c0.3,0.2,0.4,0.2,0.5,0.4C1152.2,132.8,1151.7,132.6,1151.6,132.6z M1150.8,132.2c0.2,0.1,0.4,0.4,0.5,0.3
				C1151.3,132.3,1150.9,132.1,1150.8,132.2z M1196,159.8c-0.3-0.2-0.7-0.9-1-0.7C1195.5,159.3,1195.8,159.8,1196,159.8z
				 M1144.6,126.2c-0.2,0-0.2-0.2-0.5-0.3C1144.2,125.8,1144.4,126,1144.6,126.2C1144.6,126.1,1144.5,126.1,1144.6,126.2z
				 M1143.8,124.9C1143.8,125,1143.8,124.9,1143.8,124.9c0.1-0.1,0.4,0.2,0.5,0.3C1144.3,125.5,1144.2,124.8,1143.8,124.9z
				 M1143.2,121.8c0.2-0.2,0.5,0.3,0.5,0.2C1143.8,122.3,1143.4,121.9,1143.2,121.8z M1198.2,162.4c-0.2-0.1-0.5-0.8-0.4-0.9
				C1198.1,161.8,1198.1,162.1,1198.2,162.4z"/>
		</g>
	</g>
</g>
<path class="st1" d="M1142,227.3c150.9,0,205.3,119.1,56.1,96.6c-127.5-19.2-64.6,26.8-169.6,28.1
	C877.7,353.9,991.1,227.3,1142,227.3z"/>
<title>best place</title>
<path class="st2" d="M864.9,453.5l-1.3-0.3c14-63.4,49-121,98.6-162.1c122.2-101.1,301.2-81.6,400,43.3
	c27.2,34.5,46.4,74.8,56.1,118l-1.2,0.3c-29.6-132.5-143-225.1-276.1-225.1C1009.8,227.6,893.7,322.7,864.9,453.5z"/>
<rect x="1334.3" y="401.2" class="st3" width="1.3" height="50.6"/>
<path class="st0" d="M1347.3,407.7c0.1,17.7-12.4,32.1-12.4,32.1s-12.5-14.3-12.7-31.9c-0.1-17.7,12.4-32.1,12.4-32.1
	S1347.3,389.9,1347.3,407.7z"/>
<path class="st4" d="M1347.3,407.7c0.1,17.7-12.4,32.1-12.4,32.1s-12.5-14.3-12.7-31.9c-0.1-17.7,12.4-32.1,12.4-32.1
	S1347.3,389.9,1347.3,407.7z"/>
<path class="st3" d="M808.8,445.1c1.1,4,4.8,6.5,4.8,6.5s2-4,0.9-8c-1.1-4-4.8-6.5-4.8-6.5S807.7,441.1,808.8,445.1z"/>
<path class="st0" d="M810.4,444.3c2.9,2.8,3.3,7.3,3.3,7.3s-4.5-0.3-7.4-3.1c-2.9-2.8-3.3-7.3-3.3-7.3S807.4,441.3,810.4,444.3z"/>
<path class="st3" d="M1200.7,446.2c1.1,4,4.8,6.5,4.8,6.5s2-4,0.9-8c-1.1-3.9-4.8-6.5-4.8-6.5S1199.6,442.2,1200.7,446.2z"/>
<path class="st0" d="M1202.4,445.4c2.9,2.8,3.3,7.3,3.3,7.3s-4.5-0.3-7.4-3.1c-2.9-2.8-3.3-7.3-3.3-7.3S1199.3,442.4,1202.4,445.4z"
	/>
<polygon class="st3" points="816.1,416 813.5,411.6 838.2,390.5 901.9,390.5 901.9,396.6 878.9,421.3 852.4,426.6 "/>
<polygon class="st2" points="912.8,402.8 912.8,389 904.4,389 904.4,393.4 901.9,390.5 880.6,411.6 877.1,415.2 872.7,432.7 
	880.6,452.2 921.3,452.2 921.3,412.4 "/>
<rect x="813.5" y="411.6" class="st5" width="67.2" height="40.6"/>
<rect x="857.2" y="424.4" class="st3" width="14.2" height="12.4"/>
<rect x="839.1" y="424" class="st2" width="12.4" height="28.3"/>
<polygon class="st3" points="825,427.3 825,423 819.7,423 819.7,427.3 824.5,427.3 "/>
<polygon class="st3" points="824.5,430.8 819.7,430.8 819.7,435.3 825,435.3 825,430.8 "/>
<rect x="828.5" y="424" class="st3" width="5.3" height="4.4"/>
<rect x="828.5" y="431.9" class="st3" width="5.3" height="4.4"/>
<polygon class="st3" points="899.7,428.8 899.7,424.4 894.4,424.4 894.4,428.8 899.2,428.8 "/>
<polygon class="st3" points="899.2,432.4 894.4,432.4 894.4,436.8 899.7,436.8 899.7,432.4 "/>
<rect x="903.1" y="424.4" class="st3" width="5.3" height="4.4"/>
<rect x="903.1" y="432.4" class="st3" width="5.3" height="4.4"/>
<polygon class="st3" points="1071.7,416 1069.1,411.6 1093.8,390.5 1157.3,390.5 1157.3,396.6 1134.5,421.3 1107.9,426.6 "/>
<polygon class="st2" points="1168.3,402.8 1168.3,389 1160,389 1160,393.4 1157.3,390.5 1136.2,411.6 1132.6,415.2 1128.2,432.7 
	1136.2,452.2 1176.7,452.2 1176.7,412.4 "/>
<rect x="1069.1" y="411.6" class="st5" width="67.2" height="40.6"/>
<rect x="1112.9" y="424.4" class="st3" width="14.2" height="12.4"/>
<rect x="1094.8" y="424" class="st2" width="12.4" height="28.3"/>
<polygon class="st3" points="1080.5,428.4 1080.5,424 1075.4,424 1075.4,428.4 1080.1,428.4 "/>
<polygon class="st3" points="1080.1,431.9 1075.4,431.9 1075.4,436.4 1080.5,436.4 1080.5,431.9 "/>
<rect x="1084" y="424" class="st3" width="5.3" height="4.4"/>
<rect x="1084" y="431.9" class="st3" width="5.3" height="4.4"/>
<polygon class="st3" points="1155.1,428.8 1155.1,424.4 1149.9,424.4 1149.9,428.8 1154.8,428.8 "/>
<polygon class="st3" points="1154.8,432.4 1149.9,432.4 1149.9,436.8 1155.1,436.8 1155.1,432.4 "/>
<rect x="1158.8" y="424.4" class="st3" width="5.3" height="4.4"/>
<rect x="1158.8" y="432.4" class="st3" width="5.3" height="4.4"/>
<polygon class="st3" points="952.2,341.8 947.7,338.3 972.5,316.2 1035.2,316.2 1035.2,335.7 994.6,363 "/>
<polygon class="st2" points="1046.6,328.6 1046.6,316.6 1038.3,316.6 1038.3,319.6 1035.2,316.2 1014.9,338.3 1006.9,343.6 
	994.6,433.7 1013.2,452.2 1056.3,452.2 1056.3,339.2 "/>
<rect x="947.7" y="338.3" class="st5" width="67.2" height="113.9"/>
<rect x="973.8" y="424.4" class="st2" width="12.4" height="27.8"/>
<polygon class="st3" points="960.5,432.4 960.5,428 955.2,428 955.2,432.4 960.1,432.4 "/>
<polygon class="st3" points="960.1,435.9 955.2,435.9 955.2,440.3 960.5,440.3 960.5,435.9 "/>
<rect x="964.1" y="428" class="st3" width="5.3" height="4.4"/>
<rect x="964.1" y="435.9" class="st3" width="5.3" height="4.4"/>
<polygon class="st3" points="996.8,432.4 996.8,428 991.4,428 991.4,432.4 996.4,432.4 "/>
<polygon class="st3" points="996.4,435.9 991.4,435.9 991.4,440.3 996.8,440.3 996.8,435.9 "/>
<rect x="1000.3" y="428" class="st3" width="5.3" height="4.4"/>
<rect x="1000.3" y="435.9" class="st3" width="5.3" height="4.4"/>
<polygon class="st3" points="1033.9,344.1 1033.9,339.7 1028.6,339.7 1028.6,344.1 1033.4,344.1 "/>
<polygon class="st3" points="1033.4,347.6 1028.6,347.6 1028.6,352 1033.9,352 1033.9,347.6 "/>
<rect x="1037.4" y="339.7" class="st3" width="5.3" height="4.4"/>
<rect x="1037.4" y="347.6" class="st3" width="5.3" height="4.4"/>
<polygon class="st3" points="1033.9,368.8 1033.9,364.4 1028.6,364.4 1028.6,368.8 1033.4,368.8 "/>
<polygon class="st3" points="1033.4,372.4 1028.6,372.4 1028.6,376.7 1033.9,376.7 1033.9,372.4 "/>
<rect x="1037.4" y="364.4" class="st3" width="5.3" height="4.4"/>
<rect x="1037.4" y="372.4" class="st3" width="5.3" height="4.4"/>
<polygon class="st3" points="1033.9,393.5 1033.9,389.1 1028.6,389.1 1028.6,393.5 1033.4,393.5 "/>
<polygon class="st3" points="1033.4,397.1 1028.6,397.1 1028.6,401.5 1033.9,401.5 1033.9,397.1 "/>
<rect x="1037.4" y="389.1" class="st3" width="5.3" height="4.4"/>
<rect x="1037.4" y="397.1" class="st3" width="5.3" height="4.4"/>
<polygon class="st3" points="1033.9,418.2 1033.9,413.8 1028.6,413.8 1028.6,418.2 1033.4,418.2 "/>
<polygon class="st3" points="1033.4,421.8 1028.6,421.8 1028.6,426.2 1033.9,426.2 1033.9,421.8 "/>
<rect x="1037.4" y="413.8" class="st3" width="5.3" height="4.4"/>
<rect x="1037.4" y="421.8" class="st3" width="5.3" height="4.4"/>
<rect x="955.2" y="344.1" class="st3" width="51.2" height="10.5"/>
<rect x="955.2" y="365.2" class="st3" width="51.2" height="10.5"/>
<rect x="955.2" y="386.4" class="st3" width="51.2" height="10.5"/>
<rect x="955.2" y="407.6" class="st3" width="51.2" height="10.5"/>
<polygon class="st3" points="1210.3,341.8 1205.8,338.3 1230.5,316.2 1293.3,316.2 1293.3,335.7 1252.7,363 "/>
<polygon class="st2" points="1304.7,328.6 1304.7,316.6 1296.4,316.6 1296.4,319.6 1293.3,316.2 1273,338.3 1265,343.6 
	1252.7,433.7 1271.3,452.2 1314.4,452.2 1314.4,339.2 "/>
<rect x="1205.8" y="338.3" class="st5" width="67.2" height="113.9"/>
<rect x="1232" y="424.4" class="st2" width="12.4" height="27.8"/>
<polygon class="st3" points="1218.6,432.4 1218.6,428 1213.3,428 1213.3,432.4 1218.3,432.4 "/>
<polygon class="st3" points="1218.3,435.9 1213.3,435.9 1213.3,440.3 1218.6,440.3 1218.6,435.9 "/>
<rect x="1222.2" y="428" class="st3" width="5.3" height="4.4"/>
<rect x="1222.2" y="435.9" class="st3" width="5.3" height="4.4"/>
<polygon class="st3" points="1254.9,432.4 1254.9,428 1249.7,428 1249.7,432.4 1254.4,432.4 "/>
<polygon class="st3" points="1254.4,435.9 1249.7,435.9 1249.7,440.3 1254.9,440.3 1254.9,435.9 "/>
<rect x="1258.5" y="428" class="st3" width="5.3" height="4.4"/>
<rect x="1258.5" y="435.9" class="st3" width="5.3" height="4.4"/>
<polygon class="st3" points="1291.9,344.1 1291.9,339.7 1286.7,339.7 1286.7,344.1 1291.6,344.1 "/>
<polygon class="st3" points="1291.6,347.6 1286.7,347.6 1286.7,352 1291.9,352 1291.9,347.6 "/>
<rect x="1295.5" y="339.7" class="st3" width="5.3" height="4.4"/>
<rect x="1295.5" y="347.6" class="st3" width="5.3" height="4.4"/>
<polygon class="st3" points="1291.9,368.8 1291.9,364.4 1286.7,364.4 1286.7,368.8 1291.6,368.8 "/>
<polygon class="st3" points="1291.6,372.4 1286.7,372.4 1286.7,376.7 1291.9,376.7 1291.9,372.4 "/>
<rect x="1295.5" y="364.4" class="st3" width="5.3" height="4.4"/>
<rect x="1295.5" y="372.4" class="st3" width="5.3" height="4.4"/>
<polygon class="st3" points="1291.9,393.5 1291.9,389.1 1286.7,389.1 1286.7,393.5 1291.6,393.5 "/>
<polygon class="st3" points="1291.6,397.1 1286.7,397.1 1286.7,401.5 1291.9,401.5 1291.9,397.1 "/>
<rect x="1295.5" y="389.1" class="st3" width="5.3" height="4.4"/>
<rect x="1295.5" y="397.1" class="st3" width="5.3" height="4.4"/>
<polygon class="st3" points="1291.9,418.2 1291.9,413.8 1286.7,413.8 1286.7,418.2 1291.6,418.2 "/>
<polygon class="st3" points="1291.6,421.8 1286.7,421.8 1286.7,426.2 1291.9,426.2 1291.9,421.8 "/>
<rect x="1295.5" y="413.8" class="st3" width="5.3" height="4.4"/>
<rect x="1295.5" y="421.8" class="st3" width="5.3" height="4.4"/>
<rect x="1213.3" y="344.1" class="st3" width="51.2" height="10.5"/>
<rect x="1213.3" y="365.2" class="st3" width="51.2" height="10.5"/>
<rect x="1213.3" y="386.4" class="st3" width="51.2" height="10.5"/>
<rect x="1213.3" y="407.6" class="st3" width="51.2" height="10.5"/>
<polygon class="st3" points="1351.9,341.8 1347.4,338.3 1372.1,316.2 1434.8,316.2 1434.8,335.7 1394.2,363 "/>
<polygon class="st2" points="1446.4,328.6 1446.4,316.6 1438,316.6 1438,319.6 1434.8,316.2 1414.5,338.3 1406.6,343.6 
	1394.2,433.7 1412.8,452.2 1456,452.2 1456,339.2 "/>
<rect x="1347.4" y="338.3" class="st5" width="67.2" height="113.9"/>
<rect x="1373.5" y="424.4" class="st2" width="12.4" height="27.8"/>
<polygon class="st3" points="1360.2,432.4 1360.2,428 1354.9,428 1354.9,432.4 1359.7,432.4 "/>
<polygon class="st3" points="1359.7,435.9 1354.9,435.9 1354.9,440.3 1360.2,440.3 1360.2,435.9 "/>
<rect x="1363.8" y="428" class="st3" width="5.3" height="4.4"/>
<rect x="1363.8" y="435.9" class="st3" width="5.3" height="4.4"/>
<polygon class="st3" points="1396.5,432.4 1396.5,428 1391.2,428 1391.2,432.4 1396.1,432.4 "/>
<polygon class="st3" points="1396.1,435.9 1391.2,435.9 1391.2,440.3 1396.5,440.3 1396.5,435.9 "/>
<rect x="1400" y="428" class="st3" width="5.3" height="4.4"/>
<rect x="1400" y="435.9" class="st3" width="5.3" height="4.4"/>
<polygon class="st3" points="1433.6,344.1 1433.6,339.7 1428.2,339.7 1428.2,344.1 1433.1,344.1 "/>
<polygon class="st3" points="1433.1,347.6 1428.2,347.6 1428.2,352 1433.6,352 1433.6,347.6 "/>
<rect x="1437.1" y="339.7" class="st3" width="5.3" height="4.4"/>
<rect x="1437.1" y="347.6" class="st3" width="5.3" height="4.4"/>
<polygon class="st3" points="1433.6,368.8 1433.6,364.4 1428.2,364.4 1428.2,368.8 1433.1,368.8 "/>
<polygon class="st3" points="1433.1,372.4 1428.2,372.4 1428.2,376.7 1433.6,376.7 1433.6,372.4 "/>
<rect x="1437.1" y="364.4" class="st3" width="5.3" height="4.4"/>
<rect x="1437.1" y="372.4" class="st3" width="5.3" height="4.4"/>
<polygon class="st3" points="1433.6,393.5 1433.6,389.1 1428.2,389.1 1428.2,393.5 1433.1,393.5 "/>
<polygon class="st3" points="1433.1,397.1 1428.2,397.1 1428.2,401.5 1433.6,401.5 1433.6,397.1 "/>
<rect x="1437.1" y="389.1" class="st3" width="5.3" height="4.4"/>
<rect x="1437.1" y="397.1" class="st3" width="5.3" height="4.4"/>
<polygon class="st3" points="1433.6,418.2 1433.6,413.8 1428.2,413.8 1428.2,418.2 1433.1,418.2 "/>
<polygon class="st3" points="1433.1,421.8 1428.2,421.8 1428.2,426.2 1433.6,426.2 1433.6,421.8 "/>
<rect x="1437.1" y="413.8" class="st3" width="5.3" height="4.4"/>
<rect x="1437.1" y="421.8" class="st3" width="5.3" height="4.4"/>
<rect x="1354.9" y="344.1" class="st3" width="51.2" height="10.5"/>
<rect x="1354.9" y="365.2" class="st3" width="51.2" height="10.5"/>
<rect x="1354.9" y="386.4" class="st3" width="51.2" height="10.5"/>
<rect x="1354.9" y="407.6" class="st3" width="51.2" height="10.5"/>
<rect x="933.9" y="401.2" class="st3" width="1.3" height="50.6"/>
<path class="st0" d="M947.1,407.7c0.1,17.7-12.4,32.1-12.4,32.1s-12.5-14.3-12.7-31.9c-0.2-17.7,12.4-32.1,12.4-32.1
	S946.9,389.9,947.1,407.7z"/>
<rect x="1062.1" y="401.2" class="st3" width="1.3" height="50.6"/>
<path class="st0" d="M1075.2,407.7c0.1,17.7-12.4,32.1-12.4,32.1s-12.5-14.3-12.7-31.9c-0.1-17.7,12.4-32.1,12.4-32.1
	S1075,389.9,1075.2,407.7z"/>
<rect x="1317.6" y="401.2" class="st3" width="1.3" height="50.6"/>
<path class="st0" d="M1330.6,407.7c0.1,17.7-12.4,32.1-12.4,32.1s-12.5-14.3-12.7-31.9c-0.1-17.7,12.4-32.1,12.4-32.1
	S1330.6,389.9,1330.6,407.7z"/>
<g>
	<ellipse class="st0" cx="1139.9" cy="259.7" rx="23.3" ry="5.2"/>
	<path class="st0" d="M1166.3,186.1c0,14.9-27.1,57.3-27.1,57.3s-27.1-42.2-27.1-57.3c0-14.9,12.2-27.1,27.1-27.1
		C1154.1,159,1166.3,171.1,1166.3,186.1z"/>
	<circle class="st5" cx="1139.1" cy="186.1" r="15.4"/>
</g>
<g>
	<path class="st6" d="M1094.3,166.8"/>
</g>
</svg>
