<?xml version="1.0" encoding="utf-8"?>
<!-- Generator: Adobe Illustrator 19.0.0, SVG Export Plug-In . SVG Version: 6.00 Build 0)  -->
<svg version="1.1" id="Layer_1" xmlns="http://www.w3.org/2000/svg" xmlns:xlink="http://www.w3.org/1999/xlink" x="0px" y="0px"
	 viewBox="-35.5 61 170 180" style="enable-background:new -35.5 61 170 180;" xml:space="preserve">
<style type="text/css">
	.st0{fill:#3F3D56;}
	.st1{fill:none;stroke:#000000;stroke-miterlimit:10;}
</style>
<g>
	<g>
		<path class="st0" d="M121.8,220.7c0.2-0.1,0.3-0.5,0.3-0.7C121.8,219.9,122,220.4,121.8,220.7z M121.6,122.6
			c-0.1,0.2-0.1,0.4-0.4,0.4c-0.2-0.3-0.3-0.5-0.4-1C121.3,121.8,121.1,122.6,121.6,122.6z M121.2,222.6c-0.3,0.1-0.1,0.7-0.4,0.7
			c0.2-0.4,0.1-0.9,0.2-1.1C121.2,222.2,121.1,222.6,121.2,222.6z M119.6,232.4c0.2,0.9-0.2,1.9-0.2,2.6
			C119.2,234.2,119.6,233.4,119.6,232.4z M119.2,236.9c-0.2-0.7,0-2.5,0-0.9C119.2,236.3,119.2,236.6,119.2,236.9z M116.9,226.2
			c0.2,0.1,0.1,1,0,1.1C116.8,227,116.8,226.7,116.9,226.2z M116.8,230.5c-0.3,0.1-0.3-0.3-0.3-0.6
			C116.6,230,116.8,230.2,116.8,230.5z M116.3,223.7c-0.2,0,0.1-0.8-0.2-0.8C116.3,222.5,116.4,223.6,116.3,223.7z M113.8,207.7
			c-0.4-0.1-0.3-1.2-0.1-1.5C113.8,206.6,113.9,207.2,113.8,207.7z M124.8,143.2c-0.2-0.2-0.1-0.8-0.3-1.1
			C124.6,142.3,124.8,142.6,124.8,143.2z M123.2,132.1c-0.1,0-0.1,0-0.1,0.1c-0.2,1.9,0,4.8-0.2,6.3c0-3-0.1-6,0.5-8.3
			c0.3-1.3,1-2.4,0.2-3.5c0.3,0.1,0.6,0.6,0.7,1c0.2,1.2-1,2.5-1,3.8c0,0.7,0.3,0.9,0.2,1.6C123.3,132.8,123.3,132.4,123.2,132.1z
			 M121.2,222c-0.4,0-0.1-0.5-0.1-0.8c-0.1,0.2-0.4,0.3-0.3,0.7c-0.1-0.2-0.3-0.2-0.3-0.5c-0.5,1.2-0.2,1.6-0.4,2.6
			c-0.1,0-0.1-0.2-0.2-0.3c-0.2,0.9-0.3,2.4-0.1,3.5c-0.2,0-0.2-0.3-0.2-0.6c-0.3,0.1-0.1,1.2-0.4,0.6c0,0.9,0.2,0.8,0.1,1.6
			c-0.2-0.9-0.4-1.1-0.4-2.1c-0.1,0.1-0.1,0.4-0.2,0.6c-0.3-0.2,0.1-0.5,0-0.9c-0.4,1.5-0.4,3.2-0.4,4.9c-0.1-0.5-0.2-1.5-0.2-2.5
			c-0.2,0.6-0.2,1.6-0.3,2.4c-0.2-0.8-0.2,0.1-0.3,0.5c-0.1-4-0.2-5.3-0.4-9.6c0,0.8-0.1,1.2,0,1.9c0,0.2-0.3,0.4-0.3,0.1
			c-0.1,0.1,0.3,0.6-0.1,0.7c-0.6-0.5-0.3-2.3-0.6-3.2c-0.1,0.1-0.1,0.4-0.4,0.2c0,0.5,0.4-0.2,0.3,0.6c-0.7-0.6-0.3-1.7-0.4-2.4
			c0-0.6-0.2-1.3-0.1-2.2c-0.4,0.5-0.1,1.9-0.2,2.7c-0.1,0.2-0.1-0.1-0.1-0.3c-0.1-1.6-0.3-4.5-0.3-6c-0.4,0.6-0.1,1.4-0.1,2.5
			c-0.1,0-0.1-0.2-0.1-0.4c-0.2,1.6,0,4.9,0.3,7c0.1,0.6,0.3,1.1,0.4,1.6c0,0.5,0,1.7,0.4,2.2c-0.2,0.8,0,1.1,0.3,1.6
			c-0.2,0-0.2-0.2-0.3,0c-0.1,0.4,0.3,0.2,0.4,0.4c-0.1,0.2-0.4,0.7-0.1,1c-0.4-0.1,0,0.9,0.1,1.6c0.1-0.3,0.1-0.8,0.3-0.9
			c0.3,1.2,0,2.3,0,3.6c-0.2-0.9,0-2.4,0-3.4c-0.3,0.1-0.2,0.9-0.3,1.4c-1.8-5.4-2.9-15.1-2.7-22.2c0.5,0,0.7-1.5,0.7-2.5
			c0.2,0.3,0.3,0.1,0.5,0.4c-0.1,0.2,0.1,0.7,0,1.2c0.3-0.5,0-2.2,0.1-3.2c-0.2,0,0,0.4-0.1,0.6c-0.1,0.2-0.1-1-0.3-1.2
			c-0.2,0.9-0.1,1.3-0.1,2c-0.5-0.2,0.1-2.4-0.2-3.1c0.1-0.4,0.3,0.1,0.2,0.4c0.1-1.2,0.2-2.5,0.1-3.5c-0.1,0.4-0.1,1.5-0.1,2.6
			c-0.4-0.7,0.1-2.3-0.1-3.5c0.3-0.1,0.3,0.3,0.3,0.6c0.3-0.3,0-0.9-0.3-0.9c0.1-0.4,0.1-0.9-0.1-1.2c0.2,1.9-0.5,3.9-0.3,5.7
			c0.1,0,0.1-0.3,0.1-0.5c0.3,0.2,0,1.4,0.1,2.4c-0.1-0.1-0.1-0.2-0.2-0.4c-0.2,0.8,0.1,2.3-0.2,3.1c-0.1-4.7-0.3-9.3,0.2-14
			c0.4,0.7,0.1,2.2,0.4,3.1c0.1-0.4,0.1-2,0.1-2.6c0.4,0.8-0.1,2.5,0.2,3.6c0.2-5.7,0.2-10.4-0.1-16.6c-0.1,2.5,0.1,4.2,0.1,6.2
			c-0.1-0.1-0.2-0.2-0.2-0.4c-0.1,1.3,0.1,4-0.1,5.4c-0.2-0.1,0-0.7-0.1-1c-0.1,0.6-0.2,1.3-0.2,2.1c-0.5-3.2-0.5-6.5-1-10
			c0.1-0.1,0.1-0.4,0.4-0.2c0.1-7.7-0.4-15.8,0-22.5c0-0.3-0.2-0.2-0.3-0.5c0.5-3.9-0.5-8.6,0.1-13c0.2-1.3-0.3-2.8,0.2-3.9
			c-0.2-3.5-0.5-9.2,0.4-11.9v-1c0.2-0.3,0.4-0.4,0.5-0.8c-0.4-0.6,0-1.6,0.2-2.6c-0.1-0.2-0.2-0.2-0.4-0.2c0.3,0.5,0,0.3,0,1.1
			c-0.1,0.1-0.1-1-0.2-1.4c0.2,0.3,0.5-0.3,0.5,0.2c0.3-0.7,0.4-1.6,0.3-2.8c0.3,0.1,0,0.3,0.2,0.5c0.2-0.7,0.7-1.1,0.3-2
			c0.7,0.2,0.6-1.7,1.6-1.4c0.2,0,0-0.4,0.1-0.6c0.4,0.2,0.6-1,1.5-0.6c0,0.9,1.4,0.9,1.9,1.5c0.3-0.1-0.2-0.6,0.2-0.5
			c-0.1,0.8,0.5,1.4,0.8,2c0.1,0.8-0.3,1-0.4,1.5c0.4,1.2,0.9,1.8,0.8,3.2c0,0.3-0.1,0.6-0.1,0.9s0.2,0.4,0.2,0.4
			c0,0.1-0.2,0.4-0.2,0.6c0,0.4,0.4,0.8,0.4,1s-0.2,0.8-0.2,1c0,0.8,0.2,1.5,0.2,2.4c0.2,4.7,0,10.5,0.2,15.8c0.1,1.4,0.1,3,0.1,4.4
			c-0.1,5.8,0,11.5,0.2,17.4c0,0.2-0.1,1.4-0.1,2.3c0.3,11.1,0.8,25.9,0.4,38c-0.2,0.1-0.1,0.4-0.3,0.1c0,0.2,0.1,0.2,0.2,0.3
			c-0.1,0.6-0.2,0.6-0.3,1.2c-0.3,1.4-0.3,3.6-0.9,4.4c0.3-2.2,0.8-4.6,0.8-6.9c-0.6,1.4-0.4,3.9-1.3,4.9c0.3,0.8-0.3,1.2,0.1,1.6
			C120.8,219.5,121.4,221.3,121.2,222z M117.8,230.2V229C117.5,228.8,117.8,230.2,117.8,230.2z M116.9,223.3
			c0.2,0.4-0.1,0.6,0.2,0.7C117,223.7,117.3,223.3,116.9,223.3z M122.9,209.2c0-0.6-0.2-0.6,0-1
			C122.5,208.2,122.8,209.2,122.9,209.2z M122.9,210.6c-0.1-0.3,0.1-0.8-0.1-0.9C122.6,209.9,122.8,210.5,122.9,210.6z M114.9,128.9
			c0,0.6-0.4,1.8,0.2,1.9C115.1,130.1,115.1,129.3,114.9,128.9z M121,223.7c0.1,0.2-0.2,0.3,0,0.8c-0.3,0.1-0.1-0.5-0.2-0.8
			C120.9,223.8,121,223.9,121,223.7z M120.1,225.8c0.1,0.1,0,0.1-0.1,0.1c-0.1-0.2-0.1-0.7-0.1-1.1
			C120.3,224.9,119.8,225.6,120.1,225.8z M117,229.3c-0.3-0.1,0-0.7-0.2-0.9C117,228.1,117,229,117,229.3z M115.8,123.8
			c0.1,0.3-0.4,1.4-0.6,1.3C115.3,124.6,115.6,124.3,115.8,123.8z"/>
	</g>
</g>
<g>
	<g>
		<path class="st0" d="M98.9,76.2c-0.2,0-0.3,0.1-0.3,0.2C99,76.4,98.8,76.3,98.9,76.2z M98.3,101.3c0.1,0,0.1-0.1,0.4-0.1
			c0.2,0.1,0.3,0.1,0.4,0.3C98.6,101.5,98.9,101.3,98.3,101.3z M99.5,75.8c0.3,0,0.1-0.2,0.4-0.2c-0.2,0.1-0.1,0.2-0.2,0.3
			C99.5,75.9,99.8,75.8,99.5,75.8z M101.3,73.3c-0.2-0.2,0.2-0.5,0.2-0.7C101.8,72.9,101.3,73.1,101.3,73.3z M101.8,72.2
			c0.2,0.2,0,0.6,0,0.2C101.8,72.3,101.8,72.2,101.8,72.2z M104.1,75c-0.2,0-0.1-0.3,0-0.3C104.4,74.8,104.2,74.9,104.1,75z
			 M104.4,73.9c0.3,0,0.3,0.1,0.3,0.2C104.5,74,104.4,74,104.4,73.9z M104.8,75.6c0.2,0-0.1,0.2,0.2,0.2
			C104.8,75.9,104.6,75.7,104.8,75.6z M107.3,79.8c0.4,0,0.3,0.3,0.1,0.4C107.3,80.1,107.2,79.9,107.3,79.8z M95.2,95.9
			c0.2,0.1,0.1,0.2,0.3,0.3C95.3,96.1,95.2,96.1,95.2,95.9z M96.8,98.8L96.8,98.8c0.3-0.5,0.1-1.2,0.4-1.6c0,0.8,0.1,1.5-0.6,2.1
			c-0.3,0.3-1.1,0.6-0.2,0.9c-0.3,0-0.6-0.2-0.7-0.3c-0.2-0.3,1.1-0.6,1.1-0.9c0-0.2-0.3-0.2-0.2-0.4C96.6,98.6,96.6,98.7,96.8,98.8
			z M99.5,75.9c0.4,0,0.1,0.1,0.1,0.2c0.1,0,0.4-0.1,0.3-0.2c0.1,0.1,0.3,0.1,0.3,0.1c0.5-0.3,0.2-0.4,0.4-0.7
			c0.1,0,0.1,0.1,0.2,0.1c0.2-0.2,0.3-0.6,0.1-0.9c0.2,0,0.2,0.1,0.2,0.2c0.3,0,0.1-0.3,0.4-0.1c0-0.2-0.2-0.2-0.1-0.4
			c0.2,0.2,0.4,0.3,0.4,0.5c0.1,0,0.1-0.1,0.2-0.1c0.3,0.1-0.1,0.1,0,0.2c0.4-0.4,0.4-0.8,0.5-1.2c0.1,0.1,0.2,0.4,0.2,0.6
			c0.2-0.1,0.2-0.4,0.3-0.6c0.2,0.2,0.2,0,0.3-0.1c0.1,1,0.2,1.4,0.3,2.5c0-0.2,0.1-0.3,0-0.5c0-0.1,0.3-0.1,0.3,0
			c0.1,0-0.3-0.2,0.1-0.2c0.6,0.1,0.3,0.6,0.6,0.8c0.1,0,0.1-0.1,0.4,0c0-0.1-0.4,0-0.3-0.2c0.7,0.2,0.3,0.4,0.4,0.6
			c0,0.2,0.2,0.3,0.1,0.6c0.4-0.1,0.1-0.5,0.2-0.7c0.1,0,0.1,0,0.1,0.1c0.1,0.4,0.3,1.2,0.3,1.5c0.4-0.1,0.1-0.4,0.1-0.6
			c0.1,0,0.1,0.1,0.1,0.1c0.2-0.4,0-1.3-0.3-1.8c-0.1-0.2-0.3-0.3-0.4-0.4c0-0.1,0-0.4-0.4-0.6c0.2-0.2,0-0.3-0.3-0.4
			c0.2,0,0.2,0.1,0.3,0s-0.3-0.1-0.4-0.1c0.1,0,0.4-0.2,0.1-0.3c0.4,0,0-0.2-0.1-0.4c-0.1,0.1-0.1,0.2-0.3,0.2c-0.3-0.3,0-0.6,0-0.9
			c0.2,0.2,0,0.6,0,0.9c0.3,0,0.2-0.2,0.3-0.3c1.9,1.4,3,4,2.7,5.8c-0.5,0-0.8,0.4-0.8,0.6c-0.2-0.1-0.3,0-0.5-0.1
			c0.1,0-0.1-0.2,0-0.3c-0.3,0.1,0,0.6-0.1,0.8c0.2,0,0-0.1,0.1-0.1s0.1,0.3,0.3,0.3c0.2-0.2,0.1-0.3,0.1-0.5
			c0.5,0.1-0.1,0.6,0.2,0.8c-0.1,0.1-0.3,0-0.2-0.1c-0.1,0.3-0.2,0.6-0.1,0.9c0.1-0.1,0.1-0.4,0.1-0.7c0.4,0.2-0.1,0.6,0.1,0.9
			c-0.3,0-0.3-0.1-0.3-0.2c-0.3,0.1,0,0.2,0.3,0.2c-0.1,0.1-0.1,0.2,0.1,0.3c-0.2-0.5,0.6-1,0.4-1.4c-0.1,0-0.1,0.1-0.1,0.1
			c-0.3-0.1,0-0.4-0.1-0.6c0.1,0,0.1,0.1,0.2,0.1c0.2-0.2-0.1-0.6,0.2-0.8c0.1,1.2,0.2,2.4-0.3,3.6c-0.4-0.2-0.1-0.6-0.4-0.8
			c-0.1,0.1-0.1,0.5-0.1,0.7c-0.4-0.2,0.1-0.6-0.2-0.9c-0.3,1.4-0.3,2.6,0,4.2c0.1-0.6-0.1-1.1-0.1-1.6c0.1,0,0.2,0.1,0.2,0.1
			c0.1-0.3-0.1-1,0.1-1.4c0.2,0,0,0.2,0.1,0.3c0.1-0.1,0.2-0.3,0.2-0.5c0.5,0.8,0.5,1.7,1,2.6c-0.1,0-0.1,0.1-0.4,0
			c-0.2,2,0.3,4-0.2,5.7c0,0.1,0.2,0.1,0.3,0.1c-0.6,1,0.5,2.2-0.2,3.3c-0.2,0.3,0.3,0.7-0.2,1c0.2,0.9,0.5,2.4-0.5,3v0.3
			c-0.2,0.1-0.4,0.1-0.5,0.2c0.4,0.2,0,0.4-0.2,0.7c0.4,0,0.5,0,0.7,0c-0.3-0.1,0-0.1,0-0.3c0.1,0,0.1,0.3,0.2,0.4
			c-0.2-0.1-0.5,0.1-0.5,0c-0.3,0.2-0.4,0.4-0.3,0.7c-0.3,0,0-0.1-0.2-0.1c-0.2,0.2-0.8,0.3-0.3,0.5c-0.7-0.1-0.6,0.4-1.7,0.3
			c-0.2,0,0,0.1-0.1,0.1c-0.4-0.1-0.6,0.2-1.6,0.1c0-0.2-1.5-0.3-2-0.4c-0.3,0,0.2,0.2-0.2,0.1c0.1-0.2-0.5-0.4-0.8-0.5
			c-0.1-0.2,0.3-0.2,0.4-0.4c-0.4-0.3-0.9-0.5-0.8-0.8c0-0.1,0.1-0.1,0.1-0.2s-0.2-0.1-0.2-0.1l0.2-0.1c0-0.1-0.4-0.2-0.4-0.3
			c0-0.1,0.2-0.2,0.2-0.2c0-0.2-0.2-0.4-0.2-0.6c-0.2-1.2,0.1-2.7-0.1-4C98,93.8,98,93.4,98,93.1c0.2-1.5,0.1-2.9-0.1-4.4
			c0-0.1,0.1-0.4,0.1-0.6c-0.2-2.8-0.6-6.6-0.1-9.7c0.2,0,0.1-0.1,0.3,0c0-0.1-0.1-0.1-0.2-0.1c0.1-0.1,0.2-0.1,0.3-0.3
			c0.3-0.3,0.3-0.9,1-1.1c-0.3,0.6-0.9,1.1-0.9,1.7c0.6-0.3,0.5-1,1.4-1.2c-0.3-0.2,0.3-0.3-0.1-0.4C99.9,76.6,99.3,76.1,99.5,75.9z
			 M103.2,73.9v0.3C103.5,74.3,103.2,73.9,103.2,73.9z M104.1,75.7c-0.2-0.1,0.1-0.1-0.2-0.2C104,75.6,103.8,75.7,104.1,75.7z
			 M97.6,79.1c0,0.2,0.2,0.2,0,0.3C98.1,79.4,97.9,79.1,97.6,79.1z M97.8,78.8c0.1,0.1-0.1,0.2,0.1,0.2S97.9,78.8,97.8,78.8z
			 M105.5,99.9c0-0.2,0.4-0.4-0.2-0.5C105.3,99.6,105.3,99.8,105.5,99.9z M99.8,75.5c-0.1-0.1,0.2-0.1,0-0.2c0.3,0,0.1,0.1,0.2,0.2
			C99.9,75.5,99.8,75.4,99.8,75.5z M100.8,75C100.6,75,100.8,75,100.8,75c0.2,0.1,0.2,0.2,0.2,0.3C100.5,75.2,101.1,75,100.8,75z
			 M104.1,74.2c0.3,0,0,0.2,0.2,0.2C104,74.5,104.1,74.3,104.1,74.2z M104.6,101.2c-0.1-0.1,0.4-0.3,0.6-0.3
			C105,101,104.8,101,104.6,101.2z"/>
	</g>
</g>
<g>
	<path class="st0" d="M54.4,145.4c0.5,0.9,0.8,1.8,0.8,2.8s0,1.9,0.2,3c0.1,0.2,0.1,0.4,0.2,0.6s0.1,0.3,0.1,0.6c0,0.1,0,0.2,0,0.4
		h-0.1c0,1.3,0.2,2.5,0.4,3.5c0.2,1.1,0.3,2.2,0.4,3.3c0.1,0.3,0.1,0.7,0.1,1.2c-0.2,0.3-0.2,0.8,0,1.6c0,0.2-0.1,0.4-0.1,0.4
		c-0.1,0-0.1,0.1-0.1,0.2c0,0.7,0.1,1.3,0.3,1.9c0.2,0.5,0.3,1.2,0.3,1.9c0,0.1-0.1,0.2-0.2,0.2c0,0.1-0.1,0.3,0,0.4
		c0,0.6,0,1.1,0.1,1.6s0.1,1,0.1,1.6c0.1,0.5,0.1,1.1,0.3,1.8c0.1,0.7,0.2,1.4,0.1,2c-0.1,0.3-0.1,0.6,0.1,0.9
		c0.2,0.4,0.2,0.9,0.3,1.6c0,0.2-0.1,0.4-0.2,0.6c-0.1,0.2-0.2,0.4-0.2,0.6c0,0.6,0.1,1.2,0.3,1.7s0.3,1.1,0.4,1.8
		c0,0.1-0.1,0.2-0.2,0.2s-0.1,0.1,0,0.4c0,0.2,0,0.4,0.1,0.6c0.1,0.2,0.1,0.3,0.2,0.4c0.1,1.3,0.2,2.6,0.3,3.9
		c0.1,1.3,0.2,2.8,0.2,4.3l-0.2,0.1l-0.2,0.6c0.1,0.6,0.2,1,0.4,1.3s0.2,0.7,0.1,1.2c0,0.2-0.1,0.5-0.2,0.7s-0.2,0.4-0.2,0.7
		c0,0.5,0.1,1,0.3,1.7s0.3,1.3,0.3,1.9c0,0.1,0,0.2-0.1,0.2s-0.1,0.1,0,0.4c0,0.3,0.1,0.6,0.1,0.8c0.1,0.2,0,0.3-0.1,0.4
		c0,0.2-0.1,0.4-0.3,0.5c-0.2,0.1-0.3,0.3-0.2,0.7c0.5,0.9,0.8,1.8,0.8,2.6s0,1.6,0.1,2.5c0,0.1,0.1,0.3,0.2,0.5s0.1,0.4,0.1,0.7
		c-0.1-0.1-0.2-0.1-0.3-0.1c-0.1,0-0.1,0.1-0.1,0.2c0,0.1,0.1,0.3,0.2,0.5s0.1,0.4,0.1,0.5l-0.5,0.1c0,0.3,0.2,0.7,0.5,1.2
		c0.3,0.4,0.3,0.7-0.1,0.8c0.4,1.2,0.6,1.9,0.7,2.2s0.4,0.8,0.7,1.7c-0.2,0.3-0.2,0.7,0,1.2s0.2,1.1,0.2,1.5c0,0.1-0.1,0.2-0.2,0.2
		s-0.1,0.2,0,0.5c0.2,0.7,0.3,1.6,0.2,3c-0.1,1.3-0.4,2.3-0.9,2.9c-0.3,0-0.5,0.2-0.5,0.5s-0.1,0.6-0.4,0.7c-0.2,0.1-0.4,0-0.6-0.3
		c-0.2-0.2-0.4-0.3-0.7-0.2c-1.1,0.1-2.3,0.2-3.6,0.3c-1.3,0.1-2.6,0-3.8-0.2c-0.7-1.6-1.2-3.1-1.4-4.7c-0.2-1.6-0.4-3.1-0.6-4.4
		c-0.2-1.3-0.4-2.7-0.6-4s-0.1-2.5,0.3-3.5c-0.3-0.9-0.5-1.7-0.7-2.5s-0.3-1.7-0.4-2.7c0-0.3,0-0.9-0.1-1.7c0-0.8,0-1.5-0.1-2.2
		c0-0.2,0-0.4-0.1-0.5s-0.1-0.2-0.2-0.3c0-0.2,0.1-0.4,0.2-0.4s0.2-0.1,0.1-0.2c-0.1-0.9-0.2-1.7-0.3-2.4c-0.1-0.7-0.2-1.3-0.3-1.9
		c0-0.2,0-0.4-0.1-0.6s-0.2-0.3-0.2-0.6c0-0.1,0.2-0.3,0.4-0.6c0.2-0.2,0.3-0.4,0.3-0.5c0-0.6-0.1-1.2-0.4-1.8
		c-0.2-0.6-0.3-1.2-0.3-1.7c-0.2-1-0.3-2.1-0.4-3.4c0-0.5,0.1-0.8,0.2-0.9s0.1-0.5,0-1.3c0-0.1-0.1-0.6-0.2-1.5c0-0.2,0-0.4,0.1-0.4
		c0,0,0.1-0.1,0.1-0.2c0.1-0.5,0.1-1.2,0-2.1s-0.2-1.8-0.3-2.7c0-0.7,0-1.2,0-1.6c0-0.2,0.1-0.5,0.2-0.7s0.2-0.4,0.2-0.7
		c0-0.5,0-1-0.1-1.5s-0.1-1,0.1-1.5c0-0.2,0.1-0.5,0.2-0.8s0.1-0.5,0.2-0.8c0-0.2-0.1-0.5-0.3-0.8c-0.2-0.3-0.3-0.7-0.3-1.2
		c0-0.1,0-0.2,0.2-0.4s0.3-0.4,0.3-0.6c0-0.6-0.1-1.1-0.1-1.6c-0.1-0.4-0.1-1-0.1-1.8c0-0.1,0.1-0.3,0.2-0.5s0.2-0.4,0.2-0.7
		c0-0.5-0.1-1.1-0.4-1.8c-0.3-0.7-0.1-1.1,0.5-1c-0.2-0.5-0.3-1-0.3-1.3c-0.1-0.3,0-0.8,0.1-1.3c0-0.1,0-0.4,0-0.7
		c-0.1-0.3-0.1-0.6-0.1-0.9c0.1,0,0.2,0,0.4,0c0.2,0,0.2,0,0.2-0.2c0.2-0.3,0.1-0.5-0.1-0.8c-0.2-0.2-0.4-0.5-0.4-0.9
		c0.2-0.3,0.3-0.5,0.4-0.6s0.2-0.3,0.3-0.6c0-0.1,0-0.3-0.1-0.5s-0.2-0.4-0.1-0.5c0.1-0.3,0.1-0.5,0.2-0.8c0-0.2,0.1-0.5,0.2-0.8
		c0.1-0.4,0.2-0.7,0.3-1c0.1-0.3,0.2-0.7,0.2-1.3c1.1,0,2.4-0.2,3.7-0.8C52.2,144.8,53.4,144.8,54.4,145.4z M49.8,220.6
		c-0.2-0.3-0.3-0.6-0.2-0.8c0-0.2,0-0.5,0.1-0.6c0-0.2,0-0.3,0-0.4c0-0.1-0.2-0.2-0.5-0.2c0,0.2,0,0.7,0,1.3
		C49.1,220.4,49.4,220.7,49.8,220.6z M48.9,214.8c-0.2-0.5-0.1-1.2,0.1-1.9s0.1-1.1-0.4-1.2c0.2,0.5,0.2,1.1-0.2,1.7
		C48.1,214.1,48.2,214.5,48.9,214.8z M52,168.9c0.1,0.8,0.3,1.3,0.6,1.4s0.5,0.5,0.6,1.1c-0.2,0.1-0.3,0.2-0.2,0.4s0.1,0.4,0.1,0.7
		c0,0.1-0.1,0.3-0.3,0.5c-0.1,0.2-0.3,0.5-0.4,0.7c0,0.2,0,0.5,0.1,0.7s0.1,0.6,0.2,1c0,0.1-0.1,0.3-0.2,0.5s-0.2,0.4-0.2,0.7
		c0,0.5,0,1,0.1,1.6s0.1,1.1,0.1,1.7l-0.2,0.2l-0.1,0.2c-0.1,0.3-0.1,0.7-0.1,1.3s0.3,0.8,0.7,0.7c-0.2-0.4-0.3-0.7-0.2-0.9
		s0.1-0.4,0.1-0.6c-0.1-0.4-0.1-0.8,0-1.2c0.2-0.3,0.2-0.7,0.1-1c-0.1-0.2-0.1-0.3,0-0.3s0.1-0.1,0.2-0.3c0.1-0.4,0.1-0.7,0-1.1
		c-0.1-0.3-0.1-0.7,0-1.2c0.2-0.7,0.4-1.4,0.6-2.2c0.1-0.8,0.2-1.4,0.1-1.7c-0.1-0.6-0.1-1.1,0-1.7c0.1-0.6,0.1-1.1,0.1-1.7
		c0-0.2,0-0.6,0.1-1c0-0.4,0-0.9,0-1.3c0.1-0.3,0.1-0.7-0.1-1.2s-0.1-1,0.1-1.3c-0.2-0.3-0.3-0.6-0.4-0.9c-0.1-0.3-0.2-0.5-0.4-0.6
		c-0.4,1.1-0.5,2.2-0.5,3.5C52.6,166.9,52.4,168,52,168.9z M54.4,108.9c0.2,0.5,0.4,1.1,0.4,1.6c0,0.6,0.1,1.2,0.1,1.9
		c0,0.1,0,0.2-0.1,0.2l-0.1,0.4c0,0.3,0.1,0.7,0.2,1s0.2,0.8,0.2,1.4s0.1,1.2,0.1,1.7c0.1,0.6,0.1,1.2,0,1.8c0,0.3-0.1,0.7-0.5,1
		c-0.1,0.3-0.1,0.6,0,0.9s-0.1,0.5-0.5,0.5c0.3,0.4,0.4,0.7,0.3,0.9c-0.1,0.2-0.2,0.4-0.2,0.7c0,0.1,0.1,0.3,0.2,0.5
		s0.1,0.4,0.1,0.5h-0.1h-0.1c0,0.1,0,0.3,0.1,0.5s0.2,0.4,0.2,0.7l-0.4,0.1c0,0.1,0.1,0.3,0.2,0.5s0.1,0.4,0.1,0.5
		c-0.2,0.3-0.2,0.6,0.1,1c0.2,0.4,0.2,0.8,0.1,1c-0.1,0.4-0.1,1.1,0,2.1c0,0.6,0.1,1.1,0.2,1.6s0.2,1,0.2,1.6c-1.6,0.6-3,0.3-4.3-1
		c-0.6,0.1-1.2,0.1-1.7,0.2c-0.6,0.1-1.1,0-1.6-0.2c-0.3-0.3-0.6-0.6-0.9-1.1s-0.6-0.6-1-0.5c-0.2-1.2-0.5-2.5-1-3.7
		s-0.7-2.4-0.7-3.6c0-0.1,0.1-0.2,0.2-0.2s0.1-0.1,0-0.4l-0.1-0.3c0-0.1,0.2-0.3,0.3-0.6c-0.1-0.5-0.1-1-0.1-1.6s-0.1-1.2-0.3-1.9
		c-0.1-0.2-0.1-0.5-0.2-1c-0.1-0.4-0.1-0.8,0-1.1c0-0.1,0.2-0.2,0.4-0.3c0.2-0.1,0.3-0.1,0.2-0.3c0-0.6-0.1-1.1-0.3-1.5
		c-0.2-0.4-0.2-0.8-0.1-1c0.1-0.4,0.2-0.7,0.3-1s0.2-0.5,0.3-0.8c0.1-0.3,0.1-0.5,0.1-0.6c0-0.2-0.1-0.4-0.1-0.6s0.1-0.6,0.3-1.1
		c0.2-0.5,0.3-0.9,0.3-1.4c0.9-0.4,1.8-0.6,2.6-0.7c0.8-0.1,1.5,0.2,2.1,0.9c0.9-0.5,1.7-0.6,2.3-0.3
		C53.2,108.2,53.9,108.5,54.4,108.9z"/>
</g>
<g>
	<path class="st1" d="M4,143.9"/>
</g>
<g>
	<g>
		<path class="st0" d="M-8.5,220.7c0.2-0.1,0.3-0.5,0.3-0.7C-8.5,219.9-8.2,220.4-8.5,220.7z M-8.8,122.6c0,0.2-0.1,0.4-0.3,0.4
			c-0.2-0.3-0.3-0.5-0.4-1C-9,121.8-9.2,122.6-8.8,122.6z M-9,222.6c-0.3,0.1-0.1,0.7-0.4,0.7c0.2-0.4,0.1-0.9,0.2-1.1
			C-9,222.2-9.2,222.6-9,222.6z M-10.7,232.4c0.2,0.9-0.2,1.9-0.2,2.6C-11,234.2-10.7,233.4-10.7,232.4z M-11,236.9
			c-0.2-0.7,0-2.5,0-0.9C-11,236.3-11,236.6-11,236.9z M-13.4,226.2c0.2,0.1,0.1,1,0,1.1C-13.5,227-13.5,226.7-13.4,226.2z
			 M-13.5,230.5c-0.3,0.1-0.3-0.3-0.3-0.6C-13.7,230-13.5,230.2-13.5,230.5z M-14,223.7c-0.2,0,0.1-0.8-0.2-0.8
			C-14,222.5-13.9,223.6-14,223.7z M-16.5,207.7c-0.4-0.1-0.3-1.2-0.1-1.5C-16.5,206.6-16.5,207.2-16.5,207.7z M-5.5,143.2
			c-0.3-0.2-0.2-0.8-0.3-1.1C-5.7,142.3-5.5,142.6-5.5,143.2z M-7,132.1c-0.1,0-0.1,0-0.1,0.1c-0.2,1.9,0,4.8-0.2,6.3
			c0-3-0.1-6,0.5-8.3c0.3-1.3,1-2.4,0.2-3.5c0.3,0.1,0.6,0.6,0.7,1c0.2,1.2-1,2.5-1,3.8c0,0.7,0.3,0.9,0.2,1.6
			C-7,132.8-7,132.4-7,132.1z M-9.2,222c-0.4,0-0.1-0.5-0.1-0.8c-0.1,0.2-0.4,0.3-0.3,0.7c-0.1-0.2-0.3-0.2-0.3-0.5
			c-0.5,1.2-0.2,1.6-0.4,2.6c-0.1,0-0.1-0.2-0.2-0.3c-0.2,0.9-0.3,2.4-0.1,3.5c-0.2,0-0.2-0.3-0.2-0.6c-0.3,0.1-0.1,1.2-0.4,0.6
			c0,0.9,0.2,0.8,0.1,1.6c-0.2-0.9-0.4-1.1-0.4-2.1c-0.1,0.1-0.1,0.4-0.2,0.6c-0.3-0.2,0.1-0.5,0-0.9c-0.4,1.5-0.4,3.2-0.4,4.9
			c-0.1-0.5-0.2-1.5-0.2-2.5c-0.2,0.6-0.2,1.6-0.3,2.4c-0.2-0.8-0.2,0.1-0.3,0.5c-0.1-4-0.2-5.3-0.4-9.6c0,0.8-0.1,1.2,0,1.9
			c0,0.2-0.3,0.4-0.3,0.1c-0.1,0.1,0.3,0.6-0.1,0.7c-0.6-0.5-0.3-2.3-0.6-3.2c-0.1,0.1-0.1,0.4-0.4,0.2c0,0.5,0.4-0.2,0.3,0.6
			c-0.7-0.6-0.3-1.7-0.4-2.4c0-0.6-0.2-1.3-0.1-2.2c-0.4,0.5-0.1,1.9-0.2,2.7c-0.1,0.2-0.1-0.1-0.1-0.3c-0.1-1.6-0.3-4.5-0.3-6
			c-0.4,0.6-0.1,1.4-0.1,2.5c-0.1,0-0.1-0.2-0.1-0.4c-0.2,1.6,0,4.9,0.3,7c0.1,0.6,0.3,1.1,0.4,1.6c0,0.5,0,1.7,0.4,2.2
			c-0.2,0.8,0,1.1,0.3,1.6c-0.2,0-0.2-0.2-0.3,0c-0.1,0.4,0.3,0.2,0.4,0.4c-0.1,0.2-0.4,0.7-0.1,1c-0.4-0.1,0,0.9,0.1,1.6
			c0.1-0.3,0.1-0.8,0.3-0.9c0.3,1.2,0,2.3,0,3.6c-0.2-0.9,0-2.4,0-3.4c-0.3,0.1-0.2,0.9-0.3,1.4c-1.8-5.4-2.9-15.1-2.7-22.2
			c0.5,0,0.7-1.5,0.7-2.5c0.2,0.3,0.3,0.1,0.5,0.4c-0.1,0.2,0.1,0.7,0,1.2c0.3-0.5,0-2.2,0.1-3.2c-0.2,0,0,0.4-0.1,0.6
			c-0.1,0.2-0.1-1-0.3-1.2c-0.2,0.9-0.1,1.3-0.1,2c-0.5-0.2,0.1-2.4-0.2-3.1c0.1-0.4,0.3,0.1,0.2,0.4c0.1-1.2,0.2-2.5,0.1-3.5
			c-0.1,0.4-0.1,1.5-0.1,2.6c-0.4-0.7,0.1-2.3-0.1-3.5c0.3-0.1,0.3,0.3,0.3,0.6c0.3-0.3,0-0.9-0.3-0.9c0.1-0.4,0.1-0.9-0.1-1.2
			c0.2,1.9-0.5,3.9-0.3,5.7c0.1,0,0.1-0.3,0.1-0.5c0.3,0.2,0,1.4,0.1,2.4c-0.1-0.1-0.1-0.2-0.2-0.4c-0.2,0.8,0.1,2.3-0.2,3.1
			c-0.1-4.7-0.3-9.3,0.2-14c0.4,0.7,0.1,2.2,0.4,3.1c0.1-0.4,0.1-2,0.1-2.6c0.4,0.8-0.1,2.5,0.2,3.6c0.2-5.7,0.2-10.4-0.1-16.6
			c-0.1,2.5,0.1,4.2,0.1,6.2c-0.1-0.1-0.2-0.2-0.2-0.4c-0.1,1.3,0.1,4-0.1,5.4c-0.2-0.1,0-0.7-0.1-1c-0.1,0.6-0.2,1.3-0.2,2.1
			c-0.5-3.2-0.5-6.5-1-10c0.1-0.1,0.1-0.4,0.4-0.2c0.1-7.7-0.4-15.8,0-22.5c0-0.3-0.2-0.2-0.3-0.5c0.5-3.9-0.5-8.6,0.1-13
			c0.2-1.3-0.3-2.8,0.2-3.9c-0.2-3.5-0.5-9.2,0.4-11.9v-1c0.2-0.3,0.4-0.4,0.5-0.8c-0.4-0.6,0-1.6,0.2-2.6c-0.1-0.2-0.2-0.2-0.4-0.2
			c0.3,0.5,0,0.3,0,1.1c-0.1,0.1-0.1-1-0.2-1.4c0.2,0.3,0.5-0.3,0.5,0.2c0.3-0.7,0.4-1.6,0.3-2.8c0.3,0.1,0,0.3,0.2,0.5
			c0.2-0.7,0.7-1.1,0.3-2c0.7,0.2,0.6-1.7,1.6-1.4c0.2,0,0-0.4,0.1-0.6c0.4,0.2,0.6-1,1.5-0.6c0,0.9,1.4,0.9,1.9,1.5
			c0.3-0.1-0.2-0.6,0.2-0.5c-0.1,0.8,0.5,1.4,0.8,2c0.1,0.8-0.3,1-0.4,1.5c0.4,1.2,0.9,1.8,0.8,3.2c0,0.3-0.1,0.6-0.1,0.9
			s0.2,0.4,0.2,0.4c0,0.1-0.2,0.4-0.2,0.6c0,0.4,0.4,0.8,0.4,1s-0.2,0.8-0.2,1c0,0.8,0.2,1.5,0.2,2.4c0.2,4.7,0,10.5,0.2,15.8
			c0.1,1.4,0.1,3,0.1,4.4c-0.1,5.8,0,11.5,0.2,17.4c0,0.2-0.1,1.4-0.1,2.3c0.3,11.1,0.8,25.9,0.4,38c-0.2,0.1-0.1,0.4-0.3,0.1
			c0,0.2,0.1,0.2,0.2,0.3c-0.1,0.6-0.2,0.6-0.3,1.2c-0.3,1.4-0.3,3.6-0.9,4.4c0.3-2.2,0.8-4.6,0.8-6.9c-0.6,1.4-0.4,3.9-1.3,4.9
			c0.3,0.8-0.3,1.2,0.1,1.6C-9.5,219.5-8.9,221.3-9.2,222z M-12.5,230.2V229C-12.8,228.8-12.5,230.2-12.5,230.2z M-13.4,223.3
			c0.2,0.4-0.1,0.6,0.2,0.7C-13.2,223.7-13,223.3-13.4,223.3z M-7.4,209.2c0-0.6-0.2-0.6,0-1C-7.8,208.2-7.5,209.2-7.4,209.2z
			 M-7.4,210.6c-0.1-0.3,0.1-0.8-0.1-0.9C-7.7,209.9-7.5,210.5-7.4,210.6z M-15.4,128.9c0,0.6-0.4,1.8,0.2,1.9
			C-15.2,130.1-15.2,129.3-15.4,128.9z M-9.2,223.7c0.1,0.2-0.2,0.3,0,0.8c-0.3,0.1-0.1-0.5-0.2-0.8C-9.4,223.8-9.2,223.9-9.2,223.7
			z M-10.2,225.8c0.1,0.1,0,0.1-0.1,0.1c-0.1-0.2-0.1-0.7-0.1-1.1C-10,224.9-10.5,225.6-10.2,225.8z M-13.2,229.3
			c-0.3-0.1,0-0.7-0.2-0.9C-13.2,228.1-13.2,229-13.2,229.3z M-14.5,123.8c0.1,0.3-0.4,1.4-0.6,1.3C-15,124.6-14.7,124.3-14.5,123.8
			z"/>
	</g>
</g>
<g>
	<g>
		<path class="st0" d="M-22.4,124.9c0.2,0.2,0.5-0.1,0.8-0.2C-21.8,124.4-21.9,125-22.4,124.9z M49,69.3c-0.2,0-0.4,0.2-0.5,0
			c0.1-0.3,0.2-0.5,0.5-0.9C49.4,68.6,48.8,68.9,49,69.3z M-24,125.7c-0.2-0.2-0.6,0.3-0.8,0.1c0.4-0.2,0.6-0.5,0.9-0.5
			C-23.8,125.3-24.2,125.5-24,125.7z M-32.2,130.1c-0.4,0.7-1.6,1-1.9,1.5C-33.7,130.9-32.8,130.7-32.2,130.1z M-35.5,132.5
			c0.4-0.6,1.7-1.5,0.6-0.5C-35.2,132.1-35.4,132.4-35.5,132.5z M-29.4,124.4c0,0.2-0.6,0.7-0.8,0.7
			C-30,124.8-29.8,124.7-29.4,124.4z M-32.7,126.9c-0.2-0.2,0-0.4,0.2-0.5C-32.2,126.4-32.4,126.6-32.7,126.9z M-28,122.4
			c-0.1-0.2,0.6-0.4,0.4-0.6C-27.2,121.7-27.9,122.5-28,122.4z M-18,111.2c-0.2-0.4,0.7-0.9,1-0.9C-17.4,110.6-17.7,110.9-18,111.2z
			 M35.8,83.1c0-0.3,0.5-0.6,0.7-0.8C36.2,82.6,36,82.9,35.8,83.1z M43,75.8C43,75.7,42.9,75.7,43,75.8c-1.6,0.9-3.7,2.6-4.8,3.2
			c2.3-1.7,4.4-3.4,6.4-4.2c1.2-0.5,2.4-0.5,2.7-1.8c0,0.3-0.1,0.8-0.4,1.2c-0.8,0.8-2.5,0.5-3.4,1.2c-0.6,0.4-0.5,0.8-1.1,1
			C42.4,76.3,42.9,76.1,43,75.8z M-23.5,125.2c-0.2-0.3,0.4-0.3,0.4-0.5c-0.2,0-0.4,0-0.7,0.2c0.1-0.2,0-0.3,0.2-0.5
			c-1.2,0.3-1.3,0.8-2.2,1.2c0-0.1,0.2-0.2,0.1-0.3c-0.8,0.4-2,1.2-2.6,1.9c-0.1-0.2,0.1-0.3,0.3-0.5c-0.2-0.2-0.9,0.7-0.7,0
			c-0.6,0.6-0.4,0.6-1.1,1c0.5-0.7,0.5-1,1.3-1.5c-0.2-0.1-0.4,0.2-0.6,0.3c0-0.3,0.5-0.3,0.6-0.5c-1.3,0.6-2.5,1.5-3.7,2.5
			c0.3-0.3,1-1.1,1.7-1.6c-0.6,0.2-1.2,0.9-1.9,1.2c0.4-0.6-0.2-0.1-0.6,0.1c2.8-2.4,3.6-3.2,6.6-5.9c-0.6,0.4-1,0.6-1.4,1.1
			c-0.1,0.1-0.5,0.1-0.2-0.2c-0.1-0.1-0.2,0.5-0.6,0.4c0-0.8,1.5-1.6,1.9-2.4c-0.1-0.1-0.3,0.1-0.4-0.1c-0.4,0.3,0.4,0.1-0.3,0.5
			c0-0.9,0.9-1.2,1.5-1.7c0.5-0.4,0.9-0.9,1.5-1.4c-0.6,0-1.4,1-2.1,1.5c-0.2,0.1,0-0.1,0.1-0.2c1.1-1,3.1-2.8,4.2-3.8
			c-0.7,0-1,0.7-1.8,1.3c0-0.1,0.1-0.2,0.2-0.3c-1.2,0.8-3.6,2.8-4.9,4.4c-0.3,0.4-0.6,0.9-0.9,1.2c-0.4,0.3-1.2,1-1.3,1.7
			c-0.7,0.3-0.7,0.6-1,1.1c-0.1-0.1,0-0.3-0.1-0.2c-0.4,0.2,0,0.3,0,0.5c-0.2,0.1-0.8,0.2-0.7,0.5c-0.2-0.4-0.6,0.5-1.1,1
			c0.3,0,0.7-0.4,0.9-0.2c-0.7,0.9-1.6,1.3-2.5,2.1c0.5-0.8,1.6-1.4,2.4-2c-0.3-0.2-0.8,0.4-1.1,0.7c2.7-4.6,8.9-11.1,14.3-15.2
			c0.2,0.4,1.5-0.3,2.2-0.9c-0.1,0.3,0.1,0.3,0.1,0.6c-0.2,0-0.4,0.5-0.9,0.7c0.5-0.1,1.5-1.3,2.4-1.8c-0.1-0.2-0.4,0.2-0.5,0.3
			c-0.2,0,0.7-0.7,0.7-0.9c-0.8,0.3-1,0.6-1.5,1.1c-0.2-0.5,1.8-1.3,2.2-2c0.4-0.2,0,0.3-0.2,0.3c0.9-0.6,2-1.3,2.6-1.9
			c-0.3,0.1-1.1,0.7-1.9,1.5c0.3-0.7,1.7-1.2,2.4-2.1c0.2,0.2,0,0.4-0.3,0.5c0.4,0,0.7-0.5,0.5-0.7c0.4-0.2,0.7-0.5,0.8-0.8
			c-1.3,1.2-3.1,1.9-4.3,3.1c0.1,0.1,0.3-0.1,0.4-0.2c0.1,0.4-1,0.7-1.6,1.4c0-0.1,0.1-0.2,0.2-0.3c-0.7,0.3-1.6,1.4-2.4,1.7
			c3.4-2.8,6.5-5.6,10.3-8c-0.3,0.6-1.5,1.4-2,2.1c0.4-0.2,1.6-1.1,1.9-1.5c-0.3,0.8-1.8,1.3-2.5,2.2c4.3-3.2,7.7-5.8,12-9.6
			c-1.9,1.6-3,2.7-4.4,3.9c0-0.1,0-0.2,0.2-0.3c-1,0.7-2.8,2.4-3.9,3c0-0.2,0.4-0.5,0.6-0.7c-0.5,0.3-1,0.6-1.7,1.1
			c2-2.3,4.4-4.2,6.6-6.5c0.1,0.1,0.4-0.2,0.4,0.1C4.3,93.6,9.9,88.7,15,85.2c0.2-0.1,0.1-0.3,0.2-0.5c3.2-1.8,6.1-5.2,9.6-7.3
			c1.1-0.7,1.9-1.9,3-2c2.4-2.1,6.5-5.6,9.1-6.3l0.7-0.6c0.3,0,0.5,0.1,0.9,0c0.3-0.6,1.2-0.9,2.1-1.3c0.1-0.1,0.1-0.3-0.1-0.4
			c0,0.5-0.2,0.1-0.7,0.6c-0.1,0,0.6-0.7,0.9-0.9c-0.1,0.3,0.5,0.2,0.2,0.6c0.7-0.1,1.4-0.5,2.3-1.2c0,0.3-0.3,0.1-0.3,0.4
			c0.6-0.2,1.3-0.1,1.7-0.8c0.3,0.7,1.5-0.5,2,0.5c0.1,0.2,0.4-0.2,0.5-0.3c0.2,0.5,1.1,0,1.3,0.8c-0.6,0.5,0.2,1.6,0,2.4
			c0.2,0.2,0.3-0.5,0.5-0.2c-0.7,0.4-0.8,1.1-1,1.7c-0.5,0.5-1,0.3-1.3,0.5c-0.7,1-0.8,1.6-1.9,2.5c-0.3,0.1-0.5,0.3-0.7,0.4
			s-0.2,0.3-0.2,0.3c-0.1,0.1-0.4,0.1-0.6,0.2c-0.3,0.2-0.3,0.7-0.5,0.9c-0.2,0.2-0.7,0.3-0.9,0.4c-0.6,0.4-1.1,0.9-1.6,1.4
			c-3.4,2.8-7.7,5.7-11.4,8.9c-1,0.8-2.1,1.8-3.1,2.5c-4.3,3.2-8.4,6.4-12.5,9.9c-0.1,0.1-1,0.6-1.7,1.2
			c-7.9,6.5-18.3,15.4-27.2,22.2c-0.2-0.1-0.3,0.1-0.2-0.2c-0.2,0.1-0.1,0.2-0.1,0.3c-0.6,0.3-0.6,0.2-1.2,0.5
			c-1.2,0.6-2.8,1.9-3.7,1.9c1.8-1,3.9-2.1,5.4-3.4c-1.4,0.4-3,1.9-4.3,1.9c-0.4,0.7-1.1,0.4-1.1,1C-22,123.5-22.9,125-23.5,125.2z
			 M-31.7,127.4l0.9-0.7C-30.8,126.4-31.7,127.4-31.7,127.4z M-27.4,122.7c-0.2,0.3-0.5,0.3-0.4,0.6C-27.5,123.1-27,123-27.4,122.7z
			 M-13.4,119.1c0.4-0.3,0.3-0.4,0.7-0.6C-12.9,118.3-13.5,118.9-13.4,119.1z M-14.4,119.9c0.2-0.2,0.7-0.4,0.5-0.6
			C-14,119.3-14.5,119.7-14.4,119.9z M40.4,67.4c-0.5,0.3-1.6,0.7-1.3,1.2C39.8,68.1,40.2,67.7,40.4,67.4z M-25,126.1
			c-0.1,0.2-0.3,0-0.5,0.5c-0.3-0.2,0.3-0.3,0.4-0.6C-25,126.1-25,126.2-25,126.1z M-27,126.6C-27,126.7-27.2,126.8-27,126.6
			c0-0.2,0.3-0.4,0.6-0.7C-26.2,126.3-27,126.3-27,126.6z M-31.5,126.3c-0.1-0.3,0.5-0.5,0.5-0.7C-30.7,125.6-31.4,126.1-31.5,126.3
			z M44.8,65.1c-0.2,0.2-1.3,0.5-1.3,0.2C43.9,65.2,44.4,65.4,44.8,65.1z"/>
	</g>
</g>
<g>
	<g>
		<path class="st0" d="M62.6,76.2c-0.1,0.2,0.2,0.4,0.3,0.6C63.4,76.6,62.9,76.6,62.6,76.2z M131.5,128.8c-0.1-0.2-0.2-0.3,0-0.5
			c0.3,0,0.6,0.1,0.9,0.3C132.1,129.1,131.8,128.4,131.5,128.8z M61.6,74.8c0.1-0.3-0.4-0.5-0.3-0.7c0.2,0.3,0.6,0.5,0.7,0.7
			C61.9,75,61.8,74.7,61.6,74.8z M55.2,68.6c-0.8-0.2-1.3-1.2-1.8-1.4C54.1,67.4,54.5,68.2,55.2,68.6z M52.1,66.1
			c0.7,0.2,1.9,1.1,0.7,0.4C52.6,66.4,52.4,66.2,52.1,66.1z M61.4,69.4c-0.2,0.1-0.8-0.4-0.8-0.5C60.9,68.9,61,69.1,61.4,69.4z
			 M58.2,67.1c0.1-0.3,0.3-0.1,0.6,0.1C58.6,67.3,58.4,67.2,58.2,67.1z M63.5,70.1c0.1-0.2,0.5,0.5,0.7,0.2
			C64.4,70.7,63.6,70.3,63.5,70.1z M76.6,76.1c0.2-0.4,1.1,0.4,1.1,0.7C77.4,76.7,77,76.5,76.6,76.1z M115.6,119.5
			c0.2-0.1,0.7,0.4,1,0.4C116.2,119.8,115.9,119.8,115.6,119.5z M124,124.6C124.1,124.6,124,124.5,124,124.6
			c-1.2-1.3-3.3-2.9-4.1-3.8c2,1.8,4.1,3.3,5.2,5.1c0.7,1,0.9,2.1,2.3,2.1c-0.3,0.2-0.8,0.1-1.1,0c-0.9-0.5-1-2.1-1.8-3
			c-0.4-0.5-0.9-0.3-1.2-0.8C123.5,124.2,123.8,124.5,124,124.6z M62.1,75.1c0.1-0.3,0.5,0.2,0.6,0.3c-0.1-0.2,0-0.4-0.4-0.6
			c0.2,0,0.3-0.2,0.5,0.1c-0.6-1-1-0.9-1.7-1.6c0.1-0.1,0.2,0,0.3-0.1c-0.5-0.7-1.5-1.5-2.5-1.8c0.1-0.2,0.3,0,0.6,0.2
			c0-0.3-0.9-0.7-0.2-0.6c-0.6-0.5-0.7-0.2-1.2-0.8c0.8,0.3,1,0.2,1.7,0.7c0-0.2-0.3-0.3-0.3-0.4c0.3-0.2,0.4,0.3,0.7,0.4
			c-0.9-1-2.2-1.9-3.4-2.7c0.4,0.1,1.2,0.6,2,1.1c-0.3-0.4-1.1-0.9-1.6-1.4c0.7,0.2,0-0.3-0.1-0.5c3,1.9,3.9,2.5,7.3,4.4
			c-0.6-0.4-0.8-0.7-1.4-0.9c-0.1,0-0.1-0.4,0-0.3c0-0.2-0.6-0.1-0.5-0.5c0.7-0.2,1.9,0.9,2.8,1.1c0-0.1-0.3-0.2,0-0.4
			c-0.4-0.2,0,0.4-0.6-0.1c0.8-0.3,1.4,0.6,1.9,0.8s1,0.5,1.7,1c-0.1-0.5-1.3-1-1.9-1.5c-0.1-0.2,0.1-0.1,0.2,0
			c1.2,0.8,3.5,2,4.6,2.8c-0.2-0.6-0.9-0.7-1.7-1.3c0.1-0.1,0.2,0,0.3,0.1c-1.1-0.9-3.5-2.5-5.3-3.3c-0.6-0.3-1-0.3-1.5-0.5
			c-0.4-0.2-1.2-0.9-1.9-0.7c-0.4-0.6-0.7-0.5-1.3-0.6c0-0.1,0.3-0.1,0.1-0.2c-0.3-0.2-0.3,0.2-0.5,0.1c-0.1-0.1-0.3-0.6-0.7-0.6
			c0.3-0.3-0.7-0.4-1.2-0.8c0.1,0.2,0.5,0.5,0.4,0.8c-1.1-0.3-1.7-1.1-2.7-1.7c0.8,0.3,1.8,1.1,2.5,1.6c0-0.3-0.5-0.6-0.9-0.9
			c5,1.1,12.9,5,17.9,8.9c-0.3,0.4,0.6,1.3,1.4,1.9c-0.3,0-0.2,0.2-0.5,0.2c-0.1-0.2-0.6-0.3-0.9-0.6c0.2,0.4,1.6,1.1,2.3,1.7
			c0.1-0.2-0.3-0.2-0.5-0.4c-0.1-0.2,0.8,0.5,1.1,0.4c-0.5-0.7-0.8-0.8-1.4-1.1c0.4-0.3,1.7,1.3,2.3,1.5c0.3,0.3-0.2,0.2-0.4,0
			c0.8,0.7,1.7,1.5,2.5,1.8c-0.3-0.2-1-0.8-1.8-1.4c0.8,0.1,1.6,1.2,2.6,1.7c-0.1,0.3-0.3,0.1-0.6-0.1c0,0.4,0.6,0.5,0.8,0.2
			c0.2,0.3,0.6,0.6,0.9,0.6c-1.4-0.9-2.5-2.3-4-3.2c0,0.1,0.2,0.2,0.4,0.3c-0.3,0.2-1-0.7-1.8-1.1c0.1,0,0.2,0,0.4,0
			c-0.4-0.6-1.8-1.1-2.2-1.8c3.4,2.3,6.9,4.5,10.1,7.4c-0.7-0.1-1.7-1-2.5-1.3c0.3,0.3,1.4,1.2,1.8,1.4c-0.9-0.1-1.7-1.4-2.7-1.7
			c4,3.2,7.4,5.6,12,8.7c-1.7-1.4-3.1-2.2-4.5-3.3c0.1-0.1,0.2-0.1,0.4,0c-0.9-0.7-2.9-2-3.8-2.9c0.2-0.1,0.6,0.4,0.7,0.5
			c-0.3-0.4-0.9-0.8-1.5-1.3c2.7,1.2,5,3,7.8,4.5c0,0.1,0.3,0.2,0,0.4c5.5,4.2,11.6,8.2,16,12.2c0.2,0.1,0.3-0.1,0.5,0.1
			c2.4,2.5,6.3,4.4,9.1,7.3c0.8,0.9,2.2,1.3,2.5,2.3c2.6,1.8,6.7,4.9,7.9,7.1l0.6,0.6c0.1,0.3-0.1,0.5,0.2,0.8
			c0.7,0.1,1.1,0.9,1.7,1.6c0.2,0,0.3,0,0.4-0.1c-0.5,0-0.2-0.2-0.7-0.6c0-0.1,0.8,0.4,1,0.6c-0.3,0-0.2,0.6-0.5,0.2
			c0.2,0.6,0.8,1.2,1.7,1.8c-0.2,0.2-0.2-0.1-0.5-0.2c0.3,0.5,0.2,1.2,1.1,1.5c-0.6,0.4,0.7,1.4-0.1,2c-0.1,0.1,0.3,0.3,0.3,0.4
			c-0.4,0.2,0.3,1-0.6,1.4c-0.6-0.5-1.5,0.5-2.3,0.6c-0.1,0.3,0.6,0.2,0.2,0.4c-0.5-0.6-1.3-0.5-1.8-0.5c-0.6-0.4-0.5-0.8-0.8-1.2
			c-1.1-0.4-1.8-0.3-2.7-1.2c-0.2-0.2-0.3-0.4-0.5-0.6c-0.2-0.1-0.4,0-0.4,0c-0.1-0.1-0.2-0.3-0.3-0.4c-0.3-0.2-0.8-0.1-1-0.2
			s-0.4-0.6-0.5-0.7c-0.5-0.5-1.1-0.7-1.8-1.2c-3.3-2.5-7.1-5.9-10.8-8.6c-1-0.7-2.1-1.6-3-2.3c-3.9-3.2-7.9-6.3-12.2-9.3
			c-0.1-0.1-0.9-0.8-1.6-1.3c-8-5.7-18.7-13-27.3-19.3c0-0.2-0.3-0.2,0-0.3c-0.2-0.1-0.2,0-0.3,0.1c-0.3-0.4-0.3-0.4-0.7-0.9
			c-0.8-1-2.5-2-2.7-2.9c1.5,1.3,3,3,4.5,4.1c-0.7-1.2-2.5-2.2-2.8-3.5c-0.7-0.2-0.7-0.8-1.2-0.8C64.1,76,62.4,75.6,62.1,75.1z
			 M57.9,68.2l0.9,0.6C59,68.7,57.9,68.1,57.9,68.2z M63.5,70.8c-0.4,0-0.3-0.4-0.7-0.2C63.1,70.8,63.4,71.1,63.5,70.8z M70.4,82.9
			c0.4,0.2,0.5,0.2,0.7,0.5C71.4,83.1,70.5,82.8,70.4,82.9z M69.4,82.2c0.2,0.1,0.5,0.5,0.7,0.4C70,82.3,69.6,82.1,69.4,82.2z
			 M131.5,120.1c-0.4-0.3-1-1.3-1.4-1C130.8,119.5,131.1,120.1,131.5,120.1z M60.9,74c-0.2,0-0.2-0.2-0.6-0.4c0-0.3,0.4,0.1,0.7,0.2
			C60.9,73.9,60.9,73.9,60.9,74z M59.9,72.3c-0.1,0.1-0.1,0-0.1-0.1c0.2,0,0.6,0.3,0.8,0.5C60.4,73,60.2,72.1,59.9,72.3z M59,68
			c0.3-0.2,0.6,0.4,0.8,0.3C59.9,68.6,59.2,68.1,59,68z M134.5,123.6c-0.2-0.1-0.7-1.1-0.5-1.2C134.3,122.9,134.3,123.3,134.5,123.6
			z"/>
	</g>
</g>
</svg>
