<?xml version="1.0" encoding="utf-8"?>
<!-- Generator: Adobe Illustrator 19.0.0, SVG Export Plug-In . SVG Version: 6.00 Build 0)  -->
<svg version="1.1" id="Layer_1" xmlns="http://www.w3.org/2000/svg" xmlns:xlink="http://www.w3.org/1999/xlink" x="0px" y="0px"
	 viewBox="-150 161 199 180" style="enable-background:new -150 161 199 180;" xml:space="preserve">
<style type="text/css">
	.st0{fill:#FFFFFF;}
	.st1{fill:none;stroke:#000000;stroke-miterlimit:10;}
</style>
<g>
	<g>
		<path class="st0" d="M21.7,317.7c0.2-0.1,0.3-0.5,0.3-0.7C21.6,316.9,21.9,317.4,21.7,317.7z M21.5,219.6
			c-0.1,0.2-0.1,0.4-0.4,0.4c-0.2-0.3-0.3-0.5-0.4-1C21.2,218.8,21,219.6,21.5,219.6z M21.1,319.6c-0.3,0.1-0.1,0.7-0.4,0.7
			c0.2-0.4,0.1-0.9,0.2-1.1C21.1,319.2,21,319.6,21.1,319.6z M19.5,329.4c0.2,0.9-0.2,1.9-0.2,2.6C19.1,331.2,19.5,330.4,19.5,329.4
			z M19.1,333.9c-0.2-0.7,0-2.5,0-0.9C19.1,333.3,19.1,333.6,19.1,333.9z M16.8,323.2c0.2,0.1,0.1,1,0,1.1
			C16.6,324,16.7,323.7,16.8,323.2z M16.6,327.5c-0.3,0.1-0.3-0.3-0.3-0.6C16.5,327,16.6,327.2,16.6,327.5z M16.2,320.7
			c-0.2,0,0.1-0.8-0.2-0.8C16.2,319.5,16.3,320.6,16.2,320.7z M13.7,304.7c-0.4-0.1-0.3-1.2-0.1-1.5
			C13.7,303.6,13.8,304.2,13.7,304.7z M24.6,240.2c-0.2-0.2-0.1-0.8-0.3-1.1C24.5,239.3,24.6,239.6,24.6,240.2z M23.1,229.1
			c-0.1,0-0.1,0-0.1,0.1c-0.2,1.9,0,4.8-0.2,6.3c0-3-0.1-6,0.5-8.3c0.3-1.3,1-2.4,0.2-3.5c0.3,0.1,0.6,0.6,0.7,1
			c0.2,1.2-1,2.5-1,3.8c0,0.7,0.3,0.9,0.2,1.6C23.2,229.8,23.2,229.4,23.1,229.1z M21.1,319c-0.4,0-0.1-0.5-0.1-0.8
			c-0.1,0.2-0.4,0.3-0.3,0.7c-0.1-0.2-0.3-0.2-0.3-0.5c-0.5,1.2-0.2,1.6-0.4,2.6c-0.1,0-0.1-0.2-0.2-0.3c-0.2,0.9-0.3,2.4-0.1,3.5
			c-0.2,0-0.2-0.3-0.2-0.6c-0.3,0.1-0.1,1.2-0.4,0.6c0,0.9,0.2,0.8,0.1,1.6c-0.2-0.9-0.4-1.1-0.4-2.1c-0.1,0.1-0.1,0.4-0.2,0.6
			c-0.3-0.2,0.1-0.5,0-0.9c-0.4,1.5-0.4,3.2-0.4,4.9c-0.1-0.5-0.2-1.5-0.2-2.5c-0.2,0.6-0.2,1.6-0.3,2.4c-0.2-0.8-0.2,0.1-0.3,0.5
			c-0.1-4-0.2-5.3-0.4-9.6c0,0.8-0.1,1.2,0,1.9c0,0.2-0.3,0.4-0.3,0.1c-0.1,0.1,0.3,0.6-0.1,0.7c-0.6-0.5-0.3-2.3-0.6-3.2
			c-0.1,0.1-0.1,0.4-0.4,0.2c0,0.5,0.4-0.2,0.3,0.6c-0.7-0.6-0.3-1.7-0.4-2.4c0-0.6-0.2-1.3-0.1-2.2c-0.4,0.5-0.1,1.9-0.2,2.7
			c-0.1,0.2-0.1-0.1-0.1-0.3c-0.1-1.6-0.3-4.5-0.3-6c-0.4,0.6-0.1,1.4-0.1,2.5c-0.1,0-0.1-0.2-0.1-0.4c-0.2,1.6,0,4.9,0.3,7
			c0.1,0.6,0.3,1.1,0.4,1.6c0,0.5,0,1.7,0.4,2.2c-0.2,0.8,0,1.1,0.3,1.6c-0.2,0-0.2-0.2-0.3,0c-0.1,0.4,0.3,0.2,0.4,0.4
			c-0.1,0.2-0.4,0.7-0.1,1c-0.4-0.1,0,0.9,0.1,1.6c0.1-0.3,0.1-0.8,0.3-0.9c0.3,1.2,0,2.3,0,3.6c-0.2-0.9,0-2.4,0-3.4
			c-0.3,0.1-0.2,0.9-0.3,1.4c-1.8-5.4-2.9-15.1-2.7-22.2c0.5,0,0.7-1.5,0.7-2.5c0.2,0.3,0.3,0.1,0.5,0.4c-0.1,0.2,0.1,0.7,0,1.2
			c0.3-0.5,0-2.2,0.1-3.2c-0.2,0,0,0.4-0.1,0.6s-0.1-1-0.3-1.2c-0.2,0.9-0.1,1.3-0.1,2c-0.5-0.2,0.1-2.4-0.2-3.1
			c0.1-0.4,0.3,0.1,0.2,0.4c0.1-1.2,0.2-2.5,0.1-3.5c-0.1,0.4-0.1,1.5-0.1,2.6c-0.4-0.7,0.1-2.3-0.1-3.5c0.3-0.1,0.3,0.3,0.3,0.6
			c0.3-0.3,0-0.9-0.3-0.9c0.1-0.4,0.1-0.9-0.1-1.2c0.2,1.9-0.5,3.9-0.3,5.7c0.1,0,0.1-0.3,0.1-0.5c0.3,0.2,0,1.4,0.1,2.4
			c-0.1-0.1-0.1-0.2-0.2-0.4c-0.2,0.8,0.1,2.3-0.2,3.1c-0.1-4.7-0.3-9.3,0.2-14c0.4,0.7,0.1,2.2,0.4,3.1c0.1-0.4,0.1-2,0.1-2.6
			c0.4,0.8-0.1,2.5,0.2,3.6c0.2-5.7,0.2-10.4-0.1-16.6c-0.1,2.5,0.1,4.2,0.1,6.2c-0.1-0.1-0.2-0.2-0.2-0.4c-0.1,1.3,0.1,4-0.1,5.4
			c-0.2-0.1,0-0.7-0.1-1c-0.1,0.6-0.2,1.3-0.2,2.1c-0.5-3.2-0.5-6.5-1-10c0.1-0.1,0.1-0.4,0.4-0.2c0.1-7.7-0.4-15.8,0-22.5
			c0-0.3-0.2-0.2-0.3-0.5c0.5-3.9-0.5-8.6,0.1-13c0.2-1.3-0.3-2.8,0.2-3.9c-0.2-3.5-0.5-9.2,0.4-11.9v-1c0.2-0.3,0.4-0.4,0.5-0.8
			c-0.4-0.6,0-1.6,0.2-2.6c-0.1-0.2-0.2-0.2-0.4-0.2c0.3,0.5,0,0.3,0,1.1c-0.1,0.1-0.1-1-0.2-1.4c0.2,0.3,0.5-0.3,0.5,0.2
			c0.3-0.7,0.4-1.6,0.3-2.8c0.3,0.1,0,0.3,0.2,0.5c0.2-0.7,0.7-1.1,0.3-2c0.7,0.2,0.6-1.7,1.6-1.4c0.2,0,0-0.4,0.1-0.6
			c0.4,0.2,0.6-1,1.5-0.6c0,0.9,1.4,0.9,1.9,1.5c0.3-0.1-0.2-0.6,0.2-0.5c-0.1,0.8,0.5,1.4,0.8,2c0.1,0.8-0.3,1-0.4,1.5
			c0.4,1.2,0.9,1.8,0.8,3.2c0,0.3-0.1,0.6-0.1,0.9s0.2,0.4,0.2,0.4c0,0.1-0.2,0.4-0.2,0.6c0,0.4,0.4,0.8,0.4,1s-0.2,0.8-0.2,1
			c0,0.8,0.2,1.5,0.2,2.4c0.2,4.7,0,10.5,0.2,15.8c0.1,1.4,0.1,3,0.1,4.4c-0.1,5.8,0,11.5,0.2,17.4c0,0.2-0.1,1.4-0.1,2.3
			c0.3,11.1,0.8,25.9,0.4,38c-0.2,0.1-0.1,0.4-0.3,0.1c0,0.2,0.1,0.2,0.2,0.3c-0.1,0.6-0.2,0.6-0.3,1.2c-0.3,1.4-0.3,3.6-0.9,4.4
			c0.3-2.2,0.8-4.6,0.8-6.9c-0.6,1.4-0.4,3.9-1.3,4.9c0.3,0.8-0.3,1.2,0.1,1.6C20.7,316.5,21.3,318.3,21.1,319z M17.7,327.2V326
			C17.4,325.8,17.7,327.2,17.7,327.2z M16.8,320.3c0.2,0.4-0.1,0.6,0.2,0.7C16.9,320.7,17.2,320.3,16.8,320.3z M22.8,306.2
			c0-0.6-0.2-0.6,0-1C22.4,305.2,22.6,306.2,22.8,306.2z M22.8,307.6c-0.1-0.3,0.1-0.8-0.1-0.9C22.5,306.9,22.6,307.5,22.8,307.6z
			 M14.8,225.9c0,0.6-0.4,1.8,0.2,1.9C15,227.1,15,226.3,14.8,225.9z M20.9,320.7c0.1,0.2-0.2,0.3,0,0.8c-0.3,0.1-0.1-0.5-0.2-0.8
			C20.8,320.8,20.9,320.9,20.9,320.7z M20,322.8c0.1,0.1,0,0.1-0.1,0.1c-0.1-0.2-0.1-0.7-0.1-1.1C20.2,321.9,19.7,322.6,20,322.8z
			 M16.9,326.3c-0.3-0.1,0-0.7-0.2-0.9C16.9,325.1,16.9,326,16.9,326.3z M15.6,220.8c0.1,0.3-0.4,1.4-0.6,1.3
			C15.2,221.6,15.5,221.3,15.6,220.8z"/>
	</g>
</g>
<g>
	<g>
		<path class="st0" d="M-1.2,173.2c-0.2,0-0.3,0.1-0.3,0.2C-1.1,173.4-1.4,173.3-1.2,173.2z M-1.8,198.3c0.1,0,0.1-0.1,0.4-0.1
			c0.2,0.1,0.3,0.1,0.4,0.3C-1.5,198.5-1.2,198.3-1.8,198.3z M-0.6,172.8c0.3,0,0.1-0.2,0.4-0.2c-0.2,0.1-0.1,0.2-0.2,0.3
			C-0.6,172.9-0.4,172.8-0.6,172.8z M1.2,170.3c-0.2-0.2,0.2-0.5,0.2-0.7C1.7,169.9,1.2,170.1,1.2,170.3z M1.7,169.2
			c0.2,0.2,0,0.6,0,0.2C1.7,169.3,1.7,169.2,1.7,169.2z M4,172c-0.2,0-0.1-0.3,0-0.3C4.3,171.8,4.1,171.9,4,172z M4.3,170.9
			c0.3,0,0.3,0.1,0.3,0.2C4.4,171,4.3,171,4.3,170.9z M4.6,172.6c0.2,0-0.1,0.2,0.2,0.2C4.6,172.9,4.5,172.7,4.6,172.6z M7.2,176.8
			c0.4,0,0.3,0.3,0.1,0.4C7.2,177.1,7.1,176.9,7.2,176.8z M-4.9,192.9c0.2,0.1,0.1,0.2,0.3,0.3C-4.8,193.1-4.9,193.1-4.9,192.9z
			 M-3.4,195.8c0.1,0,0.1,0,0.1,0c0.2-0.5,0-1.2,0.3-1.6c0,0.8,0.1,1.5-0.6,2.1c-0.3,0.3-1.1,0.6-0.2,0.9c-0.3,0-0.6-0.2-0.7-0.3
			c-0.2-0.3,1.1-0.6,1.1-0.9c0-0.2-0.3-0.2-0.2-0.4C-3.5,195.6-3.5,195.7-3.4,195.8z M-0.6,172.9c0.4,0,0.1,0.1,0.1,0.2
			c0.1,0,0.4-0.1,0.3-0.2c0.1,0.1,0.3,0.1,0.3,0.1c0.5-0.3,0.2-0.4,0.4-0.7c0.1,0,0.1,0.1,0.2,0.1c0.2-0.2,0.3-0.6,0.1-0.9
			c0.2,0,0.2,0.1,0.2,0.2c0.3,0,0.1-0.3,0.4-0.1c0-0.2-0.2-0.2-0.1-0.4c0.2,0.2,0.4,0.3,0.4,0.5c0.1,0,0.1-0.1,0.2-0.1
			c0.3,0.1-0.1,0.1,0,0.2c0.4-0.4,0.4-0.8,0.5-1.2c0.1,0.1,0.2,0.4,0.2,0.6c0.2-0.1,0.2-0.4,0.3-0.6c0.2,0.2,0.2,0,0.3-0.1
			c0.1,1,0.2,1.4,0.3,2.5c0-0.2,0.1-0.3,0-0.5c0-0.1,0.3-0.1,0.3,0c0.1,0-0.3-0.2,0.1-0.2c0.6,0.1,0.3,0.6,0.6,0.8
			c0.1,0,0.1-0.1,0.4,0c0-0.1-0.4,0-0.3-0.2c0.7,0.2,0.3,0.4,0.4,0.6c0,0.2,0.2,0.3,0.1,0.6c0.4-0.1,0.1-0.5,0.2-0.7
			c0.1,0,0.1,0,0.1,0.1c0.1,0.4,0.3,1.2,0.3,1.5c0.4-0.1,0.1-0.4,0.1-0.6c0.1,0,0.1,0.1,0.1,0.1c0.2-0.4,0-1.3-0.3-1.8
			c-0.1-0.2-0.3-0.3-0.4-0.4c0-0.1,0-0.4-0.4-0.6c0.2-0.2,0-0.3-0.3-0.4c0.2,0,0.2,0.1,0.3,0c0.1-0.1-0.3-0.1-0.4-0.1
			c0.1,0,0.4-0.2,0.1-0.3c0.4,0,0-0.2-0.1-0.4c-0.1,0.1-0.1,0.2-0.3,0.2c-0.3-0.3,0-0.6,0-0.9c0.2,0.2,0,0.6,0,0.9
			c0.3,0,0.2-0.2,0.3-0.3c1.9,1.4,3,4,2.7,5.8c-0.5,0-0.8,0.4-0.8,0.6c-0.2-0.1-0.3,0-0.5-0.1c0.1,0-0.1-0.2,0-0.3
			c-0.3,0.1,0,0.6-0.1,0.8c0.2,0,0-0.1,0.1-0.1c0.1,0,0.1,0.3,0.3,0.3c0.2-0.2,0.1-0.3,0.1-0.5c0.5,0.1-0.1,0.6,0.2,0.8
			c-0.1,0.1-0.3,0-0.2-0.1c-0.1,0.3-0.2,0.6-0.1,0.9c0.1-0.1,0.1-0.4,0.1-0.7c0.4,0.2-0.1,0.6,0.1,0.9c-0.3,0-0.3-0.1-0.3-0.2
			c-0.3,0.1,0,0.2,0.3,0.2c-0.1,0.1-0.1,0.2,0.1,0.3c-0.2-0.5,0.6-1,0.4-1.4c-0.1,0-0.1,0.1-0.1,0.1c-0.3-0.1,0-0.4-0.1-0.6
			c0.1,0,0.1,0.1,0.2,0.1c0.2-0.2-0.1-0.6,0.2-0.8c0.1,1.2,0.2,2.4-0.3,3.6c-0.4-0.2-0.1-0.6-0.4-0.8c-0.1,0.1-0.1,0.5-0.1,0.7
			c-0.4-0.2,0.1-0.6-0.2-0.9c-0.3,1.4-0.3,2.6,0,4.2c0.1-0.6-0.1-1.1-0.1-1.6c0.1,0,0.2,0.1,0.2,0.1c0.1-0.3-0.1-1,0.1-1.4
			c0.2,0,0,0.2,0.1,0.3c0.1-0.1,0.2-0.3,0.2-0.5c0.5,0.8,0.5,1.7,1,2.6c-0.1,0-0.1,0.1-0.4,0c-0.2,2,0.3,4-0.2,5.7
			c0,0.1,0.2,0.1,0.3,0.1c-0.6,1,0.5,2.2-0.2,3.3c-0.2,0.3,0.3,0.7-0.2,1c0.2,0.9,0.5,2.4-0.5,3l0,0.3c-0.2,0.1-0.4,0.1-0.5,0.2
			c0.4,0.2,0,0.4-0.2,0.7C6,197,6.1,197,6.3,197c-0.3-0.1,0-0.1,0-0.3c0.1,0,0.1,0.3,0.2,0.4C6.3,197,6,197.2,6,197.1
			c-0.3,0.2-0.4,0.4-0.3,0.7c-0.3,0,0-0.1-0.2-0.1c-0.2,0.2-0.8,0.3-0.3,0.5c-0.7-0.1-0.6,0.4-1.7,0.3c-0.2,0,0,0.1-0.1,0.1
			c-0.4-0.1-0.6,0.2-1.6,0.1c0-0.2-1.5-0.3-2-0.4c-0.3,0,0.2,0.2-0.2,0.1c0.1-0.2-0.5-0.4-0.8-0.5c-0.1-0.2,0.3-0.2,0.4-0.4
			c-0.4-0.3-0.9-0.5-0.8-0.8c0-0.1,0.1-0.1,0.1-0.2c0-0.1-0.2-0.1-0.2-0.1c0,0,0.2-0.1,0.2-0.1c0-0.1-0.4-0.2-0.4-0.3
			c0-0.1,0.2-0.2,0.2-0.2c0-0.2-0.2-0.4-0.2-0.6c-0.2-1.2,0.1-2.7-0.1-4c-0.1-0.4-0.1-0.8-0.1-1.1c0.2-1.5,0.1-2.9-0.1-4.4
			c0-0.1,0.1-0.4,0.1-0.6c-0.2-2.8-0.6-6.6-0.1-9.7c0.2,0,0.1-0.1,0.3,0c0-0.1-0.1-0.1-0.2-0.1c0.1-0.1,0.2-0.1,0.3-0.3
			c0.3-0.3,0.3-0.9,1-1.1c-0.3,0.6-0.9,1.1-0.9,1.7c0.6-0.3,0.5-1,1.4-1.2c-0.3-0.2,0.3-0.3-0.1-0.4C-0.2,173.6-0.8,173.1-0.6,172.9
			z M3.1,170.9l0,0.3C3.4,171.3,3.1,170.9,3.1,170.9z M4,172.7c-0.2-0.1,0.1-0.1-0.2-0.2C3.9,172.6,3.6,172.7,4,172.7z M-2.5,176.1
			c0,0.2,0.2,0.2,0,0.3C-2,176.4-2.2,176.1-2.5,176.1z M-2.4,175.8c0.1,0.1-0.1,0.2,0.1,0.2C-2.1,176-2.2,175.8-2.4,175.8z
			 M5.4,196.9c0-0.2,0.4-0.4-0.2-0.5C5.2,196.6,5.2,196.8,5.4,196.9z M-0.3,172.5c-0.1-0.1,0.2-0.1,0-0.2c0.3,0,0.1,0.1,0.2,0.2
			C-0.2,172.5-0.3,172.4-0.3,172.5z M0.6,172c-0.1,0,0,0,0.1,0c0.1,0.1,0.1,0.2,0.1,0.3C0.4,172.2,1,172,0.6,172z M4,171.2
			c0.3,0,0,0.2,0.2,0.2C3.9,171.5,4,171.3,4,171.2z M4.5,198.2c-0.1-0.1,0.4-0.3,0.6-0.3C4.9,198,4.6,198,4.5,198.2z"/>
	</g>
</g>
<g>
	<path class="st0" d="M-45.8,242.4c0.5,0.9,0.8,1.8,0.8,2.8s0,1.9,0.2,3c0.1,0.2,0.1,0.4,0.2,0.6s0.1,0.3,0.1,0.6c0,0.1,0,0.2,0,0.4
		h-0.1c0,1.3,0.2,2.5,0.4,3.5c0.2,1.1,0.3,2.2,0.4,3.3c0.1,0.3,0.1,0.7,0.1,1.2c-0.2,0.3-0.2,0.8,0,1.6c0,0.2-0.1,0.4-0.1,0.4
		c-0.1,0-0.1,0.1-0.1,0.2c0,0.7,0.1,1.3,0.3,1.9c0.2,0.5,0.3,1.2,0.3,1.9c0,0.1-0.1,0.2-0.2,0.2c0,0.1-0.1,0.3,0,0.4
		c0,0.6,0,1.1,0.1,1.6s0.1,1,0.1,1.6c0.1,0.5,0.1,1.1,0.3,1.8c0.1,0.7,0.2,1.4,0.1,2c-0.1,0.3-0.1,0.6,0.1,0.9
		c0.2,0.4,0.2,0.9,0.3,1.6c0,0.2-0.1,0.4-0.2,0.6s-0.2,0.4-0.2,0.6c0,0.6,0.1,1.2,0.3,1.7c0.2,0.5,0.3,1.1,0.4,1.8
		c0,0.1-0.1,0.2-0.2,0.2s-0.1,0.1,0,0.4c0,0.2,0,0.4,0.1,0.6c0.1,0.2,0.1,0.3,0.2,0.4c0.1,1.3,0.2,2.6,0.3,3.9
		c0.1,1.3,0.2,2.8,0.2,4.3l-0.2,0.1l-0.2,0.6c0.1,0.6,0.2,1,0.4,1.3c0.2,0.3,0.2,0.7,0.1,1.2c0,0.2-0.1,0.5-0.2,0.7
		c-0.1,0.2-0.2,0.4-0.2,0.7c0,0.5,0.1,1,0.3,1.7c0.2,0.7,0.3,1.3,0.3,1.9c0,0.1,0,0.2-0.1,0.2s-0.1,0.1,0,0.4c0,0.3,0.1,0.6,0.1,0.8
		c0.1,0.2,0,0.3-0.1,0.4c0,0.2-0.1,0.4-0.3,0.5c-0.2,0.1-0.3,0.3-0.2,0.7c0.5,0.9,0.8,1.8,0.8,2.6s0,1.6,0.1,2.5
		c0,0.1,0.1,0.3,0.2,0.5s0.1,0.4,0.1,0.7c-0.1-0.1-0.2-0.1-0.3-0.1c-0.1,0-0.1,0.1-0.1,0.2s0.1,0.3,0.2,0.5s0.1,0.4,0.1,0.5
		l-0.5,0.1c0,0.3,0.2,0.7,0.5,1.2c0.3,0.4,0.3,0.7-0.1,0.8c0.4,1.2,0.6,1.9,0.7,2.2c0.1,0.3,0.4,0.8,0.7,1.7c-0.2,0.3-0.2,0.7,0,1.2
		s0.2,1.1,0.2,1.5c0,0.1-0.1,0.2-0.2,0.2s-0.1,0.2,0,0.5c0.2,0.7,0.3,1.6,0.2,3c-0.1,1.3-0.4,2.3-0.9,2.9c-0.3,0-0.5,0.2-0.5,0.5
		s-0.1,0.6-0.4,0.7c-0.2,0.1-0.4,0-0.6-0.3c-0.2-0.2-0.4-0.3-0.7-0.2c-1.1,0.1-2.3,0.2-3.6,0.3c-1.3,0.1-2.6,0-3.8-0.2
		c-0.7-1.6-1.2-3.1-1.4-4.7c-0.2-1.6-0.4-3.1-0.6-4.4c-0.2-1.3-0.4-2.7-0.6-4s-0.1-2.5,0.3-3.5c-0.3-0.9-0.5-1.7-0.7-2.5
		s-0.3-1.7-0.4-2.7c0-0.3,0-0.9-0.1-1.7c0-0.8,0-1.5-0.1-2.2c0-0.2,0-0.4-0.1-0.5c-0.1-0.1-0.1-0.2-0.2-0.3c0-0.2,0.1-0.4,0.2-0.4
		s0.2-0.1,0.1-0.2c-0.1-0.9-0.2-1.7-0.3-2.4c-0.1-0.7-0.2-1.3-0.3-1.9c0-0.2,0-0.4-0.1-0.6c-0.1-0.2-0.2-0.3-0.2-0.6
		c0-0.1,0.2-0.3,0.4-0.6c0.2-0.2,0.3-0.4,0.3-0.5c0-0.6-0.1-1.2-0.4-1.8c-0.2-0.6-0.3-1.2-0.3-1.7c-0.2-1-0.3-2.1-0.4-3.4
		c0-0.5,0.1-0.8,0.2-0.9s0.1-0.5,0-1.3c0-0.1-0.1-0.6-0.2-1.5c0-0.2,0-0.4,0.1-0.4c0,0,0.1-0.1,0.1-0.2c0.1-0.5,0.1-1.2,0-2.1
		s-0.2-1.8-0.3-2.7c0-0.7,0-1.2,0-1.6c0-0.2,0.1-0.5,0.2-0.7c0.1-0.2,0.2-0.4,0.2-0.7c0-0.5,0-1-0.1-1.5s-0.1-1,0.1-1.5
		c0-0.2,0.1-0.5,0.2-0.8c0.1-0.3,0.1-0.5,0.2-0.8c0-0.2-0.1-0.5-0.3-0.8c-0.2-0.3-0.3-0.7-0.3-1.2c0-0.1,0-0.2,0.2-0.4
		c0.2-0.2,0.3-0.4,0.3-0.6c0-0.6-0.1-1.1-0.1-1.6c-0.1-0.4-0.1-1-0.1-1.8c0-0.1,0.1-0.3,0.2-0.5c0.1-0.2,0.2-0.4,0.2-0.7
		c0-0.5-0.1-1.1-0.4-1.8c-0.3-0.7-0.1-1.1,0.5-1c-0.2-0.5-0.3-1-0.3-1.3c-0.1-0.3,0-0.8,0.1-1.3c0-0.1,0-0.4,0-0.7
		c-0.1-0.3-0.1-0.6-0.1-0.9c0.1,0,0.2,0,0.4,0c0.2,0,0.2,0,0.2-0.2c0.2-0.3,0.1-0.5-0.1-0.8c-0.2-0.2-0.4-0.5-0.4-0.9
		c0.2-0.3,0.3-0.5,0.4-0.6c0.1-0.1,0.2-0.3,0.3-0.6c0-0.1,0-0.3-0.1-0.5s-0.2-0.4-0.1-0.5c0.1-0.3,0.1-0.5,0.2-0.8
		c0-0.2,0.1-0.5,0.2-0.8c0.1-0.4,0.2-0.7,0.3-1c0.1-0.3,0.2-0.7,0.2-1.3c1.1,0,2.4-0.2,3.7-0.8C-47.9,241.8-46.8,241.8-45.8,242.4z
		 M-50.4,317.6c-0.2-0.3-0.3-0.6-0.2-0.8c0-0.2,0-0.5,0.1-0.6c0-0.2,0-0.3,0-0.4c0-0.1-0.2-0.2-0.5-0.2c0,0.2,0,0.7,0,1.3
		C-51,317.4-50.8,317.7-50.4,317.6z M-51.2,311.8c-0.2-0.5-0.1-1.2,0.1-1.9c0.2-0.7,0.1-1.1-0.4-1.2c0.2,0.5,0.2,1.1-0.2,1.7
		C-52,311.1-51.9,311.5-51.2,311.8z M-48.1,265.9c0.1,0.8,0.3,1.3,0.6,1.4c0.3,0.1,0.5,0.5,0.6,1.1c-0.2,0.1-0.3,0.2-0.2,0.4
		c0.1,0.2,0.1,0.4,0.1,0.7c0,0.1-0.1,0.3-0.3,0.5c-0.1,0.2-0.3,0.5-0.4,0.7c0,0.2,0,0.5,0.1,0.7s0.1,0.6,0.2,1
		c0,0.1-0.1,0.3-0.2,0.5s-0.2,0.4-0.2,0.7c0,0.5,0,1,0.1,1.6s0.1,1.1,0.1,1.7l-0.2,0.2l-0.1,0.2c-0.1,0.3-0.1,0.7-0.1,1.3
		s0.3,0.8,0.7,0.7c-0.2-0.4-0.3-0.7-0.2-0.9c0.1-0.2,0.1-0.4,0.1-0.6c-0.1-0.4-0.1-0.8,0-1.2c0.2-0.3,0.2-0.7,0.1-1
		c-0.1-0.2-0.1-0.3,0-0.3s0.1-0.1,0.2-0.3c0.1-0.4,0.1-0.7,0-1.1c-0.1-0.3-0.1-0.7,0-1.2c0.2-0.7,0.4-1.4,0.6-2.2
		c0.1-0.8,0.2-1.4,0.1-1.7c-0.1-0.6-0.1-1.1,0-1.7c0.1-0.6,0.1-1.1,0.1-1.7c0-0.2,0-0.6,0.1-1c0-0.4,0-0.9,0-1.3
		c0.1-0.3,0.1-0.7-0.1-1.2s-0.1-1,0.1-1.3c-0.2-0.3-0.3-0.6-0.4-0.9c-0.1-0.3-0.2-0.5-0.4-0.6c-0.4,1.1-0.5,2.2-0.5,3.5
		C-47.5,263.9-47.7,265-48.1,265.9z M-45.7,205.9c0.2,0.5,0.4,1.1,0.4,1.6c0,0.6,0.1,1.2,0.1,1.9c0,0.1,0,0.2-0.1,0.2l-0.1,0.4
		c0,0.3,0.1,0.7,0.2,1c0.1,0.3,0.2,0.8,0.2,1.4c0,0.6,0.1,1.2,0.1,1.7c0.1,0.6,0.1,1.2,0,1.8c0,0.3-0.1,0.7-0.5,1
		c-0.1,0.3-0.1,0.6,0,0.9s-0.1,0.5-0.5,0.5c0.3,0.4,0.4,0.7,0.3,0.9c-0.1,0.2-0.2,0.4-0.2,0.7c0,0.1,0.1,0.3,0.2,0.5
		s0.1,0.4,0.1,0.5h-0.1h-0.1c0,0.1,0,0.3,0.1,0.5s0.2,0.4,0.2,0.7l-0.4,0.1c0,0.1,0.1,0.3,0.2,0.5c0.1,0.2,0.1,0.4,0.1,0.5
		c-0.2,0.3-0.2,0.6,0.1,1c0.2,0.4,0.2,0.8,0.1,1c-0.1,0.4-0.1,1.1,0,2.1c0,0.6,0.1,1.1,0.2,1.6s0.2,1,0.2,1.6c-1.6,0.6-3,0.3-4.3-1
		c-0.6,0.1-1.2,0.1-1.7,0.2c-0.6,0.1-1.1,0-1.6-0.2c-0.3-0.3-0.6-0.6-0.9-1.1s-0.6-0.6-1-0.5c-0.2-1.2-0.5-2.5-1-3.7
		c-0.5-1.2-0.7-2.4-0.7-3.6c0-0.1,0.1-0.2,0.2-0.2s0.1-0.1,0-0.4l-0.1-0.3c0-0.1,0.2-0.3,0.3-0.6c-0.1-0.5-0.1-1-0.1-1.6
		c0-0.6-0.1-1.2-0.3-1.9c-0.1-0.2-0.1-0.5-0.2-1c-0.1-0.4-0.1-0.8,0-1.1c0-0.1,0.2-0.2,0.4-0.3c0.2-0.1,0.3-0.1,0.2-0.3
		c0-0.6-0.1-1.1-0.3-1.5c-0.2-0.4-0.2-0.8-0.1-1c0.1-0.4,0.2-0.7,0.3-1c0.1-0.3,0.2-0.5,0.3-0.8c0.1-0.3,0.1-0.5,0.1-0.6
		c0-0.2-0.1-0.4-0.1-0.6c0-0.2,0.1-0.6,0.3-1.1c0.2-0.5,0.3-0.9,0.3-1.4c0.9-0.4,1.8-0.6,2.6-0.7c0.8-0.1,1.5,0.2,2.1,0.9
		c0.9-0.5,1.7-0.6,2.3-0.3C-46.9,205.2-46.3,205.5-45.7,205.9z"/>
</g>
<g>
	<path class="st1" d="M-96.1,240.9"/>
</g>
<g>
	<g>
		<path class="st0" d="M-108.6,317.7c0.2-0.1,0.3-0.5,0.3-0.7C-108.7,316.9-108.4,317.4-108.6,317.7z M-108.9,219.6
			c0,0.2-0.1,0.4-0.3,0.4c-0.2-0.3-0.3-0.5-0.4-1C-109.1,218.8-109.3,219.6-108.9,219.6z M-109.2,319.6c-0.3,0.1-0.1,0.7-0.4,0.7
			c0.2-0.4,0.1-0.9,0.2-1.1C-109.2,319.2-109.3,319.6-109.2,319.6z M-110.8,329.4c0.2,0.9-0.2,1.9-0.2,2.6
			C-111.2,331.2-110.8,330.4-110.8,329.4z M-111.2,333.9c-0.2-0.7,0-2.5,0-0.9C-111.2,333.3-111.2,333.6-111.2,333.9z M-113.5,323.2
			c0.2,0.1,0.1,1,0,1.1C-113.7,324-113.6,323.7-113.5,323.2z M-113.7,327.5c-0.3,0.1-0.3-0.3-0.3-0.6
			C-113.8,327-113.7,327.2-113.7,327.5z M-114.2,320.7c-0.2,0,0.1-0.8-0.2-0.8C-114.2,319.5-114,320.6-114.2,320.7z M-116.6,304.7
			c-0.4-0.1-0.3-1.2-0.1-1.5C-116.6,303.6-116.6,304.2-116.6,304.7z M-105.7,240.2c-0.3-0.2-0.2-0.8-0.3-1.1
			C-105.8,239.3-105.7,239.6-105.7,240.2z M-107.2,229.1c-0.1,0-0.1,0-0.1,0.1c-0.2,1.9,0,4.8-0.2,6.3c0-3-0.1-6,0.5-8.3
			c0.3-1.3,1-2.4,0.2-3.5c0.3,0.1,0.6,0.6,0.7,1c0.2,1.2-1,2.5-1,3.8c0,0.7,0.3,0.9,0.2,1.6C-107.1,229.8-107.1,229.4-107.2,229.1z
			 M-109.3,319c-0.4,0-0.1-0.5-0.1-0.8c-0.1,0.2-0.4,0.3-0.3,0.7c-0.1-0.2-0.3-0.2-0.3-0.5c-0.5,1.2-0.2,1.6-0.4,2.6
			c-0.1,0-0.1-0.2-0.2-0.3c-0.2,0.9-0.3,2.4-0.1,3.5c-0.2,0-0.2-0.3-0.2-0.6c-0.3,0.1-0.1,1.2-0.4,0.6c0,0.9,0.2,0.8,0.1,1.6
			c-0.2-0.9-0.4-1.1-0.4-2.1c-0.1,0.1-0.1,0.4-0.2,0.6c-0.3-0.2,0.1-0.5,0-0.9c-0.4,1.5-0.4,3.2-0.4,4.9c-0.1-0.5-0.2-1.5-0.2-2.5
			c-0.2,0.6-0.2,1.6-0.3,2.4c-0.2-0.8-0.2,0.1-0.3,0.5c-0.1-4-0.2-5.3-0.4-9.6c0,0.8-0.1,1.2,0,1.9c0,0.2-0.3,0.4-0.3,0.1
			c-0.1,0.1,0.3,0.6-0.1,0.7c-0.6-0.5-0.3-2.3-0.6-3.2c-0.1,0.1-0.1,0.4-0.4,0.2c0,0.5,0.4-0.2,0.3,0.6c-0.7-0.6-0.3-1.7-0.4-2.4
			c0-0.6-0.2-1.3-0.1-2.2c-0.4,0.5-0.1,1.9-0.2,2.7c-0.1,0.2-0.1-0.1-0.1-0.3c-0.1-1.6-0.3-4.5-0.3-6c-0.4,0.6-0.1,1.4-0.1,2.5
			c-0.1,0-0.1-0.2-0.1-0.4c-0.2,1.6,0,4.9,0.3,7c0.1,0.6,0.3,1.1,0.4,1.6c0,0.5,0,1.7,0.4,2.2c-0.2,0.8,0,1.1,0.3,1.6
			c-0.2,0-0.2-0.2-0.3,0c-0.1,0.4,0.3,0.2,0.4,0.4c-0.1,0.2-0.4,0.7-0.1,1c-0.4-0.1,0,0.9,0.1,1.6c0.1-0.3,0.1-0.8,0.3-0.9
			c0.3,1.2,0,2.3,0,3.6c-0.2-0.9,0-2.4,0-3.4c-0.3,0.1-0.2,0.9-0.3,1.4c-1.8-5.4-2.9-15.1-2.7-22.2c0.5,0,0.7-1.5,0.7-2.5
			c0.2,0.3,0.3,0.1,0.5,0.4c-0.1,0.2,0.1,0.7,0,1.2c0.3-0.5,0-2.2,0.1-3.2c-0.2,0,0,0.4-0.1,0.6s-0.1-1-0.3-1.2
			c-0.2,0.9-0.1,1.3-0.1,2c-0.5-0.2,0.1-2.4-0.2-3.1c0.1-0.4,0.3,0.1,0.2,0.4c0.1-1.2,0.2-2.5,0.1-3.5c-0.1,0.4-0.1,1.5-0.1,2.6
			c-0.4-0.7,0.1-2.3-0.1-3.5c0.3-0.1,0.3,0.3,0.3,0.6c0.3-0.3,0-0.9-0.3-0.9c0.1-0.4,0.1-0.9-0.1-1.2c0.2,1.9-0.5,3.9-0.3,5.7
			c0.1,0,0.1-0.3,0.1-0.5c0.3,0.2,0,1.4,0.1,2.4c-0.1-0.1-0.1-0.2-0.2-0.4c-0.2,0.8,0.1,2.3-0.2,3.1c-0.1-4.7-0.3-9.3,0.2-14
			c0.4,0.7,0.1,2.2,0.4,3.1c0.1-0.4,0.1-2,0.1-2.6c0.4,0.8-0.1,2.5,0.2,3.6c0.2-5.7,0.2-10.4-0.1-16.6c-0.1,2.5,0.1,4.2,0.1,6.2
			c-0.1-0.1-0.2-0.2-0.2-0.4c-0.1,1.3,0.1,4-0.1,5.4c-0.2-0.1,0-0.7-0.1-1c-0.1,0.6-0.2,1.3-0.2,2.1c-0.5-3.2-0.5-6.5-1-10
			c0.1-0.1,0.1-0.4,0.4-0.2c0.1-7.7-0.4-15.8,0-22.5c0-0.3-0.2-0.2-0.3-0.5c0.5-3.9-0.5-8.6,0.1-13c0.2-1.3-0.3-2.8,0.2-3.9
			c-0.2-3.5-0.5-9.2,0.4-11.9v-1c0.2-0.3,0.4-0.4,0.5-0.8c-0.4-0.6,0-1.6,0.2-2.6c-0.1-0.2-0.2-0.2-0.4-0.2c0.3,0.5,0,0.3,0,1.1
			c-0.1,0.1-0.1-1-0.2-1.4c0.2,0.3,0.5-0.3,0.5,0.2c0.3-0.7,0.4-1.6,0.3-2.8c0.3,0.1,0,0.3,0.2,0.5c0.2-0.7,0.7-1.1,0.3-2
			c0.7,0.2,0.6-1.7,1.6-1.4c0.2,0,0-0.4,0.1-0.6c0.4,0.2,0.6-1,1.5-0.6c0,0.9,1.4,0.9,1.9,1.5c0.3-0.1-0.2-0.6,0.2-0.5
			c-0.1,0.8,0.5,1.4,0.8,2c0.1,0.8-0.3,1-0.4,1.5c0.4,1.2,0.9,1.8,0.8,3.2c0,0.3-0.1,0.6-0.1,0.9s0.2,0.4,0.2,0.4
			c0,0.1-0.2,0.4-0.2,0.6c0,0.4,0.4,0.8,0.4,1s-0.2,0.8-0.2,1c0,0.8,0.2,1.5,0.2,2.4c0.2,4.7,0,10.5,0.2,15.8c0.1,1.4,0.1,3,0.1,4.4
			c-0.1,5.8,0,11.5,0.2,17.4c0,0.2-0.1,1.4-0.1,2.3c0.3,11.1,0.8,25.9,0.4,38c-0.2,0.1-0.1,0.4-0.3,0.1c0,0.2,0.1,0.2,0.2,0.3
			c-0.1,0.6-0.2,0.6-0.3,1.2c-0.3,1.4-0.3,3.6-0.9,4.4c0.3-2.2,0.8-4.6,0.8-6.9c-0.6,1.4-0.4,3.9-1.3,4.9c0.3,0.8-0.3,1.2,0.1,1.6
			C-109.6,316.5-109,318.3-109.3,319z M-112.6,327.2V326C-112.9,325.8-112.6,327.2-112.6,327.2z M-113.5,320.3
			c0.2,0.4-0.1,0.6,0.2,0.7C-113.4,320.7-113.1,320.3-113.5,320.3z M-107.5,306.2c0-0.6-0.2-0.6,0-1
			C-107.9,305.2-107.7,306.2-107.5,306.2z M-107.5,307.6c-0.1-0.3,0.1-0.8-0.1-0.9C-107.8,306.9-107.7,307.5-107.5,307.6z
			 M-115.5,225.9c0,0.6-0.4,1.8,0.2,1.9C-115.3,227.1-115.3,226.3-115.5,225.9z M-109.4,320.7c0.1,0.2-0.2,0.3,0,0.8
			c-0.3,0.1-0.1-0.5-0.2-0.8C-109.5,320.8-109.4,320.9-109.4,320.7z M-110.3,322.8c0.1,0.1,0,0.1-0.1,0.1c-0.1-0.2-0.1-0.7-0.1-1.1
			C-110.1,321.9-110.6,322.6-110.3,322.8z M-113.4,326.3c-0.3-0.1,0-0.7-0.2-0.9C-113.4,325.1-113.4,326-113.4,326.3z M-114.7,220.8
			c0.1,0.3-0.4,1.4-0.6,1.3C-115.2,221.6-114.8,221.3-114.7,220.8z"/>
	</g>
</g>
<g>
	<g>
		<path class="st0" d="M-122.5,221.9c0.2,0.2,0.5-0.1,0.8-0.2C-121.9,221.4-122,222-122.5,221.9z M-51.1,166.3c-0.2,0-0.4,0.2-0.5,0
			c0.1-0.3,0.2-0.5,0.5-0.9C-50.7,165.6-51.4,165.9-51.1,166.3z M-124.2,222.7c-0.2-0.2-0.6,0.3-0.8,0.1c0.4-0.2,0.6-0.5,0.9-0.5
			C-123.9,222.3-124.3,222.5-124.2,222.7z M-132.3,227.1c-0.4,0.7-1.6,1-1.9,1.5C-133.8,227.9-132.9,227.7-132.3,227.1z
			 M-135.7,229.5c0.4-0.6,1.7-1.5,0.6-0.5C-135.3,229.1-135.5,229.4-135.7,229.5z M-129.5,221.4c0,0.2-0.6,0.7-0.8,0.7
			C-130.2,221.8-129.9,221.7-129.5,221.4z M-132.8,223.9c-0.2-0.2,0-0.4,0.2-0.5C-132.4,223.4-132.5,223.6-132.8,223.9z
			 M-128.1,219.4c-0.1-0.2,0.6-0.4,0.4-0.6C-127.3,218.7-128,219.5-128.1,219.4z M-118.2,208.2c-0.2-0.4,0.7-0.9,1-0.9
			C-117.5,207.6-117.8,207.9-118.2,208.2z M-64.4,180.1c0-0.3,0.5-0.6,0.7-0.8C-63.9,179.6-64.1,179.9-64.4,180.1z M-57.1,172.8
			C-57.1,172.7-57.2,172.7-57.1,172.8c-1.6,0.9-3.7,2.6-4.8,3.2c2.3-1.7,4.4-3.4,6.4-4.2c1.2-0.5,2.4-0.5,2.7-1.8
			c0,0.3-0.1,0.8-0.4,1.2c-0.8,0.8-2.5,0.5-3.4,1.2c-0.6,0.4-0.5,0.8-1.1,1C-57.7,173.3-57.3,173.1-57.1,172.8z M-123.7,222.2
			c-0.2-0.3,0.4-0.3,0.4-0.5c-0.2,0-0.4,0-0.7,0.2c0.1-0.2,0-0.3,0.2-0.5c-1.2,0.3-1.3,0.8-2.2,1.2c0-0.1,0.2-0.2,0.1-0.3
			c-0.8,0.4-2,1.2-2.6,1.9c-0.1-0.2,0.1-0.3,0.3-0.5c-0.2-0.2-0.9,0.7-0.7,0c-0.6,0.6-0.4,0.6-1.1,1c0.5-0.7,0.5-1,1.3-1.5
			c-0.2-0.1-0.4,0.2-0.6,0.3c0-0.3,0.5-0.3,0.6-0.5c-1.3,0.6-2.5,1.5-3.7,2.5c0.3-0.3,1-1.1,1.7-1.6c-0.6,0.2-1.2,0.9-1.9,1.2
			c0.4-0.6-0.2-0.1-0.6,0.1c2.8-2.4,3.6-3.2,6.6-5.9c-0.6,0.4-1,0.6-1.4,1.1c-0.1,0.1-0.5,0.1-0.2-0.2c-0.1-0.1-0.2,0.5-0.6,0.4
			c0-0.8,1.5-1.6,1.9-2.4c-0.1-0.1-0.3,0.1-0.4-0.1c-0.4,0.3,0.4,0.1-0.3,0.5c0-0.9,0.9-1.2,1.5-1.7c0.5-0.4,0.9-0.9,1.5-1.4
			c-0.6,0-1.4,1-2.1,1.5c-0.2,0.1,0-0.1,0.1-0.2c1.1-1,3.1-2.8,4.2-3.8c-0.7,0-1,0.7-1.8,1.3c0-0.1,0.1-0.2,0.2-0.3
			c-1.2,0.8-3.6,2.8-4.9,4.4c-0.3,0.4-0.6,0.9-0.9,1.2c-0.4,0.3-1.2,1-1.3,1.7c-0.7,0.3-0.7,0.6-1,1.1c-0.1-0.1,0-0.3-0.1-0.2
			c-0.4,0.2,0,0.3,0,0.5c-0.2,0.1-0.8,0.2-0.7,0.5c-0.2-0.4-0.6,0.5-1.1,1c0.3,0,0.7-0.4,0.9-0.2c-0.7,0.9-1.6,1.3-2.5,2.1
			c0.5-0.8,1.6-1.4,2.4-2c-0.3-0.2-0.8,0.4-1.1,0.7c2.7-4.6,8.9-11.1,14.3-15.2c0.2,0.4,1.5-0.3,2.2-0.9c-0.1,0.3,0.1,0.3,0.1,0.6
			c-0.2,0-0.4,0.5-0.9,0.7c0.5-0.1,1.5-1.3,2.4-1.8c-0.1-0.2-0.4,0.2-0.5,0.3c-0.2,0,0.7-0.7,0.7-0.9c-0.8,0.3-1,0.6-1.5,1.1
			c-0.2-0.5,1.8-1.3,2.2-2c0.4-0.2,0,0.3-0.2,0.3c0.9-0.6,2-1.3,2.6-1.9c-0.3,0.1-1.1,0.7-1.9,1.5c0.3-0.7,1.7-1.2,2.4-2.1
			c0.2,0.2,0,0.4-0.3,0.5c0.4,0,0.7-0.5,0.5-0.7c0.4-0.2,0.7-0.5,0.8-0.8c-1.3,1.2-3.1,1.9-4.3,3.1c0.1,0.1,0.3-0.1,0.4-0.2
			c0.1,0.4-1,0.7-1.6,1.4c0-0.1,0.1-0.2,0.2-0.3c-0.7,0.3-1.6,1.4-2.4,1.7c3.4-2.8,6.5-5.6,10.3-8c-0.3,0.6-1.5,1.4-2,2.1
			c0.4-0.2,1.6-1.1,1.9-1.5c-0.3,0.8-1.8,1.3-2.5,2.2c4.3-3.2,7.7-5.8,12-9.6c-1.9,1.6-3,2.7-4.4,3.9c0-0.1,0-0.2,0.2-0.3
			c-1,0.7-2.8,2.4-3.9,3c0-0.2,0.4-0.5,0.6-0.7c-0.5,0.3-1,0.6-1.7,1.1c2-2.3,4.4-4.2,6.6-6.5c0.1,0.1,0.4-0.2,0.4,0.1
			c5.7-4.4,11.3-9.3,16.4-12.8c0.2-0.1,0.1-0.3,0.2-0.5c3.2-1.8,6.1-5.2,9.6-7.3c1.1-0.7,1.9-1.9,3-2c2.4-2.1,6.5-5.6,9.1-6.3
			l0.7-0.6c0.3,0,0.5,0.1,0.9,0c0.3-0.6,1.2-0.9,2.1-1.3c0.1-0.1,0.1-0.3-0.1-0.4c0,0.5-0.2,0.1-0.7,0.6c-0.1,0,0.6-0.7,0.9-0.9
			c-0.1,0.3,0.5,0.2,0.2,0.6c0.7-0.1,1.4-0.5,2.3-1.2c0,0.3-0.3,0.1-0.3,0.4c0.6-0.2,1.3-0.1,1.7-0.8c0.3,0.7,1.5-0.5,2,0.5
			c0.1,0.2,0.4-0.2,0.5-0.3c0.2,0.5,1.1,0,1.3,0.8c-0.6,0.5,0.2,1.6,0,2.4c0.2,0.2,0.3-0.5,0.5-0.2c-0.7,0.4-0.8,1.1-1,1.7
			c-0.5,0.5-1,0.3-1.3,0.5c-0.7,1-0.8,1.6-1.9,2.5c-0.3,0.1-0.5,0.3-0.7,0.4c-0.2,0.1-0.2,0.3-0.2,0.3c-0.1,0.1-0.4,0.1-0.6,0.2
			c-0.3,0.2-0.3,0.7-0.5,0.9s-0.7,0.3-0.9,0.4c-0.6,0.4-1.1,0.9-1.6,1.4c-3.4,2.8-7.7,5.7-11.4,8.9c-1,0.8-2.1,1.8-3.1,2.5
			c-4.3,3.2-8.4,6.4-12.5,9.9c-0.1,0.1-1,0.6-1.7,1.2c-7.9,6.5-18.3,15.4-27.2,22.2c-0.2-0.1-0.3,0.1-0.2-0.2
			c-0.2,0.1-0.1,0.2-0.1,0.3c-0.6,0.3-0.6,0.2-1.2,0.5c-1.2,0.6-2.8,1.9-3.7,1.9c1.8-1,3.9-2.1,5.4-3.4c-1.4,0.4-3,1.9-4.3,1.9
			c-0.4,0.7-1.1,0.4-1.1,1C-122.2,220.5-123,222-123.7,222.2z M-131.8,224.4l0.9-0.7C-130.9,223.4-131.8,224.4-131.8,224.4z
			 M-127.5,219.7c-0.2,0.3-0.5,0.3-0.4,0.6C-127.6,220.1-127.2,220-127.5,219.7z M-113.5,216.1c0.4-0.3,0.3-0.4,0.7-0.6
			C-113,215.3-113.6,215.9-113.5,216.1z M-114.5,216.9c0.2-0.2,0.7-0.4,0.5-0.6C-114.2,216.3-114.6,216.7-114.5,216.9z M-59.7,164.4
			c-0.5,0.3-1.6,0.7-1.3,1.2C-60.4,165.1-59.9,164.7-59.7,164.4z M-125.1,223.1c-0.1,0.2-0.3,0-0.5,0.5c-0.3-0.2,0.3-0.3,0.4-0.6
			C-125.2,223.1-125.2,223.2-125.1,223.1z M-127.2,223.6C-127.2,223.7-127.3,223.8-127.2,223.6c0-0.2,0.3-0.4,0.6-0.7
			C-126.4,223.3-127.2,223.3-127.2,223.6z M-131.6,223.3c-0.1-0.3,0.5-0.5,0.5-0.7C-130.8,222.6-131.5,223.1-131.6,223.3z
			 M-55.4,162.1c-0.2,0.2-1.3,0.5-1.3,0.2C-56.3,162.2-55.8,162.4-55.4,162.1z"/>
	</g>
</g>
<g>
	<g>
		<path class="st0" d="M-37.5,173.2c-0.1,0.2,0.2,0.4,0.3,0.6C-36.8,173.6-37.3,173.6-37.5,173.2z M31.4,225.8
			c-0.1-0.2-0.2-0.3,0-0.5c0.3,0,0.6,0.1,0.9,0.3C32,226.1,31.6,225.4,31.4,225.8z M-38.5,171.8c0.1-0.3-0.4-0.5-0.3-0.7
			c0.2,0.3,0.6,0.5,0.7,0.7C-38.2,172-38.4,171.7-38.5,171.8z M-44.9,165.6c-0.8-0.2-1.3-1.2-1.8-1.4
			C-46,164.4-45.6,165.2-44.9,165.6z M-48,163.1c0.7,0.2,1.9,1.1,0.7,0.4C-47.5,163.4-47.7,163.2-48,163.1z M-38.7,166.4
			c-0.2,0.1-0.8-0.4-0.8-0.5C-39.3,165.9-39.1,166.1-38.7,166.4z M-41.9,164.1c0.1-0.3,0.3-0.1,0.6,0.1
			C-41.5,164.3-41.7,164.2-41.9,164.1z M-36.6,167.1c0.1-0.2,0.5,0.5,0.7,0.2C-35.7,167.7-36.5,167.3-36.6,167.1z M-23.5,173.1
			c0.2-0.4,1.1,0.4,1.1,0.7C-22.7,173.7-23.1,173.5-23.5,173.1z M15.5,216.5c0.2-0.1,0.7,0.4,1,0.4
			C16.1,216.8,15.8,216.8,15.5,216.5z M23.9,221.6C24,221.6,23.9,221.5,23.9,221.6c-1.2-1.3-3.3-2.9-4.1-3.8c2,1.8,4.1,3.3,5.2,5.1
			c0.7,1,0.9,2.1,2.3,2.1c-0.3,0.2-0.8,0.1-1.1,0c-0.9-0.5-1-2.1-1.8-3c-0.4-0.5-0.9-0.3-1.2-0.8C23.4,221.2,23.6,221.5,23.9,221.6z
			 M-38,172.1c0.1-0.3,0.5,0.2,0.6,0.3c-0.1-0.2,0-0.4-0.4-0.6c0.2,0,0.3-0.2,0.5,0.1c-0.6-1-1-0.9-1.7-1.6c0.1-0.1,0.2,0,0.3-0.1
			c-0.5-0.7-1.5-1.5-2.5-1.8c0.1-0.2,0.3,0,0.6,0.2c0-0.3-0.9-0.7-0.2-0.6c-0.6-0.5-0.7-0.2-1.2-0.8c0.8,0.3,1,0.2,1.7,0.7
			c0-0.2-0.3-0.3-0.3-0.4c0.3-0.2,0.4,0.3,0.7,0.4c-0.9-1-2.2-1.9-3.4-2.7c0.4,0.1,1.2,0.6,2,1.1c-0.3-0.4-1.1-0.9-1.6-1.4
			c0.7,0.2,0-0.3-0.1-0.5c3,1.9,3.9,2.5,7.3,4.4c-0.6-0.4-0.8-0.7-1.4-0.9c-0.1,0-0.1-0.4,0-0.3c0-0.2-0.6-0.1-0.5-0.5
			c0.7-0.2,1.9,0.9,2.8,1.1c0-0.1-0.3-0.2,0-0.4c-0.4-0.2,0,0.4-0.6-0.1c0.8-0.3,1.4,0.6,1.9,0.8s1,0.5,1.7,1
			c-0.1-0.5-1.3-1-1.9-1.5c-0.1-0.2,0.1-0.1,0.2,0c1.2,0.8,3.5,2,4.6,2.8c-0.2-0.6-0.9-0.7-1.7-1.3c0.1-0.1,0.2,0,0.3,0.1
			c-1.1-0.9-3.5-2.5-5.3-3.3c-0.6-0.3-1-0.3-1.5-0.5c-0.4-0.2-1.2-0.9-1.9-0.7c-0.4-0.6-0.7-0.5-1.3-0.6c0-0.1,0.3-0.1,0.1-0.2
			c-0.3-0.2-0.3,0.2-0.5,0.1c-0.1-0.1-0.3-0.6-0.7-0.6c0.3-0.3-0.7-0.4-1.2-0.8c0.1,0.2,0.5,0.5,0.4,0.8c-1.1-0.3-1.7-1.1-2.7-1.7
			c0.8,0.3,1.8,1.1,2.5,1.6c0-0.3-0.5-0.6-0.9-0.9c5,1.1,12.9,5,17.9,8.9c-0.3,0.4,0.6,1.3,1.4,1.9c-0.3,0-0.2,0.2-0.5,0.2
			c-0.1-0.2-0.6-0.3-0.9-0.6c0.2,0.4,1.6,1.1,2.3,1.7c0.1-0.2-0.3-0.2-0.5-0.4c-0.1-0.2,0.8,0.5,1.1,0.4c-0.5-0.7-0.8-0.8-1.4-1.1
			c0.4-0.3,1.7,1.3,2.3,1.5c0.3,0.3-0.2,0.2-0.4,0c0.8,0.7,1.7,1.5,2.5,1.8c-0.3-0.2-1-0.8-1.8-1.4c0.8,0.1,1.6,1.2,2.6,1.7
			c-0.1,0.3-0.3,0.1-0.6-0.1c0,0.4,0.6,0.5,0.8,0.2c0.2,0.3,0.6,0.6,0.9,0.6c-1.4-0.9-2.5-2.3-4-3.2c0,0.1,0.2,0.2,0.4,0.3
			c-0.3,0.2-1-0.7-1.8-1.1c0.1,0,0.2,0,0.4,0c-0.4-0.6-1.8-1.1-2.2-1.8c3.4,2.3,6.9,4.5,10.1,7.4c-0.7-0.1-1.7-1-2.5-1.3
			c0.3,0.3,1.4,1.2,1.8,1.4c-0.9-0.1-1.7-1.4-2.7-1.7c4,3.2,7.4,5.6,12,8.7c-1.7-1.4-3.1-2.2-4.5-3.3c0.1-0.1,0.2-0.1,0.4,0
			c-0.9-0.7-2.9-2-3.8-2.9c0.2-0.1,0.6,0.4,0.7,0.5c-0.3-0.4-0.9-0.8-1.5-1.3c2.7,1.2,5,3,7.8,4.5c0,0.1,0.3,0.2,0,0.4
			c5.5,4.2,11.6,8.2,16,12.2c0.2,0.1,0.3-0.1,0.5,0.1c2.4,2.5,6.3,4.4,9.1,7.3c0.8,0.9,2.2,1.3,2.5,2.3c2.6,1.8,6.7,4.9,7.9,7.1
			l0.6,0.6c0.1,0.3-0.1,0.5,0.2,0.8c0.7,0.1,1.1,0.9,1.7,1.6c0.2,0,0.3,0,0.4-0.1c-0.5,0-0.2-0.2-0.7-0.6c0-0.1,0.8,0.4,1,0.6
			c-0.3,0-0.2,0.6-0.5,0.2c0.2,0.6,0.8,1.2,1.7,1.8c-0.2,0.2-0.2-0.1-0.5-0.2c0.3,0.5,0.2,1.2,1.1,1.5c-0.6,0.4,0.7,1.4-0.1,2
			c-0.1,0.1,0.3,0.3,0.3,0.4c-0.4,0.2,0.3,1-0.6,1.4c-0.6-0.5-1.5,0.5-2.3,0.6c-0.1,0.3,0.6,0.2,0.2,0.4c-0.5-0.6-1.3-0.5-1.8-0.5
			c-0.6-0.4-0.5-0.8-0.8-1.2c-1.1-0.4-1.8-0.3-2.7-1.2c-0.2-0.2-0.3-0.4-0.5-0.6c-0.2-0.1-0.4,0-0.4,0c-0.1-0.1-0.2-0.3-0.3-0.4
			c-0.3-0.2-0.8-0.1-1-0.2s-0.4-0.6-0.5-0.7c-0.5-0.5-1.1-0.7-1.8-1.2c-3.3-2.5-7.1-5.9-10.8-8.6c-1-0.7-2.1-1.6-3-2.3
			c-3.9-3.2-7.9-6.3-12.2-9.3c-0.1-0.1-0.9-0.8-1.6-1.3c-8-5.7-18.7-13-27.3-19.3c0-0.2-0.3-0.2,0-0.3c-0.2-0.1-0.2,0-0.3,0.1
			c-0.3-0.4-0.3-0.4-0.7-0.9c-0.8-1-2.5-2-2.7-2.9c1.5,1.3,3,3,4.5,4.1c-0.7-1.2-2.5-2.2-2.8-3.5c-0.7-0.2-0.7-0.8-1.2-0.8
			C-36,173-37.7,172.6-38,172.1z M-42.2,165.2l0.9,0.6C-41.1,165.7-42.3,165.1-42.2,165.2z M-36.6,167.8c-0.4,0-0.3-0.4-0.7-0.2
			C-37,167.8-36.8,168.1-36.6,167.8z M-29.7,179.9c0.4,0.2,0.5,0.2,0.7,0.5C-28.8,180.1-29.6,179.8-29.7,179.9z M-30.8,179.2
			c0.2,0.1,0.5,0.5,0.7,0.4C-30.1,179.3-30.5,179.1-30.8,179.2z M31.4,217.1c-0.4-0.3-1-1.3-1.4-1C30.6,216.5,31,217.1,31.4,217.1z
			 M-39.2,171c-0.2,0-0.2-0.2-0.6-0.4c0-0.3,0.4,0.1,0.7,0.2C-39.2,170.9-39.3,170.9-39.2,171z M-40.3,169.3c-0.1,0.1-0.1,0-0.1-0.1
			c0.2,0,0.6,0.3,0.8,0.5C-39.7,170-39.9,169.1-40.3,169.3z M-41.1,165c0.3-0.2,0.6,0.4,0.8,0.3C-40.3,165.6-40.9,165.1-41.1,165z
			 M34.4,220.6c-0.2-0.1-0.7-1.1-0.5-1.2C34.2,219.9,34.2,220.3,34.4,220.6z"/>
	</g>
</g>
</svg>
