<?xml version="1.0" encoding="utf-8"?>
<!-- Generator: Adobe Illustrator 19.0.0, SVG Export Plug-In . SVG Version: 6.00 Build 0)  -->
<svg version="1.1" id="Layer_1" xmlns="http://www.w3.org/2000/svg" xmlns:xlink="http://www.w3.org/1999/xlink" x="0px" y="0px"
	 viewBox="-400 411 199 180" style="enable-background:new -400 411 199 180;" xml:space="preserve">
<style type="text/css">
	.st0{fill:#3F3D56;}
	.st1{fill:none;stroke:#000000;stroke-miterlimit:10;}
</style>
<g>
	<g>
		<path class="st0" d="M-229.2,570.7c0.2-0.1,0.3-0.5,0.3-0.7C-229.2,569.9-229,570.4-229.2,570.7z M-229.4,472.6
			c-0.1,0.2-0.1,0.4-0.4,0.4c-0.2-0.3-0.3-0.5-0.4-1C-229.7,471.8-229.9,472.6-229.4,472.6z M-229.8,572.6c-0.3,0.1-0.1,0.7-0.4,0.7
			c0.2-0.4,0.1-0.9,0.2-1.1C-229.8,572.2-229.9,572.6-229.8,572.6z M-231.4,582.4c0.2,0.9-0.2,1.9-0.2,2.6
			C-231.8,584.2-231.4,583.4-231.4,582.4z M-231.8,586.9c-0.2-0.7,0-2.5,0-0.9C-231.8,586.3-231.8,586.6-231.8,586.9z M-234.1,576.2
			c0.2,0.1,0.1,1,0,1.1C-234.2,577-234.2,576.7-234.1,576.2z M-234.2,580.5c-0.3,0.1-0.3-0.3-0.3-0.6
			C-234.4,580-234.2,580.2-234.2,580.5z M-234.7,573.7c-0.2,0,0.1-0.8-0.2-0.8C-234.7,572.5-234.6,573.6-234.7,573.7z M-237.2,557.7
			c-0.4-0.1-0.3-1.2-0.1-1.5C-237.2,556.6-237.1,557.2-237.2,557.7z M-226.2,493.2c-0.2-0.2-0.1-0.8-0.3-1.1
			C-226.4,492.3-226.2,492.6-226.2,493.2z M-227.8,482.1c-0.1,0-0.1,0-0.1,0.1c-0.2,1.9,0,4.8-0.2,6.3c0-3-0.1-6,0.5-8.3
			c0.3-1.3,1-2.4,0.2-3.5c0.3,0.1,0.6,0.6,0.7,1c0.2,1.2-1,2.5-1,3.8c0,0.7,0.3,0.9,0.2,1.6C-227.7,482.8-227.7,482.4-227.8,482.1z
			 M-229.8,572c-0.4,0-0.1-0.5-0.1-0.8c-0.1,0.2-0.4,0.3-0.3,0.7c-0.1-0.2-0.3-0.2-0.3-0.5c-0.5,1.2-0.2,1.6-0.4,2.6
			c-0.1,0-0.1-0.2-0.2-0.3c-0.2,0.9-0.3,2.4-0.1,3.5c-0.2,0-0.2-0.3-0.2-0.6c-0.3,0.1-0.1,1.2-0.4,0.6c0,0.9,0.2,0.8,0.1,1.6
			c-0.2-0.9-0.4-1.1-0.4-2.1c-0.1,0.1-0.1,0.4-0.2,0.6c-0.3-0.2,0.1-0.5,0-0.9c-0.4,1.5-0.4,3.2-0.4,4.9c-0.1-0.5-0.2-1.5-0.2-2.5
			c-0.2,0.6-0.2,1.6-0.3,2.4c-0.2-0.8-0.2,0.1-0.3,0.5c-0.1-4-0.2-5.3-0.4-9.6c0,0.8-0.1,1.2,0,1.9c0,0.2-0.3,0.4-0.3,0.1
			c-0.1,0.1,0.3,0.6-0.1,0.7c-0.6-0.5-0.3-2.3-0.6-3.2c-0.1,0.1-0.1,0.4-0.4,0.2c0,0.5,0.4-0.2,0.3,0.6c-0.7-0.6-0.3-1.7-0.4-2.4
			c0-0.6-0.2-1.3-0.1-2.2c-0.4,0.5-0.1,1.9-0.2,2.7c-0.1,0.2-0.1-0.1-0.1-0.3c-0.1-1.6-0.3-4.5-0.3-6c-0.4,0.6-0.1,1.4-0.1,2.5
			c-0.1,0-0.1-0.2-0.1-0.4c-0.2,1.6,0,4.9,0.3,7c0.1,0.6,0.3,1.1,0.4,1.6c0,0.5,0,1.7,0.4,2.2c-0.2,0.8,0,1.1,0.3,1.6
			c-0.2,0-0.2-0.2-0.3,0c-0.1,0.4,0.3,0.2,0.4,0.4c-0.1,0.2-0.4,0.7-0.1,1c-0.4-0.1,0,0.9,0.1,1.6c0.1-0.3,0.1-0.8,0.3-0.9
			c0.3,1.2,0,2.3,0,3.6c-0.2-0.9,0-2.4,0-3.4c-0.3,0.1-0.2,0.9-0.3,1.4c-1.8-5.4-2.9-15.1-2.7-22.2c0.5,0,0.7-1.5,0.7-2.5
			c0.2,0.3,0.3,0.1,0.5,0.4c-0.1,0.2,0.1,0.7,0,1.2c0.3-0.5,0-2.2,0.1-3.2c-0.2,0,0,0.4-0.1,0.6c-0.1,0.2-0.1-1-0.3-1.2
			c-0.2,0.9-0.1,1.3-0.1,2c-0.5-0.2,0.1-2.4-0.2-3.1c0.1-0.4,0.3,0.1,0.2,0.4c0.1-1.2,0.2-2.5,0.1-3.5c-0.1,0.4-0.1,1.5-0.1,2.6
			c-0.4-0.7,0.1-2.3-0.1-3.5c0.3-0.1,0.3,0.3,0.3,0.6c0.3-0.3,0-0.9-0.3-0.9c0.1-0.4,0.1-0.9-0.1-1.2c0.2,1.9-0.5,3.9-0.3,5.7
			c0.1,0,0.1-0.3,0.1-0.5c0.3,0.2,0,1.4,0.1,2.4c-0.1-0.1-0.1-0.2-0.2-0.4c-0.2,0.8,0.1,2.3-0.2,3.1c-0.1-4.7-0.3-9.3,0.2-14
			c0.4,0.7,0.1,2.2,0.4,3.1c0.1-0.4,0.1-2,0.1-2.6c0.4,0.8-0.1,2.5,0.2,3.6c0.2-5.7,0.2-10.4-0.1-16.6c-0.1,2.5,0.1,4.2,0.1,6.2
			c-0.1-0.1-0.2-0.2-0.2-0.4c-0.1,1.3,0.1,4-0.1,5.4c-0.2-0.1,0-0.7-0.1-1c-0.1,0.6-0.2,1.3-0.2,2.1c-0.5-3.2-0.5-6.5-1-10
			c0.1-0.1,0.1-0.4,0.4-0.2c0.1-7.7-0.4-15.8,0-22.5c0-0.3-0.2-0.2-0.3-0.5c0.5-3.9-0.5-8.6,0.1-13c0.2-1.3-0.3-2.8,0.2-3.9
			c-0.2-3.5-0.5-9.2,0.4-11.9v-1c0.2-0.3,0.4-0.4,0.5-0.8c-0.4-0.6,0-1.6,0.2-2.6c-0.1-0.2-0.2-0.2-0.4-0.2c0.3,0.5,0,0.3,0,1.1
			c-0.1,0.1-0.1-1-0.2-1.4c0.2,0.3,0.5-0.3,0.5,0.2c0.3-0.7,0.4-1.6,0.3-2.8c0.3,0.1,0,0.3,0.2,0.5c0.2-0.7,0.7-1.1,0.3-2
			c0.7,0.2,0.6-1.7,1.6-1.4c0.2,0,0-0.4,0.1-0.6c0.4,0.2,0.6-1,1.5-0.6c0,0.9,1.4,0.9,1.9,1.5c0.3-0.1-0.2-0.6,0.2-0.5
			c-0.1,0.8,0.5,1.4,0.8,2c0.1,0.8-0.3,1-0.4,1.5c0.4,1.2,0.9,1.8,0.8,3.2c0,0.3-0.1,0.6-0.1,0.9s0.2,0.4,0.2,0.4
			c0,0.1-0.2,0.4-0.2,0.6c0,0.4,0.4,0.8,0.4,1c0,0.2-0.2,0.8-0.2,1c0,0.8,0.2,1.5,0.2,2.4c0.2,4.7,0,10.5,0.2,15.8
			c0.1,1.4,0.1,3,0.1,4.4c-0.1,5.8,0,11.5,0.2,17.4c0,0.2-0.1,1.4-0.1,2.3c0.3,11.1,0.8,25.9,0.4,38c-0.2,0.1-0.1,0.4-0.3,0.1
			c0,0.2,0.1,0.2,0.2,0.3c-0.1,0.6-0.2,0.6-0.3,1.2c-0.3,1.4-0.3,3.6-0.9,4.4c0.3-2.2,0.8-4.6,0.8-6.9c-0.6,1.4-0.4,3.9-1.3,4.9
			c0.3,0.8-0.3,1.2,0.1,1.6C-230.2,569.5-229.6,571.3-229.8,572z M-233.2,580.2V579C-233.5,578.8-233.2,580.2-233.2,580.2z
			 M-234.1,573.3c0.2,0.4-0.1,0.6,0.2,0.7C-234,573.7-233.7,573.3-234.1,573.3z M-228.1,559.2c0-0.6-0.2-0.6,0-1
			C-228.5,558.2-228.2,559.2-228.1,559.2z M-228.1,560.6c-0.1-0.3,0.1-0.8-0.1-0.9C-228.4,559.9-228.2,560.5-228.1,560.6z
			 M-236.1,478.9c0,0.6-0.4,1.8,0.2,1.9C-235.9,480.1-235.9,479.3-236.1,478.9z M-230,573.7c0.1,0.2-0.2,0.3,0,0.8
			c-0.3,0.1-0.1-0.5-0.2-0.8C-230.1,573.8-230,573.9-230,573.7z M-230.9,575.8c0.1,0.1,0,0.1-0.1,0.1c-0.1-0.2-0.1-0.7-0.1-1.1
			C-230.7,574.9-231.2,575.6-230.9,575.8z M-234,579.3c-0.3-0.1,0-0.7-0.2-0.9C-234,578.1-234,579-234,579.3z M-235.2,473.8
			c0.1,0.3-0.4,1.4-0.6,1.3C-235.7,474.6-235.4,474.3-235.2,473.8z"/>
	</g>
</g>
<g>
	<g>
		<path class="st0" d="M-252.1,426.2c-0.2,0-0.3,0.1-0.3,0.2C-252,426.4-252.2,426.3-252.1,426.2z M-252.7,451.3
			c0.1,0,0.1-0.1,0.4-0.1c0.2,0.1,0.3,0.1,0.4,0.3C-252.4,451.5-252.1,451.3-252.7,451.3z M-251.5,425.8c0.3,0,0.1-0.2,0.4-0.2
			c-0.2,0.1-0.1,0.2-0.2,0.3C-251.5,425.9-251.2,425.8-251.5,425.8z M-249.7,423.3c-0.2-0.2,0.2-0.5,0.2-0.7
			C-249.2,422.9-249.7,423.1-249.7,423.3z M-249.2,422.2c0.2,0.2,0,0.6,0,0.2C-249.2,422.3-249.2,422.2-249.2,422.2z M-246.9,425
			c-0.2,0-0.1-0.3,0-0.3C-246.6,424.8-246.8,424.9-246.9,425z M-246.6,423.9c0.3,0,0.3,0.1,0.3,0.2
			C-246.5,424-246.6,424-246.6,423.9z M-246.2,425.6c0.2,0-0.1,0.2,0.2,0.2C-246.2,425.9-246.4,425.7-246.2,425.6z M-243.7,429.8
			c0.4,0,0.3,0.3,0.1,0.4C-243.7,430.1-243.8,429.9-243.7,429.8z M-255.8,445.9c0.2,0.1,0.1,0.2,0.3,0.3
			C-255.7,446.1-255.8,446.1-255.8,445.9z M-254.2,448.8C-254.2,448.8-254.2,448.8-254.2,448.8c0.3-0.5,0.1-1.2,0.4-1.6
			c0,0.8,0.1,1.5-0.6,2.1c-0.3,0.3-1.1,0.6-0.2,0.9c-0.3,0-0.6-0.2-0.7-0.3c-0.2-0.3,1.1-0.6,1.1-0.9c0-0.2-0.3-0.2-0.2-0.4
			C-254.4,448.6-254.4,448.7-254.2,448.8z M-251.5,425.9c0.4,0,0.1,0.1,0.1,0.2c0.1,0,0.4-0.1,0.3-0.2c0.1,0.1,0.3,0.1,0.3,0.1
			c0.5-0.3,0.2-0.4,0.4-0.7c0.1,0,0.1,0.1,0.2,0.1c0.2-0.2,0.3-0.6,0.1-0.9c0.2,0,0.2,0.1,0.2,0.2c0.3,0,0.1-0.3,0.4-0.1
			c0-0.2-0.2-0.2-0.1-0.4c0.2,0.2,0.4,0.3,0.4,0.5c0.1,0,0.1-0.1,0.2-0.1c0.3,0.1-0.1,0.1,0,0.2c0.4-0.4,0.4-0.8,0.5-1.2
			c0.1,0.1,0.2,0.4,0.2,0.6c0.2-0.1,0.2-0.4,0.3-0.6c0.2,0.2,0.2,0,0.3-0.1c0.1,1,0.2,1.4,0.3,2.5c0-0.2,0.1-0.3,0-0.5
			c0-0.1,0.3-0.1,0.3,0c0.1,0-0.3-0.2,0.1-0.2c0.6,0.1,0.3,0.6,0.6,0.8c0.1,0,0.1-0.1,0.4,0c0-0.1-0.4,0-0.3-0.2
			c0.7,0.2,0.3,0.4,0.4,0.6c0,0.2,0.2,0.3,0.1,0.6c0.4-0.1,0.1-0.5,0.2-0.7c0.1,0,0.1,0,0.1,0.1c0.1,0.4,0.3,1.2,0.3,1.5
			c0.4-0.1,0.1-0.4,0.1-0.6c0.1,0,0.1,0.1,0.1,0.1c0.2-0.4,0-1.3-0.3-1.8c-0.1-0.2-0.3-0.3-0.4-0.4c0-0.1,0-0.4-0.4-0.6
			c0.2-0.2,0-0.3-0.3-0.4c0.2,0,0.2,0.1,0.3,0c0.1-0.1-0.3-0.1-0.4-0.1c0.1,0,0.4-0.2,0.1-0.3c0.4,0,0-0.2-0.1-0.4
			c-0.1,0.1-0.1,0.2-0.3,0.2c-0.3-0.3,0-0.6,0-0.9c0.2,0.2,0,0.6,0,0.9c0.3,0,0.2-0.2,0.3-0.3c1.9,1.4,3,4,2.7,5.8
			c-0.5,0-0.8,0.4-0.8,0.6c-0.2-0.1-0.3,0-0.5-0.1c0.1,0-0.1-0.2,0-0.3c-0.3,0.1,0,0.6-0.1,0.8c0.2,0,0-0.1,0.1-0.1
			c0.1,0,0.1,0.3,0.3,0.3c0.2-0.2,0.1-0.3,0.1-0.5c0.5,0.1-0.1,0.6,0.2,0.8c-0.1,0.1-0.3,0-0.2-0.1c-0.1,0.3-0.2,0.6-0.1,0.9
			c0.1-0.1,0.1-0.4,0.1-0.7c0.4,0.2-0.1,0.6,0.1,0.9c-0.3,0-0.3-0.1-0.3-0.2c-0.3,0.1,0,0.2,0.3,0.2c-0.1,0.1-0.1,0.2,0.1,0.3
			c-0.2-0.5,0.6-1,0.4-1.4c-0.1,0-0.1,0.1-0.1,0.1c-0.3-0.1,0-0.4-0.1-0.6c0.1,0,0.1,0.1,0.2,0.1c0.2-0.2-0.1-0.6,0.2-0.8
			c0.1,1.2,0.2,2.4-0.3,3.6c-0.4-0.2-0.1-0.6-0.4-0.8c-0.1,0.1-0.1,0.5-0.1,0.7c-0.4-0.2,0.1-0.6-0.2-0.9c-0.3,1.4-0.3,2.6,0,4.2
			c0.1-0.6-0.1-1.1-0.1-1.6c0.1,0,0.2,0.1,0.2,0.1c0.1-0.3-0.1-1,0.1-1.4c0.2,0,0,0.2,0.1,0.3c0.1-0.1,0.2-0.3,0.2-0.5
			c0.5,0.8,0.5,1.7,1,2.6c-0.1,0-0.1,0.1-0.4,0c-0.2,2,0.3,4-0.2,5.7c0,0.1,0.2,0.1,0.3,0.1c-0.6,1,0.5,2.2-0.2,3.3
			c-0.2,0.3,0.3,0.7-0.2,1c0.2,0.9,0.5,2.4-0.5,3v0.3c-0.2,0.1-0.4,0.1-0.5,0.2c0.4,0.2,0,0.4-0.2,0.7c0.4,0,0.5,0,0.7,0
			c-0.3-0.1,0-0.1,0-0.3c0.1,0,0.1,0.3,0.2,0.4c-0.2-0.1-0.5,0.1-0.5,0c-0.3,0.2-0.4,0.4-0.3,0.7c-0.3,0,0-0.1-0.2-0.1
			c-0.2,0.2-0.8,0.3-0.3,0.5c-0.7-0.1-0.6,0.4-1.7,0.3c-0.2,0,0,0.1-0.1,0.1c-0.4-0.1-0.6,0.2-1.6,0.1c0-0.2-1.5-0.3-2-0.4
			c-0.3,0,0.2,0.2-0.2,0.1c0.1-0.2-0.5-0.4-0.8-0.5c-0.1-0.2,0.3-0.2,0.4-0.4c-0.4-0.3-0.9-0.5-0.8-0.8c0-0.1,0.1-0.1,0.1-0.2
			s-0.2-0.1-0.2-0.1l0.2-0.1c0-0.1-0.4-0.2-0.4-0.3c0-0.1,0.2-0.2,0.2-0.2c0-0.2-0.2-0.4-0.2-0.6c-0.2-1.2,0.1-2.7-0.1-4
			c-0.1-0.4-0.1-0.8-0.1-1.1c0.2-1.5,0.1-2.9-0.1-4.4c0-0.1,0.1-0.4,0.1-0.6c-0.2-2.8-0.6-6.6-0.1-9.7c0.2,0,0.1-0.1,0.3,0
			c0-0.1-0.1-0.1-0.2-0.1c0.1-0.1,0.2-0.1,0.3-0.3c0.3-0.3,0.3-0.9,1-1.1c-0.3,0.6-0.9,1.1-0.9,1.7c0.6-0.3,0.5-1,1.4-1.2
			c-0.3-0.2,0.3-0.3-0.1-0.4C-251.1,426.6-251.7,426.1-251.5,425.9z M-247.8,423.9v0.3C-247.5,424.3-247.8,423.9-247.8,423.9z
			 M-246.9,425.7c-0.2-0.1,0.1-0.1-0.2-0.2C-247,425.6-247.2,425.7-246.9,425.7z M-253.4,429.1c0,0.2,0.2,0.2,0,0.3
			C-252.9,429.4-253.1,429.1-253.4,429.1z M-253.2,428.8c0.1,0.1-0.1,0.2,0.1,0.2S-253.1,428.8-253.2,428.8z M-245.5,449.9
			c0-0.2,0.4-0.4-0.2-0.5C-245.7,449.6-245.7,449.8-245.5,449.9z M-251.2,425.5c-0.1-0.1,0.2-0.1,0-0.2c0.3,0,0.1,0.1,0.2,0.2
			C-251.1,425.5-251.2,425.4-251.2,425.5z M-250.2,425C-250.4,425-250.2,425-250.2,425c0.2,0.1,0.2,0.2,0.2,0.3
			C-250.5,425.2-249.9,425-250.2,425z M-246.9,424.2c0.3,0,0,0.2,0.2,0.2C-247,424.5-246.9,424.3-246.9,424.2z M-246.4,451.2
			c-0.1-0.1,0.4-0.3,0.6-0.3C-246,451-246.2,451-246.4,451.2z"/>
	</g>
</g>
<g>
	<path class="st0" d="M-296.6,495.4c0.5,0.9,0.8,1.8,0.8,2.8s0,1.9,0.2,3c0.1,0.2,0.1,0.4,0.2,0.6s0.1,0.3,0.1,0.6
		c0,0.1,0,0.2,0,0.4h-0.1c0,1.3,0.2,2.5,0.4,3.5c0.2,1.1,0.3,2.2,0.4,3.3c0.1,0.3,0.1,0.7,0.1,1.2c-0.2,0.3-0.2,0.8,0,1.6
		c0,0.2-0.1,0.4-0.1,0.4c-0.1,0-0.1,0.1-0.1,0.2c0,0.7,0.1,1.3,0.3,1.9c0.2,0.5,0.3,1.2,0.3,1.9c0,0.1-0.1,0.2-0.2,0.2
		c0,0.1-0.1,0.3,0,0.4c0,0.6,0,1.1,0.1,1.6s0.1,1,0.1,1.6c0.1,0.5,0.1,1.1,0.3,1.8c0.1,0.7,0.2,1.4,0.1,2c-0.1,0.3-0.1,0.6,0.1,0.9
		c0.2,0.4,0.2,0.9,0.3,1.6c0,0.2-0.1,0.4-0.2,0.6c-0.1,0.2-0.2,0.4-0.2,0.6c0,0.6,0.1,1.2,0.3,1.7s0.3,1.1,0.4,1.8
		c0,0.1-0.1,0.2-0.2,0.2c-0.1,0-0.1,0.1,0,0.4c0,0.2,0,0.4,0.1,0.6c0.1,0.2,0.1,0.3,0.2,0.4c0.1,1.3,0.2,2.6,0.3,3.9
		c0.1,1.3,0.2,2.8,0.2,4.3l-0.2,0.1l-0.2,0.6c0.1,0.6,0.2,1,0.4,1.3s0.2,0.7,0.1,1.2c0,0.2-0.1,0.5-0.2,0.7s-0.2,0.4-0.2,0.7
		c0,0.5,0.1,1,0.3,1.7s0.3,1.3,0.3,1.9c0,0.1,0,0.2-0.1,0.2c-0.1,0-0.1,0.1,0,0.4c0,0.3,0.1,0.6,0.1,0.8c0.1,0.2,0,0.3-0.1,0.4
		c0,0.2-0.1,0.4-0.3,0.5c-0.2,0.1-0.3,0.3-0.2,0.7c0.5,0.9,0.8,1.8,0.8,2.6s0,1.6,0.1,2.5c0,0.1,0.1,0.3,0.2,0.5s0.1,0.4,0.1,0.7
		c-0.1-0.1-0.2-0.1-0.3-0.1c-0.1,0-0.1,0.1-0.1,0.2c0,0.1,0.1,0.3,0.2,0.5c0.1,0.2,0.1,0.4,0.1,0.5l-0.5,0.1c0,0.3,0.2,0.7,0.5,1.2
		c0.3,0.4,0.3,0.7-0.1,0.8c0.4,1.2,0.6,1.9,0.7,2.2s0.4,0.8,0.7,1.7c-0.2,0.3-0.2,0.7,0,1.2c0.2,0.5,0.2,1.1,0.2,1.5
		c0,0.1-0.1,0.2-0.2,0.2s-0.1,0.2,0,0.5c0.2,0.7,0.3,1.6,0.2,3c-0.1,1.3-0.4,2.3-0.9,2.9c-0.3,0-0.5,0.2-0.5,0.5
		c0,0.3-0.1,0.6-0.4,0.7c-0.2,0.1-0.4,0-0.6-0.3c-0.2-0.2-0.4-0.3-0.7-0.2c-1.1,0.1-2.3,0.2-3.6,0.3c-1.3,0.1-2.6,0-3.8-0.2
		c-0.7-1.6-1.2-3.1-1.4-4.7c-0.2-1.6-0.4-3.1-0.6-4.4c-0.2-1.3-0.4-2.7-0.6-4c-0.2-1.3-0.1-2.5,0.3-3.5c-0.3-0.9-0.5-1.7-0.7-2.5
		c-0.2-0.8-0.3-1.7-0.4-2.7c0-0.3,0-0.9-0.1-1.7c0-0.8,0-1.5-0.1-2.2c0-0.2,0-0.4-0.1-0.5s-0.1-0.2-0.2-0.3c0-0.2,0.1-0.4,0.2-0.4
		s0.2-0.1,0.1-0.2c-0.1-0.9-0.2-1.7-0.3-2.4c-0.1-0.7-0.2-1.3-0.3-1.9c0-0.2,0-0.4-0.1-0.6s-0.2-0.3-0.2-0.6c0-0.1,0.2-0.3,0.4-0.6
		c0.2-0.2,0.3-0.4,0.3-0.5c0-0.6-0.1-1.2-0.4-1.8c-0.2-0.6-0.3-1.2-0.3-1.7c-0.2-1-0.3-2.1-0.4-3.4c0-0.5,0.1-0.8,0.2-0.9
		s0.1-0.5,0-1.3c0-0.1-0.1-0.6-0.2-1.5c0-0.2,0-0.4,0.1-0.4c0,0,0.1-0.1,0.1-0.2c0.1-0.5,0.1-1.2,0-2.1s-0.2-1.8-0.3-2.7
		c0-0.7,0-1.2,0-1.6c0-0.2,0.1-0.5,0.2-0.7c0.1-0.2,0.2-0.4,0.2-0.7c0-0.5,0-1-0.1-1.5s-0.1-1,0.1-1.5c0-0.2,0.1-0.5,0.2-0.8
		c0.1-0.3,0.1-0.5,0.2-0.8c0-0.2-0.1-0.5-0.3-0.8c-0.2-0.3-0.3-0.7-0.3-1.2c0-0.1,0-0.2,0.2-0.4c0.2-0.2,0.3-0.4,0.3-0.6
		c0-0.6-0.1-1.1-0.1-1.6c-0.1-0.4-0.1-1-0.1-1.8c0-0.1,0.1-0.3,0.2-0.5s0.2-0.4,0.2-0.7c0-0.5-0.1-1.1-0.4-1.8
		c-0.3-0.7-0.1-1.1,0.5-1c-0.2-0.5-0.3-1-0.3-1.3c-0.1-0.3,0-0.8,0.1-1.3c0-0.1,0-0.4,0-0.7c-0.1-0.3-0.1-0.6-0.1-0.9
		c0.1,0,0.2,0,0.4,0c0.2,0,0.2,0,0.2-0.2c0.2-0.3,0.1-0.5-0.1-0.8c-0.2-0.2-0.4-0.5-0.4-0.9c0.2-0.3,0.3-0.5,0.4-0.6
		c0.1-0.1,0.2-0.3,0.3-0.6c0-0.1,0-0.3-0.1-0.5c-0.1-0.2-0.2-0.4-0.1-0.5c0.1-0.3,0.1-0.5,0.2-0.8c0-0.2,0.1-0.5,0.2-0.8
		c0.1-0.4,0.2-0.7,0.3-1c0.1-0.3,0.2-0.7,0.2-1.3c1.1,0,2.4-0.2,3.7-0.8C-298.8,494.8-297.6,494.8-296.6,495.4z M-301.2,570.6
		c-0.2-0.3-0.3-0.6-0.2-0.8c0-0.2,0-0.5,0.1-0.6c0-0.2,0-0.3,0-0.4c0-0.1-0.2-0.2-0.5-0.2c0,0.2,0,0.7,0,1.3
		C-301.9,570.4-301.6,570.7-301.2,570.6z M-302.1,564.8c-0.2-0.5-0.1-1.2,0.1-1.9c0.2-0.7,0.1-1.1-0.4-1.2c0.2,0.5,0.2,1.1-0.2,1.7
		C-302.9,564.1-302.8,564.5-302.1,564.8z M-299,518.9c0.1,0.8,0.3,1.3,0.6,1.4s0.5,0.5,0.6,1.1c-0.2,0.1-0.3,0.2-0.2,0.4
		s0.1,0.4,0.1,0.7c0,0.1-0.1,0.3-0.3,0.5c-0.1,0.2-0.3,0.5-0.4,0.7c0,0.2,0,0.5,0.1,0.7s0.1,0.6,0.2,1c0,0.1-0.1,0.3-0.2,0.5
		s-0.2,0.4-0.2,0.7c0,0.5,0,1,0.1,1.6c0.1,0.6,0.1,1.1,0.1,1.7l-0.2,0.2l-0.1,0.2c-0.1,0.3-0.1,0.7-0.1,1.3s0.3,0.8,0.7,0.7
		c-0.2-0.4-0.3-0.7-0.2-0.9s0.1-0.4,0.1-0.6c-0.1-0.4-0.1-0.8,0-1.2c0.2-0.3,0.2-0.7,0.1-1c-0.1-0.2-0.1-0.3,0-0.3
		c0.1,0,0.1-0.1,0.2-0.3c0.1-0.4,0.1-0.7,0-1.1c-0.1-0.3-0.1-0.7,0-1.2c0.2-0.7,0.4-1.4,0.6-2.2c0.1-0.8,0.2-1.4,0.1-1.7
		c-0.1-0.6-0.1-1.1,0-1.7c0.1-0.6,0.1-1.1,0.1-1.7c0-0.2,0-0.6,0.1-1c0-0.4,0-0.9,0-1.3c0.1-0.3,0.1-0.7-0.1-1.2
		c-0.2-0.5-0.1-1,0.1-1.3c-0.2-0.3-0.3-0.6-0.4-0.9c-0.1-0.3-0.2-0.5-0.4-0.6c-0.4,1.1-0.5,2.2-0.5,3.5
		C-298.4,516.9-298.6,518-299,518.9z M-296.6,458.9c0.2,0.5,0.4,1.1,0.4,1.6c0,0.6,0.1,1.2,0.1,1.9c0,0.1,0,0.2-0.1,0.2l-0.1,0.4
		c0,0.3,0.1,0.7,0.2,1c0.1,0.3,0.2,0.8,0.2,1.4c0,0.6,0.1,1.2,0.1,1.7c0.1,0.6,0.1,1.2,0,1.8c0,0.3-0.1,0.7-0.5,1
		c-0.1,0.3-0.1,0.6,0,0.9s-0.1,0.5-0.5,0.5c0.3,0.4,0.4,0.7,0.3,0.9c-0.1,0.2-0.2,0.4-0.2,0.7c0,0.1,0.1,0.3,0.2,0.5
		s0.1,0.4,0.1,0.5h-0.1h-0.1c0,0.1,0,0.3,0.1,0.5c0.1,0.2,0.2,0.4,0.2,0.7l-0.4,0.1c0,0.1,0.1,0.3,0.2,0.5c0.1,0.2,0.1,0.4,0.1,0.5
		c-0.2,0.3-0.2,0.6,0.1,1c0.2,0.4,0.2,0.8,0.1,1c-0.1,0.4-0.1,1.1,0,2.1c0,0.6,0.1,1.1,0.2,1.6s0.2,1,0.2,1.6c-1.6,0.6-3,0.3-4.3-1
		c-0.6,0.1-1.2,0.1-1.7,0.2c-0.6,0.1-1.1,0-1.6-0.2c-0.3-0.3-0.6-0.6-0.9-1.1c-0.3-0.5-0.6-0.6-1-0.5c-0.2-1.2-0.5-2.5-1-3.7
		s-0.7-2.4-0.7-3.6c0-0.1,0.1-0.2,0.2-0.2s0.1-0.1,0-0.4l-0.1-0.3c0-0.1,0.2-0.3,0.3-0.6c-0.1-0.5-0.1-1-0.1-1.6s-0.1-1.2-0.3-1.9
		c-0.1-0.2-0.1-0.5-0.2-1c-0.1-0.4-0.1-0.8,0-1.1c0-0.1,0.2-0.2,0.4-0.3c0.2-0.1,0.3-0.1,0.2-0.3c0-0.6-0.1-1.1-0.3-1.5
		c-0.2-0.4-0.2-0.8-0.1-1c0.1-0.4,0.2-0.7,0.3-1s0.2-0.5,0.3-0.8c0.1-0.3,0.1-0.5,0.1-0.6c0-0.2-0.1-0.4-0.1-0.6s0.1-0.6,0.3-1.1
		c0.2-0.5,0.3-0.9,0.3-1.4c0.9-0.4,1.8-0.6,2.6-0.7c0.8-0.1,1.5,0.2,2.1,0.9c0.9-0.5,1.7-0.6,2.3-0.3
		C-297.8,458.2-297.1,458.5-296.6,458.9z"/>
</g>
<g>
	<path class="st1" d="M-347,493.9"/>
</g>
<g>
	<g>
		<path class="st0" d="M-359.5,570.7c0.2-0.1,0.3-0.5,0.3-0.7C-359.5,569.9-359.2,570.4-359.5,570.7z M-359.8,472.6
			c0,0.2-0.1,0.4-0.3,0.4c-0.2-0.3-0.3-0.5-0.4-1C-360,471.8-360.2,472.6-359.8,472.6z M-360,572.6c-0.3,0.1-0.1,0.7-0.4,0.7
			c0.2-0.4,0.1-0.9,0.2-1.1C-360,572.2-360.2,572.6-360,572.6z M-361.7,582.4c0.2,0.9-0.2,1.9-0.2,2.6
			C-362,584.2-361.7,583.4-361.7,582.4z M-362,586.9c-0.2-0.7,0-2.5,0-0.9C-362,586.3-362,586.6-362,586.9z M-364.4,576.2
			c0.2,0.1,0.1,1,0,1.1C-364.5,577-364.5,576.7-364.4,576.2z M-364.5,580.5c-0.3,0.1-0.3-0.3-0.3-0.6
			C-364.7,580-364.5,580.2-364.5,580.5z M-365,573.7c-0.2,0,0.1-0.8-0.2-0.8C-365,572.5-364.9,573.6-365,573.7z M-367.5,557.7
			c-0.4-0.1-0.3-1.2-0.1-1.5C-367.5,556.6-367.5,557.2-367.5,557.7z M-356.5,493.2c-0.3-0.2-0.2-0.8-0.3-1.1
			C-356.7,492.3-356.5,492.6-356.5,493.2z M-358,482.1c-0.1,0-0.1,0-0.1,0.1c-0.2,1.9,0,4.8-0.2,6.3c0-3-0.1-6,0.5-8.3
			c0.3-1.3,1-2.4,0.2-3.5c0.3,0.1,0.6,0.6,0.7,1c0.2,1.2-1,2.5-1,3.8c0,0.7,0.3,0.9,0.2,1.6C-358,482.8-358,482.4-358,482.1z
			 M-360.2,572c-0.4,0-0.1-0.5-0.1-0.8c-0.1,0.2-0.4,0.3-0.3,0.7c-0.1-0.2-0.3-0.2-0.3-0.5c-0.5,1.2-0.2,1.6-0.4,2.6
			c-0.1,0-0.1-0.2-0.2-0.3c-0.2,0.9-0.3,2.4-0.1,3.5c-0.2,0-0.2-0.3-0.2-0.6c-0.3,0.1-0.1,1.2-0.4,0.6c0,0.9,0.2,0.8,0.1,1.6
			c-0.2-0.9-0.4-1.1-0.4-2.1c-0.1,0.1-0.1,0.4-0.2,0.6c-0.3-0.2,0.1-0.5,0-0.9c-0.4,1.5-0.4,3.2-0.4,4.9c-0.1-0.5-0.2-1.5-0.2-2.5
			c-0.2,0.6-0.2,1.6-0.3,2.4c-0.2-0.8-0.2,0.1-0.3,0.5c-0.1-4-0.2-5.3-0.4-9.6c0,0.8-0.1,1.2,0,1.9c0,0.2-0.3,0.4-0.3,0.1
			c-0.1,0.1,0.3,0.6-0.1,0.7c-0.6-0.5-0.3-2.3-0.6-3.2c-0.1,0.1-0.1,0.4-0.4,0.2c0,0.5,0.4-0.2,0.3,0.6c-0.7-0.6-0.3-1.7-0.4-2.4
			c0-0.6-0.2-1.3-0.1-2.2c-0.4,0.5-0.1,1.9-0.2,2.7c-0.1,0.2-0.1-0.1-0.1-0.3c-0.1-1.6-0.3-4.5-0.3-6c-0.4,0.6-0.1,1.4-0.1,2.5
			c-0.1,0-0.1-0.2-0.1-0.4c-0.2,1.6,0,4.9,0.3,7c0.1,0.6,0.3,1.1,0.4,1.6c0,0.5,0,1.7,0.4,2.2c-0.2,0.8,0,1.1,0.3,1.6
			c-0.2,0-0.2-0.2-0.3,0c-0.1,0.4,0.3,0.2,0.4,0.4c-0.1,0.2-0.4,0.7-0.1,1c-0.4-0.1,0,0.9,0.1,1.6c0.1-0.3,0.1-0.8,0.3-0.9
			c0.3,1.2,0,2.3,0,3.6c-0.2-0.9,0-2.4,0-3.4c-0.3,0.1-0.2,0.9-0.3,1.4c-1.8-5.4-2.9-15.1-2.7-22.2c0.5,0,0.7-1.5,0.7-2.5
			c0.2,0.3,0.3,0.1,0.5,0.4c-0.1,0.2,0.1,0.7,0,1.2c0.3-0.5,0-2.2,0.1-3.2c-0.2,0,0,0.4-0.1,0.6c-0.1,0.2-0.1-1-0.3-1.2
			c-0.2,0.9-0.1,1.3-0.1,2c-0.5-0.2,0.1-2.4-0.2-3.1c0.1-0.4,0.3,0.1,0.2,0.4c0.1-1.2,0.2-2.5,0.1-3.5c-0.1,0.4-0.1,1.5-0.1,2.6
			c-0.4-0.7,0.1-2.3-0.1-3.5c0.3-0.1,0.3,0.3,0.3,0.6c0.3-0.3,0-0.9-0.3-0.9c0.1-0.4,0.1-0.9-0.1-1.2c0.2,1.9-0.5,3.9-0.3,5.7
			c0.1,0,0.1-0.3,0.1-0.5c0.3,0.2,0,1.4,0.1,2.4c-0.1-0.1-0.1-0.2-0.2-0.4c-0.2,0.8,0.1,2.3-0.2,3.1c-0.1-4.7-0.3-9.3,0.2-14
			c0.4,0.7,0.1,2.2,0.4,3.1c0.1-0.4,0.1-2,0.1-2.6c0.4,0.8-0.1,2.5,0.2,3.6c0.2-5.7,0.2-10.4-0.1-16.6c-0.1,2.5,0.1,4.2,0.1,6.2
			c-0.1-0.1-0.2-0.2-0.2-0.4c-0.1,1.3,0.1,4-0.1,5.4c-0.2-0.1,0-0.7-0.1-1c-0.1,0.6-0.2,1.3-0.2,2.1c-0.5-3.2-0.5-6.5-1-10
			c0.1-0.1,0.1-0.4,0.4-0.2c0.1-7.7-0.4-15.8,0-22.5c0-0.3-0.2-0.2-0.3-0.5c0.5-3.9-0.5-8.6,0.1-13c0.2-1.3-0.3-2.8,0.2-3.9
			c-0.2-3.5-0.5-9.2,0.4-11.9v-1c0.2-0.3,0.4-0.4,0.5-0.8c-0.4-0.6,0-1.6,0.2-2.6c-0.1-0.2-0.2-0.2-0.4-0.2c0.3,0.5,0,0.3,0,1.1
			c-0.1,0.1-0.1-1-0.2-1.4c0.2,0.3,0.5-0.3,0.5,0.2c0.3-0.7,0.4-1.6,0.3-2.8c0.3,0.1,0,0.3,0.2,0.5c0.2-0.7,0.7-1.1,0.3-2
			c0.7,0.2,0.6-1.7,1.6-1.4c0.2,0,0-0.4,0.1-0.6c0.4,0.2,0.6-1,1.5-0.6c0,0.9,1.4,0.9,1.9,1.5c0.3-0.1-0.2-0.6,0.2-0.5
			c-0.1,0.8,0.5,1.4,0.8,2c0.1,0.8-0.3,1-0.4,1.5c0.4,1.2,0.9,1.8,0.8,3.2c0,0.3-0.1,0.6-0.1,0.9s0.2,0.4,0.2,0.4
			c0,0.1-0.2,0.4-0.2,0.6c0,0.4,0.4,0.8,0.4,1c0,0.2-0.2,0.8-0.2,1c0,0.8,0.2,1.5,0.2,2.4c0.2,4.7,0,10.5,0.2,15.8
			c0.1,1.4,0.1,3,0.1,4.4c-0.1,5.8,0,11.5,0.2,17.4c0,0.2-0.1,1.4-0.1,2.3c0.3,11.1,0.8,25.9,0.4,38c-0.2,0.1-0.1,0.4-0.3,0.1
			c0,0.2,0.1,0.2,0.2,0.3c-0.1,0.6-0.2,0.6-0.3,1.2c-0.3,1.4-0.3,3.6-0.9,4.4c0.3-2.2,0.8-4.6,0.8-6.9c-0.6,1.4-0.4,3.9-1.3,4.9
			c0.3,0.8-0.3,1.2,0.1,1.6C-360.5,569.5-359.9,571.3-360.2,572z M-363.5,580.2V579C-363.8,578.8-363.5,580.2-363.5,580.2z
			 M-364.4,573.3c0.2,0.4-0.1,0.6,0.2,0.7C-364.2,573.7-364,573.3-364.4,573.3z M-358.4,559.2c0-0.6-0.2-0.6,0-1
			C-358.8,558.2-358.5,559.2-358.4,559.2z M-358.4,560.6c-0.1-0.3,0.1-0.8-0.1-0.9C-358.7,559.9-358.5,560.5-358.4,560.6z
			 M-366.4,478.9c0,0.6-0.4,1.8,0.2,1.9C-366.2,480.1-366.2,479.3-366.4,478.9z M-360.2,573.7c0.1,0.2-0.2,0.3,0,0.8
			c-0.3,0.1-0.1-0.5-0.2-0.8C-360.4,573.8-360.2,573.9-360.2,573.7z M-361.2,575.8c0.1,0.1,0,0.1-0.1,0.1c-0.1-0.2-0.1-0.7-0.1-1.1
			C-361,574.9-361.5,575.6-361.2,575.8z M-364.2,579.3c-0.3-0.1,0-0.7-0.2-0.9C-364.2,578.1-364.2,579-364.2,579.3z M-365.5,473.8
			c0.1,0.3-0.4,1.4-0.6,1.3C-366,474.6-365.7,474.3-365.5,473.8z"/>
	</g>
</g>
<g>
	<g>
		<path class="st0" d="M-373.4,474.9c0.2,0.2,0.5-0.1,0.8-0.2C-372.8,474.4-372.9,475-373.4,474.9z M-302,419.3
			c-0.2,0-0.4,0.2-0.5,0c0.1-0.3,0.2-0.5,0.5-0.9C-301.6,418.6-302.2,418.9-302,419.3z M-375,475.7c-0.2-0.2-0.6,0.3-0.8,0.1
			c0.4-0.2,0.6-0.5,0.9-0.5C-374.8,475.3-375.2,475.5-375,475.7z M-383.2,480.1c-0.4,0.7-1.6,1-1.9,1.5
			C-384.7,480.9-383.8,480.7-383.2,480.1z M-386.5,482.5c0.4-0.6,1.7-1.5,0.6-0.5C-386.2,482.1-386.4,482.4-386.5,482.5z
			 M-380.4,474.4c0,0.2-0.6,0.7-0.8,0.7C-381,474.8-380.8,474.7-380.4,474.4z M-383.7,476.9c-0.2-0.2,0-0.4,0.2-0.5
			C-383.2,476.4-383.4,476.6-383.7,476.9z M-379,472.4c-0.1-0.2,0.6-0.4,0.4-0.6C-378.2,471.7-378.9,472.5-379,472.4z M-369,461.2
			c-0.2-0.4,0.7-0.9,1-0.9C-368.4,460.6-368.7,460.9-369,461.2z M-315.2,433.1c0-0.3,0.5-0.6,0.7-0.8
			C-314.8,432.6-315,432.9-315.2,433.1z M-308,425.8C-308,425.7-308.1,425.7-308,425.8c-1.6,0.9-3.7,2.6-4.8,3.2
			c2.3-1.7,4.4-3.4,6.4-4.2c1.2-0.5,2.4-0.5,2.7-1.8c0,0.3-0.1,0.8-0.4,1.2c-0.8,0.8-2.5,0.5-3.4,1.2c-0.6,0.4-0.5,0.8-1.1,1
			C-308.6,426.3-308.1,426.1-308,425.8z M-374.5,475.2c-0.2-0.3,0.4-0.3,0.4-0.5c-0.2,0-0.4,0-0.7,0.2c0.1-0.2,0-0.3,0.2-0.5
			c-1.2,0.3-1.3,0.8-2.2,1.2c0-0.1,0.2-0.2,0.1-0.3c-0.8,0.4-2,1.2-2.6,1.9c-0.1-0.2,0.1-0.3,0.3-0.5c-0.2-0.2-0.9,0.7-0.7,0
			c-0.6,0.6-0.4,0.6-1.1,1c0.5-0.7,0.5-1,1.3-1.5c-0.2-0.1-0.4,0.2-0.6,0.3c0-0.3,0.5-0.3,0.6-0.5c-1.3,0.6-2.5,1.5-3.7,2.5
			c0.3-0.3,1-1.1,1.7-1.6c-0.6,0.2-1.2,0.9-1.9,1.2c0.4-0.6-0.2-0.1-0.6,0.1c2.8-2.4,3.6-3.2,6.6-5.9c-0.6,0.4-1,0.6-1.4,1.1
			c-0.1,0.1-0.5,0.1-0.2-0.2c-0.1-0.1-0.2,0.5-0.6,0.4c0-0.8,1.5-1.6,1.9-2.4c-0.1-0.1-0.3,0.1-0.4-0.1c-0.4,0.3,0.4,0.1-0.3,0.5
			c0-0.9,0.9-1.2,1.5-1.7c0.5-0.4,0.9-0.9,1.5-1.4c-0.6,0-1.4,1-2.1,1.5c-0.2,0.1,0-0.1,0.1-0.2c1.1-1,3.1-2.8,4.2-3.8
			c-0.7,0-1,0.7-1.8,1.3c0-0.1,0.1-0.2,0.2-0.3c-1.2,0.8-3.6,2.8-4.9,4.4c-0.3,0.4-0.6,0.9-0.9,1.2c-0.4,0.3-1.2,1-1.3,1.7
			c-0.7,0.3-0.7,0.6-1,1.1c-0.1-0.1,0-0.3-0.1-0.2c-0.4,0.2,0,0.3,0,0.5c-0.2,0.1-0.8,0.2-0.7,0.5c-0.2-0.4-0.6,0.5-1.1,1
			c0.3,0,0.7-0.4,0.9-0.2c-0.7,0.9-1.6,1.3-2.5,2.1c0.5-0.8,1.6-1.4,2.4-2c-0.3-0.2-0.8,0.4-1.1,0.7c2.7-4.6,8.9-11.1,14.3-15.2
			c0.2,0.4,1.5-0.3,2.2-0.9c-0.1,0.3,0.1,0.3,0.1,0.6c-0.2,0-0.4,0.5-0.9,0.7c0.5-0.1,1.5-1.3,2.4-1.8c-0.1-0.2-0.4,0.2-0.5,0.3
			c-0.2,0,0.7-0.7,0.7-0.9c-0.8,0.3-1,0.6-1.5,1.1c-0.2-0.5,1.8-1.3,2.2-2c0.4-0.2,0,0.3-0.2,0.3c0.9-0.6,2-1.3,2.6-1.9
			c-0.3,0.1-1.1,0.7-1.9,1.5c0.3-0.7,1.7-1.2,2.4-2.1c0.2,0.2,0,0.4-0.3,0.5c0.4,0,0.7-0.5,0.5-0.7c0.4-0.2,0.7-0.5,0.8-0.8
			c-1.3,1.2-3.1,1.9-4.3,3.1c0.1,0.1,0.3-0.1,0.4-0.2c0.1,0.4-1,0.7-1.6,1.4c0-0.1,0.1-0.2,0.2-0.3c-0.7,0.3-1.6,1.4-2.4,1.7
			c3.4-2.8,6.5-5.6,10.3-8c-0.3,0.6-1.5,1.4-2,2.1c0.4-0.2,1.6-1.1,1.9-1.5c-0.3,0.8-1.8,1.3-2.5,2.2c4.3-3.2,7.7-5.8,12-9.6
			c-1.9,1.6-3,2.7-4.4,3.9c0-0.1,0-0.2,0.2-0.3c-1,0.7-2.8,2.4-3.9,3c0-0.2,0.4-0.5,0.6-0.7c-0.5,0.3-1,0.6-1.7,1.1
			c2-2.3,4.4-4.2,6.6-6.5c0.1,0.1,0.4-0.2,0.4,0.1c5.7-4.4,11.3-9.3,16.4-12.8c0.2-0.1,0.1-0.3,0.2-0.5c3.2-1.8,6.1-5.2,9.6-7.3
			c1.1-0.7,1.9-1.9,3-2c2.4-2.1,6.5-5.6,9.1-6.3l0.7-0.6c0.3,0,0.5,0.1,0.9,0c0.3-0.6,1.2-0.9,2.1-1.3c0.1-0.1,0.1-0.3-0.1-0.4
			c0,0.5-0.2,0.1-0.7,0.6c-0.1,0,0.6-0.7,0.9-0.9c-0.1,0.3,0.5,0.2,0.2,0.6c0.7-0.1,1.4-0.5,2.3-1.2c0,0.3-0.3,0.1-0.3,0.4
			c0.6-0.2,1.3-0.1,1.7-0.8c0.3,0.7,1.5-0.5,2,0.5c0.1,0.2,0.4-0.2,0.5-0.3c0.2,0.5,1.1,0,1.3,0.8c-0.6,0.5,0.2,1.6,0,2.4
			c0.2,0.2,0.3-0.5,0.5-0.2c-0.7,0.4-0.8,1.1-1,1.7c-0.5,0.5-1,0.3-1.3,0.5c-0.7,1-0.8,1.6-1.9,2.5c-0.3,0.1-0.5,0.3-0.7,0.4
			s-0.2,0.3-0.2,0.3c-0.1,0.1-0.4,0.1-0.6,0.2c-0.3,0.2-0.3,0.7-0.5,0.9c-0.2,0.2-0.7,0.3-0.9,0.4c-0.6,0.4-1.1,0.9-1.6,1.4
			c-3.4,2.8-7.7,5.7-11.4,8.9c-1,0.8-2.1,1.8-3.1,2.5c-4.3,3.2-8.4,6.4-12.5,9.9c-0.1,0.1-1,0.6-1.7,1.2
			c-7.9,6.5-18.3,15.4-27.2,22.2c-0.2-0.1-0.3,0.1-0.2-0.2c-0.2,0.1-0.1,0.2-0.1,0.3c-0.6,0.3-0.6,0.2-1.2,0.5
			c-1.2,0.6-2.8,1.9-3.7,1.9c1.8-1,3.9-2.1,5.4-3.4c-1.4,0.4-3,1.9-4.3,1.9c-0.4,0.7-1.1,0.4-1.1,1
			C-373,473.5-373.9,475-374.5,475.2z M-382.7,477.4l0.9-0.7C-381.8,476.4-382.7,477.4-382.7,477.4z M-378.4,472.7
			c-0.2,0.3-0.5,0.3-0.4,0.6C-378.5,473.1-378,473-378.4,472.7z M-364.4,469.1c0.4-0.3,0.3-0.4,0.7-0.6
			C-363.9,468.3-364.5,468.9-364.4,469.1z M-365.4,469.9c0.2-0.2,0.7-0.4,0.5-0.6C-365,469.3-365.5,469.7-365.4,469.9z
			 M-310.6,417.4c-0.5,0.3-1.6,0.7-1.3,1.2C-311.2,418.1-310.8,417.7-310.6,417.4z M-376,476.1c-0.1,0.2-0.3,0-0.5,0.5
			c-0.3-0.2,0.3-0.3,0.4-0.6C-376,476.1-376,476.2-376,476.1z M-378,476.6C-378,476.7-378.2,476.8-378,476.6c0-0.2,0.3-0.4,0.6-0.7
			C-377.2,476.3-378,476.3-378,476.6z M-382.5,476.3c-0.1-0.3,0.5-0.5,0.5-0.7C-381.7,475.6-382.4,476.1-382.5,476.3z M-306.2,415.1
			c-0.2,0.2-1.3,0.5-1.3,0.2C-307.1,415.2-306.6,415.4-306.2,415.1z"/>
	</g>
</g>
<g>
	<g>
		<path class="st0" d="M-288.4,426.2c-0.1,0.2,0.2,0.4,0.3,0.6C-287.6,426.6-288.1,426.6-288.4,426.2z M-219.5,478.8
			c-0.1-0.2-0.2-0.3,0-0.5c0.3,0,0.6,0.1,0.9,0.3C-218.9,479.1-219.2,478.4-219.5,478.8z M-289.4,424.8c0.1-0.3-0.4-0.5-0.3-0.7
			c0.2,0.3,0.6,0.5,0.7,0.7C-289.1,425-289.2,424.7-289.4,424.8z M-295.8,418.6c-0.8-0.2-1.3-1.2-1.8-1.4
			C-296.9,417.4-296.5,418.2-295.8,418.6z M-298.9,416.1c0.7,0.2,1.9,1.1,0.7,0.4C-298.4,416.4-298.6,416.2-298.9,416.1z
			 M-289.6,419.4c-0.2,0.1-0.8-0.4-0.8-0.5C-290.1,418.9-290,419.1-289.6,419.4z M-292.8,417.1c0.1-0.3,0.3-0.1,0.6,0.1
			C-292.4,417.3-292.6,417.2-292.8,417.1z M-287.5,420.1c0.1-0.2,0.5,0.5,0.7,0.2C-286.6,420.7-287.4,420.3-287.5,420.1z
			 M-274.4,426.1c0.2-0.4,1.1,0.4,1.1,0.7C-273.6,426.7-274,426.5-274.4,426.1z M-235.4,469.5c0.2-0.1,0.7,0.4,1,0.4
			C-234.8,469.8-235.1,469.8-235.4,469.5z M-227,474.6C-226.9,474.6-227,474.5-227,474.6c-1.2-1.3-3.3-2.9-4.1-3.8
			c2,1.8,4.1,3.3,5.2,5.1c0.7,1,0.9,2.1,2.3,2.1c-0.3,0.2-0.8,0.1-1.1,0c-0.9-0.5-1-2.1-1.8-3c-0.4-0.5-0.9-0.3-1.2-0.8
			C-227.5,474.2-227.2,474.5-227,474.6z M-288.9,425.1c0.1-0.3,0.5,0.2,0.6,0.3c-0.1-0.2,0-0.4-0.4-0.6c0.2,0,0.3-0.2,0.5,0.1
			c-0.6-1-1-0.9-1.7-1.6c0.1-0.1,0.2,0,0.3-0.1c-0.5-0.7-1.5-1.5-2.5-1.8c0.1-0.2,0.3,0,0.6,0.2c0-0.3-0.9-0.7-0.2-0.6
			c-0.6-0.5-0.7-0.2-1.2-0.8c0.8,0.3,1,0.2,1.7,0.7c0-0.2-0.3-0.3-0.3-0.4c0.3-0.2,0.4,0.3,0.7,0.4c-0.9-1-2.2-1.9-3.4-2.7
			c0.4,0.1,1.2,0.6,2,1.1c-0.3-0.4-1.1-0.9-1.6-1.4c0.7,0.2,0-0.3-0.1-0.5c3,1.9,3.9,2.5,7.3,4.4c-0.6-0.4-0.8-0.7-1.4-0.9
			c-0.1,0-0.1-0.4,0-0.3c0-0.2-0.6-0.1-0.5-0.5c0.7-0.2,1.9,0.9,2.8,1.1c0-0.1-0.3-0.2,0-0.4c-0.4-0.2,0,0.4-0.6-0.1
			c0.8-0.3,1.4,0.6,1.9,0.8s1,0.5,1.7,1c-0.1-0.5-1.3-1-1.9-1.5c-0.1-0.2,0.1-0.1,0.2,0c1.2,0.8,3.5,2,4.6,2.8
			c-0.2-0.6-0.9-0.7-1.7-1.3c0.1-0.1,0.2,0,0.3,0.1c-1.1-0.9-3.5-2.5-5.3-3.3c-0.6-0.3-1-0.3-1.5-0.5c-0.4-0.2-1.2-0.9-1.9-0.7
			c-0.4-0.6-0.7-0.5-1.3-0.6c0-0.1,0.3-0.1,0.1-0.2c-0.3-0.2-0.3,0.2-0.5,0.1c-0.1-0.1-0.3-0.6-0.7-0.6c0.3-0.3-0.7-0.4-1.2-0.8
			c0.1,0.2,0.5,0.5,0.4,0.8c-1.1-0.3-1.7-1.1-2.7-1.7c0.8,0.3,1.8,1.1,2.5,1.6c0-0.3-0.5-0.6-0.9-0.9c5,1.1,12.9,5,17.9,8.9
			c-0.3,0.4,0.6,1.3,1.4,1.9c-0.3,0-0.2,0.2-0.5,0.2c-0.1-0.2-0.6-0.3-0.9-0.6c0.2,0.4,1.6,1.1,2.3,1.7c0.1-0.2-0.3-0.2-0.5-0.4
			c-0.1-0.2,0.8,0.5,1.1,0.4c-0.5-0.7-0.8-0.8-1.4-1.1c0.4-0.3,1.7,1.3,2.3,1.5c0.3,0.3-0.2,0.2-0.4,0c0.8,0.7,1.7,1.5,2.5,1.8
			c-0.3-0.2-1-0.8-1.8-1.4c0.8,0.1,1.6,1.2,2.6,1.7c-0.1,0.3-0.3,0.1-0.6-0.1c0,0.4,0.6,0.5,0.8,0.2c0.2,0.3,0.6,0.6,0.9,0.6
			c-1.4-0.9-2.5-2.3-4-3.2c0,0.1,0.2,0.2,0.4,0.3c-0.3,0.2-1-0.7-1.8-1.1c0.1,0,0.2,0,0.4,0c-0.4-0.6-1.8-1.1-2.2-1.8
			c3.4,2.3,6.9,4.5,10.1,7.4c-0.7-0.1-1.7-1-2.5-1.3c0.3,0.3,1.4,1.2,1.8,1.4c-0.9-0.1-1.7-1.4-2.7-1.7c4,3.2,7.4,5.6,12,8.7
			c-1.7-1.4-3.1-2.2-4.5-3.3c0.1-0.1,0.2-0.1,0.4,0c-0.9-0.7-2.9-2-3.8-2.9c0.2-0.1,0.6,0.4,0.7,0.5c-0.3-0.4-0.9-0.8-1.5-1.3
			c2.7,1.2,5,3,7.8,4.5c0,0.1,0.3,0.2,0,0.4c5.5,4.2,11.6,8.2,16,12.2c0.2,0.1,0.3-0.1,0.5,0.1c2.4,2.5,6.3,4.4,9.1,7.3
			c0.8,0.9,2.2,1.3,2.5,2.3c2.6,1.8,6.7,4.9,7.9,7.1l0.6,0.6c0.1,0.3-0.1,0.5,0.2,0.8c0.7,0.1,1.1,0.9,1.7,1.6c0.2,0,0.3,0,0.4-0.1
			c-0.5,0-0.2-0.2-0.7-0.6c0-0.1,0.8,0.4,1,0.6c-0.3,0-0.2,0.6-0.5,0.2c0.2,0.6,0.8,1.2,1.7,1.8c-0.2,0.2-0.2-0.1-0.5-0.2
			c0.3,0.5,0.2,1.2,1.1,1.5c-0.6,0.4,0.7,1.4-0.1,2c-0.1,0.1,0.3,0.3,0.3,0.4c-0.4,0.2,0.3,1-0.6,1.4c-0.6-0.5-1.5,0.5-2.3,0.6
			c-0.1,0.3,0.6,0.2,0.2,0.4c-0.5-0.6-1.3-0.5-1.8-0.5c-0.6-0.4-0.5-0.8-0.8-1.2c-1.1-0.4-1.8-0.3-2.7-1.2c-0.2-0.2-0.3-0.4-0.5-0.6
			c-0.2-0.1-0.4,0-0.4,0c-0.1-0.1-0.2-0.3-0.3-0.4c-0.3-0.2-0.8-0.1-1-0.2c-0.2-0.1-0.4-0.6-0.5-0.7c-0.5-0.5-1.1-0.7-1.8-1.2
			c-3.3-2.5-7.1-5.9-10.8-8.6c-1-0.7-2.1-1.6-3-2.3c-3.9-3.2-7.9-6.3-12.2-9.3c-0.1-0.1-0.9-0.8-1.6-1.3c-8-5.7-18.7-13-27.3-19.3
			c0-0.2-0.3-0.2,0-0.3c-0.2-0.1-0.2,0-0.3,0.1c-0.3-0.4-0.3-0.4-0.7-0.9c-0.8-1-2.5-2-2.7-2.9c1.5,1.3,3,3,4.5,4.1
			c-0.7-1.2-2.5-2.2-2.8-3.5c-0.7-0.2-0.7-0.8-1.2-0.8C-286.9,426-288.6,425.6-288.9,425.1z M-293.1,418.2l0.9,0.6
			C-292,418.7-293.1,418.1-293.1,418.2z M-287.5,420.8c-0.4,0-0.3-0.4-0.7-0.2C-287.9,420.8-287.6,421.1-287.5,420.8z M-280.6,432.9
			c0.4,0.2,0.5,0.2,0.7,0.5C-279.6,433.1-280.5,432.8-280.6,432.9z M-281.6,432.2c0.2,0.1,0.5,0.5,0.7,0.4
			C-281,432.3-281.4,432.1-281.6,432.2z M-219.5,470.1c-0.4-0.3-1-1.3-1.4-1C-220.2,469.5-219.9,470.1-219.5,470.1z M-290.1,424
			c-0.2,0-0.2-0.2-0.6-0.4c0-0.3,0.4,0.1,0.7,0.2C-290.1,423.9-290.1,423.9-290.1,424z M-291.1,422.3c-0.1,0.1-0.1,0-0.1-0.1
			c0.2,0,0.6,0.3,0.8,0.5C-290.6,423-290.8,422.1-291.1,422.3z M-292,418c0.3-0.2,0.6,0.4,0.8,0.3C-291.1,418.6-291.8,418.1-292,418
			z M-216.5,473.6c-0.2-0.1-0.7-1.1-0.5-1.2C-216.7,472.9-216.7,473.3-216.5,473.6z"/>
	</g>
</g>
</svg>
