<?xml version="1.0" encoding="utf-8"?>
<!-- Generator: Adobe Illustrator 19.0.0, SVG Export Plug-In . SVG Version: 6.00 Build 0)  -->
<svg version="1.1" id="Layer_1" xmlns="http://www.w3.org/2000/svg" xmlns:xlink="http://www.w3.org/1999/xlink" x="0px" y="0px"
	 viewBox="-150 161 199 180" style="enable-background:new -150 161 199 180;" xml:space="preserve">
<style type="text/css">
	.st0{fill:#EA8A8A;}
	.st1{fill:none;stroke:#000000;stroke-miterlimit:10;}
</style>
<g>
	<g>
		<path class="st0" d="M20.2,320.7c0.2-0.1,0.3-0.5,0.3-0.7C20.1,319.9,20.4,320.4,20.2,320.7z M20,222.6c-0.1,0.2-0.1,0.4-0.4,0.4
			c-0.2-0.3-0.3-0.5-0.4-1C19.7,221.8,19.5,222.6,20,222.6z M19.6,322.6c-0.3,0.1-0.1,0.7-0.4,0.7c0.2-0.4,0.1-0.9,0.2-1.1
			C19.6,322.2,19.5,322.6,19.6,322.6z M18,332.4c0.2,0.9-0.2,1.9-0.2,2.6C17.6,334.2,18,333.4,18,332.4z M17.6,336.9
			c-0.2-0.7,0-2.5,0-0.9C17.6,336.3,17.6,336.6,17.6,336.9z M15.3,326.2c0.2,0.1,0.1,1,0,1.1C15.1,327,15.2,326.7,15.3,326.2z
			 M15.1,330.5c-0.3,0.1-0.3-0.3-0.3-0.6C15,330,15.1,330.2,15.1,330.5z M14.7,323.7c-0.2,0,0.1-0.8-0.2-0.8
			C14.7,322.5,14.8,323.6,14.7,323.7z M12.2,307.7c-0.4-0.1-0.3-1.2-0.1-1.5C12.2,306.6,12.3,307.2,12.2,307.7z M23.1,243.2
			c-0.2-0.2-0.1-0.8-0.3-1.1C23,242.3,23.1,242.6,23.1,243.2z M21.6,232.1c-0.1,0-0.1,0-0.1,0.1c-0.2,1.9,0,4.8-0.2,6.3
			c0-3-0.1-6,0.5-8.3c0.3-1.3,1-2.4,0.2-3.5c0.3,0.1,0.6,0.6,0.7,1c0.2,1.2-1,2.5-1,3.8c0,0.7,0.3,0.9,0.2,1.6
			C21.7,232.8,21.7,232.4,21.6,232.1z M19.6,322c-0.4,0-0.1-0.5-0.1-0.8c-0.1,0.2-0.4,0.3-0.3,0.7c-0.1-0.2-0.3-0.2-0.3-0.5
			c-0.5,1.2-0.2,1.6-0.4,2.6c-0.1,0-0.1-0.2-0.2-0.3c-0.2,0.9-0.3,2.4-0.1,3.5c-0.2,0-0.2-0.3-0.2-0.6c-0.3,0.1-0.1,1.2-0.4,0.6
			c0,0.9,0.2,0.8,0.1,1.6c-0.2-0.9-0.4-1.1-0.4-2.1c-0.1,0.1-0.1,0.4-0.2,0.6c-0.3-0.2,0.1-0.5,0-0.9c-0.4,1.5-0.4,3.2-0.4,4.9
			c-0.1-0.5-0.2-1.5-0.2-2.5c-0.2,0.6-0.2,1.6-0.3,2.4c-0.2-0.8-0.2,0.1-0.3,0.5c-0.1-4-0.2-5.3-0.4-9.6c0,0.8-0.1,1.2,0,1.9
			c0,0.2-0.3,0.4-0.3,0.1c-0.1,0.1,0.3,0.6-0.1,0.7c-0.6-0.5-0.3-2.3-0.6-3.2c-0.1,0.1-0.1,0.4-0.4,0.2c0,0.5,0.4-0.2,0.3,0.6
			c-0.7-0.6-0.3-1.7-0.4-2.4c0-0.6-0.2-1.3-0.1-2.2c-0.4,0.5-0.1,1.9-0.2,2.7c-0.1,0.2-0.1-0.1-0.1-0.3c-0.1-1.6-0.3-4.5-0.3-6
			c-0.4,0.6-0.1,1.4-0.1,2.5c-0.1,0-0.1-0.2-0.1-0.4c-0.2,1.6,0,4.9,0.3,7c0.1,0.6,0.3,1.1,0.4,1.6c0,0.5,0,1.7,0.4,2.2
			c-0.2,0.8,0,1.1,0.3,1.6c-0.2,0-0.2-0.2-0.3,0c-0.1,0.4,0.3,0.2,0.4,0.4c-0.1,0.2-0.4,0.7-0.1,1c-0.4-0.1,0,0.9,0.1,1.6
			c0.1-0.3,0.1-0.8,0.3-0.9c0.3,1.2,0,2.3,0,3.6c-0.2-0.9,0-2.4,0-3.4c-0.3,0.1-0.2,0.9-0.3,1.4c-1.8-5.4-2.9-15.1-2.7-22.2
			c0.5,0,0.7-1.5,0.7-2.5c0.2,0.3,0.3,0.1,0.5,0.4c-0.1,0.2,0.1,0.7,0,1.2c0.3-0.5,0-2.2,0.1-3.2c-0.2,0,0,0.4-0.1,0.6
			s-0.1-1-0.3-1.2c-0.2,0.9-0.1,1.3-0.1,2c-0.5-0.2,0.1-2.4-0.2-3.1c0.1-0.4,0.3,0.1,0.2,0.4c0.1-1.2,0.2-2.5,0.1-3.5
			c-0.1,0.4-0.1,1.5-0.1,2.6c-0.4-0.7,0.1-2.3-0.1-3.5c0.3-0.1,0.3,0.3,0.3,0.6c0.3-0.3,0-0.9-0.3-0.9c0.1-0.4,0.1-0.9-0.1-1.2
			c0.2,1.9-0.5,3.9-0.3,5.7c0.1,0,0.1-0.3,0.1-0.5c0.3,0.2,0,1.4,0.1,2.4c-0.1-0.1-0.1-0.2-0.2-0.4c-0.2,0.8,0.1,2.3-0.2,3.1
			c-0.1-4.7-0.3-9.3,0.2-14c0.4,0.7,0.1,2.2,0.4,3.1c0.1-0.4,0.1-2,0.1-2.6c0.4,0.8-0.1,2.5,0.2,3.6c0.2-5.7,0.2-10.4-0.1-16.6
			c-0.1,2.5,0.1,4.2,0.1,6.2c-0.1-0.1-0.2-0.2-0.2-0.4c-0.1,1.3,0.1,4-0.1,5.4c-0.2-0.1,0-0.7-0.1-1c-0.1,0.6-0.2,1.3-0.2,2.1
			c-0.5-3.2-0.5-6.5-1-10c0.1-0.1,0.1-0.4,0.4-0.2c0.1-7.7-0.4-15.8,0-22.5c0-0.3-0.2-0.2-0.3-0.5c0.5-3.9-0.5-8.6,0.1-13
			c0.2-1.3-0.3-2.8,0.2-3.9c-0.2-3.5-0.5-9.2,0.4-11.9v-1c0.2-0.3,0.4-0.4,0.5-0.8c-0.4-0.6,0-1.6,0.2-2.6c-0.1-0.2-0.2-0.2-0.4-0.2
			c0.3,0.5,0,0.3,0,1.1c-0.1,0.1-0.1-1-0.2-1.4c0.2,0.3,0.5-0.3,0.5,0.2c0.3-0.7,0.4-1.6,0.3-2.8c0.3,0.1,0,0.3,0.2,0.5
			c0.2-0.7,0.7-1.1,0.3-2c0.7,0.2,0.6-1.7,1.6-1.4c0.2,0,0-0.4,0.1-0.6c0.4,0.2,0.6-1,1.5-0.6c0,0.9,1.4,0.9,1.9,1.5
			c0.3-0.1-0.2-0.6,0.2-0.5c-0.1,0.8,0.5,1.4,0.8,2c0.1,0.8-0.3,1-0.4,1.5c0.4,1.2,0.9,1.8,0.8,3.2c0,0.3-0.1,0.6-0.1,0.9
			s0.2,0.4,0.2,0.4c0,0.1-0.2,0.4-0.2,0.6c0,0.4,0.4,0.8,0.4,1s-0.2,0.8-0.2,1c0,0.8,0.2,1.5,0.2,2.4c0.2,4.7,0,10.5,0.2,15.8
			c0.1,1.4,0.1,3,0.1,4.4c-0.1,5.8,0,11.5,0.2,17.4c0,0.2-0.1,1.4-0.1,2.3c0.3,11.1,0.8,25.9,0.4,38c-0.2,0.1-0.1,0.4-0.3,0.1
			c0,0.2,0.1,0.2,0.2,0.3c-0.1,0.6-0.2,0.6-0.3,1.2c-0.3,1.4-0.3,3.6-0.9,4.4c0.3-2.2,0.8-4.6,0.8-6.9c-0.6,1.4-0.4,3.9-1.3,4.9
			c0.3,0.8-0.3,1.2,0.1,1.6C19.2,319.5,19.8,321.3,19.6,322z M16.2,330.2V329C15.9,328.8,16.2,330.2,16.2,330.2z M15.3,323.3
			c0.2,0.4-0.1,0.6,0.2,0.7C15.4,323.7,15.7,323.3,15.3,323.3z M21.3,309.2c0-0.6-0.2-0.6,0-1C20.9,308.2,21.1,309.2,21.3,309.2z
			 M21.3,310.6c-0.1-0.3,0.1-0.8-0.1-0.9C21,309.9,21.1,310.5,21.3,310.6z M13.3,228.9c0,0.6-0.4,1.8,0.2,1.9
			C13.5,230.1,13.5,229.3,13.3,228.9z M19.4,323.7c0.1,0.2-0.2,0.3,0,0.8c-0.3,0.1-0.1-0.5-0.2-0.8
			C19.3,323.8,19.4,323.9,19.4,323.7z M18.5,325.8c0.1,0.1,0,0.1-0.1,0.1c-0.1-0.2-0.1-0.7-0.1-1.1
			C18.7,324.9,18.2,325.6,18.5,325.8z M15.4,329.3c-0.3-0.1,0-0.7-0.2-0.9C15.4,328.1,15.4,329,15.4,329.3z M14.1,223.8
			c0.1,0.3-0.4,1.4-0.6,1.3C13.7,224.6,14,224.3,14.1,223.8z"/>
	</g>
</g>
<g>
	<g>
		<path class="st0" d="M-2.7,176.2c-0.2,0-0.3,0.1-0.3,0.2C-2.6,176.4-2.9,176.3-2.7,176.2z M-3.3,201.3c0.1,0,0.1-0.1,0.4-0.1
			c0.2,0.1,0.3,0.1,0.4,0.3C-3,201.5-2.7,201.3-3.3,201.3z M-2.1,175.8c0.3,0,0.1-0.2,0.4-0.2c-0.2,0.1-0.1,0.2-0.2,0.3
			C-2.1,175.9-1.9,175.8-2.1,175.8z M-0.3,173.3c-0.2-0.2,0.2-0.5,0.2-0.7C0.2,172.9-0.3,173.1-0.3,173.3z M0.2,172.2
			c0.2,0.2,0,0.6,0,0.2C0.2,172.3,0.2,172.2,0.2,172.2z M2.5,175c-0.2,0-0.1-0.3,0-0.3C2.8,174.8,2.6,174.9,2.5,175z M2.8,173.9
			c0.3,0,0.3,0.1,0.3,0.2C2.9,174,2.8,174,2.8,173.9z M3.1,175.6c0.2,0-0.1,0.2,0.2,0.2C3.1,175.9,3,175.7,3.1,175.6z M5.7,179.8
			c0.4,0,0.3,0.3,0.1,0.4C5.7,180.1,5.6,179.9,5.7,179.8z M-6.4,195.9c0.2,0.1,0.1,0.2,0.3,0.3C-6.3,196.1-6.4,196.1-6.4,195.9z
			 M-4.9,198.8C-4.8,198.8-4.8,198.8-4.9,198.8c0.3-0.5,0.1-1.2,0.4-1.6c0,0.8,0.1,1.5-0.6,2.1c-0.3,0.3-1.1,0.6-0.2,0.9
			c-0.3,0-0.6-0.2-0.7-0.3c-0.2-0.3,1.1-0.6,1.1-0.9c0-0.2-0.3-0.2-0.2-0.4C-5,198.6-5,198.7-4.9,198.8z M-2.1,175.9
			c0.4,0,0.1,0.1,0.1,0.2c0.1,0,0.4-0.1,0.3-0.2c0.1,0.1,0.3,0.1,0.3,0.1c0.5-0.3,0.2-0.4,0.4-0.7c0.1,0,0.1,0.1,0.2,0.1
			c0.2-0.2,0.3-0.6,0.1-0.9c0.2,0,0.2,0.1,0.2,0.2c0.3,0,0.1-0.3,0.4-0.1c0-0.2-0.2-0.2-0.1-0.4c0.2,0.2,0.4,0.3,0.4,0.5
			c0.1,0,0.1-0.1,0.2-0.1c0.3,0.1-0.1,0.1,0,0.2c0.4-0.4,0.4-0.8,0.5-1.2c0.1,0.1,0.2,0.4,0.2,0.6c0.2-0.1,0.2-0.4,0.3-0.6
			c0.2,0.2,0.2,0,0.3-0.1c0.1,1,0.2,1.4,0.3,2.5c0-0.2,0.1-0.3,0-0.5c0-0.1,0.3-0.1,0.3,0c0.1,0-0.3-0.2,0.1-0.2
			c0.6,0.1,0.3,0.6,0.6,0.8c0.1,0,0.1-0.1,0.4,0c0-0.1-0.4,0-0.3-0.2c0.7,0.2,0.3,0.4,0.4,0.6c0,0.2,0.2,0.3,0.1,0.6
			c0.4-0.1,0.1-0.5,0.2-0.7c0.1,0,0.1,0,0.1,0.1c0.1,0.4,0.3,1.2,0.3,1.5c0.4-0.1,0.1-0.4,0.1-0.6c0.1,0,0.1,0.1,0.1,0.1
			c0.2-0.4,0-1.3-0.3-1.8c-0.1-0.2-0.3-0.3-0.4-0.4c0-0.1,0-0.4-0.4-0.6c0.2-0.2,0-0.3-0.3-0.4c0.2,0,0.2,0.1,0.3,0
			c0.1-0.1-0.3-0.1-0.4-0.1c0.1,0,0.4-0.2,0.1-0.3c0.4,0,0-0.2-0.1-0.4c-0.1,0.1-0.1,0.2-0.3,0.2c-0.3-0.3,0-0.6,0-0.9
			c0.2,0.2,0,0.6,0,0.9c0.3,0,0.2-0.2,0.3-0.3c1.9,1.4,3,4,2.7,5.8c-0.5,0-0.8,0.4-0.8,0.6c-0.2-0.1-0.3,0-0.5-0.1
			c0.1,0-0.1-0.2,0-0.3c-0.3,0.1,0,0.6-0.1,0.8c0.2,0,0-0.1,0.1-0.1s0.1,0.3,0.3,0.3c0.2-0.2,0.1-0.3,0.1-0.5
			c0.5,0.1-0.1,0.6,0.2,0.8c-0.1,0.1-0.3,0-0.2-0.1c-0.1,0.3-0.2,0.6-0.1,0.9c0.1-0.1,0.1-0.4,0.1-0.7c0.4,0.2-0.1,0.6,0.1,0.9
			c-0.3,0-0.3-0.1-0.3-0.2c-0.3,0.1,0,0.2,0.3,0.2c-0.1,0.1-0.1,0.2,0.1,0.3c-0.2-0.5,0.6-1,0.4-1.4c-0.1,0-0.1,0.1-0.1,0.1
			c-0.3-0.1,0-0.4-0.1-0.6c0.1,0,0.1,0.1,0.2,0.1c0.2-0.2-0.1-0.6,0.2-0.8c0.1,1.2,0.2,2.4-0.3,3.6c-0.4-0.2-0.1-0.6-0.4-0.8
			c-0.1,0.1-0.1,0.5-0.1,0.7c-0.4-0.2,0.1-0.6-0.2-0.9c-0.3,1.4-0.3,2.6,0,4.2c0.1-0.6-0.1-1.1-0.1-1.6c0.1,0,0.2,0.1,0.2,0.1
			c0.1-0.3-0.1-1,0.1-1.4c0.2,0,0,0.2,0.1,0.3c0.1-0.1,0.2-0.3,0.2-0.5c0.5,0.8,0.5,1.7,1,2.6c-0.1,0-0.1,0.1-0.4,0
			c-0.2,2,0.3,4-0.2,5.7c0,0.1,0.2,0.1,0.3,0.1c-0.6,1,0.5,2.2-0.2,3.3c-0.2,0.3,0.3,0.7-0.2,1c0.2,0.9,0.5,2.4-0.5,3v0.3
			c-0.2,0.1-0.4,0.1-0.5,0.2c0.4,0.2,0,0.4-0.2,0.7c0.4,0,0.5,0,0.7,0c-0.3-0.1,0-0.1,0-0.3c0.1,0,0.1,0.3,0.2,0.4
			c-0.2-0.1-0.5,0.1-0.5,0c-0.3,0.2-0.4,0.4-0.3,0.7c-0.3,0,0-0.1-0.2-0.1c-0.2,0.2-0.8,0.3-0.3,0.5c-0.7-0.1-0.6,0.4-1.7,0.3
			c-0.2,0,0,0.1-0.1,0.1c-0.4-0.1-0.6,0.2-1.6,0.1c0-0.2-1.5-0.3-2-0.4c-0.3,0,0.2,0.2-0.2,0.1c0.1-0.2-0.5-0.4-0.8-0.5
			c-0.1-0.2,0.3-0.2,0.4-0.4c-0.4-0.3-0.9-0.5-0.8-0.8c0-0.1,0.1-0.1,0.1-0.2c0-0.1-0.2-0.1-0.2-0.1l0.2-0.1c0-0.1-0.4-0.2-0.4-0.3
			s0.2-0.2,0.2-0.2c0-0.2-0.2-0.4-0.2-0.6c-0.2-1.2,0.1-2.7-0.1-4c-0.1-0.4-0.1-0.8-0.1-1.1c0.2-1.5,0.1-2.9-0.1-4.4
			c0-0.1,0.1-0.4,0.1-0.6c-0.2-2.8-0.6-6.6-0.1-9.7c0.2,0,0.1-0.1,0.3,0c0-0.1-0.1-0.1-0.2-0.1c0.1-0.1,0.2-0.1,0.3-0.3
			c0.3-0.3,0.3-0.9,1-1.1c-0.3,0.6-0.9,1.1-0.9,1.7c0.6-0.3,0.5-1,1.4-1.2c-0.3-0.2,0.3-0.3-0.1-0.4C-1.7,176.6-2.3,176.1-2.1,175.9
			z M1.6,173.9v0.3C1.9,174.3,1.6,173.9,1.6,173.9z M2.5,175.7c-0.2-0.1,0.1-0.1-0.2-0.2C2.4,175.6,2.1,175.7,2.5,175.7z M-4,179.1
			c0,0.2,0.2,0.2,0,0.3C-3.5,179.4-3.7,179.1-4,179.1z M-3.9,178.8c0.1,0.1-0.1,0.2,0.1,0.2C-3.6,179-3.7,178.8-3.9,178.8z
			 M3.9,199.9c0-0.2,0.4-0.4-0.2-0.5C3.7,199.6,3.7,199.8,3.9,199.9z M-1.8,175.5c-0.1-0.1,0.2-0.1,0-0.2c0.3,0,0.1,0.1,0.2,0.2
			C-1.7,175.5-1.8,175.4-1.8,175.5z M-0.9,175c-0.1,0,0,0,0.1,0c0.1,0.1,0.1,0.2,0.1,0.3C-1.1,175.2-0.5,175-0.9,175z M2.5,174.2
			c0.3,0,0,0.2,0.2,0.2C2.4,174.5,2.5,174.3,2.5,174.2z M3,201.2c-0.1-0.1,0.4-0.3,0.6-0.3C3.4,201,3.1,201,3,201.2z"/>
	</g>
</g>
<g>
	<path class="st0" d="M-47.3,245.4c0.5,0.9,0.8,1.8,0.8,2.8s0,1.9,0.2,3c0.1,0.2,0.1,0.4,0.2,0.6s0.1,0.3,0.1,0.6c0,0.1,0,0.2,0,0.4
		h-0.1c0,1.3,0.2,2.5,0.4,3.5c0.2,1.1,0.3,2.2,0.4,3.3c0.1,0.3,0.1,0.7,0.1,1.2c-0.2,0.3-0.2,0.8,0,1.6c0,0.2-0.1,0.4-0.1,0.4
		c-0.1,0-0.1,0.1-0.1,0.2c0,0.7,0.1,1.3,0.3,1.9c0.2,0.5,0.3,1.2,0.3,1.9c0,0.1-0.1,0.2-0.2,0.2c0,0.1-0.1,0.3,0,0.4
		c0,0.6,0,1.1,0.1,1.6s0.1,1,0.1,1.6c0.1,0.5,0.1,1.1,0.3,1.8c0.1,0.7,0.2,1.4,0.1,2c-0.1,0.3-0.1,0.6,0.1,0.9
		c0.2,0.4,0.2,0.9,0.3,1.6c0,0.2-0.1,0.4-0.2,0.6s-0.2,0.4-0.2,0.6c0,0.6,0.1,1.2,0.3,1.7s0.3,1.1,0.4,1.8c0,0.1-0.1,0.2-0.2,0.2
		s-0.1,0.1,0,0.4c0,0.2,0,0.4,0.1,0.6s0.1,0.3,0.2,0.4c0.1,1.3,0.2,2.6,0.3,3.9s0.2,2.8,0.2,4.3l-0.2,0.1l-0.2,0.6
		c0.1,0.6,0.2,1,0.4,1.3s0.2,0.7,0.1,1.2c0,0.2-0.1,0.5-0.2,0.7c-0.1,0.2-0.2,0.4-0.2,0.7c0,0.5,0.1,1,0.3,1.7s0.3,1.3,0.3,1.9
		c0,0.1,0,0.2-0.1,0.2s-0.1,0.1,0,0.4c0,0.3,0.1,0.6,0.1,0.8c0.1,0.2,0,0.3-0.1,0.4c0,0.2-0.1,0.4-0.3,0.5c-0.2,0.1-0.3,0.3-0.2,0.7
		c0.5,0.9,0.8,1.8,0.8,2.6c0,0.8,0,1.6,0.1,2.5c0,0.1,0.1,0.3,0.2,0.5s0.1,0.4,0.1,0.7c-0.1-0.1-0.2-0.1-0.3-0.1s-0.1,0.1-0.1,0.2
		c0,0.1,0.1,0.3,0.2,0.5s0.1,0.4,0.1,0.5l-0.5,0.1c0,0.3,0.2,0.7,0.5,1.2c0.3,0.4,0.3,0.7-0.1,0.8c0.4,1.2,0.6,1.9,0.7,2.2
		c0.1,0.3,0.4,0.8,0.7,1.7c-0.2,0.3-0.2,0.7,0,1.2s0.2,1.1,0.2,1.5c0,0.1-0.1,0.2-0.2,0.2s-0.1,0.2,0,0.5c0.2,0.7,0.3,1.6,0.2,3
		c-0.1,1.3-0.4,2.3-0.9,2.9c-0.3,0-0.5,0.2-0.5,0.5s-0.1,0.6-0.4,0.7c-0.2,0.1-0.4,0-0.6-0.3c-0.2-0.2-0.4-0.3-0.7-0.2
		c-1.1,0.1-2.3,0.2-3.6,0.3c-1.3,0.1-2.6,0-3.8-0.2c-0.7-1.6-1.2-3.1-1.4-4.7c-0.2-1.6-0.4-3.1-0.6-4.4c-0.2-1.3-0.4-2.7-0.6-4
		s-0.1-2.5,0.3-3.5c-0.3-0.9-0.5-1.7-0.7-2.5s-0.3-1.7-0.4-2.7c0-0.3,0-0.9-0.1-1.7c0-0.8,0-1.5-0.1-2.2c0-0.2,0-0.4-0.1-0.5
		c-0.1-0.1-0.1-0.2-0.2-0.3c0-0.2,0.1-0.4,0.2-0.4s0.2-0.1,0.1-0.2c-0.1-0.9-0.2-1.7-0.3-2.4c-0.1-0.7-0.2-1.3-0.3-1.9
		c0-0.2,0-0.4-0.1-0.6s-0.2-0.3-0.2-0.6c0-0.1,0.2-0.3,0.4-0.6c0.2-0.2,0.3-0.4,0.3-0.5c0-0.6-0.1-1.2-0.4-1.8
		c-0.2-0.6-0.3-1.2-0.3-1.7c-0.2-1-0.3-2.1-0.4-3.4c0-0.5,0.1-0.8,0.2-0.9c0.1-0.1,0.1-0.5,0-1.3c0-0.1-0.1-0.6-0.2-1.5
		c0-0.2,0-0.4,0.1-0.4c0,0,0.1-0.1,0.1-0.2c0.1-0.5,0.1-1.2,0-2.1c-0.1-0.9-0.2-1.8-0.3-2.7c0-0.7,0-1.2,0-1.6
		c0-0.2,0.1-0.5,0.2-0.7c0.1-0.2,0.2-0.4,0.2-0.7c0-0.5,0-1-0.1-1.5s-0.1-1,0.1-1.5c0-0.2,0.1-0.5,0.2-0.8c0.1-0.3,0.1-0.5,0.2-0.8
		c0-0.2-0.1-0.5-0.3-0.8s-0.3-0.7-0.3-1.2c0-0.1,0-0.2,0.2-0.4c0.2-0.2,0.3-0.4,0.3-0.6c0-0.6-0.1-1.1-0.1-1.6
		c-0.1-0.4-0.1-1-0.1-1.8c0-0.1,0.1-0.3,0.2-0.5c0.1-0.2,0.2-0.4,0.2-0.7c0-0.5-0.1-1.1-0.4-1.8c-0.3-0.7-0.1-1.1,0.5-1
		c-0.2-0.5-0.3-1-0.3-1.3c-0.1-0.3,0-0.8,0.1-1.3c0-0.1,0-0.4,0-0.7c-0.1-0.3-0.1-0.6-0.1-0.9c0.1,0,0.2,0,0.4,0s0.2,0,0.2-0.2
		c0.2-0.3,0.1-0.5-0.1-0.8c-0.2-0.2-0.4-0.5-0.4-0.9c0.2-0.3,0.3-0.5,0.4-0.6c0.1-0.1,0.2-0.3,0.3-0.6c0-0.1,0-0.3-0.1-0.5
		s-0.2-0.4-0.1-0.5c0.1-0.3,0.1-0.5,0.2-0.8c0-0.2,0.1-0.5,0.2-0.8c0.1-0.4,0.2-0.7,0.3-1s0.2-0.7,0.2-1.3c1.1,0,2.4-0.2,3.7-0.8
		C-49.4,244.8-48.3,244.8-47.3,245.4z M-51.9,320.6c-0.2-0.3-0.3-0.6-0.2-0.8c0-0.2,0-0.5,0.1-0.6c0-0.2,0-0.3,0-0.4
		c0-0.1-0.2-0.2-0.5-0.2c0,0.2,0,0.7,0,1.3C-52.5,320.4-52.3,320.7-51.9,320.6z M-52.7,314.8c-0.2-0.5-0.1-1.2,0.1-1.9
		c0.2-0.7,0.1-1.1-0.4-1.2c0.2,0.5,0.2,1.1-0.2,1.7C-53.5,314.1-53.4,314.5-52.7,314.8z M-49.6,268.9c0.1,0.8,0.3,1.3,0.6,1.4
		c0.3,0.1,0.5,0.5,0.6,1.1c-0.2,0.1-0.3,0.2-0.2,0.4s0.1,0.4,0.1,0.7c0,0.1-0.1,0.3-0.3,0.5c-0.1,0.2-0.3,0.5-0.4,0.7
		c0,0.2,0,0.5,0.1,0.7s0.1,0.6,0.2,1c0,0.1-0.1,0.3-0.2,0.5s-0.2,0.4-0.2,0.7c0,0.5,0,1,0.1,1.6c0.1,0.6,0.1,1.1,0.1,1.7l-0.2,0.2
		l-0.1,0.2c-0.1,0.3-0.1,0.7-0.1,1.3s0.3,0.8,0.7,0.7c-0.2-0.4-0.3-0.7-0.2-0.9c0.1-0.2,0.1-0.4,0.1-0.6c-0.1-0.4-0.1-0.8,0-1.2
		c0.2-0.3,0.2-0.7,0.1-1c-0.1-0.2-0.1-0.3,0-0.3s0.1-0.1,0.2-0.3c0.1-0.4,0.1-0.7,0-1.1c-0.1-0.3-0.1-0.7,0-1.2
		c0.2-0.7,0.4-1.4,0.6-2.2c0.1-0.8,0.2-1.4,0.1-1.7c-0.1-0.6-0.1-1.1,0-1.7c0.1-0.6,0.1-1.1,0.1-1.7c0-0.2,0-0.6,0.1-1
		c0-0.4,0-0.9,0-1.3c0.1-0.3,0.1-0.7-0.1-1.2s-0.1-1,0.1-1.3c-0.2-0.3-0.3-0.6-0.4-0.9c-0.1-0.3-0.2-0.5-0.4-0.6
		c-0.4,1.1-0.5,2.2-0.5,3.5C-49,266.9-49.2,268-49.6,268.9z M-47.2,208.9c0.2,0.5,0.4,1.1,0.4,1.6c0,0.6,0.1,1.2,0.1,1.9
		c0,0.1,0,0.2-0.1,0.2l-0.1,0.4c0,0.3,0.1,0.7,0.2,1c0.1,0.3,0.2,0.8,0.2,1.4c0,0.6,0.1,1.2,0.1,1.7c0.1,0.6,0.1,1.2,0,1.8
		c0,0.3-0.1,0.7-0.5,1c-0.1,0.3-0.1,0.6,0,0.9s-0.1,0.5-0.5,0.5c0.3,0.4,0.4,0.7,0.3,0.9c-0.1,0.2-0.2,0.4-0.2,0.7
		c0,0.1,0.1,0.3,0.2,0.5s0.1,0.4,0.1,0.5h-0.1h-0.1c0,0.1,0,0.3,0.1,0.5s0.2,0.4,0.2,0.7l-0.4,0.1c0,0.1,0.1,0.3,0.2,0.5
		c0.1,0.2,0.1,0.4,0.1,0.5c-0.2,0.3-0.2,0.6,0.1,1c0.2,0.4,0.2,0.8,0.1,1c-0.1,0.4-0.1,1.1,0,2.1c0,0.6,0.1,1.1,0.2,1.6
		s0.2,1,0.2,1.6c-1.6,0.6-3,0.3-4.3-1c-0.6,0.1-1.2,0.1-1.7,0.2c-0.6,0.1-1.1,0-1.6-0.2c-0.3-0.3-0.6-0.6-0.9-1.1s-0.6-0.6-1-0.5
		c-0.2-1.2-0.5-2.5-1-3.7s-0.7-2.4-0.7-3.6c0-0.1,0.1-0.2,0.2-0.2s0.1-0.1,0-0.4l-0.1-0.3c0-0.1,0.2-0.3,0.3-0.6
		c-0.1-0.5-0.1-1-0.1-1.6s-0.1-1.2-0.3-1.9c-0.1-0.2-0.1-0.5-0.2-1c-0.1-0.4-0.1-0.8,0-1.1c0-0.1,0.2-0.2,0.4-0.3s0.3-0.1,0.2-0.3
		c0-0.6-0.1-1.1-0.3-1.5s-0.2-0.8-0.1-1c0.1-0.4,0.2-0.7,0.3-1s0.2-0.5,0.3-0.8s0.1-0.5,0.1-0.6c0-0.2-0.1-0.4-0.1-0.6
		c0-0.2,0.1-0.6,0.3-1.1s0.3-0.9,0.3-1.4c0.9-0.4,1.8-0.6,2.6-0.7c0.8-0.1,1.5,0.2,2.1,0.9c0.9-0.5,1.7-0.6,2.3-0.3
		C-48.4,208.2-47.8,208.5-47.2,208.9z"/>
</g>
<g>
	<path class="st1" d="M-97.6,247.9"/>
</g>
<g>
	<g>
		<path class="st0" d="M-110.1,320.7c0.2-0.1,0.3-0.5,0.3-0.7C-110.2,319.9-109.9,320.4-110.1,320.7z M-110.4,222.6
			c0,0.2-0.1,0.4-0.3,0.4c-0.2-0.3-0.3-0.5-0.4-1C-110.6,221.8-110.8,222.6-110.4,222.6z M-110.7,322.6c-0.3,0.1-0.1,0.7-0.4,0.7
			c0.2-0.4,0.1-0.9,0.2-1.1C-110.7,322.2-110.8,322.6-110.7,322.6z M-112.3,332.4c0.2,0.9-0.2,1.9-0.2,2.6
			C-112.7,334.2-112.3,333.4-112.3,332.4z M-112.7,336.9c-0.2-0.7,0-2.5,0-0.9C-112.7,336.3-112.7,336.6-112.7,336.9z M-115,326.2
			c0.2,0.1,0.1,1,0,1.1C-115.2,327-115.1,326.7-115,326.2z M-115.2,330.5c-0.3,0.1-0.3-0.3-0.3-0.6
			C-115.3,330-115.2,330.2-115.2,330.5z M-115.7,323.7c-0.2,0,0.1-0.8-0.2-0.8C-115.7,322.5-115.5,323.6-115.7,323.7z M-118.1,307.7
			c-0.4-0.1-0.3-1.2-0.1-1.5C-118.1,306.6-118.1,307.2-118.1,307.7z M-107.2,243.2c-0.3-0.2-0.2-0.8-0.3-1.1
			C-107.3,242.3-107.2,242.6-107.2,243.2z M-108.7,232.1c-0.1,0-0.1,0-0.1,0.1c-0.2,1.9,0,4.8-0.2,6.3c0-3-0.1-6,0.5-8.3
			c0.3-1.3,1-2.4,0.2-3.5c0.3,0.1,0.6,0.6,0.7,1c0.2,1.2-1,2.5-1,3.8c0,0.7,0.3,0.9,0.2,1.6C-108.6,232.8-108.6,232.4-108.7,232.1z
			 M-110.8,322c-0.4,0-0.1-0.5-0.1-0.8c-0.1,0.2-0.4,0.3-0.3,0.7c-0.1-0.2-0.3-0.2-0.3-0.5c-0.5,1.2-0.2,1.6-0.4,2.6
			c-0.1,0-0.1-0.2-0.2-0.3c-0.2,0.9-0.3,2.4-0.1,3.5c-0.2,0-0.2-0.3-0.2-0.6c-0.3,0.1-0.1,1.2-0.4,0.6c0,0.9,0.2,0.8,0.1,1.6
			c-0.2-0.9-0.4-1.1-0.4-2.1c-0.1,0.1-0.1,0.4-0.2,0.6c-0.3-0.2,0.1-0.5,0-0.9c-0.4,1.5-0.4,3.2-0.4,4.9c-0.1-0.5-0.2-1.5-0.2-2.5
			c-0.2,0.6-0.2,1.6-0.3,2.4c-0.2-0.8-0.2,0.1-0.3,0.5c-0.1-4-0.2-5.3-0.4-9.6c0,0.8-0.1,1.2,0,1.9c0,0.2-0.3,0.4-0.3,0.1
			c-0.1,0.1,0.3,0.6-0.1,0.7c-0.6-0.5-0.3-2.3-0.6-3.2c-0.1,0.1-0.1,0.4-0.4,0.2c0,0.5,0.4-0.2,0.3,0.6c-0.7-0.6-0.3-1.7-0.4-2.4
			c0-0.6-0.2-1.3-0.1-2.2c-0.4,0.5-0.1,1.9-0.2,2.7c-0.1,0.2-0.1-0.1-0.1-0.3c-0.1-1.6-0.3-4.5-0.3-6c-0.4,0.6-0.1,1.4-0.1,2.5
			c-0.1,0-0.1-0.2-0.1-0.4c-0.2,1.6,0,4.9,0.3,7c0.1,0.6,0.3,1.1,0.4,1.6c0,0.5,0,1.7,0.4,2.2c-0.2,0.8,0,1.1,0.3,1.6
			c-0.2,0-0.2-0.2-0.3,0c-0.1,0.4,0.3,0.2,0.4,0.4c-0.1,0.2-0.4,0.7-0.1,1c-0.4-0.1,0,0.9,0.1,1.6c0.1-0.3,0.1-0.8,0.3-0.9
			c0.3,1.2,0,2.3,0,3.6c-0.2-0.9,0-2.4,0-3.4c-0.3,0.1-0.2,0.9-0.3,1.4c-1.8-5.4-2.9-15.1-2.7-22.2c0.5,0,0.7-1.5,0.7-2.5
			c0.2,0.3,0.3,0.1,0.5,0.4c-0.1,0.2,0.1,0.7,0,1.2c0.3-0.5,0-2.2,0.1-3.2c-0.2,0,0,0.4-0.1,0.6s-0.1-1-0.3-1.2
			c-0.2,0.9-0.1,1.3-0.1,2c-0.5-0.2,0.1-2.4-0.2-3.1c0.1-0.4,0.3,0.1,0.2,0.4c0.1-1.2,0.2-2.5,0.1-3.5c-0.1,0.4-0.1,1.5-0.1,2.6
			c-0.4-0.7,0.1-2.3-0.1-3.5c0.3-0.1,0.3,0.3,0.3,0.6c0.3-0.3,0-0.9-0.3-0.9c0.1-0.4,0.1-0.9-0.1-1.2c0.2,1.9-0.5,3.9-0.3,5.7
			c0.1,0,0.1-0.3,0.1-0.5c0.3,0.2,0,1.4,0.1,2.4c-0.1-0.1-0.1-0.2-0.2-0.4c-0.2,0.8,0.1,2.3-0.2,3.1c-0.1-4.7-0.3-9.3,0.2-14
			c0.4,0.7,0.1,2.2,0.4,3.1c0.1-0.4,0.1-2,0.1-2.6c0.4,0.8-0.1,2.5,0.2,3.6c0.2-5.7,0.2-10.4-0.1-16.6c-0.1,2.5,0.1,4.2,0.1,6.2
			c-0.1-0.1-0.2-0.2-0.2-0.4c-0.1,1.3,0.1,4-0.1,5.4c-0.2-0.1,0-0.7-0.1-1c-0.1,0.6-0.2,1.3-0.2,2.1c-0.5-3.2-0.5-6.5-1-10
			c0.1-0.1,0.1-0.4,0.4-0.2c0.1-7.7-0.4-15.8,0-22.5c0-0.3-0.2-0.2-0.3-0.5c0.5-3.9-0.5-8.6,0.1-13c0.2-1.3-0.3-2.8,0.2-3.9
			c-0.2-3.5-0.5-9.2,0.4-11.9v-1c0.2-0.3,0.4-0.4,0.5-0.8c-0.4-0.6,0-1.6,0.2-2.6c-0.1-0.2-0.2-0.2-0.4-0.2c0.3,0.5,0,0.3,0,1.1
			c-0.1,0.1-0.1-1-0.2-1.4c0.2,0.3,0.5-0.3,0.5,0.2c0.3-0.7,0.4-1.6,0.3-2.8c0.3,0.1,0,0.3,0.2,0.5c0.2-0.7,0.7-1.1,0.3-2
			c0.7,0.2,0.6-1.7,1.6-1.4c0.2,0,0-0.4,0.1-0.6c0.4,0.2,0.6-1,1.5-0.6c0,0.9,1.4,0.9,1.9,1.5c0.3-0.1-0.2-0.6,0.2-0.5
			c-0.1,0.8,0.5,1.4,0.8,2c0.1,0.8-0.3,1-0.4,1.5c0.4,1.2,0.9,1.8,0.8,3.2c0,0.3-0.1,0.6-0.1,0.9s0.2,0.4,0.2,0.4
			c0,0.1-0.2,0.4-0.2,0.6c0,0.4,0.4,0.8,0.4,1s-0.2,0.8-0.2,1c0,0.8,0.2,1.5,0.2,2.4c0.2,4.7,0,10.5,0.2,15.8c0.1,1.4,0.1,3,0.1,4.4
			c-0.1,5.8,0,11.5,0.2,17.4c0,0.2-0.1,1.4-0.1,2.3c0.3,11.1,0.8,25.9,0.4,38c-0.2,0.1-0.1,0.4-0.3,0.1c0,0.2,0.1,0.2,0.2,0.3
			c-0.1,0.6-0.2,0.6-0.3,1.2c-0.3,1.4-0.3,3.6-0.9,4.4c0.3-2.2,0.8-4.6,0.8-6.9c-0.6,1.4-0.4,3.9-1.3,4.9c0.3,0.8-0.3,1.2,0.1,1.6
			C-111.1,319.5-110.5,321.3-110.8,322z M-114.1,330.2V329C-114.4,328.8-114.1,330.2-114.1,330.2z M-115,323.3
			c0.2,0.4-0.1,0.6,0.2,0.7C-114.9,323.7-114.6,323.3-115,323.3z M-109,309.2c0-0.6-0.2-0.6,0-1C-109.4,308.2-109.2,309.2-109,309.2
			z M-109,310.6c-0.1-0.3,0.1-0.8-0.1-0.9C-109.3,309.9-109.2,310.5-109,310.6z M-117,228.9c0,0.6-0.4,1.8,0.2,1.9
			C-116.8,230.1-116.8,229.3-117,228.9z M-110.9,323.7c0.1,0.2-0.2,0.3,0,0.8c-0.3,0.1-0.1-0.5-0.2-0.8
			C-111,323.8-110.9,323.9-110.9,323.7z M-111.8,325.8C-111.7,325.9-111.8,325.9-111.8,325.8c-0.2-0.1-0.2-0.6-0.2-1
			C-111.6,324.9-112.1,325.6-111.8,325.8z M-114.9,329.3c-0.3-0.1,0-0.7-0.2-0.9C-114.9,328.1-114.9,329-114.9,329.3z M-116.2,223.8
			c0.1,0.3-0.4,1.4-0.6,1.3C-116.7,224.6-116.3,224.3-116.2,223.8z"/>
	</g>
</g>
<g>
	<g>
		<path class="st0" d="M-124,224.9c0.2,0.2,0.5-0.1,0.8-0.2C-123.4,224.4-123.5,225-124,224.9z M-52.6,169.3c-0.2,0-0.4,0.2-0.5,0
			c0.1-0.3,0.2-0.5,0.5-0.9C-52.2,168.6-52.9,168.9-52.6,169.3z M-125.7,225.7c-0.2-0.2-0.6,0.3-0.8,0.1c0.4-0.2,0.6-0.5,0.9-0.5
			C-125.4,225.3-125.8,225.5-125.7,225.7z M-133.8,230.1c-0.4,0.7-1.6,1-1.9,1.5C-135.3,230.9-134.4,230.7-133.8,230.1z
			 M-137.2,232.5c0.4-0.6,1.7-1.5,0.6-0.5C-136.8,232.1-137,232.4-137.2,232.5z M-131,224.4c0,0.2-0.6,0.7-0.8,0.7
			C-131.7,224.8-131.4,224.7-131,224.4z M-134.3,226.9c-0.2-0.2,0-0.4,0.2-0.5C-133.9,226.4-134,226.6-134.3,226.9z M-129.6,222.4
			c-0.1-0.2,0.6-0.4,0.4-0.6C-128.8,221.7-129.5,222.5-129.6,222.4z M-119.7,211.2c-0.2-0.4,0.7-0.9,1-0.9
			C-119,210.6-119.3,210.9-119.7,211.2z M-65.9,183.1c0-0.3,0.5-0.6,0.7-0.8C-65.4,182.6-65.6,182.9-65.9,183.1z M-58.6,175.8
			C-58.6,175.7-58.7,175.7-58.6,175.8c-1.6,0.9-3.7,2.6-4.8,3.2c2.3-1.7,4.4-3.4,6.4-4.2c1.2-0.5,2.4-0.5,2.7-1.8
			c0,0.3-0.1,0.8-0.4,1.2c-0.8,0.8-2.5,0.5-3.4,1.2c-0.6,0.4-0.5,0.8-1.1,1C-59.2,176.3-58.8,176.1-58.6,175.8z M-125.2,225.2
			c-0.2-0.3,0.4-0.3,0.4-0.5c-0.2,0-0.4,0-0.7,0.2c0.1-0.2,0-0.3,0.2-0.5c-1.2,0.3-1.3,0.8-2.2,1.2c0-0.1,0.2-0.2,0.1-0.3
			c-0.8,0.4-2,1.2-2.6,1.9c-0.1-0.2,0.1-0.3,0.3-0.5c-0.2-0.2-0.9,0.7-0.7,0c-0.6,0.6-0.4,0.6-1.1,1c0.5-0.7,0.5-1,1.3-1.5
			c-0.2-0.1-0.4,0.2-0.6,0.3c0-0.3,0.5-0.3,0.6-0.5c-1.3,0.6-2.5,1.5-3.7,2.5c0.3-0.3,1-1.1,1.7-1.6c-0.6,0.2-1.2,0.9-1.9,1.2
			c0.4-0.6-0.2-0.1-0.6,0.1c2.8-2.4,3.6-3.2,6.6-5.9c-0.6,0.4-1,0.6-1.4,1.1c-0.1,0.1-0.5,0.1-0.2-0.2c-0.1-0.1-0.2,0.5-0.6,0.4
			c0-0.8,1.5-1.6,1.9-2.4c-0.1-0.1-0.3,0.1-0.4-0.1c-0.4,0.3,0.4,0.1-0.3,0.5c0-0.9,0.9-1.2,1.5-1.7c0.5-0.4,0.9-0.9,1.5-1.4
			c-0.6,0-1.4,1-2.1,1.5c-0.2,0.1,0-0.1,0.1-0.2c1.1-1,3.1-2.8,4.2-3.8c-0.7,0-1,0.7-1.8,1.3c0-0.1,0.1-0.2,0.2-0.3
			c-1.2,0.8-3.6,2.8-4.9,4.4c-0.3,0.4-0.6,0.9-0.9,1.2c-0.4,0.3-1.2,1-1.3,1.7c-0.7,0.3-0.7,0.6-1,1.1c-0.1-0.1,0-0.3-0.1-0.2
			c-0.4,0.2,0,0.3,0,0.5c-0.2,0.1-0.8,0.2-0.7,0.5c-0.2-0.4-0.6,0.5-1.1,1c0.3,0,0.7-0.4,0.9-0.2c-0.7,0.9-1.6,1.3-2.5,2.1
			c0.5-0.8,1.6-1.4,2.4-2c-0.3-0.2-0.8,0.4-1.1,0.7c2.7-4.6,8.9-11.1,14.3-15.2c0.2,0.4,1.5-0.3,2.2-0.9c-0.1,0.3,0.1,0.3,0.1,0.6
			c-0.2,0-0.4,0.5-0.9,0.7c0.5-0.1,1.5-1.3,2.4-1.8c-0.1-0.2-0.4,0.2-0.5,0.3c-0.2,0,0.7-0.7,0.7-0.9c-0.8,0.3-1,0.6-1.5,1.1
			c-0.2-0.5,1.8-1.3,2.2-2c0.4-0.2,0,0.3-0.2,0.3c0.9-0.6,2-1.3,2.6-1.9c-0.3,0.1-1.1,0.7-1.9,1.5c0.3-0.7,1.7-1.2,2.4-2.1
			c0.2,0.2,0,0.4-0.3,0.5c0.4,0,0.7-0.5,0.5-0.7c0.4-0.2,0.7-0.5,0.8-0.8c-1.3,1.2-3.1,1.9-4.3,3.1c0.1,0.1,0.3-0.1,0.4-0.2
			c0.1,0.4-1,0.7-1.6,1.4c0-0.1,0.1-0.2,0.2-0.3c-0.7,0.3-1.6,1.4-2.4,1.7c3.4-2.8,6.5-5.6,10.3-8c-0.3,0.6-1.5,1.4-2,2.1
			c0.4-0.2,1.6-1.1,1.9-1.5c-0.3,0.8-1.8,1.3-2.5,2.2c4.3-3.2,7.7-5.8,12-9.6c-1.9,1.6-3,2.7-4.4,3.9c0-0.1,0-0.2,0.2-0.3
			c-1,0.7-2.8,2.4-3.9,3c0-0.2,0.4-0.5,0.6-0.7c-0.5,0.3-1,0.6-1.7,1.1c2-2.3,4.4-4.2,6.6-6.5c0.1,0.1,0.4-0.2,0.4,0.1
			c5.7-4.4,11.3-9.3,16.4-12.8c0.2-0.1,0.1-0.3,0.2-0.5c3.2-1.8,6.1-5.2,9.6-7.3c1.1-0.7,1.9-1.9,3-2c2.4-2.1,6.5-5.6,9.1-6.3
			l0.7-0.6c0.3,0,0.5,0.1,0.9,0c0.3-0.6,1.2-0.9,2.1-1.3c0.1-0.1,0.1-0.3-0.1-0.4c0,0.5-0.2,0.1-0.7,0.6c-0.1,0,0.6-0.7,0.9-0.9
			c-0.1,0.3,0.5,0.2,0.2,0.6c0.7-0.1,1.4-0.5,2.3-1.2c0,0.3-0.3,0.1-0.3,0.4c0.6-0.2,1.3-0.1,1.7-0.8c0.3,0.7,1.5-0.5,2,0.5
			c0.1,0.2,0.4-0.2,0.5-0.3c0.2,0.5,1.1,0,1.3,0.8c-0.6,0.5,0.2,1.6,0,2.4c0.2,0.2,0.3-0.5,0.5-0.2c-0.7,0.4-0.8,1.1-1,1.7
			c-0.5,0.5-1,0.3-1.3,0.5c-0.7,1-0.8,1.6-1.9,2.5c-0.3,0.1-0.5,0.3-0.7,0.4c-0.2,0.1-0.2,0.3-0.2,0.3c-0.1,0.1-0.4,0.1-0.6,0.2
			c-0.3,0.2-0.3,0.7-0.5,0.9s-0.7,0.3-0.9,0.4c-0.6,0.4-1.1,0.9-1.6,1.4c-3.4,2.8-7.7,5.7-11.4,8.9c-1,0.8-2.1,1.8-3.1,2.5
			c-4.3,3.2-8.4,6.4-12.5,9.9c-0.1,0.1-1,0.6-1.7,1.2c-7.9,6.5-18.3,15.4-27.2,22.2c-0.2-0.1-0.3,0.1-0.2-0.2
			c-0.2,0.1-0.1,0.2-0.1,0.3c-0.6,0.3-0.6,0.2-1.2,0.5c-1.2,0.6-2.8,1.9-3.7,1.9c1.8-1,3.9-2.1,5.4-3.4c-1.4,0.4-3,1.9-4.3,1.9
			c-0.4,0.7-1.1,0.4-1.1,1C-123.7,223.5-124.5,225-125.2,225.2z M-133.3,227.4l0.9-0.7C-132.4,226.4-133.3,227.4-133.3,227.4z
			 M-129,222.7c-0.2,0.3-0.5,0.3-0.4,0.6C-129.1,223.1-128.7,223-129,222.7z M-115,219.1c0.4-0.3,0.3-0.4,0.7-0.6
			C-114.5,218.3-115.1,218.9-115,219.1z M-116,219.9c0.2-0.2,0.7-0.4,0.5-0.6C-115.7,219.3-116.1,219.7-116,219.9z M-61.2,167.4
			c-0.5,0.3-1.6,0.7-1.3,1.2C-61.9,168.1-61.4,167.7-61.2,167.4z M-126.6,226.1c-0.1,0.2-0.3,0-0.5,0.5c-0.3-0.2,0.3-0.3,0.4-0.6
			C-126.7,226.1-126.7,226.2-126.6,226.1z M-128.7,226.6C-128.7,226.7-128.8,226.8-128.7,226.6c0-0.2,0.3-0.4,0.6-0.7
			C-127.9,226.3-128.7,226.3-128.7,226.6z M-133.1,226.3c-0.1-0.3,0.5-0.5,0.5-0.7C-132.3,225.6-133,226.1-133.1,226.3z
			 M-56.9,165.1c-0.2,0.2-1.3,0.5-1.3,0.2C-57.8,165.2-57.3,165.4-56.9,165.1z"/>
	</g>
</g>
<g>
	<g>
		<path class="st0" d="M-39,176.2c-0.1,0.2,0.2,0.4,0.3,0.6C-38.3,176.6-38.8,176.6-39,176.2z M29.9,228.8c-0.1-0.2-0.2-0.3,0-0.5
			c0.3,0,0.6,0.1,0.9,0.3C30.5,229.1,30.1,228.4,29.9,228.8z M-40,174.8c0.1-0.3-0.4-0.5-0.3-0.7c0.2,0.3,0.6,0.5,0.7,0.7
			C-39.7,175-39.9,174.7-40,174.8z M-46.4,168.6c-0.8-0.2-1.3-1.2-1.8-1.4C-47.5,167.4-47.1,168.2-46.4,168.6z M-49.5,166.1
			c0.7,0.2,1.9,1.1,0.7,0.4C-49,166.4-49.2,166.2-49.5,166.1z M-40.2,169.4c-0.2,0.1-0.8-0.4-0.8-0.5
			C-40.8,168.9-40.6,169.1-40.2,169.4z M-43.4,167.1c0.1-0.3,0.3-0.1,0.6,0.1C-43,167.3-43.2,167.2-43.4,167.1z M-38.1,170.1
			c0.1-0.2,0.5,0.5,0.7,0.2C-37.2,170.7-38,170.3-38.1,170.1z M-25,176.1c0.2-0.4,1.1,0.4,1.1,0.7C-24.2,176.7-24.6,176.5-25,176.1z
			 M14,219.5c0.2-0.1,0.7,0.4,1,0.4C14.6,219.8,14.3,219.8,14,219.5z M22.4,224.6C22.5,224.6,22.4,224.5,22.4,224.6
			c-1.2-1.3-3.3-2.9-4.1-3.8c2,1.8,4.1,3.3,5.2,5.1c0.7,1,0.9,2.1,2.3,2.1c-0.3,0.2-0.8,0.1-1.1,0c-0.9-0.5-1-2.1-1.8-3
			c-0.4-0.5-0.9-0.3-1.2-0.8C21.9,224.2,22.1,224.5,22.4,224.6z M-39.5,175.1c0.1-0.3,0.5,0.2,0.6,0.3c-0.1-0.2,0-0.4-0.4-0.6
			c0.2,0,0.3-0.2,0.5,0.1c-0.6-1-1-0.9-1.7-1.6c0.1-0.1,0.2,0,0.3-0.1c-0.5-0.7-1.5-1.5-2.5-1.8c0.1-0.2,0.3,0,0.6,0.2
			c0-0.3-0.9-0.7-0.2-0.6c-0.6-0.5-0.7-0.2-1.2-0.8c0.8,0.3,1,0.2,1.7,0.7c0-0.2-0.3-0.3-0.3-0.4c0.3-0.2,0.4,0.3,0.7,0.4
			c-0.9-1-2.2-1.9-3.4-2.7c0.4,0.1,1.2,0.6,2,1.1c-0.3-0.4-1.1-0.9-1.6-1.4c0.7,0.2,0-0.3-0.1-0.5c3,1.9,3.9,2.5,7.3,4.4
			c-0.6-0.4-0.8-0.7-1.4-0.9c-0.1,0-0.1-0.4,0-0.3c0-0.2-0.6-0.1-0.5-0.5c0.7-0.2,1.9,0.9,2.8,1.1c0-0.1-0.3-0.2,0-0.4
			c-0.4-0.2,0,0.4-0.6-0.1c0.8-0.3,1.4,0.6,1.9,0.8s1,0.5,1.7,1c-0.1-0.5-1.3-1-1.9-1.5c-0.1-0.2,0.1-0.1,0.2,0
			c1.2,0.8,3.5,2,4.6,2.8c-0.2-0.6-0.9-0.7-1.7-1.3c0.1-0.1,0.2,0,0.3,0.1c-1.1-0.9-3.5-2.5-5.3-3.3c-0.6-0.3-1-0.3-1.5-0.5
			c-0.4-0.2-1.2-0.9-1.9-0.7c-0.4-0.6-0.7-0.5-1.3-0.6c0-0.1,0.3-0.1,0.1-0.2c-0.3-0.2-0.3,0.2-0.5,0.1c-0.1-0.1-0.3-0.6-0.7-0.6
			c0.3-0.3-0.7-0.4-1.2-0.8c0.1,0.2,0.5,0.5,0.4,0.8c-1.1-0.3-1.7-1.1-2.7-1.7c0.8,0.3,1.8,1.1,2.5,1.6c0-0.3-0.5-0.6-0.9-0.9
			c5,1.1,12.9,5,17.9,8.9c-0.3,0.4,0.6,1.3,1.4,1.9c-0.3,0-0.2,0.2-0.5,0.2c-0.1-0.2-0.6-0.3-0.9-0.6c0.2,0.4,1.6,1.1,2.3,1.7
			c0.1-0.2-0.3-0.2-0.5-0.4c-0.1-0.2,0.8,0.5,1.1,0.4c-0.5-0.7-0.8-0.8-1.4-1.1c0.4-0.3,1.7,1.3,2.3,1.5c0.3,0.3-0.2,0.2-0.4,0
			c0.8,0.7,1.7,1.5,2.5,1.8c-0.3-0.2-1-0.8-1.8-1.4c0.8,0.1,1.6,1.2,2.6,1.7c-0.1,0.3-0.3,0.1-0.6-0.1c0,0.4,0.6,0.5,0.8,0.2
			c0.2,0.3,0.6,0.6,0.9,0.6c-1.4-0.9-2.5-2.3-4-3.2c0,0.1,0.2,0.2,0.4,0.3c-0.3,0.2-1-0.7-1.8-1.1c0.1,0,0.2,0,0.4,0
			c-0.4-0.6-1.8-1.1-2.2-1.8c3.4,2.3,6.9,4.5,10.1,7.4c-0.7-0.1-1.7-1-2.5-1.3c0.3,0.3,1.4,1.2,1.8,1.4c-0.9-0.1-1.7-1.4-2.7-1.7
			c4,3.2,7.4,5.6,12,8.7c-1.7-1.4-3.1-2.2-4.5-3.3c0.1-0.1,0.2-0.1,0.4,0c-0.9-0.7-2.9-2-3.8-2.9c0.2-0.1,0.6,0.4,0.7,0.5
			c-0.3-0.4-0.9-0.8-1.5-1.3c2.7,1.2,5,3,7.8,4.5c0,0.1,0.3,0.2,0,0.4c5.5,4.2,11.6,8.2,16,12.2c0.2,0.1,0.3-0.1,0.5,0.1
			c2.4,2.5,6.3,4.4,9.1,7.3c0.8,0.9,2.2,1.3,2.5,2.3c2.6,1.8,6.7,4.9,7.9,7.1l0.6,0.6c0.1,0.3-0.1,0.5,0.2,0.8
			c0.7,0.1,1.1,0.9,1.7,1.6c0.2,0,0.3,0,0.4-0.1c-0.5,0-0.2-0.2-0.7-0.6c0-0.1,0.8,0.4,1,0.6c-0.3,0-0.2,0.6-0.5,0.2
			c0.2,0.6,0.8,1.2,1.7,1.8c-0.2,0.2-0.2-0.1-0.5-0.2c0.3,0.5,0.2,1.2,1.1,1.5c-0.6,0.4,0.7,1.4-0.1,2c-0.1,0.1,0.3,0.3,0.3,0.4
			c-0.4,0.2,0.3,1-0.6,1.4c-0.6-0.5-1.5,0.5-2.3,0.6c-0.1,0.3,0.6,0.2,0.2,0.4c-0.5-0.6-1.3-0.5-1.8-0.5c-0.6-0.4-0.5-0.8-0.8-1.2
			c-1.1-0.4-1.8-0.3-2.7-1.2c-0.2-0.2-0.3-0.4-0.5-0.6c-0.2-0.1-0.4,0-0.4,0c-0.1-0.1-0.2-0.3-0.3-0.4c-0.3-0.2-0.8-0.1-1-0.2
			s-0.4-0.6-0.5-0.7c-0.5-0.5-1.1-0.7-1.8-1.2c-3.3-2.5-7.1-5.9-10.8-8.6c-1-0.7-2.1-1.6-3-2.3c-3.9-3.2-7.9-6.3-12.2-9.3
			c-0.1-0.1-0.9-0.8-1.6-1.3c-8-5.7-18.7-13-27.3-19.3c0-0.2-0.3-0.2,0-0.3c-0.2-0.1-0.2,0-0.3,0.1c-0.3-0.4-0.3-0.4-0.7-0.9
			c-0.8-1-2.5-2-2.7-2.9c1.5,1.3,3,3,4.5,4.1c-0.7-1.2-2.5-2.2-2.8-3.5c-0.7-0.2-0.7-0.8-1.2-0.8C-37.5,176-39.2,175.6-39.5,175.1z
			 M-43.7,168.2l0.9,0.6C-42.6,168.7-43.8,168.1-43.7,168.2z M-38.1,170.8c-0.4,0-0.3-0.4-0.7-0.2
			C-38.5,170.8-38.3,171.1-38.1,170.8z M-31.2,182.9c0.4,0.2,0.5,0.2,0.7,0.5C-30.3,183.1-31.1,182.8-31.2,182.9z M-32.3,182.2
			c0.2,0.1,0.5,0.5,0.7,0.4C-31.6,182.3-32,182.1-32.3,182.2z M29.9,220.1c-0.4-0.3-1-1.3-1.4-1C29.1,219.5,29.5,220.1,29.9,220.1z
			 M-40.7,174c-0.2,0-0.2-0.2-0.6-0.4c0-0.3,0.4,0.1,0.7,0.2C-40.7,173.9-40.8,173.9-40.7,174z M-41.8,172.3c-0.1,0.1-0.1,0-0.1-0.1
			c0.2,0,0.6,0.3,0.8,0.5C-41.2,173-41.4,172.1-41.8,172.3z M-42.6,168c0.3-0.2,0.6,0.4,0.8,0.3C-41.8,168.6-42.4,168.1-42.6,168z
			 M32.9,223.6c-0.2-0.1-0.7-1.1-0.5-1.2C32.7,222.9,32.7,223.3,32.9,223.6z"/>
	</g>
</g>
</svg>
