<?xml version="1.0" encoding="utf-8"?>
<!-- Generator: Adobe Illustrator 19.0.0, SVG Export Plug-In . SVG Version: 6.00 Build 0)  -->
<svg version="1.1" id="Layer_1" xmlns="http://www.w3.org/2000/svg" xmlns:xlink="http://www.w3.org/1999/xlink" x="0px" y="0px"
	 viewBox="0 0 500 500" style="enable-background:new 0 0 500 500;" xml:space="preserve">
<style type="text/css">
	.st0{fill:#EA8A8A;}
	.st1{fill:#FFFFFF;}
	.st2{fill:none;stroke:#000000;stroke-miterlimit:10;}
</style>
<path class="st0" d="M249.7,177c-27.8,0-50.4,22.5-50.4,50.4c0,29.8,50.3,87.2,50.3,87.2s50.4-55.2,50.4-87.2
	C300,199.7,277.5,177,249.7,177z"/>
<g>
	<g>
		<g>
			<path class="st1" d="M276.3,251.6c0.1,0,0.1-0.2,0.1-0.2C276.3,251.4,276.4,251.5,276.3,251.6z M276.2,214.5c0,0.1,0,0.1-0.1,0.1
				c-0.1-0.1-0.1-0.2-0.1-0.4C276.1,214.2,276,214.5,276.2,214.5z M276.1,252.4c-0.1,0,0,0.2-0.1,0.2c0.1-0.1,0-0.3,0.1-0.4
				C276.1,252.3,276,252.4,276.1,252.4z M275.4,256.1c0.1,0.3-0.1,0.8-0.1,1C275.3,256.8,275.4,256.5,275.4,256.1z M275.3,257.8
				c-0.1-0.2,0-1,0-0.3C275.3,257.6,275.3,257.7,275.3,257.8z M274.4,253.8c0.1,0,0,0.4,0,0.4C274.3,254.1,274.3,254,274.4,253.8z
				 M274.3,255.4c-0.1,0-0.1-0.1-0.1-0.2C274.3,255.2,274.3,255.3,274.3,255.4z M274.2,252.8c-0.1,0,0-0.3-0.1-0.3
				C274.2,252.4,274.2,252.8,274.2,252.8z M273.3,246.8c-0.1,0-0.1-0.4,0-0.5C273.3,246.3,273.3,246.5,273.3,246.8z M277.4,222.3
				c-0.1-0.1,0-0.3-0.1-0.4C277.4,222,277.4,222.1,277.4,222.3z M276.8,218.1C276.7,218.1,276.7,218.1,276.8,218.1
				c-0.1,0.8,0,1.8-0.1,2.4c0-1.2,0-2.3,0.2-3.1c0.1-0.5,0.4-0.9,0.1-1.3c0.1,0,0.2,0.2,0.2,0.4c0.1,0.4-0.4,1-0.4,1.4
				c0,0.2,0.1,0.3,0.1,0.6C276.8,218.3,276.8,218.2,276.8,218.1z M276.1,252.2c-0.1,0,0-0.2,0-0.3c0,0.1-0.1,0.1-0.1,0.2
				c0-0.1-0.1-0.1-0.1-0.2c-0.2,0.4-0.1,0.6-0.1,1c0,0,0-0.1-0.1-0.1c-0.1,0.3-0.1,0.9,0,1.3c-0.1,0-0.1-0.1-0.1-0.2
				c-0.1,0,0,0.4-0.1,0.2c0,0.3,0.1,0.3,0,0.6c-0.1-0.3-0.1-0.4-0.1-0.8c0,0,0,0.1-0.1,0.2c-0.1-0.1,0-0.2,0-0.3
				c-0.1,0.5-0.1,1.2-0.1,1.8c0-0.2-0.1-0.5-0.1-1c-0.1,0.2-0.1,0.6-0.1,0.9c-0.1-0.3-0.1,0-0.1,0.2c0-1.5-0.1-2.1-0.1-3.7
				c0,0.3,0,0.4,0,0.8c0,0.1-0.1,0.1-0.1,0c0,0,0.1,0.2,0,0.2c-0.2-0.2-0.1-0.9-0.2-1.2c0,0,0,0.1-0.1,0.1c0,0.2,0.1-0.1,0.1,0.2
				c-0.2-0.2-0.1-0.6-0.1-0.9s-0.1-0.5,0-0.9c-0.1,0.2,0,0.8-0.1,1c0,0.1,0,0,0-0.1c0-0.6-0.1-1.7-0.1-2.3c-0.1,0.2,0,0.5,0,1v-0.1
				c-0.1,0.6,0,1.8,0.1,2.7c0,0.2,0.1,0.4,0.1,0.6c0,0.2,0,0.6,0.1,0.9c-0.1,0.3,0,0.4,0.1,0.6c-0.1,0-0.1-0.1-0.1,0
				c0,0.1,0.1,0.1,0.1,0.1c0,0.1-0.1,0.2,0,0.4c-0.1,0,0,0.3,0,0.6c0-0.1,0-0.3,0.1-0.3c0.1,0.4,0,0.9,0,1.4c-0.1-0.3,0-0.9,0-1.3
				c-0.1,0-0.1,0.3-0.1,0.5c-0.6-2.1-1.1-5.7-1-8.4c0.2,0,0.2-0.5,0.2-1c0.1,0.1,0.1,0,0.2,0.1c0,0.1,0,0.2,0,0.4
				c0.1-0.2,0-0.9,0-1.2c-0.1,0,0,0.1,0,0.2c0,0.1,0-0.4-0.1-0.4c-0.1,0.3,0,0.5,0,0.8c-0.2-0.1,0-0.9-0.1-1.2c0-0.1,0.1,0,0.1,0.1
				c0-0.4,0.1-1,0-1.3c0,0.1,0,0.5,0,1c-0.1-0.2,0-0.9,0-1.3c0.1,0,0.1,0.1,0.1,0.2c0.1-0.1,0-0.3-0.1-0.3c0-0.1,0-0.3,0-0.4
				c0.1,0.8-0.2,1.5-0.1,2.2c0,0,0-0.1,0-0.2c0.1,0.1,0,0.5,0,0.9c0,0,0-0.1-0.1-0.1c-0.1,0.3,0,0.9-0.1,1.2c0-1.7-0.1-3.6,0.1-5.3
				c0.1,0.2,0,0.9,0.1,1.2c0-0.1,0-0.8,0-1c0.1,0.3,0,1,0.1,1.4c0.1-2.2,0.1-3.9,0-6.3c0,1,0,1.6,0,2.4l-0.1-0.1c0,0.5,0,1.5,0,2.1
				c-0.1,0,0-0.2,0-0.4c0,0.2-0.1,0.5-0.1,0.8c-0.2-1.2-0.2-2.5-0.4-3.8c0,0,0-0.1,0.1-0.1c0-2.9-0.1-6,0-8.6c0-0.1-0.1-0.1-0.1-0.2
				c0.2-1.5-0.2-3.2,0-5c0.1-0.5-0.1-1.1,0.1-1.5c-0.1-1.3-0.2-3.5,0.1-4.5V218c0.1-0.1,0.1-0.1,0.2-0.3c-0.1-0.2,0-0.6,0.1-1
				c0-0.1-0.1-0.1-0.1-0.1c0.1,0.2,0,0.1,0,0.4c0,0,0-0.4-0.1-0.5c0.1,0.1,0.2-0.1,0.2,0.1c0.1-0.2,0.1-0.6,0.1-1.1
				c0.1,0,0,0.1,0.1,0.2c0.1-0.2,0.2-0.4,0.1-0.8c0.2,0.1,0.2-0.6,0.6-0.5c0.1,0,0-0.1,0-0.2c0.1,0.1,0.2-0.4,0.5-0.2
				c0,0.3,0.5,0.3,0.8,0.5c0.1,0-0.1-0.2,0.1-0.2c0,0.3,0.2,0.5,0.3,0.8c0,0.3-0.1,0.4-0.1,0.5c0.1,0.4,0.3,0.6,0.3,1.2
				c0,0.1,0,0.2,0,0.3s0.1,0.1,0.1,0.1s-0.1,0.1-0.1,0.2c0,0.1,0.1,0.3,0.1,0.4c0,0.1-0.1,0.3-0.1,0.4c0,0.3,0.1,0.5,0.1,0.9
				c0.1,1.7,0,4,0.1,6c0,0.5,0,1.2,0,1.6c0,2.2,0,4.3,0.1,6.6c0,0.1,0,0.5,0,0.9c0.1,4.2,0.3,9.9,0.1,14.4c-0.1,0,0,0.1-0.1,0
				c0,0.1,0,0.1,0.1,0.1c0,0.2-0.1,0.2-0.1,0.4c-0.1,0.5-0.1,1.4-0.3,1.6c0.1-0.9,0.3-1.7,0.3-2.6c-0.2,0.5-0.1,1.5-0.5,1.8
				c0.1,0.3-0.1,0.4,0,0.6C275.9,251.2,276.2,252,276.1,252.2z M274.8,255.3v-0.4C274.7,254.8,274.8,255.3,274.8,255.3z
				 M274.4,252.7c0.1,0.1,0,0.2,0.1,0.2C274.4,252.8,274.6,252.7,274.4,252.7z M276.7,247.3c0-0.2-0.1-0.2,0-0.4
				C276.5,247,276.6,247.3,276.7,247.3z M276.7,247.8c0-0.1,0-0.3,0-0.3C276.6,247.6,276.6,247.8,276.7,247.8z M273.7,216.9
				c0,0.2-0.1,0.6,0.1,0.8C273.7,217.3,273.7,217,273.7,216.9z M276,252.8c0,0.1-0.1,0.1,0,0.3C275.9,253.2,276,252.9,276,252.8
				C276,252.8,276,252.9,276,252.8z M275.6,253.6C275.6,253.7,275.6,253.7,275.6,253.6c-0.1,0-0.1-0.2-0.1-0.4
				C275.7,253.3,275.5,253.6,275.6,253.6z M274.4,255c-0.1,0,0-0.2-0.1-0.3C274.4,254.5,274.4,254.9,274.4,255z M274,214.9
				c0,0.1-0.1,0.5-0.2,0.5C273.8,215.3,273.9,215.1,274,214.9z"/>
		</g>
	</g>
	<g>
		<g>
			<path class="st1" d="M267.6,196.8c-0.1,0-0.1,0-0.1,0.1C267.6,197,267.5,196.8,267.6,196.8z M267.4,206.4c0,0,0,0,0.1,0
				c0.1,0,0.1,0,0.1,0.1C267.5,206.5,267.6,206.4,267.4,206.4z M267.8,196.7c0.1,0,0-0.1,0.1-0.1
				C267.8,196.6,267.9,196.7,267.8,196.7L267.8,196.7z M268.5,195.8c-0.1-0.1,0.1-0.2,0.1-0.2C268.7,195.5,268.5,195.7,268.5,195.8z
				 M268.7,195.3C268.8,195.4,268.7,195.5,268.7,195.3L268.7,195.3z M269.6,196.4c-0.1,0,0-0.1,0-0.1
				C269.7,196.3,269.6,196.3,269.6,196.4z M269.7,196c0.1,0,0.1,0,0.1,0.1C269.7,196,269.7,196,269.7,196z M269.8,196.6
				C269.9,196.6,269.8,196.7,269.8,196.6C269.8,196.7,269.8,196.6,269.8,196.6z M270.8,198.3c0.1,0,0.1,0.1,0,0.1
				C270.8,198.4,270.8,198.3,270.8,198.3z M266.2,204.3c0.1,0,0,0.1,0.1,0.1C266.2,204.4,266.2,204.4,266.2,204.3z M266.8,205.4
				L266.8,205.4c0.1-0.2,0-0.4,0.1-0.6c0,0.3,0,0.5-0.2,0.8c-0.1,0.1-0.4,0.2-0.1,0.3c-0.1,0-0.2-0.1-0.2-0.1
				C266.2,205.7,266.8,205.6,266.8,205.4C266.8,205.4,266.6,205.4,266.8,205.4L266.8,205.4z M267.8,196.7
				C267.9,196.7,267.8,196.7,267.8,196.7c0.1,0.1,0.2,0,0.1,0h0.1c0.2-0.1,0.1-0.1,0.1-0.2c0,0,0,0,0.1,0c0.1-0.1,0.1-0.2,0-0.3
				c0.1,0,0.1,0,0.1,0.1c0.1,0,0-0.1,0.1,0c0-0.1-0.1-0.1,0-0.1c0.1,0.1,0.1,0.1,0.1,0.2c0,0,0,0,0.1,0s0,0,0,0.1
				c0.1-0.1,0.1-0.3,0.2-0.4c0,0,0.1,0.1,0.1,0.2c0.1,0,0.1-0.1,0.1-0.2c0.1,0.1,0.1,0,0.1,0c0,0.4,0.1,0.5,0.1,1c0-0.1,0-0.1,0-0.2
				h0.1c0,0-0.1-0.1,0-0.1c0.2,0,0.1,0.2,0.2,0.3c0,0,0,0,0.1,0c0,0-0.1,0-0.1-0.1c0.2,0.1,0.1,0.1,0.1,0.2s0.1,0.1,0,0.2
				c0.1,0,0-0.2,0.1-0.2l0,0c0,0.1,0.1,0.4,0.1,0.5c0.1,0,0-0.1,0-0.2l0,0c0.1-0.1,0-0.5-0.1-0.6c0-0.1-0.1-0.1-0.1-0.1
				s0-0.1-0.1-0.2c0.1-0.1,0-0.1-0.1-0.1c0.1,0,0.1,0,0.1,0h-0.1c0,0,0.1-0.1,0-0.1c0.1,0,0-0.1,0-0.1s0,0.1-0.1,0.1
				c-0.1-0.1,0-0.2,0-0.3c0.1,0.1,0,0.2,0,0.3c0.1,0,0.1-0.1,0.1-0.1c0.8,0.5,1.2,1.5,1,2.2c-0.2,0-0.3,0.1-0.3,0.2
				c-0.1,0-0.1,0-0.2,0v-0.1c-0.1,0,0,0.2,0,0.3c0.1,0,0,0,0,0s0,0.1,0.1,0.1c0.1-0.1,0-0.1,0-0.2c0.2,0,0,0.2,0.1,0.3h-0.1
				c0,0.1-0.1,0.2,0,0.3c0,0,0-0.1,0-0.2c0.1,0.1,0,0.2,0,0.3c-0.1,0-0.1,0-0.1-0.1c-0.1,0,0,0.1,0.1,0.1v0.1
				c-0.1-0.2,0.2-0.4,0.1-0.5l0,0c-0.1,0,0-0.1,0-0.2c0,0,0,0,0.1,0c0.1-0.1,0-0.2,0.1-0.3c0,0.4,0.1,0.9-0.1,1.4
				c-0.1-0.1,0-0.2-0.1-0.3v0.2c-0.1-0.1,0-0.2-0.1-0.3c-0.1,0.5-0.1,1,0,1.6c0-0.2,0-0.4,0-0.6h0.1c0-0.1,0-0.4,0-0.5
				c0.1,0,0,0.1,0,0.1s0.1-0.1,0.1-0.2c0.2,0.3,0.2,0.6,0.4,1c0,0,0,0-0.1,0c-0.1,0.8,0.1,1.5-0.1,2.2h0.1c-0.2,0.4,0.2,0.9-0.1,1.3
				c-0.1,0.1,0.1,0.2-0.1,0.4c0.1,0.3,0.2,0.9-0.2,1.2v0.1c-0.1,0-0.1,0-0.2,0.1c0.1,0.1,0,0.1-0.1,0.2c0.1,0,0.2,0,0.2,0
				c-0.1,0,0,0,0-0.1c0,0,0,0.1,0.1,0.1c-0.1,0-0.2,0-0.2,0c-0.1,0.1-0.1,0.1-0.1,0.2c-0.1,0,0,0-0.1,0c-0.1,0.1-0.3,0.1-0.1,0.2
				c-0.2,0-0.2,0.1-0.6,0.1c-0.1,0,0,0,0,0c-0.1,0-0.2,0.1-0.6,0c0-0.1-0.5-0.1-0.8-0.1c-0.1,0,0.1,0.1-0.1,0c0-0.1-0.2-0.1-0.3-0.2
				c0-0.1,0.1-0.1,0.1-0.1c-0.1-0.1-0.3-0.2-0.3-0.3c0,0,0,0,0-0.1h-0.1h0.1l-0.1-0.1l0.1-0.1c0-0.1-0.1-0.1-0.1-0.2
				c-0.1-0.4,0-1,0-1.5c0-0.1,0-0.3,0-0.4c0.1-0.5,0-1.1,0-1.6c0,0,0-0.1,0-0.2c-0.1-1.1-0.2-2.5,0-3.7c0.1,0,0,0,0.1,0
				c0,0,0,0-0.1,0c0,0,0.1,0,0.1-0.1c0.1-0.1,0.1-0.3,0.4-0.4c-0.1,0.2-0.3,0.4-0.3,0.6c0.2-0.1,0.2-0.4,0.5-0.4
				c-0.1-0.1,0.1-0.1,0-0.1C267.9,197,267.7,196.8,267.8,196.7z M269.2,196v0.1C269.4,196.1,269.2,196,269.2,196z M269.6,196.6
				C269.5,196.6,269.6,196.6,269.6,196.6S269.4,196.6,269.6,196.6z M267.1,197.9c0,0.1,0.1,0.1,0,0.1
				C267.3,198,267.2,197.9,267.1,197.9z M267.1,197.8C267.2,197.9,267.1,197.9,267.1,197.8C267.3,197.9,267.2,197.8,267.1,197.8z
				 M270.1,205.8c0-0.1,0.1-0.1-0.1-0.2C270,205.7,270,205.8,270.1,205.8z M267.9,196.6C267.8,196.5,268.1,196.5,267.9,196.6
				C268.1,196.5,267.9,196.5,267.9,196.6C267.9,196.6,267.9,196.5,267.9,196.6z M268.3,196.4L268.3,196.4c0.1,0,0.1,0.1,0.1,0.1
				C268.2,196.5,268.4,196.4,268.3,196.4z M269.6,196.1C269.7,196.1,269.6,196.2,269.6,196.1C269.6,196.2,269.6,196.1,269.6,196.1z
				 M269.8,206.4c0,0,0.1-0.1,0.2-0.1C269.9,206.3,269.8,206.3,269.8,206.4z"/>
		</g>
	</g>
	<g>
		<path class="st1" d="M250.6,223.2c0.2,0.3,0.3,0.6,0.3,1.1c0,0.4,0,0.8,0.1,1.2c0,0.1,0,0.1,0.1,0.2c0,0.1,0,0.1,0,0.2v0.1l0,0
			c0,0.5,0.1,1,0.1,1.3c0.1,0.4,0.1,0.9,0.1,1.3c0,0.1,0,0.2,0,0.4c-0.1,0.1-0.1,0.3,0,0.6c0,0.1,0,0.1,0,0.1s0,0,0,0.1
			c0,0.2,0,0.5,0.1,0.8c0.1,0.2,0.1,0.4,0.1,0.8c0,0,0,0.1-0.1,0.1v0.1c0,0.2,0,0.4,0,0.6c0,0.2,0,0.4,0,0.6s0,0.4,0.1,0.6
			c0,0.2,0.1,0.5,0,0.8c0,0.1,0,0.2,0,0.3c0.1,0.1,0.1,0.3,0.1,0.6c0,0.1,0,0.1-0.1,0.2c-0.1,0.1-0.1,0.1-0.1,0.2
			c0,0.2,0,0.4,0.1,0.6c0.1,0.2,0.1,0.4,0.1,0.6c0,0,0,0.1-0.1,0.1c0,0,0,0,0,0.1s0,0.1,0,0.2c0,0.1,0,0.1,0.1,0.1
			c0,0.5,0.1,1,0.1,1.5s0.1,1.1,0.1,1.6h-0.1l-0.1,0.2c0,0.2,0.1,0.4,0.1,0.5c0.1,0.1,0.1,0.2,0,0.4c0,0.1,0,0.2-0.1,0.2
			c0,0.1-0.1,0.1-0.1,0.2c0,0.2,0,0.4,0.1,0.6c0.1,0.2,0.1,0.5,0.1,0.8v0.1c0,0,0,0,0,0.1c0,0.1,0,0.2,0,0.3c0,0.1,0,0.1,0,0.1
			c0,0.1,0,0.1-0.1,0.2c-0.1,0.1-0.1,0.1-0.1,0.2c0.2,0.3,0.3,0.6,0.3,1s0,0.6,0,1c0,0,0,0.1,0.1,0.2c0,0.1,0,0.1,0,0.2h-0.1
			c0,0,0,0,0,0.1c0,0.1,0,0.1,0.1,0.2c0,0.1,0,0.1,0,0.2h-0.2c0,0.1,0.1,0.2,0.2,0.4c0.1,0.1,0.1,0.2,0,0.3c0.1,0.4,0.2,0.8,0.2,0.9
			s0.1,0.3,0.2,0.6c-0.1,0.1-0.1,0.2,0,0.4s0.1,0.4,0.1,0.5c0,0,0,0.1-0.1,0.1c0,0,0,0.1,0,0.2c0.1,0.2,0.1,0.6,0.1,1.2
			s-0.1,0.9-0.3,1.1c-0.1,0-0.2,0.1-0.2,0.2c0,0.1,0,0.2-0.1,0.2s-0.1,0-0.2-0.1c-0.1-0.1-0.1-0.1-0.2-0.1c-0.4,0-0.9,0.1-1.4,0.1
			s-1,0-1.4-0.1c-0.2-0.6-0.4-1.2-0.5-1.7c-0.1-0.6-0.1-1.2-0.2-1.6c-0.1-0.4-0.1-1-0.2-1.5s0-1,0.1-1.3c-0.1-0.3-0.2-0.6-0.2-1
			c-0.1-0.3-0.1-0.6-0.1-1c0-0.1,0-0.3,0-0.6s0-0.5,0-0.9c0-0.1,0-0.1,0-0.2c0-0.1,0-0.1-0.1-0.1c0-0.1,0-0.1,0.1-0.1s0.1,0,0-0.1
			c0-0.3-0.1-0.6-0.1-0.9s-0.1-0.5-0.1-0.8c0-0.1,0-0.1,0-0.2s-0.1-0.1-0.1-0.2c0,0,0.1-0.1,0.1-0.2c0.1-0.1,0.1-0.1,0.1-0.2
			c0-0.2,0-0.4-0.1-0.6c-0.1-0.2-0.1-0.4-0.1-0.6c-0.1-0.4-0.1-0.8-0.1-1.3c0-0.2,0-0.3,0.1-0.3c0,0,0-0.2,0-0.5c0,0,0-0.2-0.1-0.5
			c0-0.1,0-0.1,0-0.1s0,0,0-0.1c0-0.2,0-0.4,0-0.8c0-0.3-0.1-0.6-0.1-1c0-0.2,0-0.4,0-0.6c0-0.1,0-0.2,0.1-0.2
			c0-0.1,0.1-0.1,0.1-0.2c0-0.2,0-0.4,0-0.5c0-0.2,0-0.4,0-0.5s0-0.2,0.1-0.3c0-0.1,0-0.2,0.1-0.3c0-0.1,0-0.2-0.1-0.3
			c-0.1-0.1-0.1-0.2-0.1-0.4c0,0,0-0.1,0.1-0.1s0.1-0.1,0.1-0.2c0-0.2,0-0.4,0-0.6c0-0.1,0-0.4,0-0.6c0,0,0-0.1,0.1-0.2
			c0-0.1,0.1-0.1,0.1-0.2c0-0.2,0-0.4-0.1-0.6s0-0.4,0.2-0.4c-0.1-0.2-0.1-0.4-0.1-0.5c0-0.1,0-0.3,0-0.5c0,0,0-0.1,0-0.2
			c0-0.1,0-0.2,0-0.3h0.1c0,0,0.1,0,0.1-0.1c0.1-0.1,0-0.2,0-0.3c-0.1-0.1-0.1-0.2-0.1-0.3c0.1-0.1,0.1-0.2,0.1-0.2s0.1-0.1,0.1-0.2
			c0,0,0-0.1,0-0.2c0-0.1-0.1-0.1,0-0.2c0-0.1,0-0.2,0.1-0.3c0-0.1,0-0.2,0.1-0.3c0-0.1,0.1-0.2,0.1-0.4c0-0.1,0.1-0.2,0.1-0.5
			c0.4,0,0.9-0.1,1.4-0.3C249.9,222.8,250.3,222.8,250.6,223.2z M248.9,251.6c-0.1-0.1-0.1-0.2-0.1-0.3s0-0.2,0-0.2
			c0-0.1,0-0.1,0-0.1s-0.1-0.1-0.2-0.1c0,0.1,0,0.2,0,0.5C248.7,251.5,248.8,251.6,248.9,251.6z M248.6,249.5c-0.1-0.2,0-0.4,0-0.8
			s0-0.4-0.1-0.4c0.1,0.2,0.1,0.4-0.1,0.6C248.4,249.1,248.4,249.4,248.6,249.5z M249.8,232c0,0.3,0.1,0.5,0.2,0.5s0.2,0.2,0.2,0.4
			c-0.1,0-0.1,0.1-0.1,0.1s0,0.1,0,0.2c0,0,0,0.1-0.1,0.2c0,0.1-0.1,0.2-0.1,0.2c0,0.1,0,0.2,0,0.2c0,0.1,0,0.2,0.1,0.4
			c0,0,0,0.1-0.1,0.2c0,0.1-0.1,0.1-0.1,0.2c0,0.2,0,0.4,0,0.6c0,0.2,0,0.4,0,0.6l-0.1,0.1v0.1c0,0.1,0,0.2,0,0.5
			c0,0.2,0.1,0.3,0.2,0.2c-0.1-0.1-0.1-0.2-0.1-0.3s0-0.1,0-0.2c0-0.1,0-0.3,0-0.4c0.1-0.1,0.1-0.2,0-0.4c0-0.1,0-0.1,0-0.1
			s0,0,0.1-0.1c0-0.1,0-0.2,0-0.4c0-0.1,0-0.2,0-0.4c0.1-0.2,0.1-0.5,0.2-0.9c0-0.3,0.1-0.5,0-0.6c0-0.2,0-0.4,0-0.6s0-0.4,0-0.6
			c0-0.1,0-0.2,0-0.4c0-0.1,0-0.3,0-0.5c0-0.1,0-0.2,0-0.4c-0.1-0.2,0-0.4,0-0.5c-0.1-0.1-0.1-0.2-0.1-0.3c0-0.1-0.1-0.2-0.1-0.2
			c-0.1,0.4-0.2,0.9-0.2,1.3C250,231.3,250,231.7,249.8,232z M250.7,209.3c0.1,0.2,0.1,0.4,0.1,0.6c0,0.2,0,0.4,0,0.8v0.1v0.1
			c0,0.1,0,0.2,0.1,0.4c0,0.1,0.1,0.3,0.1,0.5s0,0.4,0,0.6c0,0.2,0,0.4,0,0.6c0,0.1,0,0.2-0.2,0.4c0,0.1,0,0.2,0,0.3
			c0,0.1,0,0.2-0.2,0.2c0.1,0.1,0.1,0.2,0.1,0.3c0,0.1-0.1,0.1-0.1,0.2c0,0,0,0.1,0.1,0.2s0,0.1,0,0.2l0,0l0,0c0,0,0,0.1,0,0.2
			c0,0.1,0.1,0.1,0.1,0.2h-0.1c0,0,0,0.1,0.1,0.2c0,0.1,0,0.1,0,0.2c-0.1,0.1-0.1,0.2,0,0.4c0.1,0.1,0.1,0.3,0,0.4
			c0,0.1,0,0.4,0,0.8c0,0.2,0,0.4,0.1,0.6c0,0.2,0.1,0.4,0.1,0.6c-0.6,0.2-1.2,0.1-1.6-0.4c-0.2,0-0.4,0-0.6,0.1
			c-0.2,0-0.4,0-0.6-0.1c-0.1-0.1-0.2-0.2-0.3-0.4c-0.1-0.2-0.2-0.2-0.4-0.2c-0.1-0.4-0.2-1-0.4-1.4c-0.2-0.4-0.2-0.9-0.2-1.4
			c0,0,0-0.1,0.1-0.1s0,0,0-0.1v-0.1c0,0,0.1-0.1,0.1-0.2c0-0.2,0-0.4,0-0.6c0-0.2,0-0.4-0.1-0.8c0-0.1,0-0.2-0.1-0.4
			c0-0.1,0-0.3,0-0.4l0.1-0.1c0,0,0.1,0,0.1-0.1c0-0.2,0-0.4-0.1-0.5c-0.1-0.1-0.1-0.3,0-0.4c0-0.1,0.1-0.2,0.1-0.4
			c0-0.1,0.1-0.2,0.1-0.3c0-0.1,0-0.2,0-0.2c0-0.1,0-0.1,0-0.2c0-0.1,0-0.2,0.1-0.4c0.1-0.2,0.1-0.3,0.1-0.5c0.3-0.1,0.6-0.2,1-0.2
			c0.3,0,0.5,0.1,0.8,0.3c0.3-0.2,0.6-0.2,0.9-0.1C250.3,209,250.5,209.1,250.7,209.3z"/>
	</g>
	<g>
		<path class="st2" d="M231.6,224"/>
	</g>
	<g>
		<g>
			<path class="st1" d="M226.8,251.6c0.1,0,0.1-0.2,0.1-0.2C226.8,251.4,226.9,251.5,226.8,251.6z M226.7,214.5c0,0.1,0,0.1-0.1,0.1
				c-0.1-0.1-0.1-0.2-0.1-0.4C226.7,214.2,226.6,214.5,226.7,214.5z M226.6,252.4c-0.1,0,0,0.2-0.1,0.2c0.1-0.1,0-0.3,0.1-0.4
				C226.6,252.3,226.6,252.4,226.6,252.4z M226,256.1c0.1,0.3-0.1,0.8-0.1,1C225.8,256.8,226,256.5,226,256.1z M225.8,257.8
				c-0.1-0.2,0-1,0-0.3C225.8,257.6,225.8,257.7,225.8,257.8z M225,253.8c0.1,0,0,0.4,0,0.4C224.9,254.1,225,254,225,253.8z
				 M224.9,255.4c-0.1,0-0.1-0.1-0.1-0.2C224.9,255.2,224.9,255.3,224.9,255.4z M224.7,252.8c-0.1,0,0-0.3-0.1-0.3
				C224.7,252.4,224.7,252.8,224.7,252.8z M223.8,246.8c-0.1,0-0.1-0.4,0-0.5C223.8,246.3,223.8,246.5,223.8,246.8z M227.9,222.3
				c-0.1-0.1-0.1-0.3-0.1-0.4C227.9,222,227.9,222.1,227.9,222.3z M227.3,218.1L227.3,218.1c-0.1,0.8,0,1.8-0.1,2.4
				c0-1.2,0-2.3,0.2-3.1c0.1-0.5,0.4-0.9,0.1-1.3c0.1,0,0.2,0.2,0.2,0.4c0.1,0.4-0.4,1-0.4,1.4c0,0.2,0.1,0.3,0.1,0.6
				C227.5,218.3,227.5,218.2,227.3,218.1z M226.6,252.2c-0.1,0,0-0.2,0-0.3c0,0.1-0.1,0.1-0.1,0.2c0-0.1-0.1-0.1-0.1-0.2
				c-0.2,0.4-0.1,0.6-0.1,1c0,0,0-0.1-0.1-0.1c-0.1,0.3-0.1,0.9,0,1.3c-0.1,0-0.1-0.1-0.1-0.2c-0.1,0,0,0.4-0.1,0.2
				c0,0.3,0.1,0.3,0,0.6c-0.1-0.3-0.1-0.4-0.1-0.8c0,0,0,0.1-0.1,0.2c-0.1-0.1,0-0.2,0-0.3c-0.1,0.5-0.1,1.2-0.1,1.8
				c0-0.2-0.1-0.5-0.1-1c-0.1,0.2-0.1,0.6-0.1,0.9c-0.1-0.3-0.1,0-0.1,0.2c0-1.5-0.1-2.1-0.1-3.7c0,0.3,0,0.4,0,0.8
				c0,0.1-0.1,0.1-0.1,0c0,0,0.1,0.2,0,0.2c-0.2-0.2-0.1-0.9-0.2-1.2c0,0,0,0.1-0.1,0.1c0,0.2,0.1-0.1,0.1,0.2
				c-0.2-0.2-0.1-0.6-0.1-0.9s-0.1-0.5,0-0.9c-0.1,0.2,0,0.8-0.1,1c0,0.1,0,0,0-0.1c0-0.6-0.1-1.7-0.1-2.3c-0.1,0.2,0,0.5,0,1v-0.1
				c-0.1,0.6,0,1.8,0.1,2.7c0,0.2,0.1,0.4,0.1,0.6c0,0.2,0,0.6,0.1,0.9c-0.1,0.3,0,0.4,0.1,0.6c-0.1,0-0.1-0.1-0.1,0
				c0,0.1,0.1,0.1,0.1,0.1c0,0.1-0.1,0.2,0,0.4c-0.1,0,0,0.3,0,0.6c0-0.1,0-0.3,0.1-0.3c0.1,0.4,0,0.9,0,1.4c-0.1-0.3,0-0.9,0-1.3
				c-0.1,0-0.1,0.3-0.1,0.5c-0.6-2.1-1.1-5.7-1-8.4c0.2,0,0.2-0.5,0.2-1c0.1,0.1,0.1,0,0.2,0.1c0,0.1,0,0.2,0,0.4
				c0.1-0.2,0-0.9,0-1.2c-0.1,0,0,0.1,0,0.2c0,0.1,0-0.4-0.1-0.4c-0.1,0.3,0,0.5,0,0.8c-0.2-0.1,0-0.9-0.1-1.2c0-0.1,0.1,0,0.1,0.1
				c0-0.4,0.1-1,0-1.3c0,0.1,0,0.5,0,1c-0.1-0.2,0-0.9,0-1.3c0.1,0,0.1,0.1,0.1,0.2c0.1-0.1,0-0.3-0.1-0.3c0-0.1,0-0.3,0-0.4
				c0.1,0.8-0.2,1.5-0.1,2.2c0,0,0-0.1,0-0.2c0.1,0.1,0,0.5,0,0.9c0,0,0-0.1-0.1-0.1c-0.1,0.3,0,0.9-0.1,1.2c0-1.7-0.1-3.6,0.1-5.3
				c0.1,0.2,0,0.9,0.1,1.2c0-0.1,0-0.8,0-1c0.1,0.3,0,1,0.1,1.4c0.1-2.2,0.1-3.9,0-6.3c0,1,0,1.6,0,2.4l-0.1-0.1c0,0.5,0,1.5,0,2.1
				c-0.1,0,0-0.2,0-0.4c0,0.2-0.1,0.5-0.1,0.8c-0.2-1.2-0.2-2.5-0.4-3.8c0,0,0-0.1,0.1-0.1c0-2.9-0.1-6,0-8.6c0-0.1-0.1-0.1-0.1-0.2
				c0.2-1.5-0.2-3.2,0-5c0.1-0.5-0.1-1.1,0.1-1.5c-0.1-1.3-0.2-3.5,0.1-4.5V218c0.1-0.1,0.1-0.1,0.2-0.3c-0.1-0.2,0-0.6,0.1-1
				c0-0.1-0.1-0.1-0.1-0.1c0.1,0.2,0,0.1,0,0.4c0,0,0-0.4-0.1-0.5c0.1,0.1,0.2-0.1,0.2,0.1c0.1-0.2,0.1-0.6,0.1-1.1
				c0.1,0,0,0.1,0.1,0.2c0.1-0.2,0.2-0.4,0.1-0.8c0.2,0.1,0.2-0.6,0.6-0.5c0.1,0,0-0.1,0-0.2c0.1,0.1,0.2-0.4,0.5-0.2
				c0,0.3,0.5,0.3,0.8,0.5c0.1,0-0.1-0.2,0.1-0.2c0,0.3,0.2,0.5,0.3,0.8c0,0.3-0.1,0.4-0.1,0.5c0.1,0.4,0.3,0.6,0.3,1.2
				c0,0.1,0,0.2,0,0.3s0.1,0.1,0.1,0.1s-0.1,0.1-0.1,0.2c0,0.1,0.1,0.3,0.1,0.4c0,0.1-0.1,0.3-0.1,0.4c0,0.3,0.1,0.5,0.1,0.9
				c0.1,1.7,0,4,0.1,6c0,0.5,0,1.2,0,1.6c0,2.2,0,4.3,0.1,6.6c0,0.1,0,0.5,0,0.9c0.1,4.2,0.3,9.9,0.1,14.4c-0.1,0,0,0.1-0.1,0
				c0,0.1,0,0.1,0.1,0.1c0,0.2-0.1,0.2-0.1,0.4c-0.1,0.5-0.1,1.4-0.3,1.6c0.1-0.9,0.3-1.7,0.3-2.6c-0.2,0.5-0.1,1.5-0.5,1.8
				c0.1,0.3-0.1,0.4,0,0.6C226.5,251.2,226.7,252,226.6,252.2z M225.3,255.3v-0.4C225.2,254.8,225.3,255.3,225.3,255.3z M225,252.7
				c0.1,0.1,0,0.2,0.1,0.2C225,252.8,225.1,252.7,225,252.7z M227.2,247.3c0-0.2-0.1-0.2,0-0.4C227.1,247,227.1,247.3,227.2,247.3z
				 M227.2,247.8c0-0.1,0-0.3,0-0.3C227.1,247.6,227.1,247.8,227.2,247.8z M224.2,216.9c0,0.2-0.1,0.6,0.1,0.8
				C224.3,217.3,224.3,217,224.2,216.9z M226.5,252.8c0,0.1-0.1,0.1,0,0.3C226.4,253.2,226.5,252.9,226.5,252.8
				C226.5,252.8,226.5,252.9,226.5,252.8z M226.2,253.6C226.3,253.7,226.2,253.7,226.2,253.6c-0.1,0-0.1-0.2-0.1-0.4
				C226.3,253.3,226,253.6,226.2,253.6z M225,255c-0.1,0,0-0.2-0.1-0.3C225,254.5,225,254.9,225,255z M224.5,214.9
				c0,0.1-0.1,0.5-0.2,0.5C224.3,215.3,224.5,215.1,224.5,214.9z"/>
		</g>
	</g>
	<g>
		<g>
			<path class="st1" d="M221.6,215.4c0.1,0.1,0.2,0,0.3-0.1C221.8,215.1,221.7,215.4,221.6,215.4z M248.7,194.2
				c-0.1,0-0.1,0.1-0.2,0c0-0.1,0.1-0.2,0.2-0.3C248.8,193.9,248.6,194,248.7,194.2z M221,215.7c-0.1-0.1-0.2,0.1-0.3,0
				c0.1-0.1,0.2-0.2,0.3-0.2C221.1,215.5,220.8,215.6,221,215.7z M217.8,217.3c-0.1,0.2-0.6,0.4-0.8,0.5
				C217.3,217.6,217.6,217.5,217.8,217.3z M216.5,218.2c0.1-0.2,0.6-0.5,0.2-0.2C216.7,218.1,216.6,218.2,216.5,218.2z M218.9,215.1
				c0,0.1-0.2,0.2-0.3,0.2C218.7,215.3,218.8,215.3,218.9,215.1z M217.6,216.1c-0.1-0.1,0-0.1,0.1-0.2
				C217.8,215.9,217.8,216,217.6,216.1z M219.4,214.4c0-0.1,0.2-0.1,0.1-0.2C219.8,214.2,219.4,214.4,219.4,214.4z M223.2,210.2
				c-0.1-0.1,0.2-0.3,0.4-0.3C223.4,209.9,223.3,210.1,223.2,210.2z M243.6,199.4c0-0.1,0.2-0.2,0.2-0.3
				C243.8,199.2,243.7,199.4,243.6,199.4z M246.4,196.7C246.4,196.6,246.3,196.6,246.4,196.7c-0.6,0.3-1.4,1-1.8,1.2
				c0.9-0.6,1.6-1.3,2.4-1.6c0.4-0.2,0.9-0.2,1-0.6c0,0.1,0,0.3-0.1,0.4c-0.3,0.3-1,0.2-1.3,0.4c-0.2,0.1-0.2,0.3-0.4,0.4
				C246.2,196.8,246.3,196.8,246.4,196.7z M221.1,215.5c-0.1-0.1,0.1-0.1,0.1-0.2c-0.1,0-0.1,0-0.2,0.1c0-0.1,0-0.1,0.1-0.2
				c-0.4,0.1-0.5,0.3-0.9,0.4c0,0,0.1-0.1,0-0.1c-0.3,0.1-0.8,0.4-1,0.8c0-0.1,0-0.1,0.1-0.2c-0.1-0.1-0.3,0.2-0.2,0
				c-0.2,0.2-0.1,0.2-0.4,0.4c0.2-0.2,0.2-0.4,0.5-0.5c-0.1,0-0.1,0.1-0.2,0.1c0-0.1,0.2-0.1,0.2-0.2c-0.5,0.2-1,0.5-1.4,1
				c0.1-0.1,0.4-0.4,0.6-0.6c-0.2,0.1-0.4,0.3-0.8,0.4c0.1-0.2-0.1,0-0.2,0c1.1-0.9,1.4-1.2,2.5-2.3c-0.2,0.1-0.4,0.2-0.5,0.4
				c0,0-0.2,0-0.1-0.1c0,0-0.1,0.2-0.2,0.1c0-0.3,0.5-0.6,0.8-0.9h-0.1c-0.1,0.1,0.1,0-0.1,0.2c0-0.3,0.3-0.4,0.5-0.6
				c0.2-0.1,0.3-0.3,0.5-0.5c-0.2,0-0.5,0.4-0.8,0.5c-0.1,0,0,0,0-0.1c0.4-0.4,1.2-1.1,1.6-1.4c-0.2,0-0.4,0.2-0.6,0.5
				c0,0,0-0.1,0.1-0.1c-0.4,0.3-1.4,1.1-1.8,1.6c-0.1,0.1-0.2,0.3-0.3,0.4c-0.1,0.1-0.4,0.4-0.5,0.6c-0.2,0.1-0.2,0.2-0.4,0.4v-0.1
				c-0.1,0.1,0,0.1,0,0.2c-0.1,0-0.3,0.1-0.2,0.2c-0.1-0.1-0.2,0.2-0.4,0.4c0.1,0,0.2-0.1,0.3-0.1c-0.2,0.3-0.6,0.5-1,0.8
				c0.2-0.3,0.6-0.5,0.9-0.8c-0.1-0.1-0.3,0.1-0.4,0.2c1-1.7,3.4-4.2,5.4-5.7c0.1,0.1,0.5-0.1,0.9-0.3c0,0.1,0,0.1,0,0.2
				c-0.1,0-0.1,0.2-0.3,0.2c0.2,0,0.5-0.5,0.9-0.6c0-0.1-0.1,0.1-0.2,0.1c-0.1,0,0.2-0.2,0.2-0.3c-0.3,0.1-0.4,0.2-0.5,0.4
				c-0.1-0.2,0.6-0.5,0.9-0.8c0.1-0.1,0,0.1-0.1,0.1c0.3-0.2,0.8-0.5,1-0.8c-0.1,0-0.4,0.2-0.8,0.5c0.1-0.2,0.6-0.4,0.9-0.8
				c0.1,0.1,0,0.1-0.1,0.2c0.1,0,0.2-0.2,0.2-0.2c0.1-0.1,0.2-0.2,0.3-0.3c-0.5,0.4-1.2,0.8-1.6,1.2c0,0,0.1,0,0.1-0.1
				c0,0.1-0.4,0.2-0.6,0.5c0,0,0-0.1,0.1-0.1c-0.2,0.1-0.6,0.5-0.9,0.6c1.3-1.1,2.5-2.2,3.9-3c-0.1,0.2-0.5,0.5-0.8,0.8
				c0.1-0.1,0.6-0.4,0.8-0.5c-0.1,0.3-0.6,0.5-1,0.9c1.6-1.2,2.9-2.2,4.5-3.7c-0.8,0.6-1.2,1-1.6,1.5c0,0,0-0.1,0.1-0.1
				c-0.4,0.2-1.1,0.9-1.5,1.2c0-0.1,0.1-0.2,0.2-0.2c-0.2,0.1-0.4,0.2-0.6,0.4c0.8-0.9,1.6-1.6,2.5-2.5c0,0,0.1-0.1,0.1,0
				c2.2-1.6,4.3-3.6,6.2-4.9c0.1,0,0-0.1,0.1-0.2c1.2-0.6,2.3-1.9,3.7-2.8c0.4-0.2,0.8-0.8,1.2-0.8c0.9-0.8,2.5-2.2,3.5-2.4l0.2-0.2
				c0.1,0,0.2,0,0.3,0c0.1-0.2,0.4-0.3,0.8-0.5v-0.1c0,0.2-0.1,0-0.2,0.2c0,0,0.2-0.2,0.3-0.3c0,0.1,0.2,0.1,0.1,0.2
				c0.2,0,0.5-0.2,0.9-0.4c0,0.1-0.1,0-0.1,0.1c0.2-0.1,0.5,0,0.6-0.3c0.1,0.2,0.5-0.2,0.8,0.2c0,0.1,0.1-0.1,0.2-0.1
				c0.1,0.2,0.4,0,0.5,0.3c-0.2,0.2,0.1,0.6,0,0.9c0.1,0.1,0.1-0.2,0.2-0.1c-0.2,0.1-0.3,0.4-0.4,0.6c-0.2,0.2-0.4,0.1-0.5,0.2
				c-0.2,0.4-0.3,0.6-0.8,1c-0.1,0-0.2,0.1-0.2,0.1c-0.1,0-0.1,0.1-0.1,0.1s-0.1,0-0.2,0.1c-0.1,0.1-0.1,0.2-0.2,0.3
				c-0.1,0.1-0.2,0.1-0.3,0.1c-0.2,0.1-0.4,0.3-0.6,0.5c-1.3,1.1-2.9,2.2-4.3,3.4c-0.4,0.3-0.8,0.6-1.2,1c-1.6,1.2-3.1,2.4-4.8,3.8
				c0,0-0.4,0.2-0.6,0.4c-3,2.5-6.9,5.8-10.3,8.4c-0.1,0-0.1,0-0.1-0.1c-0.1,0,0,0.1,0,0.1c-0.2,0.1-0.2,0.1-0.4,0.2
				c-0.4,0.2-1.1,0.8-1.4,0.8c0.6-0.4,1.5-0.8,2.1-1.3c-0.5,0.1-1.2,0.8-1.6,0.8c-0.1,0.2-0.4,0.1-0.4,0.4
				C221.7,214.8,221.4,215.4,221.1,215.5z M218,216.2l0.3-0.2C218.4,215.9,218,216.2,218,216.2z M219.7,214.5
				c-0.1,0.1-0.2,0.1-0.1,0.2C219.7,214.6,219.8,214.6,219.7,214.5z M225,213.1c0.1-0.1,0.1-0.1,0.2-0.2L225,213.1z M224.6,213.4
				c0.1-0.1,0.2-0.1,0.2-0.2C224.7,213.2,224.5,213.4,224.6,213.4z M245.4,193.5c-0.2,0.1-0.6,0.2-0.5,0.4
				C245.1,193.8,245.3,193.6,245.4,193.5z M220.5,215.8c0,0.1-0.1,0-0.2,0.2C220.3,215.9,220.5,215.9,220.5,215.8L220.5,215.8z
				 M219.8,216L219.8,216c0-0.1,0.1-0.1,0.2-0.2C220.1,215.9,219.8,215.9,219.8,216z M218.1,215.9c0-0.1,0.2-0.2,0.2-0.2
				C218.4,215.6,218.1,215.8,218.1,215.9z M247.1,192.6c-0.1,0.1-0.5,0.2-0.5,0.1C246.7,192.6,246.8,192.7,247.1,192.6z"/>
		</g>
	</g>
	<g>
		<g>
			<path class="st1" d="M253.8,196.8c0,0.1,0.1,0.1,0.1,0.2C254.1,197,253.9,197,253.8,196.8z M280,216.8c0-0.1-0.1-0.1,0-0.2
				c0.1,0,0.2,0,0.3,0.1C280.2,216.9,280.1,216.7,280,216.8z M253.4,196.3c0-0.1-0.1-0.2-0.1-0.2c0.1,0.1,0.2,0.2,0.2,0.2
				C253.5,196.4,253.4,196.3,253.4,196.3z M251.1,193.9c-0.3-0.1-0.5-0.4-0.6-0.5C250.6,193.5,250.7,193.8,251.1,193.9z
				 M249.9,193.1c0.2,0.1,0.8,0.4,0.2,0.1C250,193.2,250,193.1,249.9,193.1z M253.3,194.2c-0.1,0-0.3-0.1-0.3-0.2
				C253.1,194,253.2,194.1,253.3,194.2z M252.1,193.4c0-0.1,0.1,0,0.2,0C252.2,193.5,252.2,193.5,252.1,193.4z M254.2,194.6
				c0-0.1,0.2,0.2,0.2,0.1C254.5,194.8,254.2,194.6,254.2,194.6z M259.2,196.8c0.1-0.1,0.4,0.1,0.4,0.2
				C259.4,197.1,259.3,197,259.2,196.8z M273.9,213.3c0.1,0,0.2,0.1,0.4,0.1C274.1,213.4,274,213.4,273.9,213.3z M277.2,215.3
				C277.2,215.3,277.2,215.1,277.2,215.3c-0.4-0.5-1.3-1.1-1.5-1.4c0.8,0.6,1.5,1.3,1.9,1.9c0.2,0.4,0.3,0.8,0.9,0.8
				c-0.1,0.1-0.3,0-0.4,0c-0.3-0.2-0.4-0.8-0.6-1.2c-0.1-0.2-0.3-0.1-0.4-0.3C276.9,215,277,215.1,277.2,215.3z M253.7,196.4
				c0-0.1,0.2,0.1,0.2,0.1c0-0.1,0-0.1-0.1-0.2c0.1,0,0.1-0.1,0.2,0c-0.2-0.4-0.4-0.3-0.6-0.6h0.1c-0.2-0.2-0.5-0.5-1-0.6
				c0-0.1,0.1,0,0.2,0.1c0-0.1-0.3-0.2-0.1-0.2c-0.2-0.2-0.2-0.1-0.4-0.3c0.3,0.1,0.4,0.1,0.6,0.2c0-0.1-0.1-0.1-0.1-0.1
				c0.1-0.1,0.1,0.1,0.2,0.1c-0.3-0.4-0.9-0.8-1.3-1c0.1,0,0.4,0.2,0.8,0.4c-0.1-0.1-0.4-0.3-0.6-0.5c0.2,0.1,0-0.1,0-0.2
				c1.2,0.8,1.5,1,2.8,1.6c-0.2-0.1-0.3-0.2-0.5-0.3v-0.1c0-0.1-0.2,0-0.2-0.2c0.2-0.1,0.8,0.3,1.1,0.4c0,0-0.1-0.1,0-0.1
				c-0.1-0.1,0,0.1-0.2,0c0.3-0.1,0.5,0.2,0.8,0.3c0.2,0.1,0.4,0.2,0.6,0.4c0-0.2-0.5-0.4-0.8-0.5c0-0.1,0,0,0.1,0
				c0.4,0.3,1.3,0.8,1.7,1.1c-0.1-0.2-0.3-0.2-0.6-0.5h0.1c-0.4-0.3-1.3-1-2.1-1.3c-0.2-0.1-0.4-0.1-0.5-0.2
				c-0.1-0.1-0.4-0.3-0.8-0.2c-0.1-0.2-0.2-0.2-0.5-0.2c0,0,0.1,0,0-0.1s-0.1,0.1-0.2,0c0,0-0.1-0.2-0.2-0.2
				c0.1-0.1-0.2-0.1-0.4-0.3c0,0.1,0.2,0.2,0.1,0.3c-0.4-0.1-0.6-0.4-1-0.6c0.3,0.1,0.6,0.4,1,0.6c0-0.1-0.2-0.2-0.3-0.3
				c1.9,0.4,4.9,1.9,6.8,3.4c-0.1,0.1,0.2,0.5,0.5,0.8c-0.1,0-0.1,0.1-0.2,0.1c0-0.1-0.2-0.1-0.3-0.2c0.1,0.1,0.6,0.4,0.9,0.6
				c0-0.1-0.1-0.1-0.2-0.1c0-0.1,0.3,0.2,0.4,0.1c-0.2-0.2-0.3-0.3-0.5-0.4c0.1-0.1,0.6,0.5,0.9,0.5c0.1,0.1-0.1,0.1-0.1,0
				c0.3,0.2,0.6,0.5,1,0.6c-0.1-0.1-0.4-0.3-0.6-0.5c0.3,0,0.6,0.4,1,0.6c0,0.1-0.1,0-0.2,0c0,0.1,0.2,0.2,0.3,0.1
				c0.1,0.1,0.2,0.2,0.3,0.2c-0.5-0.3-1-0.9-1.5-1.2l0.1,0.1c-0.1,0.1-0.4-0.2-0.6-0.4h0.1c-0.1-0.2-0.6-0.4-0.9-0.6
				c1.3,0.9,2.6,1.7,3.8,2.8c-0.2,0-0.6-0.4-1-0.5c0.1,0.1,0.5,0.4,0.6,0.5c-0.3,0-0.6-0.5-1-0.6c1.5,1.2,2.8,2.2,4.5,3.2
				c-0.6-0.5-1.2-0.9-1.7-1.3h0.1c-0.3-0.2-1.1-0.8-1.4-1.1c0.1,0,0.2,0.1,0.2,0.2c-0.1-0.1-0.3-0.3-0.5-0.5c1,0.4,1.9,1.2,2.9,1.7
				c0,0,0.1,0.1,0,0.1c2.1,1.6,4.4,3.1,6.1,4.7c0.1,0,0.1,0,0.2,0c0.9,1,2.4,1.6,3.5,2.8c0.3,0.3,0.9,0.5,1,0.9c1,0.6,2.5,1.8,3,2.7
				l0.2,0.2c0,0.1,0,0.2,0.1,0.3c0.2,0,0.4,0.3,0.6,0.6c0.1,0,0.1,0,0.1,0c-0.2,0-0.1-0.1-0.2-0.2c0,0,0.3,0.1,0.4,0.2
				c-0.1,0-0.1,0.2-0.2,0.1c0.1,0.2,0.3,0.4,0.6,0.6c-0.1,0.1-0.1,0-0.2-0.1c0.1,0.2,0.1,0.4,0.4,0.5c-0.2,0.1,0.2,0.5,0,0.8
				l0.1,0.1c-0.1,0.1,0.1,0.4-0.2,0.5c-0.2-0.2-0.5,0.2-0.9,0.2c0,0.1,0.2,0.1,0.1,0.1c-0.2-0.2-0.5-0.2-0.6-0.2
				c-0.2-0.1-0.2-0.3-0.3-0.4c-0.4-0.1-0.6-0.1-1-0.4c-0.1-0.1-0.1-0.1-0.2-0.2c-0.1,0-0.1,0-0.1,0l-0.1-0.1c-0.1-0.1-0.3,0-0.4-0.1
				c-0.1,0-0.1-0.2-0.2-0.2c-0.2-0.2-0.4-0.2-0.6-0.4c-1.3-1-2.7-2.3-4.1-3.2c-0.4-0.2-0.8-0.6-1.2-0.9c-1.5-1.2-3-2.4-4.7-3.6
				c0,0-0.3-0.3-0.6-0.5c-3-2.2-7.1-5-10.4-7.4c0-0.1-0.1-0.1,0-0.1c-0.1,0-0.1,0-0.1,0c-0.1-0.1-0.1-0.1-0.2-0.3
				c-0.3-0.4-1-0.8-1-1.1c0.5,0.5,1.2,1.2,1.7,1.5c-0.2-0.4-1-0.9-1.1-1.3c-0.2-0.1-0.2-0.3-0.4-0.3
				C254.4,196.7,253.8,196.6,253.7,196.4z M252,193.8l0.3,0.2C252.5,194,252,193.8,252,193.8z M254.2,194.8c-0.1,0-0.1-0.1-0.2-0.1
				C254,194.8,254.1,194.9,254.2,194.8z M256.8,199.4c0.1,0.1,0.2,0.1,0.2,0.2C257.1,199.4,256.8,199.3,256.8,199.4z M256.4,199.1
				c0.1,0,0.2,0.2,0.2,0.1S256.5,199.1,256.4,199.1z M280,213.5c-0.1-0.1-0.4-0.5-0.5-0.4C279.6,213.3,279.9,213.5,280,213.5z
				 M253.1,196c-0.1,0-0.1-0.1-0.2-0.1C252.9,195.8,253.1,195.9,253.1,196L253.1,196z M252.8,195.3
				C252.7,195.4,252.7,195.3,252.8,195.3l0.2,0.1C253,195.7,252.9,195.3,252.8,195.3z M252.5,193.7c0.1-0.1,0.2,0.1,0.3,0.1
				C252.8,193.9,252.6,193.8,252.5,193.7z M281.1,214.8c-0.1,0-0.2-0.4-0.2-0.4C281.1,214.6,281.1,214.7,281.1,214.8z"/>
		</g>
	</g>
</g>
</svg>
