<?xml version="1.0" encoding="utf-8"?>
<!-- Generator: Adobe Illustrator 19.0.0, SVG Export Plug-In . SVG Version: 6.00 Build 0)  -->
<svg version="1.1" id="edfeb08d-cf64-4dc3-bad9-eda805eddb33"
	 xmlns="http://www.w3.org/2000/svg" xmlns:xlink="http://www.w3.org/1999/xlink" x="0px" y="0px" viewBox="171 -240 941 780"
	 style="enable-background:new 171 -240 941 780;" xml:space="preserve">
<style type="text/css">
	.st0{fill:#F2F2F2;}
	.st1{fill:#3F3D56;}
	.st2{opacity:0.1;enable-background:new    ;}
	.st3{fill:#EA8A8A;}
	.st4{fill:#A8A8A8;}
	.st5{opacity:0.2;enable-background:new    ;}
	.st6{fill:#FFB9B9;}
	.st7{fill:#2C5364;}
	.st8{fill:#2F2E41;}
	.st9{opacity:0.3;fill:#EA8A8A;enable-background:new    ;}
</style>
<title>personal text</title>
<circle class="st0" cx="739" cy="133" r="373"/>
<path class="st1" d="M1083,492c0,15.5-204.2,48-456,48s-456-32.5-456-48s204.2-8,456-8S1083,476.5,1083,492z"/>
<path class="st2" d="M1083,492c0,15.5-204.2,48-456,48s-456-32.5-456-48s204.2-8,456-8S1083,476.5,1083,492z"/>
<ellipse class="st1" cx="627" cy="492" rx="456" ry="28"/>
<path class="st1" d="M893.2,359.4c0,63.2,39.7,114.3,88.7,114.3"/>
<path class="st3" d="M981.8,473.8c0-63.9,44.2-115.6,98.9-115.6"/>
<path class="st3" d="M925.3,365.1c0,60,25.3,108.6,56.5,108.6"/>
<path class="st1" d="M981.8,473.8c0-81.7,51.1-147.8,114.3-147.8"/>
<path class="st4" d="M963.2,474.6c0,0,12.6-0.4,16.4-3.1s19.3-5.9,20.3-1.6s18.9,21.5,4.7,21.6s-33-2.2-36.8-4.5
	S963.2,474.6,963.2,474.6z"/>
<path class="st5" d="M1004.8,490c-14.2,0.1-33-2.2-36.8-4.5c-2.9-1.8-4-8-4.4-11c-0.3,0-0.4,0-0.4,0s0.8,10.1,4.6,12.4
	s22.6,4.6,36.8,4.5c4.1,0,5.5-1.5,5.4-3.6C1009.4,489.2,1007.8,490,1004.8,490z"/>
<path class="st6" d="M743.6-4.7c0,0,12.8,26.9,7.7,39.7s19.2,26.9,19.2,26.9l32-17.9v-23l-5.1-10.2c0,0-20.5-11.5-17.9-29.4
	S743.6-4.7,743.6-4.7z"/>
<path class="st2" d="M743.6-4.7c0,0,12.8,26.9,7.7,39.7s19.2,26.9,19.2,26.9l32-17.9v-23l-5.1-10.2c0,0-20.5-11.5-17.9-29.4
	S743.6-4.7,743.6-4.7z"/>
<path class="st6" d="M719.3,107.9c0,0-2.6,28.1-2.6,32s-3.8,16.6-3.8,16.6s-14.1,65.2-23,71.6s-14.1,46.1,0,43.5
	s17.9-37.1,17.9-37.1l29.1-55l4.1-66.5L719.3,107.9z"/>
<path class="st7" d="M729.6,51.6h-10.2c0,0-10.2,61.4,0,64s29.4,2.6,29.4,2.6L729.6,51.6z"/>
<polygon class="st6" points="787.1,446.9 792.2,471.2 802.5,463.5 797.4,441.8 787.1,445.6 "/>
<path class="st1" d="M741.1,187.2l-7.7,5.1c0,0-3.8,44.8,5.1,79.3s15.4,75.5,15.4,75.5s15.4,102.3,19.2,104.9s28.1,3.8,29.4-1.3
	s-9-101.1-9-101.1s-7.7-80.6-1.3-90.8c0,0,20.5,88.3,26.9,97.2c0,0,9,97.2,14.1,99.8s29.4,3.8,30.7-1.3s-7.7-115.1-11.5-124.1
	s-5.1-142-14.1-140.7S741.1,187.2,741.1,187.2z"/>
<circle class="st6" cx="756.4" cy="-22.6" r="29.4"/>
<path class="st7" d="M767.9,42.6l-6.4-11.5c0,0-7.7-10.2-11.5-7.7S746.2,35,746.2,35s-29.4,10.2-26.9,24.3s19.2,38.4,19.2,38.4
	s2.6,20.5,0,25.6s-7.7,9-3.8,14.1s5.1,6.4,3.8,12.8s-3.8,9-1.3,11.5s-1.3,29.4-3.8,30.7s81.9,14.1,88.3,10.2s24.3-3.8,23-7.7
	s-6.4-26.9-6.4-30.7s0-20.5-1.3-21.7s1.3-20.5,1.3-20.5l-6.4-53.7l20.5-32c0,0-5.1-17.9-29.4-20.5s-31-9-31-9s-2.2,11.5-7.3,14.1
	S767.9,42.6,767.9,42.6z"/>
<path class="st6" d="M861.3,77.2l7.7,57.6l-16.6,83.2c0,0-6.4,47.3-19.2,46.1s0-51.2,0-51.2l10.2-78c0,0-16.6-39.7-12.8-44.8
	S861.3,77.2,861.3,77.2z"/>
<path class="st8" d="M798.6,459.7c0,0-16.6-9-20.5-7.7s-7.7,19.2-7.7,19.2s-29.4,21.7-10.2,26.9s26.9-6.4,26.9-6.4
	s19.2-10.2,19.2-12.8s-2.6-19.2-2.6-19.2L798.6,459.7z"/>
<path class="st8" d="M837,453.3c0,0-7.7,42.2-2.6,44.8s26.9,6.4,29.4,0s2.6-21.7,1.3-26.9s-5.1-17.9-5.1-17.9H837z"/>
<path class="st8" d="M751.3-69.1c-1.1-0.3-2.4-0.4-3.5-0.1c-1.5,0.5-2.4,1.8-3.6,2.9c-2.9,2.8-7.1,3.7-10.9,5s-7.8,3.7-8.8,7.6
	c-0.2,1.6-0.4,3.2-0.4,4.8c-0.6,4.6-4.1,8.8-3.5,13.4c0.4,3,2.6,5.6,3,8.6c0.5,3.4-1.2,6.9-0.3,10.1c0.9,3.2,4.1,5.2,7,6.8
	c1.2-7.9,2.7-15.7,4.5-23.5c0.2-1.4,0.7-2.7,1.6-3.9c2.6-2.9,7.6-1.3,11-3.2c1.3-0.8,2.2-2,3.5-2.6c3.9-1.8,8,2.2,12.3,2.3
	c1.9,0,4-0.7,5.5,0.3c0.7,0.5,1.3,1.2,1.6,2c1.5,2.9,2.4,6.1,4.1,8.8s5,4.9,8.1,4.2c-0.5-2.4,1.4-4.6,2.2-7
	c1.3-4.1-0.8-8.5-0.3-12.7c0.5-4,3.1-8.7,0.2-11.5c-1-0.8-2.1-1.4-3.4-1.7C771.2-62,761.9-67.4,751.3-69.1z"/>
<path class="st7" d="M839.6,31.1l12.8,5.1c0,0,16.6,53.7,12.8,53.7s-38.4,9-38.4,5.1S829.3,31.1,839.6,31.1z"/>
<polygon class="st1" points="637,-78 241,-78 241,52 256,52 256,86 290,52 637,52 "/>
<polygon class="st1" points="637,272 241,272 241,402 256,402 256,436 290,402 637,402 "/>
<polygon class="st1" points="311,98 707,98 707,228 692,228 692,262 658,228 311,228 "/>
<rect x="287" y="-56.5" class="st9" width="304" height="12"/>
<rect x="287" y="-33.5" class="st9" width="152" height="12"/>
<circle class="st9" cx="304" cy="13.5" r="17"/>
<rect x="347" y="117.5" class="st3" width="304" height="12"/>
<rect x="347" y="140.5" class="st3" width="152" height="12"/>
<circle class="st3" cx="364" cy="187.5" r="17"/>
<rect x="287" y="293.5" class="st9" width="304" height="12"/>
<rect x="287" y="316.5" class="st9" width="152" height="12"/>
<circle class="st9" cx="304" cy="363.5" r="17"/>
</svg>
