<?xml version="1.0" encoding="utf-8"?>
<!-- Generator: Adobe Illustrator 19.0.0, SVG Export Plug-In . SVG Version: 6.00 Build 0)  -->
<svg version="1.1" id="b8eef085-bbb0-4c81-9a53-f8aa424b48dc"
	 xmlns="http://www.w3.org/2000/svg" xmlns:xlink="http://www.w3.org/1999/xlink" x="0px" y="0px" viewBox="382 -0.1 937.3 418.3"
	 style="enable-background:new 382 -0.1 937.3 418.3;" xml:space="preserve">
<style type="text/css">
	.st0{fill:#3F3D56;}
	.st1{fill:#CCCCCC;}
</style>
<title>aircraft</title>
<path class="st0" d="M1241.6,209.9c-9.8,3.6-26.9,6.6-46.8,8.9c-54,6.5-128,8.8-128,8.8s-380.4,31.5-665.5-85.8c0,0-41.5-21.7-3-51
	c5.9-4.4,12.2-8.2,18.8-11.5l0.5-0.5c4.4-4,9.1-7.7,14.1-10.9c14.8-9.5,39.7-20.9,70.1-15.7l748.8,121.1
	C1250.6,173.4,1278,196.5,1241.6,209.9z"/>
<path class="st0" d="M1092.4,155l156.8-111.2l69.1,12l-67.7,117.6C1250.6,173.4,1094.2,174.6,1092.4,155z"/>
<polygon class="st0" points="697.8,87.5 1010,-0.1 1060.4,10.4 919.3,73.9 875.2,123.2 "/>
<path class="st1" d="M1194.8,218.9c-54,6.5-128,8.8-128,8.8s-380.4,31.5-665.5-85.8c0,0-41.5-21.7-3-51l0.1,0.5
	c0,0,61.5,41.6,355.5,76.3L1194.8,218.9z"/>
<path class="st0" d="M1144.7,216.5l139.6,57l35.1-3.9l-83.5-62.8C1235.8,206.8,1134.8,185.3,1144.7,216.5z"/>
<path class="st1" d="M449.1,97.5c-6.7,0.1-21.9-11.1-31.4-18.6c4.4-4,9.1-7.7,14.1-10.9c7.7,5.9,21.3,15.4,28.8,15
	C471.6,82.6,459.1,97.3,449.1,97.5z"/>
<path class="st0" d="M1083.3,413.5l-89.6,4.7l-252-169.9l-46.8-31.5l-22.7-15.3c42.6-36,216.6,13.7,216.6,13.7
	c3.3,2.8,4.4,7.5,4.2,12.6c-0.3,9.7-4.8,21-6.6,25.1c-0.4,1-0.7,1.5-0.7,1.5L1083.3,413.5z"/>
</svg>
