<?xml version="1.0" encoding="utf-8"?>
<!-- Generator: Adobe Illustrator 19.0.0, SVG Export Plug-In . SVG Version: 6.00 Build 0)  -->
<svg version="1.1" id="d6147fb8-5a87-4dd3-b5f0-ace64eac798a"
	 xmlns="http://www.w3.org/2000/svg" xmlns:xlink="http://www.w3.org/1999/xlink" x="0px" y="0px"
	 viewBox="279 -167.5 1057.2 835.5" style="enable-background:new 279 -167.5 1057.2 835.5;" xml:space="preserve">
<style type="text/css">
	.st0{opacity:0.1;fill:#EA8A8A;enable-background:new    ;}
	.st1{fill:#EA8A8A;}
	.st2{fill:none;stroke:#535461;stroke-miterlimit:10;}
	.st3{fill:none;stroke:#535461;stroke-width:2;stroke-miterlimit:10;}
	.st4{opacity:0.25;enable-background:new    ;}
	.st5{fill:#DBACA2;}
	.st6{fill:#E8C2B8;}
	.st7{opacity:0.1;enable-background:new    ;}
	.st8{fill:#EBECF0;}
	.st9{fill:#F8F9FA;}
	.st10{fill:url(#SVGID_1_);}
	.st11{fill:#FFD5D8;}
	.st12{fill:#FF7C5E;}
	.st13{opacity:5.000000e-02;enable-background:new    ;}
	.st14{fill:#85596B;}
</style>
<title>sleep analysis</title>
<path class="st0" d="M1262.7,395.7c-41.3,30.7-44.9,91-37.8,142c2.4,17.1,5.4,35.3-1.8,50.9c-8.8,19.1-30.7,28.9-51.6,31.6
	c-38.1,4.9-78.2-9.7-104.3-37.8c-22.6-24.3-34.6-57.1-57.9-80.8c-39-39.6-100.7-45.4-156-40.5c-39.2,3.5-82.7,10.1-114.3-13.3
	c-22.2-16.5-33-44.7-35.6-72.2c-1.2-13.3-1-27.2-7-39.2c-3.6-7.1-9.2-12.9-15.1-18.2c-54.2-48.1-137.9-53-189.4-104
	c-34.8-34.5-49.2-85.5-48.4-134.5c0.8-49,15.2-96.6,31-143c11.2-32.9,24.7-67.7,53.1-87.7c30-21.2,71.7-20.8,105.4-6.1
	c33.7,14.8,60.5,41.9,82.6,71.4C743.1-48.8,766.3-6,806.3,16.7c27.3,15.5,59.2,19.7,89.8,26.5c51.1,11.3,100.2,30.4,148.8,49.8
	c46.6,18.6,93.3,37.9,134.8,66c29.4,19.9,49.9,47,76.7,69.4c17.5,14.6,38.5,23,54.2,39.8c19.4,20.7,33.9,51.4,20,79
	C1317.5,373.4,1284.6,379.4,1262.7,395.7z"/>
<path class="st1" d="M286.1,397.1c0,0-49.6,77.4,112.9,78.8c0,0,2.4-67.4-50.7-95.1c-21.4-11.2-47.8-4.7-61.4,15.2L286.1,397.1z"/>
<path class="st2" d="M286.5,395.8c0,0,83.2,16.4,112.6,80.1"/>
<path class="st3" d="M406.3,465.5c0,0-53.4-69.1-48.6-137.1c2-28.6-4.7-57.1-20.2-81.2c-7.4-11.4-15.8-22.1-25.1-32"/>
<path class="st1" d="M315.2,172.2c3.7,9.6-2.8,44-2.8,44s-28.1-21-31.9-30.5c-4-9.4,0.3-20.4,9.8-24.4c9.4-4,20.4,0.3,24.4,9.8
	C314.9,171.4,315.1,171.8,315.2,172.2z"/>
<path class="st1" d="M364.5,214c-2.1,10.1-26.3,35.5-26.3,35.5s-12.2-32.9-10.2-43c1.8-10.1,11.5-16.8,21.6-15
	c10.1,1.8,16.8,11.5,15,21.6C364.7,213.4,364.6,213.7,364.5,214L364.5,214z"/>
<path class="st1" d="M398.6,305c-6.9,7.6-40.6,17.4-40.6,17.4s6.1-34.6,12.9-42.2c7-7.5,18.7-8,26.3-1.1
	C404.6,285.9,405.2,297.4,398.6,305z"/>
<path class="st1" d="M408.9,379.7c-5.5,8.7-37.1,24-37.1,24s0.1-35.1,5.6-43.8c5.3-8.8,16.7-11.6,25.5-6.4
	c8.8,5.3,11.6,16.7,6.4,25.5C409.2,379.3,409,379.5,408.9,379.7L408.9,379.7z"/>
<path class="st1" d="M302.6,265.5c9.5,4,44.1-1.6,44.1-1.6s-20.2-28.7-29.6-32.7c-9.5-4-20.4,0.4-24.4,9.9
	C288.7,250.6,293.1,261.5,302.6,265.5z"/>
<path class="st1" d="M315.8,352.7c10.2,1,41.6-14.7,41.6-14.7s-27.9-21.3-38.1-22.3c-10.2-1.2-19.5,6-20.7,16.2
	c-1.2,10.2,6,19.5,16.2,20.7C315.1,352.6,315.4,352.7,315.8,352.7L315.8,352.7z"/>
<path class="st1" d="M340.2,435.7c9.9,2.7,43.5-7.5,43.5-7.5s-23.9-25.7-33.8-28.4c-9.9-2.9-20.2,2.8-23,12.6
	c-2.9,9.9,2.8,20.2,12.6,23C339.7,435.5,339.9,435.6,340.2,435.7L340.2,435.7z"/>
<path class="st4" d="M315.2,172.2c3.7,9.6-2.8,44-2.8,44s-28.1-21-31.9-30.5c-4-9.4,0.3-20.4,9.8-24.4c9.4-4,20.4,0.3,24.4,9.8
	C314.9,171.4,315.1,171.8,315.2,172.2z"/>
<path class="st4" d="M364.5,214c-2.1,10.1-26.3,35.5-26.3,35.5s-12.2-32.9-10.2-43c1.8-10.1,11.5-16.8,21.6-15
	c10.1,1.8,16.8,11.5,15,21.6C364.7,213.4,364.6,213.7,364.5,214L364.5,214z"/>
<path class="st4" d="M398.6,305c-6.9,7.6-40.6,17.4-40.6,17.4s6.1-34.6,12.9-42.2c7-7.5,18.7-8,26.3-1.1
	C404.6,285.9,405.2,297.4,398.6,305z"/>
<path class="st4" d="M408.9,379.7c-5.5,8.7-37.1,24-37.1,24s0.1-35.1,5.6-43.8c5.3-8.8,16.7-11.6,25.5-6.4
	c8.8,5.3,11.6,16.7,6.4,25.5C409.2,379.3,409,379.5,408.9,379.7L408.9,379.7z"/>
<path class="st4" d="M302.6,265.5c9.5,4,44.1-1.6,44.1-1.6s-20.2-28.7-29.6-32.7c-9.5-4-20.4,0.4-24.4,9.9
	C288.7,250.6,293.1,261.5,302.6,265.5z"/>
<path class="st4" d="M315.8,352.7c10.2,1,41.6-14.7,41.6-14.7s-27.9-21.3-38.1-22.3c-10.2-1.2-19.5,6-20.7,16.2
	c-1.2,10.2,6,19.5,16.2,20.7C315.1,352.6,315.4,352.7,315.8,352.7L315.8,352.7z"/>
<path class="st4" d="M340.2,435.7c9.9,2.7,43.5-7.5,43.5-7.5s-23.9-25.7-33.8-28.4c-9.9-2.9-20.2,2.8-23,12.6
	c-2.9,9.9,2.8,20.2,12.6,23C339.7,435.5,339.9,435.6,340.2,435.7L340.2,435.7z"/>
<path class="st0" d="M742.5,332.9c-19-0.4-39.4,0.5-54.5,8c-28,13.8-24.2,41.8-42.5,61.3c-15.4,16.4-44.9,25-73.5,30.4
	c-46.6,8.9-95.4,12.2-141.6,21.7c-27.3,5.6-54.3,13.8-73,27.8s-27.1,34.8-14.4,51.4c11.7,15.3,37.4,23.5,60.8,31.4
	s48.2,18.3,54.8,34.8c3.6,9.2,0.9,19.1,5.2,28.2c8.4,17.9,39.7,26.3,67.8,30.9c22.5,3.7,45.3,6.3,68.3,8c18.4,1.3,37.2,2.1,55.2-0.6
	c15.6-2.3,30.1-7,45.1-10.6c95.2-23.2,204.8-3.1,301.9-22.8c17.7-3.5,35.1-8.5,48.5-16.7c10-6.1,17.4-13.7,23.6-21.6
	c15.9-20,24.6-42.4,25.2-64.9c0.4-13.5-2-27.1,1.7-40.4c3.9-13.8,14.2-26.5,19.7-40.1c10-24.7,3-52-18.8-73.4
	c-7.8-7.9-17.3-13.8-27.8-17.3c-8.8-2.8-18.6-3.9-28.3-5c-27-2.9-54.3-5.9-81.6-4.2c-19.4,1.2-38.3,4.7-57.8,5.3
	c-27.3,0.9-48.7-5.4-73.4-11.3C804.7,336.4,772.7,333.6,742.5,332.9z"/>
<polygon class="st5" points="399.1,128.5 399.1,395.9 755,326.8 748.2,121.7 "/>
<polygon class="st6" points="1068.1,443.8 1068.1,532.2 691.8,642.2 688,640.2 390.4,485.8 390.4,120.3 758.7,108.4 761,311.2 
	746.2,315.8 740.6,126 416.4,137.3 414.2,412.1 696.4,535.6 696.6,535.6 "/>
<polygon class="st7" points="1068.1,443.8 1068.1,532.2 691.8,642.2 688,640.2 696.6,535.6 "/>
<path class="st8" d="M614.5,315.5c0,0-182.2,18.2-199.9,44.5s-0.1,58.6-0.1,58.6L696.1,541l381.9-98.6c0,0-10.2-69.1-41.9-77.1
	c-31.7-7.9-284.5-62.3-284.5-62.3S649.6,296.8,614.5,315.5z"/>
<path class="st9" d="M414.4,360.2l287.3,99.2c0,0,306.5-92.9,349.9-84.2c0,0-214.4-76.7-300-73.4c-68.2,2.7-139.7,13.9-139.7,13.9
	S422.4,334.7,414.4,360.2z"/>
<linearGradient id="SVGID_1_" gradientUnits="userSpaceOnUse" x1="769.386" y1="21.3607" x2="769.386" y2="279.7864" gradientTransform="matrix(1 0 0 -1 -71.39 468.69)">
	<stop  offset="0" style="stop-color:#808080;stop-opacity:0.25"/>
	<stop  offset="0.54" style="stop-color:#808080;stop-opacity:0.12"/>
	<stop  offset="1" style="stop-color:#808080;stop-opacity:0.1"/>
</linearGradient>
<path class="st10" d="M856.5,424L856.5,424L856.5,424l0.1-0.2l0-0.1v-0.1v-0.1v-0.1v-0.1v-0.1v-0.1v-0.1c0-0.1,0-0.1,0-0.2l0,0
	c0-0.1,0-0.1,0-0.2s0,0,0-0.1s0-0.1,0-0.2v-0.1v-0.2v-0.1v-0.2V422v-0.2v-0.1v-0.2v-0.1l-0.1-0.2l0,0l-0.1-0.3v-0.1l-0.1-0.2v-0.1
	l-0.1-0.2l0-0.1l-0.1-0.2l-0.1-0.1l-0.1-0.2l-0.1-0.1l-0.1-0.2l-0.1-0.1l-0.2-0.3l0,0l-0.2-0.3l-0.1-0.1l-0.1-0.2l-0.1-0.1l-0.1-0.2
	l-0.1-0.1l-0.1-0.2l-0.2-0.3l-0.1-0.2l-0.1-0.1l-0.2-0.2l-0.1-0.1l-0.2-0.3v-0.1l-0.2-0.4l-0.1-0.1l-0.2-0.3l-0.1-0.1l-0.2-0.2
	l-0.1-0.2l-0.2-0.2l-0.1-0.2l-0.2-0.2l-0.1-0.2l-0.2-0.3l-0.1-0.1l-0.2-0.3v0l-0.3-0.4l-0.1-0.1l-0.2-0.3l-0.1-0.2l-0.2-0.2
	l-0.1-0.2l-0.2-0.2l-0.1-0.2l-0.2-0.2l-0.1-0.2l-0.2-0.3l-0.1-0.2l-0.2-0.3l-0.1-0.1l0,0c-0.9-1.1-1.8-2.3-2.8-3.4
	c-5.3-6.3-12.9-10.2-21.1-10.9c-0.8-0.1-1.7-0.2-2.6-0.3h-0.4l-0.7-0.1h-0.3l-1-0.1l0,0l-1-0.2l-0.3-0.1l-0.7-0.1l-0.4-0.1L818,395
	l-0.4-0.1l-0.6-0.1l-0.4-0.1l-0.6-0.1l-0.5-0.1l-0.6-0.2l-0.5-0.1l-0.6-0.2l0,0c-3-4.5-7.6-8.4-12-9.2c-1.2-0.2-2.5-0.1-3.7,0.2
	l-0.2-0.2l-0.3-0.3l-0.4-0.5l-0.3-0.3l-0.4-0.6l-0.2-0.3c-0.2-0.3-0.4-0.6-0.6-0.9c-0.6-0.3-1.2-0.5-1.8-0.6
	c8.8-1.3,17.6-3.4,26.1-6.2c0.4-0.2,0.8-0.4,1.2-0.6l0.2-0.1c7.4-2.7,16.5-29,10.1-32.7s-16.2-34-21.9-49.5s-22.2-17.2-22.2-17.2
	s-23.9-18.5-34.7-16.5s-12.5-14.1-13.5-14.8c-0.1-0.1-0.2-0.2-0.3-0.4c-2.6-4.1-23.3-9.5-34.4-12.2c-10.9-7.9-23.9-14-34.4-16.6
	c-7.1-1.9-14.7-0.4-20.6,4.1c-22.1,1.1-25.6,17.8-25.6,17.8c-0.1,2.3,0.3,4.5,1.2,6.7c-1.2,0-2.4,0-3.6-0.2
	c2.6-4.2,2.6-9.7,4.5-14.3c3.8-9.2,14.2-14,24-15.2c5.7-0.7,12-0.7,16.5-4.3c2.3-1.9,3.9-4.5,4.5-7.4c0.2-0.6,0.1-1.3-0.2-1.9
	c-0.3-0.4-0.7-0.7-1.1-0.9c-5.9-3.2-13-2.3-19.8-2.5c-10.9-0.2-21.6-3.2-32.1-6c-4.5-1.2-9.3-2.3-13.6-0.6
	c-4.1,1.6-6.9,5.3-10.1,8.2c-13.4,11.8-35.7,10.1-47.6,23.4c-2.8,3.1-4.8,7.3-3.8,11.3c0.4,1.6,1.3,3.1,1.6,4.8
	c0.6,3.3-1.3,6.5-2.9,9.4s-3,6.5-1.5,9.5c2.3,4.6,9.2,4.2,12.8,7.9c1.7,1.7,2.5,4.1,4.2,5.7c2.8,2.6,7.1,2.4,10.9,2
	c1.5-0.1,3.7-0.5,4.5-1.9c10.4,9.8,26.8,9.3,36.7-1.1c1.7-1.8,3.1-3.7,4.2-5.9c8.1-0.6,16.2,1.6,23,6.2c1,3,2.9,5.6,5.4,7.6
	c2.4,1.9,5.2,4.1,8,6.5c-7.2,1.9-13.5,3.1-13.5,3.1s-28.3,9.1-28.3,15.2c0.1,1.1,0.4,2.2,1,3.1c-0.7,1.5-1.1,3.1-1.2,4.8
	c-7.8-1.3-14.1-3.3-17.3-6.2c0,0-0.9-0.2-2.3-0.5c-1.9-2.4-7.5-9.2-10.8-8.9c-2.2,0.2-3,5.3-3.3,9.9c-0.3,0.3-0.5,0.5-0.8,0.9
	c-3.4,5,2.7,15.2,6.7,16.8s26.3,1,41.4,12.1c6.7,4.9,18.3,5.9,29,5.4c-10.8,7.6-25.9,19.3-28,26.6c-1.1,3.8-2.5,8.6-2.4,13.5
	c-6.6,8.7-16.6,27.2,8.1,36c20.4,7.3,75.6,6.3,114.9,4.6c18.3,3.2,33.4,6.5,39.8,9.6c0,0,15.2,2,21.2,5.7s17.2,2.7,17.2,2.7
	s21.6,3.7,26.3,8.4s12.8-8.1,2.7-14.2c-3.9-2.4-9.8-6.2-15.5-10.5c7.3,0.9,13.8,1.8,17.9,2.8l0.4,0.1h0.1h0.3h0.2h0.2h0.1h0.2h1h0.3
	h0.1h0.2h0.1h0.1h0.1h0.1h0.1l0.1,0h0.1l0.1-0.1h0l0.1-0.1l0,0L856.5,424z M763.4,391.7c0,0-2.8-0.7-7.1-1.7l-8.4-3.4
	c0,0,14.4-4.5,27.7-10.3c3.8,1.7,7.2,3,8,4.2c0.4,0.4,0.9,0.7,1.4,0.7c-5,1.2-11.4,4.4-19,11.8C765.1,392.7,764.2,392.3,763.4,391.7
	z M661.7,310.5l8.3-3.9c1.8,1.5,3.8,3,5.7,4.4c-4.6,0.3-10.7,0.6-17.6,0.8C660.1,311.1,661.7,310.5,661.7,310.5z"/>
<path class="st11" d="M590.9,304.1c0,0-7.3-9.9-11.2-9.6s-3.3,16.8-3.3,16.8L590.9,304.1z"/>
<path class="st12" d="M684.2,310.7c0,0-77.2,6.3-91.7-6.9c0,0-13.5-3.6-16.8,1.3c-3.3,5,2.6,14.8,6.6,16.5c4,1.7,25.7,1,40.6,11.9
	c14.8,10.9,53.8,2,53.8,2l16.2-6.3L684.2,310.7z"/>
<path class="st13" d="M684.2,310.7c0,0-77.2,6.3-91.7-6.9c0,0-13.5-3.6-16.8,1.3c-3.3,5,2.6,14.8,6.6,16.5c4,1.7,25.7,1,40.6,11.9
	c14.8,10.9,53.8,2,53.8,2l16.2-6.3L684.2,310.7z"/>
<path class="st11" d="M794.7,347.6c0,0-16.5-11.9-50.5,3s-118.7,22.8-118.7,22.8s-28.4,28.4,4,39.9c32.4,11.5,154.3,2,154.3,2
	s49.8,3.3,65.3,6.9c9.4,2.2,2-8.4-5.3-17.1c-5.2-6.2-12.6-10-20.6-10.7c-9.7-0.8-23.2-3.9-29.4-14c0,0-11.9-5.9-29.7,11.9l-17.2-7
	c0,0,47.2-14.8,48.8-24.7S794.7,347.6,794.7,347.6z"/>
<path class="st13" d="M794.7,347.6c0,0-16.5-11.9-50.5,3s-118.7,22.8-118.7,22.8s-28.4,28.4,4,39.9c32.4,11.5,154.3,2,154.3,2
	s49.8,3.3,65.3,6.9c8.2,1.9,3.5-6-2.6-13.8c-6.2-7.9-15.4-13.1-25.4-14.2c-9.5-1.1-21.6-4.4-27.4-13.8c0,0-11.9-5.9-29.7,11.9
	l-17.2-7c0,0,47.2-14.8,48.8-24.7S794.7,347.6,794.7,347.6z"/>
<path class="st11" d="M795,300.8c0,0-20.8-33-69.9-4.3l-63,35c0,0-35,22.1-38.3,33.3s-8.2,30.3,26.1,37.6s114.1,16.5,130.9,24.7
	c0,0,14.8,2,20.8,5.6s16.8,2.6,16.8,2.6s21.1,3.6,25.7,8.2s12.5-7.9,2.6-13.8s-32.3-21.8-32-28s-7.6-17.2-15.2-18.6
	s-17.5,9.9-17.5,9.9s-12.5,2-20.1-3c0,0-38.9-8.9-42.9-11.5s-31-12.9-31-12.9s64-0.7,82.8-17.8c0,0,7.3-5.3,13.2-3.6
	C784.1,344.3,813.5,333.1,795,300.8z"/>
<path class="st11" d="M608,238.8c0,0,18.8,13.2,33.3,0s6.3,40.6,6.3,40.6s-20.1-26.7-50.1-9.2L608,238.8z"/>
<path class="st13" d="M608,238.8c0,0,18.8,13.2,33.3,0s6.3,40.6,6.3,40.6s-20.1-26.7-50.1-9.2L608,238.8z"/>
<path class="st9" d="M527.5,351.9c0,0,19.8-16.8,31-17.2c3.3-0.1,7.2-3.5,11-8.2c9.8-12.2,25.5-17.9,40.8-15
	c6.4,1.2,14.2,1.2,23.8-1.2c34.6-8.6,17.5-30,17.5-30l-10.9-9.2c0,0-14.8-10.2-20.5-9.6c-5.6,0.7-20.1,15.5-21.8,13.9
	c-1.7-1.6-21.8-16.5-25.1-20.4c-3.3-4-29.7-16.8-23.1-20.5c6.6-3.6,39.9-17.1,33.3-19.8c-6.6-2.6-42.2-6.6-56.1,9.9
	C513.7,241.1,520.6,342.4,527.5,351.9z"/>
<path class="st13" d="M527.5,351.9c0,0,19.8-16.8,31-17.2c3.3-0.1,7.2-3.5,11-8.2c9.8-12.2,25.5-17.9,40.8-15
	c6.4,1.2,14.2,1.2,23.8-1.2c34.6-8.6,17.5-30,17.5-30l-10.9-9.2c0,0-14.8-10.2-20.5-9.6c-5.6,0.7-20.1,15.5-21.8,13.9
	c-1.7-1.6-21.8-16.5-25.1-20.4c-3.3-4-29.7-16.8-23.1-20.5c6.6-3.6,39.9-17.1,33.3-19.8c-6.6-2.6-42.2-6.6-56.1,9.9
	C513.7,241.1,520.6,342.4,527.5,351.9z"/>
<path class="st9" d="M528.9,349.6c0,0,19.8-16.8,31-17.2c3.3-0.1,7.2-3.5,11-8.2c9.8-12.1,25.4-17.9,40.7-15
	c6.4,1.2,14.2,1.1,23.8-1.2c34.6-8.6,17.5-30,17.5-30l-10.9-9.2c0,0-14.8-10.2-20.5-9.6c-5.6,0.7-20.1,15.5-21.8,13.9
	c-1.6-1.6-21.8-16.5-25.1-20.4c-3.3-4-29.6-16.8-23.1-20.4c6.6-3.6,39.9-17.1,33.3-19.8c-6.6-2.6-42.2-6.6-56.1,9.9
	C515,238.8,521.9,340,528.9,349.6z"/>
<path class="st11" d="M625.5,238.1c0,0,5.3-25.1,43.9-15.2c38.6,9.9,57.7,31.3,57.7,31.3l-35,16.2l-42.9-14.5
	C649.2,255.9,625.2,256.2,625.5,238.1z"/>
<path class="st13" d="M696.1,231.9c0,0,37.1,8,40.6,13.5c0.1,0.1,0.2,0.2,0.3,0.3c1,0.7,2.6,16.5,13.2,14.5s34,16.2,34,16.2
	s16.2,1.6,21.8,16.8s15.2,44.9,21.4,48.5s-2.6,29.3-9.9,32s-33.3,8.9-35.6,5.6s-22.4-6.9-21.1-17.5s9.2-20.5,3-26.7
	s-10.2-22.8-19.5-26.1s-25.7-4.3-35.6,2.3c-9.9,6.6-21.8,6.9-21.8,6.9s-20.5-11.9-23.8-20.1c-2.2-5.6-13.3-14.9-20.3-20.3
	c-3.7-2.9-5.9-7.3-6.1-12c-0.3-8.1-0.5-20.1,0.3-22.1c1.3-3,19.5-20.8,19.5-20.8L696.1,231.9z"/>
<path class="st12" d="M697.4,231.2c0,0,37.1,8,40.6,13.5c0.1,0.1,0.2,0.2,0.3,0.3c1,0.7,2.6,16.5,13.2,14.5s34,16.2,34,16.2
	s16.2,1.6,21.8,16.8s15.2,44.9,21.4,48.5s-2.6,29.3-9.9,32s-33.3,8.9-35.6,5.6s-22.4-6.9-21.1-17.5s9.2-20.5,3-26.7
	s-10.2-22.8-19.5-26.1s-25.7-4.3-35.6,2.3c-9.9,6.6-22.9,7.8-22.9,7.8s-19.3-12.7-22.6-20.9c-2.2-5.6-13.3-14.9-20.3-20.3
	c-3.7-2.9-5.9-7.3-6.1-12c-0.3-8.1-0.5-20.1,0.3-22.1c1.3-3,19.5-20.8,19.5-20.8L697.4,231.2z"/>
<path class="st11" d="M612,302.8c-0.3,0.3-5.9,8.6,0.7,13.2c3.7,2.7,8.5,3.6,12.9,2.3L612,302.8z"/>
<path class="st7" d="M643.6,230.9c0,0,8.9-17.8,28-13.2c19.1,4.6,46.8,21.4,53.4,38.3s-25,37.3-25,37.3l-37.6,17.5
	c0,0-11.5,4.6-14.8,3s-19.1,12.5-19.1,12.5s-17.8-17.1-17.8-23.1s27.7-14.9,27.7-14.9s33-6.3,32.7-12.5c0,0,5.6-6.6,2.6-8.6
	s-34.8-11.4-34.8-11.4S637.7,234.8,643.6,230.9z"/>
<path class="st12" d="M642.6,229.9c0,0,8.9-17.8,28-13.2c19.1,4.6,46.8,21.4,53.4,38.3s-25,37.3-25,37.3l-37.6,17.5
	c0,0-11.5,4.6-14.8,3s-19.1,12.5-19.1,12.5s-17.8-17.1-17.8-23.1s27.7-14.9,27.7-14.9s33-6.3,32.6-12.5c0,0,5.6-6.6,2.6-8.6
	s-34.8-11.4-34.8-11.4S636.7,233.8,642.6,229.9z"/>
<path class="st7" d="M600.4,266.8c5.3-3.3,11.4-5.3,17.6-5.8c1.8-3.5-2.9-7.3-2.9-11.5c0-3.5-1.3-4.9-2.6-7.9
	c-4.7-1.7-1.5-6.1-1.5-6.1L600.4,266.8z"/>
<circle class="st11" cx="592.5" cy="252.6" r="25.4"/>
<path class="st14" d="M573.5,263.1c5.7-4.4,13-5.9,20.2-6.5c4.5-0.4,9-0.5,13.3-1.9c2.5-0.9,4.8-1.9,7.1-3.2
	c3.1-1.6,6.2-3.2,8.3-5.9c3.3-4.3,3.2-10.2,5.2-15.1c3.7-9,13.9-13.7,23.5-14.9c5.6-0.7,11.7-0.7,16.2-4.2c2.3-1.8,3.8-4.4,4.4-7.2
	c0.2-0.6,0.1-1.3-0.2-1.9c-0.3-0.4-0.6-0.7-1.1-0.9c-5.8-3.1-12.8-2.3-19.4-2.4c-10.7-0.2-21.1-3.2-31.5-5.9
	c-4.4-1.1-9.1-2.2-13.3-0.6c-4,1.5-6.7,5.2-9.9,8c-13.1,11.6-34.9,9.9-46.6,22.9c-2.7,3-4.7,7.1-3.7,11.1c0.4,1.6,1.3,3.1,1.6,4.7
	c0.6,3.2-1.3,6.3-2.8,9.2s-2.9,6.4-1.5,9.3c2.2,4.5,9,4.1,12.5,7.7c1.6,1.6,2.4,4,4.1,5.6c2.7,2.5,6.9,2.3,10.6,2
	c2-0.2,5.3-0.9,4.7-3.5C574.9,267.1,571.7,266,573.5,263.1z"/>
<path class="st9" d="M564.6,278.2c0,0,17.3-13,28.2-8.7s13.9,6.6,20.8,4s9.9,5.3,9.9,5.3l-43.2,12.5L564.6,278.2z"/>
<path class="st13" d="M541.2,301c0,0,7.9-20.5,17.5-24.4"/>
<path class="st13" d="M531,294.4c0,0,7.9-20.5,17.5-24.4"/>
<path class="st13" d="M716.4,299.3c0,0,28-13.5,46.8-12.2s22.1-10.5,22.1-10.5"/>
<path class="st1" d="M595.2,636.9c-2.3-2.2-4.5-4.7-5.2-7.8c-0.7-3.1,0.7-6.8,3.6-8c3.3-1.3,6.9,1,9.6,3.4s5.8,5,9.3,4.5
	c-3.7-3.4-5.4-8.4-4.4-13.3c0.2-1,0.6-1.9,1.2-2.7c1.8-2,5.2-1.1,7.4,0.4c7,5,9,14.5,9,23.2c0.7-3.1,0.1-6.3,0.1-9.5
	s0.9-6.7,3.6-8.4c1.7-0.9,3.6-1.3,5.5-1.3c3.2-0.1,6.7,0.2,8.9,2.5c2.7,2.9,2,7.7-0.3,10.9c-2.4,3.2-5.9,5.2-9.2,7.3
	c-2.6,1.6-4.9,3.7-6.5,6.2c-0.2,0.4-0.4,0.7-0.5,1.1h-19.8C603.1,643.1,598.9,640.2,595.2,636.9z"/>
<path class="st1" d="M1053.8,547.7c-1.5-1.3-2.7-3-3.2-4.9c-0.4-1.9,0.4-4.3,2.3-5c2.1-0.8,4.3,0.6,6,2.1c1.7,1.5,3.6,3.1,5.8,2.8
	c-2.3-2.1-3.3-5.2-2.7-8.3c0.1-0.6,0.4-1.2,0.8-1.7c1.2-1.2,3.2-0.7,4.6,0.3c4.4,3.1,5.6,9,5.6,14.4c0.4-1.9,0.1-4,0.1-5.9
	s0.5-4.2,2.2-5.2c1-0.6,2.2-0.8,3.4-0.8c2-0.1,4.2,0.1,5.5,1.6c1.7,1.8,1.2,4.8-0.2,6.8s-3.7,3.2-5.7,4.6c-1.6,1-3,2.3-4.1,3.9
	c-0.1,0.2-0.2,0.5-0.3,0.7h-12.4C1058.6,551.6,1056.1,549.8,1053.8,547.7z"/>
</svg>
