<?xml version="1.0" encoding="utf-8"?>
<!-- Generator: Adobe Illustrator 19.0.0, SVG Export Plug-In . SVG Version: 6.00 Build 0)  -->
<svg version="1.1" id="a86c84ac-c86b-458f-bb45-d629fc1b571b"
	 xmlns="http://www.w3.org/2000/svg" xmlns:xlink="http://www.w3.org/1999/xlink" x="0px" y="0px"
	 viewBox="1832 -259.5 4263.6 818.5" style="enable-background:new 1832 -259.5 4263.6 818.5;" xml:space="preserve">
<style type="text/css">
	.st0{opacity:0.1;}
	.st1{fill:#FFFFFF;}
	.st2{fill:none;stroke:#000000;stroke-miterlimit:10;}
</style>
<title>fall</title>
<g class="st0">
	<g>
		<g>
			<path class="st1" d="M5588.3,693.3c1.1-0.3,2.2-2.2,2.4-3.4C5588.5,688.8,5589.7,691.8,5588.3,693.3z M5694.2,175.9
				c-0.8,1-1,2-2.6,1.7c-0.6-1.8-1-3.1-1.1-5.6C5693.4,171.4,5691.5,175.2,5694.2,175.9z M5582.9,702.6c-1.7,0.3-1.4,3.6-2.9,3.2
				c1.5-1.8,1.5-4.6,2.3-5.6C5583.4,700.3,5582.4,702.3,5582.9,702.6z M5563.8,752.3c0,5-3.1,9.7-3.8,13.5
				C5559.7,761.5,5562.9,757.6,5563.8,752.3z M5556.9,775.8c-0.3-3.8,2.8-13.2,1-4.9C5557.4,772.6,5557,774.1,5556.9,775.8z
				 M5556.2,716.9c1,0.8-0.5,5.5-1.1,5.9C5554.4,720.7,5555.3,719.3,5556.2,716.9z M5550.6,739.2c-1.7,0.3-1.1-1.9-0.9-3.3
				C5550.6,736.4,5551,737.7,5550.6,739.2z M5555.8,703c-1-0.1,1.3-4.1-0.3-4.5C5557.2,696.6,5556.6,702.6,5555.8,703z
				 M5560.2,615.9c-2-1-0.3-6.6,1.1-8C5561.3,610,5561.2,613.4,5560.2,615.9z M5687.9,287.9c-0.9-1.1,0.3-4.2-0.4-6
				C5688.4,283,5688.7,284.7,5687.9,287.9z M5692.2,227.7c-0.5-0.3-0.5-0.3-0.6,0.4c-3.1,9.7-5.2,25.3-7.9,33
				c3.3-15.7,6.1-31.7,11.8-43.2c2.9-6.5,7.9-11.6,4.9-18.1c1.4,0.8,2.6,3.8,2.6,6c-0.4,6.6-8,12-9.3,18.9c-0.8,3.7,0.8,5.1-0.6,8.7
				C5692,231.6,5692.5,229.4,5692.2,227.7z M5583.6,699.3c-2-0.4,0-2.8,0.3-4.2c-0.8,1-2.3,1-2.4,3.4c-0.3-1.1-1.4-1.4-1-3.1
				c-3.8,5.7-2.9,8.3-5,13.3c-0.5-0.3-0.3-1.1-0.6-1.8c-2,4.5-4.2,12.4-4.3,18.4c-1-0.1-0.6-1.8-0.4-3.4c-1.7,0.3-1.9,6.3-2.7,2.7
				c-1,4.9,0.3,4.5-1.3,8.4c0-5-0.9-6.3,0.1-11.5c-0.6,0.4-1,2-1.8,3.1c-1.4-1.4,1.1-2.4,1-4.9c-3.7,7.5-5.5,16.3-7.4,25.4
				c0-2.8,0.6-8,1.5-13.3c-1.8,3.1-2.9,8.3-4.2,12.4c-0.3-4.5-1.1,0.3-2.2,2.2c3.8-21.2,4.7-28.2,8.4-51c-0.9,4.2-1.9,6.3-2,10.1
				c-0.1,1-2,1.9-1.7,0.3c-0.6,0.4,0.9,3.3-1.4,3.6c-2.7-3.4,1-12.5,0.3-17.5c-0.6,0.4-1,2-2.4,0.6c-0.5,2.7,2.4-0.6,0.9,3.3
				c-3.1-4,0.3-9.3,0.6-13c0.8-3.2,0.3-7,1.8-11.8c-2.6,2.3-2.7,9.8-4,13.9c-0.8,1-0.4-0.6-0.3-1.7c1.3-8.4,3.4-24,5-32.1
				c-2.7,2.7-2,7.3-3.2,13.2c-0.5-0.3-0.3-1.1,0-2.2c-2.9,8.3-5.4,25.8-6,37.3c-0.1,3.2,0.4,6,0.4,8.8c-0.5,2.7-1.8,8.9-0.3,12.1
				c-1.9,4.1-1.1,5.9-0.3,8.8c-1-0.1-0.9-1.1-1.5-0.4c-1,2,1.4,1.4,1.7,2.6c-0.8,1-2.9,3.2-1.5,5.2c-2-1-1,4.9-1.3,8.4
				c0.8-1.4,1.3-4.1,2.6-4.5c0.3,6.6-2.4,12.1-4,19c0-5,2.7-12.8,3.7-18c-1.7,0.3-2,4.5-3.1,7.2c-3.4-30.5,1.3-82.8,10.1-119.9
				c2.7,0.5,5.4-7.2,6.4-12.4c0.6,1.8,1.4,0.8,2.3,2.6c-0.8,1-0.1,3.8-1.3,6.3c2.2-2.2,2.4-11.5,4-16.7c-1-0.1-0.4,2-1.1,3.1
				c-0.8,1,0.5-5.5-0.3-6.6c-2,4.5-1.9,6.6-2.7,10.5c-2.4-1.5,3.2-12.5,2.3-16.5c1-2,1.4,0.8,0.6,2.4c1.9-6.3,3.8-12.9,4.3-18.4
				c-1,2-2.2,7.9-3.3,13.5c-1.3-4.2,3.1-12.1,3.3-18.5c1.7-0.3,1.1,1.9,0.9,3.3c1.9-1.1,1-4.9-0.8-5.1c1-2,1.5-4.6,0.8-6.5
				c-1,10.2-6.9,20.1-7.8,29.8c0.5,0.3,0.8-1.4,1.1-2.4c1.4,1.4-1.5,7.5-2,12.8c-0.4-0.6-0.3-1.1-0.6-2.4c-1.9,4.1-2,12.3-4.3,16.2
				c4.6-24.8,8.7-49.4,16.2-73.7c1.3,4.2-1.8,11.8-1.3,16.7c1-2,2.7-10.5,3.3-13.5c1.3,4.6-3.2,13.2-2.9,19.2
				c7.4-29.9,12.4-54.7,17.6-87.5c-3.2,13.2-4.1,22.2-6.3,32.8c-0.4-0.6-0.9-1.1-0.6-2.4c-1.9,6.6-3.8,21.2-6.4,28.2
				c-1-0.8,0.8-3.7,0.5-5.5c-1.1,3.1-2.6,6.6-3.4,10.9c0.9-17.5,4.5-34.9,5.7-53.8c0.6-0.4,1-2,2.4-0.6
				c8.9-40.5,15.1-83.7,24.5-118.6c0.4-1.5-0.9-1.1-1-3.1c6.9-20.1,6.6-46,14.7-68.3c2.6-6.6,1.5-15.1,5.4-20.4
				c2.7-18.8,7.4-48.9,15.1-62.3l1.1-5.2c1.4-1.4,2.6-1.7,3.6-3.7c-1.5-3.6,1.7-8.6,3.8-13.5c-0.3-1.1-0.9-1.1-1.8-1.5
				c1,3.1-0.4,1.5-1.1,5.9c-0.6,0.4,0.5-5.5,0.5-7.7c0.6,1.8,3.1-1,2.4,1.5c2.4-3.4,3.8-7.9,4.6-14.4c1.4,0.8-0.4,1.5,0.5,2.8
				c1.8-3.4,5-5.1,3.8-10.1c3.4,1.8,5.1-8.3,10-5.6c1,0.1,0.4-2,1.1-3.1c1.8,1.5,4.3-4.6,8.7-1.5c-1,4.9,6.3,6.3,8.4,10
				c1.7-0.3-0.4-3.4,1.5-2.4c-1.3,4.1,1.1,8,2,11.4c-0.3,4.2-2.7,4.9-3.7,7.5c0.6,6.8,2.8,10.5,0.8,17.6c-0.4,1.5-1.1,3.1-1.5,4.6
				c-0.4,1.5,0.6,2.4,0.6,2.4c-0.3,0.5-1.5,1.8-1.8,3.1c-0.4,2,1.3,4.6,1.1,5.6c-0.1,1-1.9,4.1-2.2,5.1c-0.9,4.2-0.6,8-1.7,12.9
				c-4,25-11.5,55.3-16.1,83.5c-1,7.4-2.8,16-4.2,23.4c-6.9,30.4-12.4,60.5-18,92c-0.1,1-2,7.3-3.1,12.1
				c-10.5,58.9-24,137.3-39.5,200.6c-1.1,0.3-1,2-1.7,0.3c-0.1,1,0.3,1.1,0.6,1.8c-1.1,3.1-1.8,3.1-2.9,6
				c-3.1,7.2-5.5,18.6-9.5,22.4c4.1-11.4,9.2-23.2,11.8-35.6c-4.7,6.8-6.4,20.2-12.3,24.3c0.6,4.6-2.9,6-1.3,8.4
				C5584.3,685.7,5585.5,695.9,5583.6,699.3z M5556.7,738.7l1.3-6.3C5556.7,731.2,5556.7,738.7,5556.7,738.7z M5559.4,701.6
				c0.6,2.4-1.1,3.1,0.3,3.8C5559.7,703.7,5561.7,701.9,5559.4,701.6z M5606.5,633.9c0.8-3.2-0.4-3.4,1.1-5.2
				C5605.5,628,5605.5,633.5,5606.5,633.9z M5605.1,641.1c-0.3-1.7,1.3-4.1,0.5-4.9C5604.2,637.1,5604.1,640.2,5605.1,641.1z
				 M5651.9,201.8c-0.8,3.2-4.1,9.1-1,10.2C5651.6,208.3,5652.7,204.1,5651.9,201.8z M5580.7,708.1c0.3,1.1-1.4,1.4-0.9,4.2
				c-1.7,0.3,0-2.8-0.3-4.5C5580.1,708.5,5580.5,709.1,5580.7,708.1z M5573.6,718.2c0.4,0.6-0.3,0.5-0.6,0.4
				c-0.3-1.1,0.1-3.8,0.6-5.9C5575.8,713.7,5572.3,716.9,5573.6,718.2z M5553.5,733.2c-1.4-0.8,0.8-3.7,0-5
				C5554.8,727,5553.8,731.6,5553.5,733.2z M5661.7,175.7c0.3,1.7-3.7,6.9-4.5,6.1C5658.8,179.7,5660.6,178.4,5661.7,175.7z"/>
		</g>
	</g>
	<g>
		<g>
			<path class="st1" d="M5625.1-93.4c-1-0.1-1.7,0.3-1.8,0.6C5625.5-92.2,5623.9-93.2,5625.1-93.4z M5594.5,38.2
				c0.5,0.3,0.6-0.4,2.2,0c1,0.8,1.4,0.8,1.9,2C5595.9,39.6,5597.7,39,5594.5,38.2z M5628.6-94.9c1.5,0.4,0.8-1,2.4-0.6
				c-1.1,0.3-0.8,1-1.4,1.4C5628.6-94.3,5629.7-94.8,5628.6-94.9z M5640.9-106.1c-0.9-1.1,1.5-2.4,1.8-3.4
				C5643.8-107.7,5641.2-107.2,5640.9-106.1z M5644.7-111.5c0.9,1.1-0.8,3.2-0.1,1C5644.6-110.9,5644.7-111.5,5644.7-111.5z
				 M5653.8-94.1c-1-0.1-0.3-1.7,0.4-1.5C5655.6-94.8,5654.4-94.5,5653.8-94.1z M5656.5-99.6c1.5,0.4,1.4,0.8,1.4,1.4
				C5657-99,5656.5-99,5656.5-99.6z M5656.2-90.3c1,0.1-0.8,1,0.9,1.1C5655.8-88.8,5655.7-89.9,5656.2-90.3z M5665.6-65.3
				c2,0.4,1.1,1.9,0,2.2C5665.2-63.7,5664.8-64.9,5665.6-65.3z M5584.1,6.4c1,0.8,0.3,1.1,1.1,1.9C5584.3,7.5,5583.9,7.4,5584.1,6.4
				z M5588.8,23.4c0.5,0.3,0.5,0.3,0.5,0.3c1.5-2.4,1.3-6.3,3.3-8.2c-0.9,4.2-1.1,8-5.5,10.3c-1.9,1.1-6.4,1.9-2,4.5
				c-1.5-0.4-3.1-1.8-3.4-2.4c-0.6-1.8,6.4-1.9,6.8-3.6c0.1-1-1.4-1.4-0.6-2.4C5588.5,22.2,5588.4,22.6,5588.8,23.4z M5628.6-94.3
				c2,0.4,0.4,0.6,0.3,1.1c0.5,0.3,2.2,0,1.8-0.6c0.4,0.6,1.4,0.8,1.4,0.8c3.1-1,1.5-1.8,2.9-3.2c0.5,0.3,0.4,0.6,1,0.8
				c1.1-0.9,2.2-2.9,1.5-4.6c1,0.1,1,0.8,0.9,1.1c1.5,0.4,0.8-1.4,2.2,0c0.1-1-0.9-1.1,0-2.2c0.9,1.1,1.9,2,1.7,3.1
				c0.5,0.3,0.6-0.4,1.1-0.3c1.4,0.8-0.6,0.4-0.1,1c2.6-1.7,2.9-3.8,3.8-5.7c0.4,0.6,0.6,2.4,0.4,3.4c1.1-0.3,1.5-1.8,2.2-2.9
				c0.9,1.1,1,0.1,1.7-0.3c-0.5,5.5-0.5,7.7-1.1,13.5c0.1-1,0.8-1.4,0.5-2.7c0.3-0.5,1.7-0.3,1.5,0.4c0.5,0.3-1.4-1.4,0.8-1
				c3.1,1.1,0.9,3.3,2.3,4.9c0.5,0.3,0.6-0.4,2,0.4c0.3-0.5-2-0.4-1.4-1.4c3.4,1.8,1,2.3,1.4,3.6c-0.1,1,0.6,1.8-0.1,3.2
				c2.2,0,1.1-2.4,1.8-3.4c0.5,0.3,0.5,0.3,0.4,0.6c0,2.2,0.3,6.6-0.1,8.3c2.2,0,1-2,1.1-3.1c0.5,0.3,0.4,0.6,0.4,0.6
				c1.5-1.8,1.5-6.8,0.5-9.8c-0.3-1.1-1.1-1.9-1.7-2.6c0.3-0.5,0.4-2-1.5-3.6c1.1-0.9,0.4-1.5-1-2.3c1,0.1,1,0.8,1.5,0.4
				c0.6-0.4-1.4-0.8-2-1c0.5,0.3,2.4-0.6,0.8-1.4c2,0.4,0.1-1,0-2.2c-0.6,0.4-0.8,1-1.8,0.6c-1.1-1.9,0.8-3.2,1-4.9
				c0.9,1.1-0.8,3.2-1,4.9c1.5,0.4,1.1-0.9,1.9-1.1c8.4,9.5,11.5,24.4,8,33.5c-2.7-0.5-4.6,1.3-4.9,2.3c-1-0.8-1.5-0.4-2.4-1.1
				c0.5,0.3-0.3-1.1,0.4-1.5c-1.7,0.3-0.8,3.2-1.3,4.1c1,0.1,0.3-0.5,0.6-0.4c0.5,0.3,0.3,1.7,1.1,1.9c1.1-0.9,0.8-1.4,1.1-2.4
				c2.4,1.1-1.1,3.1,0.3,4.5c-0.6,0.4-1.5-0.4-1-0.8c-0.8,1.4-1.8,3.1-1.5,4.6c0.6-0.4,1-2,1.4-3.6c1.8,1.5-1.1,3.1-0.5,4.9
				c-1.5-0.4-1.4-0.8-1.4-1.4c-1.7,0.3-0.1,1,1.4,1.4c-0.6,0.4-0.8,1,0.3,1.7c-0.5-2.8,4.3-4.6,3.7-6.9c-0.5-0.3-0.6,0.4-0.6,0.4
				c-1.4-0.8,0.4-2,0.1-3.2c0.5,0.3,0.4,0.6,1,0.8c1.1-0.9,0.1-3.2,1.9-4.1c-0.8,6.5-1.7,12.9-5.5,18.6c-1.8-1.5,0.1-3.2-1.3-4.6
				c-0.6,0.4-1.1,2.4-1.4,3.6c-1.8-1.5,1.1-3.1,0-5c-3.1,7.2-4.3,13.4-4.7,22.2c1.1-3.1,0.6-5.9,1.3-8.4c0.5,0.3,1,0.8,1,0.8
				c0.8-1.4,0.5-5.5,2-7.3c1,0.1-0.1,1,0.3,1.7c0.6-0.4,1.4-1.4,1.5-2.4c1.7,4.7,0.8,9.5,2.4,14.8c-0.5-0.3-0.6,0.4-2-0.4
				c-3.2,10.3-2.8,21.3-7.4,29.9c-0.3,0.5,1,0.8,1.4,0.8c-4.3,4.6,0.3,12-4.7,17.1c-1.4,1.4,0.9,4.1-2.2,5.1c0,5,0,13.3-5.9,15.2
				l-0.4,1.5c-1.1,0.3-2.2,0-2.8,0.5c1.8,1.5-0.4,2-1.8,3.4c2,0.4,2.7,0.5,3.7,0.8c-1.4-0.8,0.3-0.5,0.4-1.5
				c0.5,0.3,0.3,1.7,0.6,2.4c-1-0.8-2.8,0-2.7-0.5c-1.8,0.6-2.6,1.7-2.4,3.4c-1.5-0.4,0.3-0.5-1-0.8c-1.1,0.9-4.6,0.6-2.2,2.2
				c-3.6-1.4-3.6,1.4-9.3-0.3c-1-0.1-0.3,0.5-0.6,0.4c-2-1-3.4,0.4-8.4-1.3c0.1-1-7.4-3.2-10.1-4.2c-1.5-0.4,0.9,1.1-1.1,0.3
				c0.8-1-2.3-2.6-3.7-3.6c-0.3-1.1,1.8-0.6,2.6-1.7c-1.9-2-4.3-3.6-3.3-5.1c0.3-0.5,0.6-0.4,0.8-1s-1-0.8-1-0.8l1.1-0.3
				c0.3-0.5-1.8-1.5-1.9-2c0.3-0.5,1.1-0.9,1.1-0.9c0.1-1-0.6-2.4-0.4-3.4c0.4-6.6,3.4-14.2,3.8-21.2c0-2.2,0.3-4.2,0.6-5.9
				c2.7-7.7,3.7-15.1,4.2-23.4c0.3-0.5,1-2,1.1-3.1c1.9-14.9,4.1-35.5,10-51.2c1,0.1,0.6-0.4,1.5,0.4c0.3-0.5-0.4-0.6-1-0.8
				c0.6-0.4,1.1-0.3,1.9-1.1c1.9-1.1,2.6-4.5,6.5-4.7c-2.2,2.9-5.9,4.7-6.5,8c3.3-0.9,3.7-4.7,8.8-4.7c-1.4-1.4,1.9-1.1,0-2.2
				C5629.9-90.3,5627.2-93.5,5628.6-94.3z M5650.2-100.9l-0.4,1.5C5651.4-98.5,5650.2-100.9,5650.2-100.9z M5653-90.4
				c-1-0.8,0.6-0.4-0.9-1.1C5652.7-91.1,5651-90.8,5653-90.4z M5615.1-79.6c-0.1,1,0.9,1.1-0.4,1.5
				C5617.3-77.4,5616.6-79.2,5615.1-79.6z M5616-81c0.4,0.6-0.8,1,0.3,1.1C5617.3-79.6,5617-80.8,5616-81z M5634.1,38.7
				c0.1-1,2.6-1.7-0.5-2.8C5633.2,36.9,5633.1,37.9,5634.1,38.7z M5630.7-96c-0.4-0.6,1.1-0.3,0.1-1c1.5,0.4,0.4,0.6,0.9,1.1
				C5631.1-95.9,5630.7-96.7,5630.7-96z M5635.8-97.8c-0.5-0.3,0,0,0.5,0.3c0.4,0.6,0.3,1.1,0.3,1.7
				C5634.6-96.9,5638-97.2,5635.8-97.8z M5654.7-98.3c1.5,0.4-0.1,1,0.9,1.1C5653.8-96.9,5654.6-97.7,5654.7-98.3z M5627.7,44.6
				c-0.4-0.6,2.3-1,3.3-0.9C5630.2,44.1,5628.5,43.7,5627.7,44.6z"/>
		</g>
	</g>
	<g>
		<path class="st1" d="M5314.6,222.6c1.8,5.2,2.2,10.3,1,15.6c-1.1,5.2-2,10.1-2.2,16.1c0.3,1.1,0,2.2,0.4,3.4
			c0.3,1.1,0.3,1.7-0.1,3.2c-0.3,0.5-0.1,1-0.4,2l-0.5-0.3c-1.5,6.8-1.5,13.3-1.7,18.9c-0.1,6-0.8,11.9-1.5,17.9
			c0.3,1.7-0.1,3.8-0.8,6.5c-1.4,1.4-1.9,4.1-1.7,8.6c-0.1,1-1,2-1,2c-0.5-0.3-0.6,0.4-0.8,1c-0.8,3.7-0.9,7-0.4,10.3
			c0.5,2.8,0.3,6.6-0.4,10.3c-0.3,0.5-0.8,1-1.1,0.9c-0.3,0.5-0.8,1.4-0.4,2c-0.8,3.2-1.1,5.9-1.3,8.4c0,2.8-0.5,5.5-1.3,8.4
			c0,2.8-0.6,5.9-0.5,9.8c-0.1,3.8-0.5,7.7-1.7,10.7c-0.8,1.4-1.1,3.1-0.5,4.9c0.6,2.4,0,5-0.3,8.8c-0.1,1-1,2-1.8,3.1
			c-0.8,1-1.5,1.8-1.8,3.1c-0.8,3.2-0.8,6.5-0.3,9.3c0.5,2.8,0.4,6,0.3,9.8c-0.3,0.5-0.8,1-1.1,0.9c-0.4-0.1-0.6,0.4-0.4,2
			c-0.1,1-0.4,2-0.1,3.2c0.3,1.1,0.3,1.7,0.6,2.4c-0.9,7-1.8,13.9-2.7,20.9c-0.9,7-1.9,14.9-3.7,23l-1.1,0.3l-1.8,3.1
			c-0.1,3.2-0.1,5.4,0.8,7.3c0.6,1.8,0.3,3.8-0.8,6.5c-0.1,1-1.1,2.4-1.8,3.4c-0.8,1-1.5,1.8-1.8,3.4c-0.5,2.7-0.5,5.5-0.3,9.3
			c0.3,3.8,0.1,7.2-0.4,10.3c-0.3,0.5-0.1,1-0.8,1s-0.6,0.4-0.4,2c-0.4,1.5-0.1,3.2-0.3,4.2c0.3,1.1-0.4,1.5-1,2c-0.1,1-1,2-2.2,2.2
			c-1.1,0.3-1.9,1.1-1.8,3.4c1.8,5.2,2.2,10.3,1.4,14.7c-0.8,4.3-1.7,8.6-2.2,13.3c-0.3,0.5,0.3,1.7,0.5,2.8c0.3,1.1,0,2.2-0.1,3.8
			c-0.4-0.6-1-0.8-1.4-0.8c-0.5,0-0.6,0.4-0.8,1c-0.1,0.6,0.3,1.7,0.5,2.8s0,2.2,0,2.8h-2.8c-0.4,1.5,0.3,3.8,1.4,6.8
			c1,2.3,0.9,4.1-1.3,4.1c0.6,6.8,1.1,10.7,1.1,12.4c0.3,1.7,1.3,4.6,1.8,9.8c-1.4,1.4-1.8,3.4-1.3,6.3c0.5,2.8-0.1,6-0.6,8
			c-0.3,0.5-0.8,1-1.1,0.9c-0.5-0.3-0.8,1-0.5,2.7c0.3,3.8-0.3,8.8-2.2,16.1c-1.9,6.6-4.6,11.8-7.9,14.2c-1.5-0.4-2.8,0.5-3.2,2
			c-0.4,1.5-1.1,3.1-2.9,3.2c-1.1,0.3-2-0.4-2.9-2.2c-0.9-1.1-1.9-2-3.4-1.8c-5.9-0.6-12.3-1.4-19.4-2.3c-7-0.9-13.8-2.8-19.8-5.2
			c-1.9-9.2-2.9-17.6-2.3-26.3c0.6-8.7,1.3-16.7,1.5-23.8s0.8-14.7,1.3-21.7c0.3-7,2.2-13.3,5.4-18.3c-0.8-5.1-0.8-9.5-1-13.9
			c-0.3-4.5,0.3-9.3,0.8-14.7c0.4-1.5,1-4.9,1.3-9.1c0.9-4.2,1.7-7.9,1.8-11.8c0.1-1,0.4-2,0-2.8c-0.4-0.6-0.3-1.1-0.6-1.8
			c0.1-1,1-2,1.5-1.8c0.5,0.3,1.1-0.3,0.8-1c0.5-4.9,0.9-9.2,0.9-12.9c0.1-3.8,0.3-7,0.4-10.3c0.1-1,0.4-2,0.1-3.2
			c-0.3-1.1-0.6-1.8-0.4-3.4c0.3-0.5,1.4-1.4,2.7-2.7c1.1-0.9,2-1.9,2.2-2.2c0.8-3.2,0.8-6.5-0.3-9.8c-0.4-3.4-0.3-6.6,0.3-9.3
			c0.1-5.4,0.6-11.5,1.5-18.4c0.5-2.7,1.3-4.1,2-4.5c0.8-0.4,1.1-2.4,1.5-6.8c0.3-0.5,0.1-3.2,0.6-8c0.1-1,0.4-2,1-2
			c0,0,0.6-0.4,0.8-1c1.1-2.4,1.9-6.3,2.3-11.1c0.5-4.9,0.9-9.7,1.4-14.6c0.8-3.7,1.3-6.3,1.7-8.6c0.1-1,1.1-2.4,1.8-3.4
			c0.8-1,1.5-1.8,1.8-3.4c0.5-2.7,1.1-5.2,1.1-8c0-2.8,0.5-5.5,2.2-7.9c0.1-1,1.1-2.4,1.9-4.1c0.8-1.4,1.1-2.4,1.9-4.1
			c0.1-1,0-2.8-0.6-4.6s-0.9-4.1-0.3-6.6c0.3-0.5,0.1-1,1.5-1.8c1.1-0.9,2-1.9,2.2-2.9c0.8-3.2,0.6-5.9,1.3-8.4
			c0-2.2,0.5-5.5,1.5-9.7c0.3-0.5,0.8-1.4,1.5-2.4c0.8-1,1.5-1.8,1.8-3.4c0.5-2.7,0.6-5.9-0.3-9.8s0.6-5.9,3.7-4.7
			c-0.5-2.8-0.5-5.6-0.1-7.2c-0.3-1.7,0.9-4.2,1.9-6.6c0.3-0.5,0.4-2,0.8-3.7c-0.3-1.7,0.1-3.2,0.5-4.9c0.5,0.3,1,0.1,2,0.4
			c1,0.3,1,0.1,1.1-0.9c1.4-1.4,1.1-2.4,0.3-4.2c-0.9-1.1-1.7-3.1-1-5.2c1.4-1.4,2.2-2.2,2.7-2.7c0.6-0.4,1.4-1.4,2.2-2.9
			c0.3-0.5,0.4-1.5,0-2.8c-0.3-1.1-0.6-2.4,0-2.8c0.8-1.4,1.1-2.4,1.9-4.1c0.1-1,1.1-2.4,1.9-4.1c1-2,1.8-3.4,2.7-4.9
			c0.8-1.4,1.8-3.4,2.6-6.6c5.9,1.1,12.9,1.7,20.3-0.1C5304.2,217.2,5309.9,218.4,5314.6,222.6z M5208.2,613.9
			c-0.6-1.8-0.9-3.3-0.3-4.5c0.1-1,0.5-2.7,1.1-3.1c0.1-1,0.4-1.5,0.4-2c0.3-0.5-0.9-1.1-2.4-1.5c-0.1,1-0.8,3.7-1.5,6.8
			C5205.4,612.3,5206,613.9,5208.2,613.9z M5210.5,582.6c-0.5-2.8,0.8-6.5,2.7-9.8c1.8-3.4,1.7-5.6-0.6-6.8c0.5,2.8-0.1,6-2.8,8.7
			C5206.9,578.1,5207,580.2,5210.5,582.6z M5276.8,344.1c-0.3,4.2,0.1,7.2,1.5,7.9c1.4,0.8,2,3.2,1.9,6.4c-1.1,0.3-1.8,0.6-1.5,1.8
			c0.3,1.1,0,2.2-0.1,3.8c-0.3,0.5-0.8,1.4-2.2,2.2c-0.8,1-2.2,2.2-2.9,3.2c-0.1,1-0.5,2.7-0.1,3.8c0.3,1.1-0.1,3.2-0.1,5.4
			c-0.3,0.5-0.8,1.4-1.5,2.4c-0.8,1-1.5,1.8-1.8,3.4c-0.5,2.7-1.1,5.2-1.3,8.4c-0.1,3.2-0.6,5.9-1.3,9.1l-1.1,0.9l-0.8,1
			c-0.8,1.4-1.4,3.6-1.9,6.6c-0.8,3.2,0.6,4.6,2.9,4.3c-0.6-2.4-0.9-4.1,0-5c0.8-1,1-2,1.1-3.1c0-2.2,0.3-4.2,1.3-6.3
			c1.4-1.4,1.8-3.4,1.5-5.2c-0.3-1.1-0.3-1.7,0.4-1.5c0.5,0.3,0.6-0.4,1.4-1.4c1-2,1.4-3.6,1.1-5.9c-0.3-1.7,0.1-3.8,1.3-6.3
			c1.8-3.4,3.7-6.9,5.6-10.9c1.3-4.1,2.4-7.2,2.4-8.8c0.1-3.2,0.6-5.9,1.8-8.9s1.7-5.6,2.4-8.8c0.1-1,0.8-3.2,1.5-5.2
			c0.4-2,1-4.9,1.5-6.8c0.8-1.4,1.4-3.6,0.8-6.5c-0.5-2.8,0.5-5.5,1.9-6.6c-0.6-1.8-0.9-3.3-1-5.2c-0.3-1.7-0.5-2.8-1.4-3.6
			c-3.3,5.2-5.1,11.1-6.5,18C5282.1,334.1,5280,339.9,5276.8,344.1z M5354.9,30.4c0.5,2.8,0.9,6.3,0.4,8.8
			c-0.8,3.2-0.8,6.5-1.7,10.1c-0.3,0.5-0.1,1-0.8,1l-1,2c-0.4,1.5-0.1,3.8-0.1,5.4c0.3,1.7,0.3,4.5-0.5,7.7
			c-0.8,3.2-0.8,6.5-1.3,9.1c-0.1,3.2-0.8,6.5-2,9.5c-0.4,1.5-1.4,3.6-3.7,4.7c-0.8,1.4-1.1,3.1-1,4.9c0.3,1.7-1.1,2.4-3.2,2
			c1,2.3,1.3,4.2,0.8,5.1c-0.8,1-1.5,1.8-1.8,3.4c-0.3,0.5,0.3,1.7,0.5,2.8c0.3,1.1,0,2.2,0,2.8l-0.5-0.3l-0.5-0.3
			c-0.3,0.5-0.4,1.5,0,2.8c0.4,1.3,0.6,2.4,0.3,3.8h-2.2c-0.3,0.5,0.3,1.7,0.5,2.8c0.3,1.1,0,2.2,0,2.8c-1.4,1.4-1.8,3.1-0.5,5.5
			c0.6,2.4,0.3,4.5-0.5,5.5c-1,2-1.7,5.6-2.3,11.1c-0.8,3.2-0.6,5.9-0.6,8.7c0,2.8-0.1,5.4-0.6,8.7c-9.1,1.4-16.1-1.8-21.5-9.8
			c-3.2-0.1-6.5-0.8-9.2-0.9c-3.2-0.1-5.9-1.1-8.3-2.9c-1.1-1.9-2.6-3.8-3.6-6.8c-1-3.1-2.6-3.8-4.7-3.7c0.4-6.6,0.1-13.7-1.1-20.7
			c-1.3-7-1-13.4,0.3-19.7c0.3-0.5,0.8-1,1.1-0.9c0.5,0.3,0.6-0.4,0.4-2l-0.3-1.7c0.3-0.5,1.4-1.4,2.2-2.9c0-2.8,0.5-5.5,1.3-8.4
			c0.6-2.9,0.8-6.5,0.4-10.3c-0.3-1.1,0-2.8,0.1-5.4c0-2.2,0.3-4.2,1.1-5.9c0.3-0.5,1.1-0.9,2.3-1c1.1-0.3,1.7-0.3,1.4-1.4
			c0.8-3.2,0.6-5.9,0.1-8.3c-0.6-2.4-0.3-4.5,0.5-5.5c1-2,1.8-3.4,2.7-4.9c0.8-1.4,1.5-2.4,2.6-3.8c0.8-1.4,1.1-2.4,1.1-3.1
			c0.1-1,0-2.2,0.1-3.2s1.1-3.1,2.7-5.5c1.5-2.4,2.6-4.5,3.1-7.2c5.2-1,10.2-1.1,14.4-0.9c4.2,0.3,7.7,2.7,10.1,7.2
			c5.2-1.8,9.7-1.4,12.5,1C5349.2,25.4,5352.1,27.6,5354.9,30.4z"/>
	</g>
	<g>
		<path class="st2" d="M5051.2,159.9"/>
	</g>
	<g>
		<g>
			<path class="st1" d="M4901.4,551c1.1-0.3,2.2-2.2,2.4-3.4C4901.7,546.8,4902.8,549.6,4901.4,551z M5006.9,33.6c-0.1,1-1,2-2,1.9
				c-0.6-1.8-1-3.1-1.1-5.6C5006.8,29.2,5004.9,33.3,5006.9,33.6z M4896.3,560.4c-1.7,0.3-1.4,3.6-2.9,3.2c1.5-1.8,1.5-4.6,2.3-5.6
				C4896.7,558.4,4895.7,560.4,4896.3,560.4z M4877,610.4c0,5-3.1,9.7-3.8,13.5C4872.9,619.4,4876,615.6,4877,610.4z M4870,633.5
				c-0.3-3.8,2.8-13.2,1-4.9C4870.8,630.3,4870.4,631.9,4870,633.5z M4869.6,574.7c1,0.8-0.5,5.5-1.1,5.9
				C4867.7,578.7,4868.5,577,4869.6,574.7z M4864,597.1c-1.7,0.3-1.1-1.9-0.9-3.3C4863.9,594.5,4864.1,595.4,4864,597.1z
				 M4868.6,560.8c-1-0.1,1.3-4.1-0.3-4.5C4869.9,554.3,4869.7,560.4,4868.6,560.8z M4873.6,473.7c-2-1-0.3-6.6,1.1-8
				C4874.6,468.1,4874.1,471.2,4873.6,473.7z M5001.3,145.7c-1.4-1.4-0.3-4.5-0.4-6C5001.7,140.9,5001.8,142.7,5001.3,145.7z
				 M5005.5,85.6c-0.5-0.3-0.5-0.3-0.6,0.4c-3.1,9.7-5.2,25.3-7.9,33c3.3-15.7,6.1-31.7,11.7-43.2c2.9-6.5,7.9-11.6,4.9-18.1
				c1.4,0.8,2.6,3.8,2.6,6c-0.4,6.6-8,12-9.3,18.9c-0.8,3.7,0.8,5.1-0.6,8.7C5005.3,89.3,5005.8,87.4,5005.5,85.6z M4896.3,557.1
				c-2-0.4,0-2.8,0.3-4.2c-0.8,1-2.3,1-2.4,3.4c-0.3-1.1-1.4-1.4-1-3.1c-3.8,5.7-2.9,8.3-5,13.3c-0.5-0.3-0.3-1.1-0.6-1.8
				c-2,4.5-4.2,12.4-4.3,18.4c-1-0.1-0.6-1.8-0.4-3.4c-1.7,0.3-1.9,6.3-2.7,2.7c-1,4.9,0.3,4.5-1.3,8.4c0-5-0.9-6.3,0.1-11.5
				c-0.6,0.4-1,2-1.8,3.1c-1.4-1.4,1.1-2.4,1-4.9c-3.7,7.5-5.5,16.3-7.4,25.4c0-2.8,0.6-8,1.5-13.3c-1.8,3.1-2.9,8.3-4.2,12.4
				c-0.3-4.5-1.1,0.3-2.2,2.2c3.8-21.2,4.7-28.2,8.4-51c-0.9,4.2-1.9,6.3-2,10.1c-0.1,1-2,1.9-1.7,0.3c-0.6,0.4,0.9,3.3-1.4,3.6
				c-2.7-3.4,1-12.5,0.3-17.5c-0.6,0.4-1,2-2.4,0.6c-0.5,2.7,2.4-0.6,0.9,3.3c-3.1-4,0.3-9.3,0.6-13c0.8-3.2,0.3-7,1.8-11.8
				c-2.6,2.3-2.7,9.8-4,13.9c-0.8,1-0.4-0.6-0.3-1.7c1.3-8.4,3.4-24,5-32.1c-2.7,2.7-2,7.3-3.2,13.2c-0.5-0.3-0.3-1.1,0-2.2
				c-2.9,8.3-5.4,25.8-6,37.3c-0.1,3.2,0.3,6.1,0.4,8.8c-0.5,2.7-1.8,8.9-0.3,12.1c-1.9,4.1-1.1,5.9-0.3,8.8c-1-0.1-0.9-1.1-1.5-0.4
				c-1,2,1.4,1.4,1.7,2.6c-0.8,1-2.9,3.2-1.5,5.2c-2-1-1,4.9-1.3,8.4c0.8-1.4,1.3-4.1,2.6-4.5c0.3,6.6-2.4,12.1-4,19
				c0-5,2.7-12.8,3.7-18c-1.7,0.3-2,4.5-3.1,7.2c-3.4-30.5,1.3-82.8,10.1-119.9c2.7,0.5,5.4-7.2,6.4-12.4c0.6,1.8,1.4,0.8,2.3,2.6
				c-0.8,1-0.1,3.8-1.3,6.3c2.2-2.2,2.4-11.5,4-16.7c-1-0.1-0.4,2-1.1,3.1c-0.8,1,0.5-5.5-0.3-6.6c-2,4.5-1.9,6.6-2.7,10.5
				c-2.4-1.5,3.2-12.5,2.3-16.5c1-2,1.4,0.8,0.6,2.4c1.9-6.3,3.8-12.9,4.3-18.4c-1,2-2.2,7.9-3.3,13.5c-1.3-4.2,3.1-12.1,3.3-18.5
				c1.7-0.3,1.1,1.9,0.9,3.3c1.9-1.1,1-4.9-0.8-5.1c1-2,1.5-4.6,0.8-6.5c-1,10.2-6.9,20.1-7.8,29.8c0.5,0.3,0.8-1.4,1.1-2.4
				c1.4,1.4-1.5,7.5-2,12.8c-0.4-0.6-0.3-1.1-0.6-2.4c-1.9,4.1-2,12.3-4.3,16.2c4.6-24.8,8.7-49.4,16.2-73.7
				c1.3,4.2-1.8,11.8-1.3,16.7c1-2,2.7-10.5,3.3-13.5c1.3,4.6-3.2,13.2-2.9,19.2c7.4-29.9,12.4-54.7,17.6-87.5
				c-3.2,13.2-4.1,22.2-6.3,32.8c-0.4-0.6-0.9-1.1-0.6-2.4c-1.9,6.6-3.8,21.2-6.4,28.2c-1-0.8,0.8-3.7,0.5-5.5
				c-1.1,3.1-2.6,6.6-3.4,10.9c0.9-17.5,4.5-34.9,5.7-53.8c0.6-0.4,1-2,2.4-0.6c8.9-40.5,15.1-83.7,24.5-118.6
				c0.4-1.5-0.9-1.1-1-3.1c6.9-20.1,6.6-46,14.7-68.3c2.6-6.6,1.5-15.1,5.4-20.4c2.7-18.8,7.4-48.9,15.1-62.3l1.1-5.2
				c1.4-1.4,2.6-1.7,3.6-3.7c-1.4-3.6,1.7-8.6,3.8-13.5c-0.3-1.1-0.9-1.1-1.8-1.5c1,3.1-0.4,1.5-1.1,5.9c-0.6,0.4,0.5-5.5,0.5-7.7
				c0.6,1.8,3.1-1,2.4,1.5c2.4-3.4,3.8-7.9,4.6-14.4c1.4,0.8-0.4,1.5,0.5,2.8c1.8-3.4,5-5.1,3.8-10.1c3.4,1.8,5.1-8.3,10-5.6
				c1,0.1,0.4-2,1.1-3.1c1.8,1.5,4.3-4.6,8.7-1.5c-1,4.9,6.3,6.3,8.4,10c1.7-0.3-0.4-3.4,1.5-2.4c-1.3,4.1,1.1,8,2,11.4
				c-0.3,4.2-2.7,4.9-3.7,7.5c0.6,6.8,2.8,10.5,0.8,17.6c-0.4,1.5-1.1,3.1-1.5,4.6c-0.4,1.5,0.6,2.4,0.6,2.4
				c-0.3,0.5-1.5,1.8-1.8,3.1c-0.4,2,1.3,4.6,1.1,5.6c-0.1,1-1.9,4.1-2.2,5.1c-0.9,4.2-0.6,8-1.7,12.9c-4,25-11.5,55.3-16.1,83.5
				c-1,7.4-2.8,16-4.2,23.4c-6.9,30.4-12.4,60.5-18,92c-0.1,1-2,7.3-3.1,12.1c-10.5,58.9-24,137.3-39.5,200.6c-1.1,0.3-1,2-1.7,0.3
				c-0.1,1,0.3,1.1,0.6,1.8c-1.1,3.1-1.8,3.1-2.9,6c-3.1,7.2-5.5,18.6-9.5,22.4c4.1-11.4,9.2-23.2,11.7-35.6
				c-4.7,6.8-6.4,20.2-12.3,24.3c0.6,4.6-2.9,6-1.3,8.4C4897.5,543.6,4898.6,553.7,4896.3,557.1z M4870,596.8l1.3-6.3
				C4869.9,588.9,4870,596.8,4870,596.8z M4872.8,559.3c0.6,2.4-1.1,3.1,0.3,3.8C4872.8,561.6,4875,559.9,4872.8,559.3z
				 M4919.9,491.6c0.8-3.2-0.4-3.4,1.1-5.2C4918.8,486,4918.7,491.5,4919.9,491.6z M4918.2,499c-0.3-1.7,1.3-4.1,0.5-4.9
				C4917.5,495,4917.4,498.4,4918.2,499z M4965.3,59.6c-0.8,3.2-4.1,9.1-1,10.2C4964.9,66.3,4965.9,62.1,4965.3,59.6z M4894,566
				c0.3,1.1-1.4,1.4-0.9,4.2c-1.7,0.3,0-2.8-0.3-4.5C4893.4,566.4,4893.8,567.1,4894,566z M4887,576c0.4,0.6-0.3,0.5-0.6,0.4
				c-0.3-1.1,0.1-3.8,0.6-5.9C4888.9,571.5,4885.6,574.6,4887,576z M4866.7,591.2c-1.4-0.8,0.8-3.7,0-5
				C4868.2,584.8,4867.1,589.5,4866.7,591.2z M4975.1,33.8c0.3,1.7-3.7,6.9-4.5,6.1C4971.5,37.4,4974,36.1,4975.1,33.8z"/>
		</g>
	</g>
	<g>
		<g>
			<path class="st1" d="M4932.6,31c0.9,1.1,2.8,0,4.5-0.3C4936.4,29,4935.3,32.1,4932.6,31z M5369.6-184.2c-1-0.1-2.4,0.6-2.7-0.5
				c0.8-1.4,1.5-2.4,3.6-4.3C5372.4-187.5,5368.4-186.6,5369.6-184.2z M4922.7,33.5c-0.9-1.1-3.3,0.9-4.2-0.3c2.4-0.6,3.8-2,5.2-1.8
				C4924.8,31.5,4922.6,32.2,4922.7,33.5z M4875.4,47.8c-2.9,3.2-9.6,3.6-11.6,5.9C4866.6,50.3,4871.7,50.2,4875.4,47.8z
				 M4854.8,56.7c2.7-2.7,10.6-6,3.8-2C4857.4,55,4856.1,56.3,4854.8,56.7z M4896.3,20.6c-0.1,1-4,3.1-5,2.9
				C4892.2,22.1,4893.9,21.8,4896.3,20.6z M4876.1,30.1c-0.9-1.1,0.4-2,1.5-2.4C4878.9,28.1,4878.2,29,4876.1,30.1z M4906,11.6
				c-0.3-1.1,3.6-1.4,2.7-2.7C4910.9,8.9,4906.4,12.4,4906,11.6z M4970.3-36.5c-0.6-2.4,4.7-3.8,6.3-3.7
				C4974.7-39,4972.7-37.8,4970.3-36.5z M5284.4-126.1c0.4-1.5,3.4-2.7,4.6-3.4C5287.6-128.1,5286.2-126.7,5284.4-126.1z
				 M5330.8-156.5C5331.1-157,5330.6-157.2,5330.8-156.5c-9.5,2.9-22.4,9.6-28.7,11.6c13.9-6.5,26.9-13.2,38.3-15.1
				c6.8-1.4,13.3,0,16.2-6.5c-0.4,1.5-1.3,4.1-3.3,5.9c-5.1,3.3-13.7-0.1-19.3,2.6c-3.6,1.4-3.6,3.7-7,4.1
				C5327.1-154.5,5329.5-155.2,5330.8-156.5z M4926.1,31.2c-0.6-1.8,2.3-1,2.6-2.3c-1-0.1-2-0.4-3.8,0.3c0.8-1,0.4-1.5,1.5-2.4
				c-6.6,0.3-7.8,2.7-12.9,3.8c0.3-0.5,1.1-0.9,0.8-1.4c-4.6,1.3-11.9,4.2-15.7,7.2c-0.3-1.1,0.8-1.4,2.2-2.2
				c-0.9-1.1-5.6,2.7-3.7-0.8c-3.8,2.6-2.7,2.7-7,4.1c3.3-3.1,3.7-4.7,8.6-6.5c-1-0.8-2.4,0.6-3.3,0.9c0.4-1.5,3.1-1,3.8-2
				c-7.4,1.8-14.8,5.2-22.2,9.2c1.9-1.1,6.5-4.7,10.7-6.6c-3.4,0.4-7.3,3.3-11.4,4.2c2.7-2.7-1-0.8-3.2-0.1
				c17.4-9.6,22.5-12.8,41.1-23.9c-3.6,1.4-6,2-8.6,4.3c-0.6,0.4-2.8,0-0.9-1.1c-0.4-0.6-1.5,2.4-3.6,1.4c0.9-4.2,9.7-6.8,12.8-10.6
				c-0.4-0.6-1.7,0.3-2-1c-2.3,1,2,1-2.2,2.2c1-4.9,6.1-5.2,9.7-7.4c3.1-1.7,5.7-3.7,9.3-5.9c-3.2-0.8-8.4,3.8-12.8,5.6
				c-1.1,0.3,0.3-0.5,0.8-1c7-4.1,19.3-11.4,26.3-15.6c-3.7-0.8-6,2.6-11,4.7c0.3-0.5,0.8-1,1.4-1.4c-7.2,2.9-22,10.9-30.7,17.8
				c-2,1.9-4.2,4.1-6.1,5.2c-2.3,1-7.4,4-8.7,7.5c-4.1,0.9-4.5,2.4-6.5,4.7c-0.4-0.6,0.4-1.5-0.3-1.1c-2.4,0.6-0.4,1.5-0.5,2.7
				c-1.1,0.3-4.5,0.3-4.2,1.9c-0.6-2.4-3.8,2-7,4.1c1.5,0.4,4.2-1.3,5,0c-4.7,3.8-9.8,5.2-15.6,8.3c3.6-3.7,10-5.6,14.7-7.9
				c-1.4-1.4-4.6,1.3-6.6,2.6c19.3-21.2,59.1-48.8,92-64.5c0.6,2.4,8.3,0.1,12.6-2.4c-0.8,1.4,0.3,1.7-0.1,3.2
				c-1-0.1-2.6,2.3-5.6,2.7c2.8,0,9.3-5.1,14.6-6.9c-0.3-1.1-2.4,0.6-3.1,1c-1-0.1,4.3-2.9,4.7-3.8c-4.6,0.6-6,2-9.2,4.1
				c-0.5-2.8,11-4.7,13.7-8c2.4-0.6-0.4,1.5-1.4,1.4c5.4-2.2,12-4.6,15.7-7.2c-1.7,0.3-6.6,2.6-11.6,5.9c2.4-3.4,10.2-4.5,14.9-8.6
				c0.9,1.1-0.4,2-2.2,2.2c2,0.4,4.2-1.9,3.3-3.1c2.4-0.6,4.2-1.9,5.1-3.3c-8.2,5-18.4,6.5-26.2,11.6c0.4,0.6,1.7-0.3,2.4-0.6
				c0,2.2-6,2.6-10,5.6c0.3-0.5,0.8-1,1.4-1.4c-4.1,0.9-10,5.6-14.6,6.3c20.9-11,40.4-22.4,63.1-31c-2.2,2.9-9.3,5.9-12.9,8.8
				c2.4-0.6,9.6-4,11.6-5.9c-2.6,3.8-11,4.7-15.6,8.9c26.1-12.1,46.9-22.1,73.7-37.4c-11.7,6.4-18.8,11-27.5,15.7
				c0.3-0.5,0.1-1,1.4-1.4c-6,2.6-17.4,9.6-23.8,11.5c0.1-1,2.6-2.3,4-3.1c-3.1,1-6,2-10.2,4c13-9.8,27.8-17.4,41.9-26.9
				c0.4,0.6,2.4-0.6,2,1c34.9-17,69.7-36.8,100.5-49.6c1.1-0.3,0.8-1.4,1.5-2.4c18.8-6,37.8-20.7,58.6-27.8c6.6-2.6,12.1-7.8,18-7.3
				c14.9-8.6,40.4-22.4,54.9-23.2l4.5-2.4c1.5,0.4,2.4,1.1,4.9,1c2.2-2.9,7.3-3.3,12.4-4.7c0.6-0.4,0.8-1.4,0-2.2
				c-0.5,2.7-1.1,0.3-4.5,2.4c-0.5-0.3,4-3.1,5.7-3.7c-0.8,1.4,2.4,1.5,0.4,3.4c3.8,0.1,8-1.1,13.4-3.8c-0.4,1.5-1.7,0.3-2,1.9
				c3.4-0.4,7,0.9,9.8-2.4c0.9,4.1,8.4-1,10,4.9c0.3,1.1,2.4-0.6,3.1-1c0.5,2.8,5.9,1.1,5.9,5.7c-3.8,2-0.6,8.7-2.7,12.8
				c0.9,1.1,2.2-2.2,2.8-0.5c-4.2,1.3-5.4,5-7.2,7.9c-3.2,2-5.6,0.5-7.4,1.1c-4.7,4.5-5.9,7.5-12.6,11.1c-1.7,0.3-3.1,1-4.2,1.3
				c-1.1,0.3-1.4,1.4-1.4,1.4c-0.6,0.4-2.2,0-3.4,0.4c-1.8,0.6-2.4,3.4-3.6,4.3s-4.1,0.9-5.2,1c-3.6,1.4-6.8,3.6-10,5.6
				c-20.9,11-46.9,21.7-69.9,34.5c-6.1,3.1-13,7.3-19.2,9.7c-26.1,12.1-51.2,24.5-76.8,38.4c-0.6,0.4-6,2-10.2,4.5
				c-48.8,25.5-113.2,61.3-167.6,87.2c-1-0.8-1.7,0.3-0.9-1.1c-1.1,0.3-0.8,1-0.8,1.4c-3.3,0.9-3.4,0.4-6.8,1.4
				c-7,1.9-16.7,6.9-21.6,6c10.6-3.3,22.9-6.9,32.2-12c-7.8,0.5-18,6.6-24.6,5.2c-2.9,3.2-6.3,0.9-7,4.1
				C4935.6,23.9,4930,30.9,4926.1,31.2z M4881,34l5.6-2.7C4886.9,29.6,4881,34,4881,34z M4908.8,14.1c-1.4,1.4-3.1,1-2.7,2.7
				C4907.8,16,4910.1,15.8,4908.8,14.1z M4986.4,10.2c2.3-1,2-1.9,4.5-2.4C4989.9,6.5,4986.1,9.1,4986.4,10.2z M4980.3,13.4
				c1.1-0.9,4.2-1.3,3.4-2.7C4982.5,10.5,4980,12.1,4980.3,13.4z M5326.3-203.6c-3.1,1-9.2,1.9-8.2,5
				C5321.9-200.6,5324.9-202.3,5326.3-203.6z M4917.6,34.5c-0.8,1-1.5-0.4-3.2,2c-1.4-1.4,1.9-1.1,2.7-2.7
				C4917.3,34.4,4917,34.9,4917.6,34.5z M4906.1,34.7C4906,35.4,4905.4,35.8,4906.1,34.7c0.1-1,2-1.9,4-3.1
				C4910.6,34,4906.3,33.3,4906.1,34.7z M4883.2,28.5c-0.3-1.7,3.2-2,3.3-3.1C4888.1,25.5,4883.9,27.5,4883.2,28.5z M5351.5-211
				c-1.1,0.9-7.4,1.1-7-0.3C5346.6-211.5,5349.1-210,5351.5-211z"/>
		</g>
	</g>
	<g>
		<g>
			<path class="st1" d="M5433.9-133c-0.8,1,0.6,2.4,0.9,3.3C5437.1-130,5434.4-130.5,5433.9-133z M5739.5,219.3
				c-0.3-1.1-0.6-1.8,0.5-2.7c1.5,0.4,3.1,1.1,4.5,2.6C5742.3,221.6,5741,217.5,5739.5,219.3z M5430-141.4c0.8-1.4-1.7-3.1-0.9-4.1
				c0.6,1.8,2.7,3.4,2.9,4.3C5431.4-140,5430.7-142,5430-141.4z M5403.1-181.1c-4.1-1.9-5.6-7.8-8-9.3
				C5398.5-188.8,5399.8-184,5403.1-181.1z M5389.6-197.7c3.4,1.8,8.8,7.9,3.2,2.9C5391.7-195.7,5391-196.8,5389.6-197.7z
				 M5434.8-170.2c-1.1,0.3-3.8-2.9-3.7-3.6C5432.3-173.3,5433.1-172.2,5434.8-170.2z M5420.5-185.8c0.8-1.4,1.7-0.3,3.1,1.1
				C5422.3-184.3,5421.5-185.1,5420.5-185.8z M5445.1-164.1c0.8-1,2,3.2,3.4,1.8C5449.2-160,5445.5-163,5445.1-164.1z M5507.7-118.4
				c1.5-1.8,5.2,3.3,5.1,5C5511.3-114.2,5509.4-115.8,5507.7-118.4z M5665.8,152.9c1.1-0.3,3.2,2.9,4.9,3.2
				C5668.6,155.3,5667.1,154.9,5665.8,152.9z M5704.6,189.2C5705.3,189.2,5704.8,188.5,5704.6,189.2c-5-8.2-14.2-18.9-17.5-24.4
				c8.6,11.8,18.1,21.8,21.8,32.6c2.6,6,2.4,12,10,13.5c-1.8,0.6-4.2-0.3-5.9-1.1c-4.3-3.6-2.9-12.3-6.1-17.8
				c-1.7-3.1-4.5-2.6-5.5-5.6C5702.3,186.3,5703.2,188.1,5704.6,189.2z M5432.3-139.5c0.8-1.4,2.4,1.5,2.9,2.2
				c-0.3-1.1,0.4-2-1.4-3.6c1,0.1,1.8-0.6,2.4,1.1c-2-6-4.3-5.7-7.2-10.3c0.6-0.4,1,0.1,1.7-0.3c-1.9-4.2-6.3-9.6-11.2-12.3
				c0.8-1,1.5,0.4,3.1,1.8c0.4-1.5-3.8-4.7-0.4-3.4c-2.7-3.4-3.4-1.8-5.5-5.6c3.8,2.6,5.1,2.2,8.2,5.5c0.1-1-1.1-1.9-1-2.3
				c1.8-0.6,1.9,2,3.2,2.9c-3.7-6.3-9.5-12.5-15.1-17.9c2,1,5.6,4.6,9.5,7.9c-1-2.3-4.7-5.9-7-9.2c3.4,1.8,0.4-1.5,0-2.8
				c13.7,13.3,17.8,17.4,33.7,31.2c-2.7-2.7-3.4-4.6-6.3-6.3c-0.5-0.3,0-2.2,0.4-1.5c0.1-1-3.1-1.1-2-3.2c3.8-0.3,8.9,6.9,13.7,8.8
				c0.3-0.5-1.4-1.4,0.4-2c-1.8-1.5-0.4,2-3.1-1.1c4.6-0.6,6.8,4.7,9.2,6.3c2.4,1.5,4.7,3.7,7.9,7.2c0-2.8-5.7-6.8-8.4-10
				c-0.3-1.1,0.6-0.4,1,0.1c5.5,5.6,16.3,14.4,21.2,19.8c-0.4-3.4-3.8-4.7-7.5-8.7c0.6-0.4,1,0.1,1.4,0.8
				c-4.7-5.9-15.7-17-24.4-23.1c-2.9-2.2-4.9-2.7-7.3-4.2c-1.8-1.5-5.2-6.1-9.3-5.7c-1.4-3.6-3.1-3.3-6.1-4.5c0.3-0.5,1.7-0.3,0.8-1
				c-1.4-1.4-1.8,0.6-2.8,0c-0.4-0.6-0.9-3.3-3.1-4c1.9-1.1-3.2-2.9-5.5-5.6c0.3,1.1,2,3.2,1.3,4.6c-5.5-2.7-7.8-7.7-12.5-11.9
				c3.8,2.6,8.4,7.8,11.5,11.1c0.4-1.5-2-3.8-3.7-5.7c25.2,11.2,62.6,40.4,84.5,66.5c-2,1.9,1.8,7.4,5.2,11.5
				c-1.5-0.4-1.1,0.9-2.8,0.5c-0.3-1.1-2.9-2.2-4.1-4.2c0.6,2.4,7.2,7.5,10.2,11.5c0.8-1-1.4-1.4-2.3-2.6c-0.3-1.1,3.7,3.6,5.2,3.3
				c-1.9-4.2-3.3-5.1-6.1-7.3c2.3-1,7.5,8.7,10.3,10.5c1.1,1.9-1.1,0.9-2-0.4c3.4,4.6,7.4,9.7,11.2,12.3c-1.4-1.4-4.3-5.4-8-9.3
				c4.1,1.3,7.2,8.2,11.9,11.9c-0.8,1.4-1.7,0.3-3.1-1.1c-0.4,2,2.7,3.4,4.1,1.9c0.6,1.8,2.6,3.8,4.1,4.2
				c-6.3-6.3-10.7-14.9-17.6-21.2c-0.3,0.5,0.9,1.1,1.9,2c-1.8,0.6-4.5-4.7-8.4-7.8c0.5,0.3,1,0.1,2,0.4c-1.4-3.6-8.4-7.8-9.7-11.9
				c15.3,15.8,31.5,31.3,45.1,50.1c-3.6-1.4-7.9-7.2-11.8-9.7c1.1,1.9,6.1,7.9,8,9.3c-4.6-1.5-7.4-9.3-12.5-11.9
				c17.6,21.2,32.8,37.5,53.6,59c-7.4-9.3-13.9-15.1-20.1-22.4c0.6-0.4,1.1-0.3,2,0.4c-3.8-4.7-13.2-13.7-16.9-19.4
				c1.1-0.3,2.7,2.7,3.1,3.3c-1-2.3-4-5.2-6.5-8.6c13,9.3,23.1,21.3,36.1,32.2c-0.3,0.5,1.4,1.4-0.4,2
				c24.4,28.1,52.2,55.8,70.9,81.7c1,0.8,1.7-0.3,2.4,1.1c10,15.7,28.5,30.1,40,48.4c3.3,5.6,10.2,9.3,10.7,14.9
				c11.8,12.3,29.9,33.1,34,46.1l2.6,3.8c0.3,1.7-1.1,2.4,0.3,4.5c3.6,1.4,4.7,5.9,7.2,10.3c1,0.1,1.5,0.4,2.2,0
				c-2.7-0.5-0.9-1.1-3.1-4c0.3-0.5,3.8,2.9,4.6,4.3c-1.5-0.4-1.8,3.1-2.8,0.5c0.4,3.4,2.9,7.2,7,11.4c-1.1,0.9-1-0.8-2.4-1.5
				c1,3.1-0.4,6.6,4.1,9.2c-3.6,1.4,2.2,8.2-2.7,10.5c-0.6,0.4,1.1,1.9,1,2.3c-2.4,0.6,0.5,5.6-4.7,6.8c-2.7-3.4-8.4,1-12.9,0.6
				c-0.8,1.4,3.1,1.8,0.6,2.4c-2-3.8-6.3-4.1-8.9-4.7c-2.7-2.7-1.7-4.7-2.9-7.2c-5.2-3.3-9.2-3.4-12.9-9.2c-0.9-1.1-1-2.3-2-3.8
				c-1-0.8-2-0.4-2-0.4c-0.4-0.6-0.6-1.8-1-2.3c-1.4-1.4-4.1-1.3-5.1-2.2c-1-0.8-1.4-3.6-1.9-4.2c-2-3.2-5.1-5-8.2-8.3
				c-14.7-16.9-31-38.8-47.6-57.1c-4.5-4.7-9.2-10.7-13.3-15.5c-17.1-21.1-34.7-41.8-54.2-62.5c-0.4-0.6-4-5.2-7-8.6
				c-36-38.8-84.3-88.8-122.9-131.4c0.1-1-1.4-1.4,0.4-1.5c-1-0.8-1-0.1-1.7,0.3c-1-2.3-1-2.3-2.7-5.6c-3.1-6.1-11.1-13.3-11.1-18.4
				c6.5,8.6,12.6,19.2,19.3,26.7c-2.4-7-10.7-14.3-11-21.6c-3.4-1.8-2.9-5-5.5-5.6C5441.8-132.3,5433.4-136.4,5432.3-139.5z
				 M5417.8-180.3l4.1,4.2C5423-176.4,5417.4-181,5417.8-180.3z M5444.5-160.5c-2-0.4-1-2.3-3.4-1.8
				C5442.4-160.8,5443.1-159.1,5444.5-160.5z M5467.5-89.1c1.8,1.5,2.4,1.5,3.1,3.3C5472.2-87.2,5468.1-89.5,5467.5-89.1z
				 M5462.6-94c1,0.8,2,3.2,3.2,2.9C5466.1-92.7,5464.3-94.3,5462.6-94z M5749,173.4c-1.9-2-3.7-7.9-6.4-6.8
				C5745.5,169.5,5746.9,173.1,5749,173.4z M5427.1-146.4c-1-0.1-0.9-1.1-2.7-2.7c0.4-1.5,2,1,3.4,1.8
				C5427.4-147,5426.7-147.1,5427.1-146.4z M5423.4-156.5c-0.6,0.4-0.5-0.3-0.4-0.6c1,0.1,2.9,2.2,3.7,3.6
				C5425.7-152.4,5425.6-157.2,5423.4-156.5z M5423.8-180.1c1.8-0.6,2.7,2.7,3.8,2.6C5427.2-176.1,5424.7-179.4,5423.8-180.1z
				 M5761,195.2c-1-0.8-2.6-6.6-1.4-6.8C5760.7,191.3,5760.3,193.4,5761,195.2z"/>
		</g>
	</g>
</g>
</svg>
