<?xml version="1.0" encoding="utf-8"?>
<!-- Generator: Adobe Illustrator 19.0.0, SVG Export Plug-In . SVG Version: 6.00 Build 0)  -->
<svg version="1.1" id="a86c84ac-c86b-458f-bb45-d629fc1b571b"
	 xmlns="http://www.w3.org/2000/svg" xmlns:xlink="http://www.w3.org/1999/xlink" x="0px" y="0px" viewBox="42 91.5 1083.4 818.5"
	 style="enable-background:new 42 91.5 1083.4 818.5;" xml:space="preserve">
<style type="text/css">
	.st0{opacity:0.1;}
	.st1{fill:#FFFFFF;}
	.st2{fill:none;stroke:#000000;stroke-miterlimit:10;}
</style>
<title>fall</title>
<g class="st0">
	<g>
		<g>
			<path class="st1" d="M650.3,480.8c0.5-0.3,0.6-1.4,0.5-2C649.7,478.7,650.7,479.9,650.3,480.8z M609.2,224.5
				c-0.2,0.6-0.1,1.1-0.9,1.2c-0.6-0.7-1-1.2-1.5-2.4C608.1,222.6,607.9,224.7,609.2,224.5z M649.5,486c-0.7,0.4,0,1.9-0.8,2
				c0.4-1.1-0.1-2.4,0.1-3C649.3,484.9,649.2,486,649.5,486z M649.3,512.2c0.9,2.3,0.3,5,0.6,6.9C649,517.1,649.8,514.8,649.3,512.2
				z M650.2,524.2c-0.8-1.7-1-6.5-0.4-2.4C649.9,522.6,650,523.4,650.2,524.2z M639.7,497.2c0.6,0.2,0.7,2.6,0.5,2.9
				C639.5,499.3,639.7,498.5,639.7,497.2z M641,508.5c-0.7,0.4-0.9-0.7-1-1.4C640.5,507.2,640.9,507.7,641,508.5z M637.1,490.9
				c-0.5,0.1-0.1-2.1-0.9-2C636.6,487.7,637.4,490.6,637.1,490.9z M624,450.1c-1.1-0.1-1.3-3-0.9-3.9
				C623.5,447.2,624,448.8,624,450.1z M625.8,277.1c-0.6-0.4-0.6-2-1.2-2.7C625.2,274.8,625.6,275.5,625.8,277.1z M617.3,248.7
				c-0.3,0-0.3,0-0.2,0.3c0.3,5,2,12.5,2.1,16.5c-1.2-7.8-2.7-15.6-2.1-21.9c0.2-3.5,1.6-6.7-0.9-9.2c0.8,0.1,1.8,1.3,2.2,2.3
				c1,3.1-1.6,6.9-1,10.3c0.3,1.8,1.2,2.2,1.2,4.1C617.9,250.5,617.7,249.4,617.3,248.7z M649.2,484.4c-1,0.2-0.5-1.3-0.6-2
				c-0.2,0.6-0.9,0.9-0.5,2c-0.3-0.5-0.9-0.4-1-1.2c-0.8,3.3,0.1,4.3,0,7c-0.3,0-0.3-0.5-0.6-0.7c-0.2,2.4,0.2,6.4,1.2,9.2
				c-0.5,0.1-0.6-0.7-0.8-1.5c-0.7,0.4,0.2,3.2-0.8,1.7c0.4,2.4,0.9,2,0.9,4.1c-0.9-2.3-1.5-2.7-1.9-5.3c-0.2,0.3-0.1,1.1-0.3,1.7
				c-0.9-0.4,0.1-1.3-0.4-2.4c-0.4,4.1,0.3,8.5,1,13c-0.5-1.3-1.1-3.8-1.6-6.4c-0.3,1.7,0.1,4.3,0.2,6.4c-0.9-2-0.5,0.3-0.6,1.4
				c-1.9-10.4-2.7-13.8-5-24.9c0.3,2.1,0.2,3.2,0.8,5c0.1,0.5-0.6,1.2-0.7,0.4c-0.2,0.3,1,1.4,0,1.9c-1.8-1.1-1.7-5.9-2.9-8.1
				c-0.2,0.3-0.1,1.1-1,0.7c0.2,1.3,1-0.7,1,1.4c-2.1-1.3-1.5-4.3-2-6.1c-0.2-1.6-1.1-3.3-1.2-5.7c-0.8,1.5,0.5,5,0.6,7.1
				c-0.2,0.6-0.3-0.2-0.4-0.7c-0.9-4.1-2.6-11.6-3.3-15.6c-0.8,1.7,0.3,3.7,0.8,6.6c-0.3,0-0.3-0.5-0.4-1c0.1,4.3,2,12.8,3.7,18.2
				c0.5,1.5,1.2,2.7,1.7,4c0.2,1.3,0.7,4.4,2,5.6c-0.2,2.2,0.5,2.9,1.4,4.1c-0.5,0.1-0.6-0.4-0.8,0.1c-0.1,1.1,0.9,0.4,1.2,0.9
				c-0.2,0.6-0.8,2,0.2,2.7c-1.1-0.1,0.4,2.4,0.9,4.1c0.1-0.8-0.1-2.1,0.4-2.5c1.3,3,1,6,1.5,9.4c-0.9-2.3-1-6.3-1.4-8.9
				c-0.7,0.4-0.2,2.4-0.2,3.8c-6.9-13.4-13.8-38.3-16.2-56.9c1.3-0.2,1.2-4.2,0.8-6.8c0.6,0.7,0.8,0.1,1.5,0.8
				c-0.2,0.6,0.6,1.8,0.5,3.1c0.6-1.4-0.9-5.7-1.1-8.4c-0.5,0.1,0.2,1,0,1.6c-0.2,0.6-0.7-2.6-1.3-3c-0.2,2.4,0.3,3.4,0.6,5.3
				c-1.4-0.3-0.7-6.3-1.8-8c0.1-1.1,0.8,0.1,0.7,1c-0.2-3.2-0.5-6.6-1.2-9.2c-0.1,1.1,0.4,4,0.8,6.8c-1.3-1.7-0.7-6.1-1.7-9.1
				c0.7-0.4,0.9,0.7,1,1.4c0.7-0.9-0.4-2.4-1.2-2.2c0.1-1.1-0.1-2.4-0.8-3.1c1.3,4.9,0.3,10.4,1.6,15c0.3,0,0.1-0.8,0.1-1.3
				c0.9,0.4,0.6,3.7,1.3,6.2c-0.3-0.2-0.3-0.5-0.7-1c-0.2,2.2,1.2,6,0.8,8.2c-2.2-12.2-4.6-24.2-5.3-36.7c1.3,1.7,1.2,5.7,2.3,7.9
				c0.1-1.1-0.6-5.3-0.8-6.8c1.4,1.9,0.8,6.6,2,9.3c-1.8-15-3.8-27.3-7.1-43.3c0.8,6.6,2,10.9,2.8,16.2c-0.3-0.2-0.6-0.4-0.7-1
				c0.3,3.4,1.9,10.4,2,14.1c-0.6-0.2-0.3-1.8-0.7-2.6c0,1.6,0,3.5,0.3,5.6c-2.6-8.2-4-16.8-6.7-25.7c0.2-0.3,0.1-1.1,1-0.7
				c-2.9-20.2-7.6-41.1-9.3-58.8c-0.1-0.8-0.6-0.4-1-1.2c-0.3-10.4-4.9-22.3-5.1-34c0-3.5-1.9-7.2-1.1-10.3
				c-2-9.1-5.1-23.8-3.9-31.3l-0.4-2.6c0.4-0.9,0.9-1.2,1-2.3c-1.3-1.4-0.7-4.2-0.6-6.9c-0.3-0.5-0.6-0.4-1.1-0.4
				c1,1.2,0.1,0.8,0.5,2.9c-0.2,0.3-0.7-2.6-1.1-3.6c0.6,0.7,1.2-1,1.4,0.3c0.5-2,0.4-4.3-0.4-7.4c0.8,0.1,0.1,0.8,0.7,1.2
				c0.2-1.9,1.4-3.2,0-5.3c1.9,0.2,0.9-4.7,3.6-4.3c0.5-0.1-0.2-1,0-1.6c1.1,0.4,1.2-2.9,3.7-2.2c0.4,2.4,4,1.8,5.6,3.1
				c0.7-0.4-0.8-1.5,0.3-1.4c0.1,2.1,1.9,3.5,2.9,4.9c0.6,2-0.4,2.7-0.4,4.1c1.5,3,3.1,4.3,3.4,8c0.1,0.8,0,1.6,0.1,2.4
				c0.1,0.8,0.7,1,0.7,1c0,0.3-0.4,1.1-0.3,1.7c0.2,1,1.4,1.9,1.5,2.4c0.1,0.5-0.2,2.2-0.1,2.7c0.3,2.1,1.1,3.8,1.5,6.2
				c2.5,12.2,4.3,27.4,7.1,41.2c0.8,3.6,1.5,7.8,2.1,11.5c2.1,15.2,4.8,30,7.7,45.4c0.1,0.5,0.3,3.7,0.7,6.1
				c5.4,28.9,12.8,67.3,16.7,99.1c-0.5,0.3-0.1,1.1-0.7,0.4c0.1,0.5,0.3,0.5,0.6,0.7c0,1.6-0.3,1.7-0.3,3.3
				c-0.2,3.8,0.7,9.5-0.5,11.9c-0.1-5.9,0.2-12.3-0.8-18.4c-1,3.9,0.6,10.4-1.4,13.3c1.1,2-0.3,3.3,0.9,4.1
				C647.2,478,649.5,482.5,649.2,484.4z M643.7,507.2l-0.5-3.1C642.4,503.7,643.7,507.2,643.7,507.2z M638.5,489.6
				c0.7,1,0,1.6,0.8,1.7C639,490.6,639.6,489.4,638.5,489.6z M648.4,450.3c-0.2-1.6-0.8-1.5-0.4-2.6
				C646.9,447.8,647.9,450.3,648.4,450.3z M649,453.9c-0.4-0.7-0.1-2.1-0.6-2.3C647.9,452.2,648.4,453.7,649,453.9z M594.3,243.8
				c0.2,1.6-0.3,4.9,1.3,4.9C595.3,246.8,595,244.7,594.3,243.8z M649.4,488.9c0.3,0.5-0.4,0.9,0.3,2.1c-0.7,0.4-0.5-1.3-0.9-2
				C649.2,489.2,649.5,489.4,649.4,488.9z M647.9,494.8c0.3,0.2,0,0.3-0.2,0.3c-0.3-0.5-0.6-1.8-0.7-2.8
				C648.1,492.4,647.1,494.4,647.9,494.8z M641.3,505.2c-0.8-0.1-0.3-1.8-0.9-2.3C640.8,502.1,641.1,504.4,641.3,505.2z
				 M594.3,230.1c0.4,0.7-0.5,3.8-1,3.6C593.6,232.4,594.2,231.5,594.3,230.1z"/>
		</g>
	</g>
	<g>
		<g>
			<path class="st1" d="M530.7,112.7c-0.5,0.1-0.7,0.4-0.7,0.6C531.1,113.2,530.2,113,530.7,112.7z M539.5,178.5
				c0.3,0,0.2-0.3,1-0.4c0.6,0.2,0.8,0.1,1.2,0.6C540.4,178.9,541.1,178.3,539.5,178.5z M532.1,111.4c0.8-0.1,0.2-0.6,1-0.7
				c-0.5,0.3-0.2,0.6-0.4,0.9C532.2,111.7,532.6,111.3,532.1,111.4z M535.8,104.1c-0.6-0.4,0.3-1.4,0.2-1.9
				C536.9,102.9,535.7,103.6,535.8,104.1z M536.6,101c0.6,0.4,0.2,1.6,0.1,0.5C536.7,101.3,536.6,101,536.6,101z M543.8,107.4
				c-0.5,0.1-0.4-0.7-0.1-0.8C544.5,106.8,544,107.1,543.8,107.4z M544.1,104.4c0.8-0.1,0.8,0.1,0.9,0.4
				C544.4,104.6,544.2,104.7,544.1,104.4z M545.6,108.7c0.5-0.1-0.2,0.6,0.6,0.4C545.7,109.5,545.4,109,545.6,108.7z M554.2,118.6
				c1-0.2,0.9,0.7,0.4,1C554.3,119.4,553.9,118.9,554.2,118.6z M529.2,165.7c0.6,0.2,0.3,0.5,0.9,0.7
				C529.5,166.2,529.3,166.2,529.2,165.7z M534.3,172.7c0.3,0,0.3,0,0.3,0c0.3-1.4-0.5-3.1,0.1-4.3c0.3,2.1,0.9,3.9-0.7,5.7
				c-0.7,0.9-2.6,2-0.2,2.4c-0.8,0.1-1.7-0.3-2-0.5c-0.6-0.7,2.6-2,2.5-2.8c-0.1-0.5-0.9-0.4-0.7-1C534,172.2,534,172.4,534.3,172.7
				z M532.2,111.7c1-0.2,0.3,0.2,0.3,0.5c0.3,0,1-0.4,0.7-0.6c0.3,0.2,0.8,0.1,0.8,0.1c1.2-1,0.4-1.1,0.8-2c0.3,0,0.3,0.2,0.6,0.2
				c0.4-0.6,0.5-1.7-0.1-2.4c0.5-0.1,0.6,0.2,0.6,0.4c0.8-0.1,0.1-0.8,1-0.4c-0.1-0.5-0.6-0.4-0.4-1c0.6,0.4,1.2,0.6,1.3,1.1
				c0.3,0,0.2-0.3,0.5-0.3c0.8,0.1-0.2,0.3,0.1,0.5c0.9-1.2,0.7-2.3,0.8-3.3c0.3,0.2,0.7,1,0.8,1.5c0.5-0.3,0.4-1.1,0.5-1.7
				c0.6,0.4,0.5-0.1,0.7-0.4c0.7,2.6,1.1,3.6,1.8,6.4c-0.1-0.5,0.1-0.8-0.2-1.3c0-0.3,0.7-0.4,0.8-0.1c0.3,0-0.9-0.4,0.2-0.6
				c1.6,0,1,1.4,1.9,1.8c0.3,0,0.2-0.3,1-0.2c0-0.3-1,0.2-0.9-0.4c1.9,0.2,0.9,0.9,1.3,1.4c0.1,0.5,0.6,0.7,0.5,1.5
				c1-0.4,0.1-1.3,0.2-1.9c0.3,0,0.3,0,0.3,0.2c0.4,1,1.3,3,1.4,3.8c1-0.4,0.1-1.1,0-1.6c0.3,0,0.3,0.2,0.3,0.2
				c0.4-1.1-0.5-3.4-1.5-4.6c-0.3-0.5-0.9-0.7-1.2-0.9c0-0.3-0.2-1-1.3-1.4c0.4-0.6-0.1-0.8-0.9-0.9c0.5-0.1,0.6,0.2,0.8-0.1
				c0.2-0.3-0.8-0.1-1.1-0.1c0.3,0,1-0.7,0.1-0.8c1-0.2-0.1-0.5-0.4-1c-0.2,0.3-0.2,0.6-0.7,0.6c-0.9-0.7-0.2-1.6-0.4-2.4
				c0.6,0.4,0.2,1.6,0.4,2.4c0.8-0.1,0.4-0.6,0.7-0.9c5.5,2.9,9.5,9.2,9.5,14c-1.3,0.2-1.9,1.4-1.8,1.9c-0.6-0.2-0.8,0.1-1.3-0.1
				c0.3,0-0.3-0.5-0.1-0.8c-0.7,0.4,0.2,1.6,0.1,2.1c0.5-0.1,0-0.3,0.2-0.3c0.3,0,0.4,0.7,0.9,0.7c0.4-0.6,0.1-0.8,0.1-1.3
				c1.3,0.1,0,1.6,0.9,2c-0.2,0.3-0.8,0.1-0.6-0.2c-0.1,0.8-0.3,1.7,0.1,2.4c0.2-0.3,0.1-1.1,0-1.9c1.1,0.4,0,1.6,0.6,2.3
				c-0.8,0.1-0.8-0.1-0.9-0.4c-0.7,0.4,0.1,0.5,0.9,0.4c-0.2,0.3-0.2,0.6,0.4,0.7c-0.7-1.2,1.2-2.9,0.5-3.8c-0.3,0-0.2,0.3-0.2,0.3
				c-0.8-0.1-0.2-1-0.5-1.5c0.3,0,0.3,0.2,0.6,0.2c0.4-0.6-0.5-1.5,0.2-2.2c0.8,3.1,1.5,6.2,0.7,9.5c-1.1-0.4-0.5-1.5-1.4-1.9
				c-0.2,0.3-0.1,1.3,0,1.9c-1.1-0.4,0-1.6-0.9-2.3c-0.2,3.8,0.3,6.9,1.7,11c0-1.6-0.7-2.8-0.9-4.1c0.3,0,0.6,0.2,0.6,0.2
				c0.1-0.8-0.7-2.6-0.3-3.7c0.5-0.1,0.1,0.5,0.4,0.7c0.2-0.3,0.4-0.9,0.3-1.4c1.6,1.9,2,4.2,3.7,6.4c-0.3,0-0.2,0.3-1,0.2
				c0.3,5.3,2.4,10.3,1.8,15c0,0.3,0.6,0.2,0.8,0.1c-1.2,2.9,2.2,5.5,0.8,8.7c-0.4,0.9,1.1,1.7-0.1,2.7c0.9,2.3,2.3,6.1-0.1,8
				l0.1,0.8c-0.5,0.3-1,0.4-1.2,0.7c1.1,0.4,0.2,1-0.2,1.9c1-0.2,1.3-0.2,1.8-0.3c-0.8-0.1,0-0.3-0.1-0.8c0.3,0,0.4,0.7,0.7,1
				c-0.6-0.2-1.3,0.5-1.3,0.2c-0.7,0.6-0.9,1.2-0.5,2c-0.8,0.1,0-0.3-0.6-0.2c-0.4,0.6-2,1.1-0.6,1.4c-1.9,0-1.4,1.3-4.3,1.5
				c-0.5,0.1,0,0.3-0.2,0.3c-1.1-0.1-1.5,0.8-4.1,0.9c-0.1-0.5-4-0.2-5.4-0.2c-0.8,0.1,0.6,0.4-0.5,0.3c0.2-0.6-1.5-0.8-2.3-1
				c-0.3-0.5,0.7-0.6,0.9-1.2c-1.2-0.6-2.6-0.9-2.4-1.8c0-0.3,0.2-0.3,0.2-0.6c0-0.3-0.6-0.2-0.6-0.2l0.5-0.3c0-0.3-1.1-0.4-1.2-0.6
				c0-0.3,0.4-0.6,0.4-0.6c-0.1-0.5-0.7-1-0.8-1.5c-1-3.1-0.9-7.1-1.9-10.4c-0.4-1-0.6-2-0.7-2.8c-0.1-4-0.9-7.6-2.1-11.5
				c0-0.3,0.1-1.1,0-1.6c-1.7-7.2-4.3-17-4.3-25.3c0.5-0.1,0.2-0.3,0.8-0.1c0-0.3-0.3-0.2-0.6-0.2c0.2-0.3,0.5-0.3,0.7-0.9
				c0.7-0.9,0.4-2.5,2.2-3.3c-0.5,1.7-1.9,3.2-1.6,4.8c1.4-1,0.9-2.8,3.2-3.7c-0.9-0.4,0.7-0.9-0.4-1
				C533.5,113.3,531.7,112.3,532.2,111.7z M541,104.9l0.1,0.8C541.9,105.8,541,104.9,541,104.9z M544.1,109.2
				c-0.6-0.2,0.2-0.3-0.6-0.4C543.8,109,543.1,109.4,544.1,109.2z M528.5,120.8c0.1,0.5,0.6,0.4,0.1,0.8
				C529.9,121.4,529.3,120.7,528.5,120.8z M528.7,120c0.3,0.2-0.2,0.6,0.3,0.5C529.5,120.4,529.2,119.9,528.7,120z M557.8,171.9
				c-0.1-0.5,0.9-1.2-0.7-1.2C557.1,171.2,557.2,171.7,557.8,171.9z M532.8,110.5c-0.3-0.2,0.5-0.3-0.1-0.5c0.8-0.1,0.3,0.2,0.6,0.4
				C533,110.5,532.7,110.2,532.8,110.5z M534.9,108.8c-0.3,0,0,0,0.3,0c0.3,0.2,0.3,0.5,0.4,0.7C534.5,109.4,536,108.7,534.9,108.8z
				 M543.5,105.3c0.8-0.1,0.1,0.5,0.6,0.4C543.3,106.1,543.5,105.6,543.5,105.3z M555.9,175.7c-0.3-0.2,0.9-0.9,1.4-1
				C556.9,175,556.1,175.1,555.9,175.7z"/>
		</g>
	</g>
	<g>
		<path class="st1" d="M442.8,311.9c1.7,2.1,2.8,4.4,3.2,7s0.8,5,1.8,7.8c0.3,0.5,0.4,1,0.8,1.5c0.3,0.5,0.4,0.7,0.5,1.5
			c0,0.3,0.1,0.5,0.2,1l-0.3,0c0.5,3.4,1.6,6.4,2.5,9c1,2.8,1.7,5.6,2.4,8.5c0.4,0.7,0.6,1.8,0.8,3.1c-0.4,0.9-0.2,2.2,0.7,4.2
			c0.1,0.5-0.1,1.1-0.1,1.1c-0.3,0-0.2,0.3-0.2,0.6c0.3,1.8,0.8,3.4,1.6,4.8c0.7,1.2,1.3,3,1.6,4.8c0,0.3-0.2,0.6-0.4,0.6
			c0,0.3-0.1,0.8,0.2,1c0.2,1.6,0.5,2.9,0.9,4.1c0.5,1.3,0.7,2.6,0.9,4.1c0.5,1.3,0.7,2.8,1.5,4.6c0.6,1.8,1.1,3.6,1.1,5.2
			c-0.1,0.8,0,1.6,0.6,2.3c0.7,1,0.9,2.3,1.4,4.1c0.1,0.5-0.1,1.1-0.3,1.7c-0.2,0.6-0.4,1.1-0.3,1.7c0.2,1.6,0.8,3.1,1.5,4.3
			c0.7,1.2,1.2,2.7,1.8,4.5c0,0.3-0.2,0.6-0.4,0.6s-0.2,0.3,0.2,1c0.1,0.5,0.2,1,0.5,1.5c0.3,0.5,0.4,0.7,0.7,1
			c0.8,3.4,1.6,6.7,2.4,10.1c0.8,3.4,1.7,7.2,2.3,11.2l-0.5,0.3l-0.3,1.7c0.5,1.5,0.9,2.5,1.6,3.2c0.6,0.7,0.8,1.7,0.8,3.1
			c0.1,0.5-0.1,1.3-0.2,1.9c-0.2,0.6-0.4,1.1-0.2,1.9c0.2,1.3,0.7,2.6,1.5,4.3c0.8,1.7,1.3,3.3,1.6,4.8c0,0.3,0.1,0.5-0.2,0.6
			s-0.2,0.3,0.2,1c0.1,0.8,0.5,1.5,0.6,2c0.3,0.5,0.1,0.8-0.1,1.1c0.1,0.5-0.1,1.1-0.6,1.4s-0.7,0.9-0.2,1.9
			c1.7,2.1,2.8,4.4,3.2,6.5s0.7,4.2,1.3,6.5c0,0.3,0.4,0.7,0.7,1.2s0.4,1,0.6,1.8c-0.3-0.2-0.6-0.2-0.8-0.1s-0.2,0.3-0.2,0.6
			c0,0.3,0.4,0.7,0.7,1.2s0.4,1,0.5,1.3l-1.3,0.5c0.1,0.8,0.8,1.7,1.8,2.9c0.9,0.9,1.1,1.7,0.1,2.1c1.5,3,2.4,4.7,2.7,5.5
			c0.4,0.7,1.4,1.9,2.5,4.2c-0.4,0.9-0.2,1.9,0.5,3.1c0.7,1.2,1,2.8,1.1,3.8c0,0.3-0.2,0.6-0.4,0.6c-0.3,0-0.2,0.6,0.2,1.3
			c0.8,1.7,1.4,4.1,1.8,7.8c0.3,3.4-0.1,6.2-1.2,7.9c-0.8,0.1-1.2,0.7-1.1,1.5c0.1,0.8,0,1.6-0.8,2c-0.5,0.3-1,0.2-1.7-0.5
			c-0.6-0.4-1.2-0.6-1.9-0.2c-2.8,0.7-5.9,1.5-9.3,2.3c-3.4,0.8-6.8,1.1-10,1c-2.5-3.9-4.4-7.6-5.6-11.7c-1.2-4.1-2.3-7.9-3.4-11.2
			s-2.2-6.9-3.2-10.2c-1.1-3.3-1.3-6.5-0.7-9.3c-1.2-2.2-2-4.2-2.9-6.2c-0.9-2-1.5-4.3-2.2-6.9c-0.1-0.8-0.4-2.4-1-4.4
			c-0.3-2.1-0.6-3.9-1.2-5.7c-0.1-0.5-0.2-1-0.5-1.3c-0.3-0.2-0.3-0.5-0.6-0.7c-0.1-0.5,0.1-1.1,0.4-1.1c0.3,0,0.5-0.3,0.2-0.6
			c-0.6-2.3-1.2-4.4-1.8-6.1c-0.6-1.8-1.1-3.3-1.6-4.8c-0.1-0.5-0.2-1-0.5-1.5c-0.3-0.5-0.6-0.7-0.8-1.5c0-0.3,0.4-0.9,0.8-1.7
			c0.4-0.6,0.6-1.2,0.6-1.4c-0.2-1.6-0.8-3.1-1.8-4.5c-0.8-1.5-1.3-3-1.5-4.3c-0.9-2.5-1.7-5.4-2.5-8.7c-0.2-1.3-0.1-2.1,0.2-2.4
			s0.1-1.3-0.5-3.4c0-0.3-0.5-1.5-1.1-3.8c-0.1-0.5-0.2-1,0.1-1.1c0,0,0.2-0.3,0.2-0.6c0.1-1.3-0.2-3.2-0.9-5.5
			c-0.6-2.3-1.3-4.6-1.9-6.9c-0.3-1.8-0.5-3.1-0.7-4.2c-0.1-0.5,0.1-1.3,0.2-1.9c0.2-0.6,0.4-1.1,0.2-1.9c-0.2-1.3-0.4-2.6-0.9-3.9
			c-0.5-1.3-0.7-2.6-0.4-4c-0.1-0.5,0.1-1.3,0.2-2.2c0.1-0.8,0.1-1.3,0.2-2.2c-0.1-0.5-0.5-1.3-1.1-2c-0.6-0.7-1.1-1.7-1.3-3
			c0-0.3-0.1-0.5,0.4-1.1c0.4-0.6,0.6-1.2,0.5-1.7c-0.2-1.6-0.7-2.8-0.9-4.1c-0.4-1-0.7-2.6-1-4.7c0-0.3,0.1-0.8,0.3-1.4
			c0.2-0.6,0.4-1.1,0.2-1.9c-0.2-1.3-0.7-2.8-1.8-4.5c-1.1-1.7-0.7-2.8,0.9-2.8c-0.7-1.2-1.2-2.5-1.3-3.3c-0.4-0.7-0.3-2.1-0.3-3.4
			c0-0.3-0.2-1-0.3-1.8c-0.4-0.7-0.5-1.5-0.6-2.3c0.3,0,0.5-0.1,1-0.2c0.5-0.1,0.5-0.1,0.4-0.6c0.4-0.9,0.1-1.3-0.6-2
			c-0.6-0.4-1.3-1.1-1.4-2.2c0.4-0.9,0.6-1.4,0.8-1.7c0.2-0.3,0.4-0.9,0.5-1.7c0-0.3-0.1-0.8-0.5-1.3c-0.3-0.5-0.7-1-0.5-1.3
			c0.1-0.8,0.1-1.3,0.2-2.2c-0.1-0.5,0.1-1.3,0.2-2.2c0.1-1.1,0.2-1.9,0.4-2.7c0.1-0.8,0.2-1.9,0-3.5c2.9-0.5,6.2-1.5,9.3-3.6
			C437.1,311.2,439.9,310.8,442.8,311.9z M461.8,510.3c-0.6-0.7-1-1.4-0.9-2c-0.1-0.5-0.2-1.3,0-1.6c-0.1-0.5-0.1-0.8-0.2-1
			c0-0.3-0.6-0.4-1.4-0.3c0.1,0.5,0.3,1.8,0.5,3.4C460.2,510,460.8,510.7,461.8,510.3z M457.4,495.5c-0.7-1.2-0.8-3.1-0.5-5
			c0.2-1.9-0.2-2.9-1.5-3c0.7,1.2,1,2.8,0.2,4.5C455,494,455.4,495,457.4,495.5z M446.5,374.3c0.6,2,1.3,3.3,2.1,3.4
			c0.8,0.1,1.5,1.1,2,2.6c-0.5,0.3-0.7,0.6-0.4,1.1c0.3,0.5,0.4,1,0.6,1.8c0,0.3-0.1,0.8-0.6,1.4c-0.2,0.6-0.6,1.4-0.8,2
			c0.1,0.5,0.2,1.3,0.6,1.8c0.3,0.5,0.5,1.5,0.9,2.5c0,0.3-0.1,0.8-0.3,1.4c-0.2,0.6-0.4,1.1-0.2,1.9c0.2,1.3,0.4,2.6,0.9,4.1
			s0.7,2.8,1,4.4l-0.4,0.6l-0.2,0.6c-0.1,0.8,0,1.9,0.3,3.4c0.2,1.6,1.1,2,2.1,1.5c-0.7-1-1.1-1.7-0.9-2.3c0.2-0.6,0.1-1.1,0-1.6
			c-0.4-1-0.6-2-0.5-3.1c0.4-0.9,0.2-1.9-0.2-2.7c-0.3-0.5-0.4-0.7-0.1-0.8c0.3,0,0.2-0.3,0.4-0.9c0.1-1.1,0-1.9-0.5-2.9
			c-0.4-0.7-0.6-1.8-0.5-3.1c0.2-1.9,0.5-3.8,0.7-6c-0.1-2.1-0.1-3.7-0.4-4.5c-0.5-1.5-0.7-2.8-0.7-4.4c0-1.6-0.2-2.9-0.4-4.5
			c-0.1-0.5-0.2-1.6-0.2-2.7c-0.2-1-0.4-2.4-0.5-3.4c0.1-0.8,0-1.9-0.8-3.1c-0.7-1.2-0.7-2.6-0.3-3.4c-0.6-0.7-1-1.4-1.4-2.2
			c-0.4-0.7-0.7-1.2-1.3-1.4c-0.6,3-0.4,6,0.1,9.4C447.2,368.8,447.2,371.8,446.5,374.3z M428,216.5c0.7,1.2,1.5,2.7,1.7,4
			c0.2,1.6,0.8,3.1,1,4.9c0,0.3,0.1,0.5-0.2,0.6l-0.1,1.1c0.1,0.8,0.6,1.8,0.9,2.5c0.4,0.7,0.9,2,1.1,3.6c0.2,1.6,0.8,3.1,1,4.4
			c0.5,1.5,0.8,3.1,0.7,4.7c0.1,0.8,0,1.9-0.9,2.8c-0.1,0.8,0,1.6,0.4,2.4c0.4,0.7-0.1,1.3-1.1,1.5c0.9,0.9,1.3,1.7,1.2,2.2
			c-0.2,0.6-0.4,1.1-0.2,1.9c0,0.3,0.4,0.7,0.7,1.2c0.3,0.5,0.4,1,0.5,1.3l-0.3,0l-0.3,0c0,0.3,0.1,0.8,0.5,1.3s0.7,1,0.8,1.7
			l-1,0.4c0,0.3,0.4,0.7,0.7,1.2c0.3,0.5,0.4,1,0.5,1.3c-0.4,0.9-0.3,1.7,0.7,2.6c0.7,1,0.9,2,0.7,2.6c-0.1,1.1,0.2,2.9,0.9,5.5
			c0.2,1.6,0.7,2.8,1.2,4.1c0.5,1.3,0.9,2.5,1.2,4.1c-3.9,2.2-7.7,2-11.6-0.8c-1.5,0.5-3.1,0.8-4.4,1.2c-1.5,0.5-2.9,0.5-4.3,0.1
			c-0.9-0.7-1.8-1.3-2.8-2.5c-1-1.2-1.8-1.3-2.8-0.9c-1-3.1-2.3-6.3-4.1-9.3s-2.8-6-3.3-9.1c0-0.3,0.2-0.6,0.4-0.6
			c0.3,0,0.2-0.3-0.2-1l-0.4-0.7c0-0.3,0.4-0.9,0.5-1.7c-0.5-1.3-0.7-2.6-0.9-4.1s-0.8-3.1-1.6-4.8c-0.3-0.5-0.5-1.3-0.9-2.5
			c-0.4-1-0.6-2-0.5-2.9c0-0.3,0.4-0.6,0.9-0.9s0.7-0.4,0.4-0.9c-0.2-1.6-0.7-2.8-1.4-3.8c-0.7-1-0.9-2-0.7-2.6
			c0.1-1.1,0.2-1.9,0.4-2.7c0.1-0.8,0.3-1.4,0.5-2.2c0.1-0.8,0.1-1.3,0-1.6c-0.1-0.5-0.4-1-0.5-1.5c-0.1-0.5,0-1.6,0.3-3
			c0.3-1.4,0.4-2.5,0.2-3.8c2.2-1.4,4.5-2.3,6.5-2.9c2-0.6,4-0.1,5.9,1.5c2.1-1.7,4.2-2.3,5.9-1.7
			C424.5,215.2,426.2,215.7,428,216.5z"/>
	</g>
	<g>
		<path class="st2" d="M310.8,328.8"/>
	</g>
	<g>
		<g>
			<path class="st1" d="M309.8,534.6c0.5-0.3,0.6-1.4,0.5-2C309.2,532.6,310.2,533.7,309.8,534.6z M268.5,278.4
				c0.1,0.5-0.1,1.1-0.6,1.2c-0.6-0.7-1-1.2-1.5-2.4C267.7,276.4,267.5,278.6,268.5,278.4z M309.1,539.8c-0.7,0.4,0,1.9-0.8,2
				c0.4-1.1-0.1-2.4,0.1-3C308.9,538.8,308.8,539.9,309.1,539.8z M308.9,566.1c0.9,2.3,0.3,5,0.6,6.9
				C308.6,571,309.3,568.7,308.9,566.1z M309.7,578c-0.8-1.7-1-6.5-0.4-2.4C309.5,576.4,309.6,577.2,309.7,578z M299.3,551
				c0.6,0.2,0.7,2.6,0.5,2.9C299.1,553.2,299.2,552.3,299.3,551z M300.6,562.3c-0.7,0.4-0.9-0.7-1-1.4
				C300.1,561.1,300.4,561.5,300.6,562.3z M296.4,544.8c-0.5,0.1-0.1-2.1-0.9-2C295.9,541.6,296.9,544.4,296.4,544.8z M283.6,503.9
				c-1.1-0.1-1.3-3-0.9-3.9C283.1,501.1,283.4,502.6,283.6,503.9z M285.4,330.9c-0.9-0.4-0.9-2-1.2-2.7
				C284.7,328.6,285.1,329.4,285.4,330.9z M276.9,302.5c-0.3,0-0.3,0-0.2,0.3c0.3,5,2,12.5,2.1,16.5c-1.2-7.8-2.7-15.6-2.1-21.9
				c0.2-3.5,1.6-6.7-0.9-9.2c0.8,0.1,1.8,1.3,2.2,2.3c1,3.1-1.6,6.9-1,10.3c0.3,1.8,1.2,2.2,1.2,4.1
				C277.4,304.3,277.3,303.3,276.9,302.5z M308.5,538.3c-1,0.2-0.5-1.3-0.6-2c-0.2,0.6-0.9,0.9-0.5,2c-0.3-0.5-0.9-0.4-1-1.2
				c-0.8,3.3,0.1,4.3,0,7c-0.3,0-0.3-0.5-0.6-0.7c-0.2,2.4,0.2,6.4,1.2,9.2c-0.5,0.1-0.6-0.7-0.8-1.5c-0.7,0.4,0.2,3.2-0.8,1.7
				c0.4,2.4,0.9,2,0.9,4.1c-0.9-2.3-1.5-2.7-1.9-5.3c-0.2,0.3-0.1,1.1-0.3,1.7c-0.9-0.4,0.1-1.3-0.4-2.4c-0.4,4.1,0.3,8.5,1,13
				c-0.5-1.3-1.1-3.8-1.6-6.4c-0.3,1.7,0.1,4.3,0.2,6.4c-0.9-2-0.5,0.3-0.6,1.4c-1.9-10.4-2.7-13.8-5-24.9c0.3,2.1,0.2,3.2,0.8,5
				c0.1,0.5-0.6,1.2-0.7,0.4c-0.2,0.3,1,1.4,0,1.9c-1.8-1.1-1.7-5.9-2.9-8.1c-0.2,0.3-0.1,1.1-1,0.7c0.2,1.3,1-0.7,1,1.4
				c-2.1-1.3-1.5-4.3-2-6.1c-0.2-1.6-1.1-3.3-1.2-5.7c-0.8,1.5,0.5,5,0.6,7.1c-0.2,0.6-0.3-0.2-0.4-0.7c-0.9-4.1-2.6-11.6-3.3-15.6
				c-0.8,1.7,0.3,3.7,0.8,6.6c-0.3,0-0.3-0.5-0.4-1c0.1,4.3,2,12.8,3.7,18.2c0.5,1.5,1.2,2.8,1.7,4c0.2,1.3,0.7,4.4,2,5.6
				c-0.2,2.2,0.5,2.9,1.4,4.1c-0.5,0.1-0.6-0.4-0.8,0.1c-0.1,1.1,0.9,0.4,1.2,0.9c-0.2,0.6-0.8,2,0.2,2.7c-1.1-0.1,0.4,2.4,0.9,4.1
				c0.1-0.8-0.1-2.1,0.4-2.5c1.3,3,1,6,1.5,9.4c-0.9-2.3-1-6.3-1.4-8.9c-0.7,0.4-0.2,2.4-0.2,3.8c-6.9-13.4-13.8-38.3-16.2-56.9
				c1.3-0.2,1.2-4.2,0.8-6.8c0.6,0.7,0.8,0.1,1.5,0.8c-0.2,0.6,0.6,1.8,0.5,3.1c0.6-1.4-0.9-5.7-1.1-8.4c-0.5,0.1,0.2,1,0,1.6
				c-0.2,0.6-0.7-2.6-1.3-3c-0.2,2.4,0.3,3.4,0.6,5.3c-1.4-0.3-0.7-6.3-1.8-8c0.1-1.1,0.8,0.1,0.7,1c-0.2-3.2-0.5-6.6-1.2-9.2
				c-0.1,1.1,0.4,4,0.8,6.8c-1.3-1.7-0.7-6.1-1.7-9.1c0.7-0.4,0.9,0.7,1,1.4c0.7-0.9-0.4-2.4-1.2-2.2c0.1-1.1-0.1-2.4-0.8-3.1
				c1.3,4.9,0.3,10.4,1.6,15c0.3,0,0.1-0.8,0.1-1.3c0.9,0.4,0.6,3.7,1.3,6.2c-0.3-0.2-0.3-0.5-0.7-1c-0.2,2.2,1.2,6,0.8,8.2
				c-2.2-12.2-4.6-24.2-5.3-36.7c1.3,1.7,1.2,5.7,2.3,7.9c0.1-1.1-0.6-5.3-0.8-6.8c1.4,1.9,0.8,6.6,2,9.3c-1.8-15-3.8-27.3-7.1-43.3
				c0.8,6.6,2,10.9,2.8,16.2c-0.3-0.2-0.6-0.4-0.7-1c0.3,3.4,1.9,10.4,2,14.1c-0.6-0.2-0.3-1.8-0.7-2.6c0,1.6,0,3.5,0.3,5.6
				c-2.6-8.2-4-16.8-6.7-25.7c0.2-0.3,0.1-1.1,1-0.7c-2.9-20.2-7.6-41.1-9.3-58.8c-0.1-0.8-0.6-0.4-1-1.2c-0.3-10.4-4.9-22.3-5.1-34
				c0-3.5-1.9-7.2-1.1-10.3c-2-9.1-5.1-23.8-3.9-31.3l-0.4-2.6c0.4-0.9,0.9-1.2,1-2.3c-1.3-1.4-0.7-4.2-0.6-6.9
				c-0.3-0.5-0.6-0.4-1.1-0.4c1,1.2,0.1,0.8,0.5,2.9c-0.2,0.3-0.7-2.6-1.1-3.6c0.6,0.7,1.2-1,1.4,0.3c0.5-2,0.4-4.3-0.4-7.4
				c0.8,0.1,0.1,0.8,0.7,1.2c0.2-1.9,1.4-3.2,0-5.3c1.9,0.2,0.9-4.7,3.6-4.3c0.5-0.1-0.2-1,0-1.6c1.1,0.4,1.2-2.9,3.7-2.2
				c0.4,2.4,4,1.8,5.6,3.1c0.7-0.4-0.8-1.5,0.3-1.4c0.1,2.1,1.9,3.5,2.9,4.9c0.6,2-0.4,2.7-0.4,4.1c1.5,3,3.1,4.3,3.4,8
				c0.1,0.8,0,1.6,0.1,2.4s0.7,1,0.7,1c0,0.3-0.4,1.1-0.3,1.7c0.2,1,1.4,1.9,1.5,2.4c0.1,0.5-0.2,2.2-0.1,2.7
				c0.3,2.1,1.1,3.8,1.5,6.2c2.5,12.2,4.3,27.4,7.1,41.2c0.8,3.6,1.5,7.8,2.1,11.5c2.1,15.2,4.8,30,7.7,45.4
				c0.1,0.5,0.3,3.7,0.7,6.1c5.4,28.9,12.8,67.3,16.7,99.1c-0.5,0.3-0.1,1.1-0.7,0.4c0.1,0.5,0.3,0.5,0.6,0.7c0,1.6-0.3,1.7-0.3,3.3
				c-0.2,3.8,0.7,9.5-0.5,11.9c-0.1-5.9,0.2-12.3-0.8-18.4c-1,3.9,0.6,10.4-1.4,13.3c1.1,2-0.3,3.3,0.9,4.1
				C306.7,531.9,309,536.3,308.5,538.3z M303.3,561.1l-0.5-3.1C301.9,557.5,303.3,561.1,303.3,561.1z M298.1,543.4
				c0.7,1,0,1.6,0.8,1.7C298.5,544.4,299.2,543.3,298.1,543.4z M308,504.1c-0.2-1.6-0.8-1.5-0.4-2.6
				C306.5,501.7,307.4,504.2,308,504.1z M308.5,507.8c-0.4-0.7-0.1-2.1-0.6-2.3C307.5,506.1,308,507.6,308.5,507.8z M253.9,297.6
				c0.2,1.6-0.3,4.9,1.3,4.9C254.9,300.7,254.6,298.6,253.9,297.6z M309,542.8c0.3,0.5-0.4,0.9,0.3,2.1c-0.7,0.4-0.5-1.3-0.9-2
				C308.8,543.1,309.1,543.3,309,542.8z M307.5,548.6c0.3,0.2,0,0.3-0.2,0.3c-0.3-0.5-0.6-1.8-0.7-2.8
				C307.6,546.2,306.6,548.2,307.5,548.6z M300.8,559.1c-0.8-0.1-0.3-1.8-0.9-2.3C300.4,555.9,300.7,558.3,300.8,559.1z M253.9,284
				c0.4,0.7-0.5,3.8-1,3.6C252.9,286.3,253.8,285.3,253.9,284z"/>
		</g>
	</g>
	<g>
		<g>
			<path class="st1" d="M233.9,290.1c0.6,0.4,1.3-0.5,2-0.9C235.3,288.5,235.3,290.1,233.9,290.1z M397.5,115.3
				c-0.5,0.1-1,0.7-1.3,0.2c0.1-0.8,0.3-1.4,0.9-2.6C398.2,113.3,396.5,114.4,397.5,115.3z M229.8,292.9c-0.6-0.4-1.4,1-2,0.6
				c1-0.7,1.4-1.6,2.1-1.7C230.4,291.7,229.5,292.4,229.8,292.9z M210.5,307.7c-0.8,2-3.8,3.3-4.3,4.7
				C206.9,310.4,209.2,309.5,210.5,307.7z M202.6,315.4c0.8-1.7,3.8-4.6,1.4-1.6C203.5,314.2,203.1,315,202.6,315.4z M215.4,291.6
				c0.1,0.5-1.3,2.1-1.8,2.2C213.8,293,214.5,292.6,215.4,291.6z M207.8,299.5c-0.6-0.4-0.2-1,0.3-1.4
				C208.7,298.1,208.5,298.6,207.8,299.5z M218.3,285.8c-0.3-0.5,1.4-1.3,0.8-1.7C220.1,283.7,218.6,286.1,218.3,285.8z
				 M239.5,252.5c-0.7-1,1.5-2.6,2.2-2.8C241.1,250.6,240.4,251.5,239.5,252.5z M368.4,156.8c-0.1-0.8,1.1-1.8,1.5-2.4
				C369.5,155.3,369.1,156.2,368.4,156.8z M384.5,134.8C384.5,134.5,384.2,134.5,384.5,134.8c-3.8,3-8.6,8.3-11.2,10.3
				c5.3-5.4,10.1-10.7,15-13.6c2.9-1.8,6.1-2.3,6.3-5.8c0.1,0.8,0.1,2.1-0.5,3.3c-1.8,2.4-6.3,2.3-8.4,4.5c-1.4,1.3-1,2.3-2.5,3.1
				C383.1,136.3,384.1,135.6,384.5,134.8z M230.9,291.3c-0.6-0.7,0.9-0.9,0.8-1.5c-0.5,0.1-1,0.2-1.7,0.8c0.2-0.6-0.1-0.8,0.3-1.4
				c-3,1.3-3.1,2.6-5.3,4c0-0.3,0.4-0.6,0.1-0.8c-1.9,1.4-4.7,4-6,6c-0.3-0.5,0.1-0.8,0.6-1.4c-0.6-0.4-2.1,2.2-1.8,0.3
				c-1.3,1.8-0.8,1.7-2.5,3.1c1-2,0.9-2.8,2.8-4.5c-0.6-0.2-1,0.7-1.4,1c-0.1-0.8,1.2-1,1.4-1.6c-3.1,2.1-5.9,5-8.6,8.1
				c0.7-0.9,2.2-3.3,3.8-4.9c-1.5,0.8-2.8,2.8-4.5,3.9c0.8-1.7-0.6-0.2-1.5,0.5c6.3-7.4,8.1-9.8,14.8-18.1c-1.4,1.3-2.4,2-3.2,3.5
				c-0.2,0.3-1.3,0.5-0.6-0.4c-0.3-0.2-0.3,1.4-1.4,1.3c-0.3-2.1,3.3-4.8,4-7.1c-0.3-0.2-0.7,0.4-1.1-0.1c-0.9,0.9,1.1,0.1-0.6,1.4
				c-0.4-2.4,1.9-3.5,3.2-5.1c1.1-1.3,2-2.7,3.3-4.3c-1.6,0.2-3.2,3.2-4.9,4.8c-0.5,0.3,0-0.3,0.2-0.6c2.5-3.1,6.9-8.6,9.4-11.7
				c-1.8,0.3-2.3,2.2-4.2,4.1c0-0.3,0.2-0.6,0.4-0.9c-2.8,2.6-8.2,8.8-11,13.5c-0.6,1.2-1.2,2.6-1.9,3.5c-0.9,0.9-2.7,3.1-2.7,5
				c-1.7,1.1-1.6,1.9-2.2,3.3c-0.3-0.2-0.1-0.8-0.3-0.5c-1,0.7,0.1,0.8,0.2,1.3c-0.5,0.3-2,0.9-1.6,1.6c-0.7-1-1.4,1.6-2.5,3.1
				c0.8-0.1,1.7-1.3,2.3-0.9c-1.5,2.6-3.6,4.1-5.7,6.5c1-2.3,3.6-4.3,5.4-6.2c-0.9-0.4-1.9,1.4-2.6,2.3
				c5.2-13.1,18.7-32.7,31.1-45.6c0.7,1,3.8-1.4,5.4-3.3c-0.1,0.8,0.4,0.7,0.5,1.5c-0.5,0.1-0.8,1.5-2.1,2.2c1.3-0.5,3.4-4,5.5-5.7
				c-0.3-0.5-1,0.7-1.2,1c-0.5,0.1,1.5-2.1,1.5-2.6c-2,1.1-2.4,2-3.5,3.5c-0.7-1.2,4.2-4.1,4.9-6.1c1-0.7,0.1,0.8-0.4,0.9
				c2.1-1.9,4.7-4.2,6-6c-0.7,0.4-2.6,2.3-4.3,4.7c0.5-2,3.9-3.8,5.4-6.5c0.6,0.4,0.2,1-0.6,1.4c1-0.2,1.6-1.6,1-2
				c1-0.7,1.6-1.6,1.8-2.4c-2.9,3.7-7.3,6.2-10,9.9c0.3,0.2,0.7-0.4,1-0.7c0.4,1-2.3,2.2-3.6,4.3c0-0.3,0.2-0.6,0.4-0.9
				c-1.7,1.1-3.6,4.3-5.6,5.4c7.7-8.7,14.7-17.3,23.6-25.2c-0.5,1.7-3.3,4.3-4.4,6.3c1-0.7,3.7-3.5,4.3-4.7
				c-0.5,2.2-4.2,4.1-5.6,6.8c9.9-10.1,17.7-18.3,27.4-30c-4.3,5-6.7,8.3-9.9,12c0-0.3-0.1-0.5,0.4-0.9c-2.3,2.2-6.3,7.4-8.9,9.4
				c-0.1-0.5,0.8-1.5,1.3-2.1c-1.2,1-2.4,2-4,3.6c4.3-6.8,9.8-12.8,14.6-19.7c0.3,0.2,1-0.7,1.1,0.1c13.1-13.9,25.7-29,37.6-40.2
				c0.5-0.3,0.1-0.8,0.3-1.4c7.6-6,13.8-16.1,22.1-23c2.6-2.3,4.2-5.7,7-6.5c5.4-6.5,14.7-17.3,21.2-20.2l1.6-1.9
				c0.8-0.1,1.3,0.1,2.4-0.4c0.5-1.7,2.8-2.8,4.9-4.3c0.2-0.3,0.1-0.8-0.4-1c0.2,1.3-0.5,0.3-1.6,1.9c-0.3,0,1.3-2.1,2-2.7
				c-0.1,0.8,1.4,0.3,0.8,1.5c1.8-0.6,3.5-1.9,5.5-4.1c0.1,0.8-0.7,0.4-0.6,1.2c1.5-0.8,3.4-0.8,4.1-2.8c1.1,1.7,3.7-1.9,5.4,0.5
				c0.3,0.5,1-0.7,1.2-1c0.7,1.2,2.9-0.5,3.7,1.6c-1.4,1.6,1.2,4.1,1,6.3c0.6,0.4,0.6-1.4,1.2-0.7c-1.7,1.3-1.6,3.2-1.9,4.9
				c-1.1,1.5-2.5,1.2-3.2,1.8c-1.4,2.9-1.4,4.5-3.9,7.3c-0.7,0.4-1.2,1-1.7,1.3c-0.5,0.3-0.4,0.9-0.4,0.9c-0.2,0.3-1,0.4-1.5,0.8
				c-0.7,0.6-0.5,2-0.9,2.6c-0.4,0.6-1.7,1.1-2.2,1.4c-1.4,1.3-2.5,2.8-3.6,4.3c-7.7,8.7-17.8,18.1-26.1,28
				c-2.3,2.5-4.7,5.6-7.1,7.8c-9.9,10.1-19.3,20.2-28.6,31c-0.2,0.3-2.4,2-3.9,3.8c-18,20.2-41.4,47.8-61.9,69.2
				c-0.6-0.2-0.7,0.4-0.6-0.4c-0.5,0.3-0.2,0.6-0.1,0.8c-1.4,1-1.5,0.8-2.9,1.8c-2.9,2.1-6.5,6.1-8.9,6.5c4.3-3.4,9.3-7.1,12.7-11.1
				c-3.5,1.6-7.1,6.2-10.4,6.7c-0.8,2-2.7,1.5-2.5,3.1C234.1,286.3,232.7,290.5,230.9,291.3z M210.7,300.4l2.1-2.2
				C212.6,297.4,210.7,300.4,210.7,300.4z M220,286.4c-0.4,0.9-1.2,1-0.8,1.7C219.9,287.5,220.9,287,220,286.4z M255,271.2
				c0.9-0.9,0.6-1.2,1.6-1.9C256,268.9,254.7,270.7,255,271.2z M252.8,273.7c0.4-0.6,1.7-1.3,1.1-1.8
				C253.3,272,252.4,273.2,252.8,273.7z M374.2,113.9c-1.2,1-3.9,2.5-2.9,3.7C372.7,116,373.8,114.7,374.2,113.9z M227.6,294.3
				c-0.2,0.6-0.8,0.1-1.1,1.5c-0.9-0.4,0.7-0.9,0.8-1.7C227.4,294.3,227.4,294.6,227.6,294.3z M222.4,296.4
				C222.4,296.7,222.2,297,222.4,296.4c-0.1-0.5,0.6-1.2,1.3-2.1C224.3,295.3,222.2,295.7,222.4,296.4z M210.7,297.5
				c-0.4-0.7,1.1-1.5,1-2C212.5,295.3,210.9,296.9,210.7,297.5z M384.5,106.1c-0.4,0.6-3.2,1.8-3.3,1.1
				C382.2,106.7,383.6,107,384.5,106.1z"/>
		</g>
	</g>
	<g>
		<g>
			<path class="st1" d="M435.9,127.7c-0.2,0.6,0.7,1,1,1.4C437.9,128.5,436.6,128.7,435.9,127.7z M637.6,236.6
				c-0.3-0.5-0.6-0.7-0.2-1.3c0.8-0.1,1.6,0,2.5,0.4C639.3,237.2,638,235.5,637.6,236.6z M432.7,124.5c0.1-0.8-1.3-1.1-1.1-1.7
				c0.6,0.7,1.8,1.1,2.1,1.5C433.6,124.9,432.9,124.1,432.7,124.5z M413.4,110.9c-2.2-0.2-3.9-2.6-5.3-2.9
				C410,108.2,411.4,110.1,413.4,110.9z M404.3,105.6c1.9,0.2,5.4,2.1,2,0.8C405.7,106.2,405.1,105.8,404.3,105.6z M429.9,110.4
				c-0.5,0.3-2.3-0.7-2.3-1C428.2,109.4,428.8,109.8,429.9,110.4z M420.6,105.7c0.1-0.8,0.7-0.4,1.6,0
				C421.7,106.1,421.2,105.9,420.6,105.7z M435.7,111.4c0.2-0.6,1.5,1.1,1.9,0.2C438.3,112.6,436.1,111.9,435.7,111.4z M472.4,121.6
				c0.4-1.1,3,0.6,3.2,1.4C474.8,122.9,473.6,122.5,472.4,121.6z M592.2,218.9c0.5-0.3,2,0.8,2.8,0.6
				C593.9,219.5,593.1,219.6,592.2,218.9z M616.3,228.8C616.6,228.7,616.3,228.5,616.3,228.8c-3.7-2.9-9.8-6.2-12.3-8.2
				c6,3.9,12.1,6.9,15.7,11.2c2.2,2.3,3.2,5.1,6.9,4.5c-0.7,0.6-2,0.6-2.9,0.5c-2.6-0.9-3.5-5.1-5.9-7.1c-1.3-1.1-2.5-0.4-3.5-1.6
				C614.8,227.9,615.5,228.6,616.3,228.8z M434.1,125c0.1-0.8,1.4,0.3,1.7,0.5c-0.3-0.5-0.2-1-1.3-1.4c0.5-0.1,0.7-0.6,1.3,0.1
				c-2-2.4-3-1.9-5.1-3.5c0.2-0.3,0.5-0.1,0.7-0.4c-1.6-1.6-4.5-3.3-7.3-3.7c0.2-0.6,0.8-0.1,1.7,0.3c-0.1-0.8-2.6-1.5-0.8-1.5
				c-1.8-1.1-1.9-0.2-3.5-1.6c2.2,0.5,2.7,0.1,4.7,1.1c-0.1-0.5-0.9-0.7-0.9-0.9c0.7-0.6,1.2,0.6,2,0.8c-2.8-2.2-6.5-4.1-10-5.6
				c1.1,0.1,3.4,1.1,5.7,2c-0.9-0.9-3.2-1.9-4.8-3c1.9,0.2-0.1-0.8-0.5-1.3c8.6,3.7,11.2,4.9,20.9,8.5c-1.7-0.8-2.4-1.5-4-1.8
				c-0.3,0-0.4-1-0.1-0.8c-0.1-0.5-1.6,0-1.5-1.1c1.7-0.8,5.3,1.6,7.8,1.7c0-0.3-0.9-0.4-0.2-1c-1.1-0.4,0.2,1-1.6,0
				c2-1.1,3.9,1,5.3,1.3s2.8,0.9,4.9,1.9c-0.5-1.3-3.8-2.1-5.6-3.1c-0.3-0.5,0.2-0.3,0.5-0.1c3.5,1.6,10,3.8,13.2,5.4
				c-0.8-1.5-2.6-1.5-5-2.7c0.2-0.3,0.5-0.1,0.8,0.1c-3.2-1.9-10.2-5.1-15.2-6.4c-1.7-0.5-2.7-0.4-4.1-0.7c-1.1-0.4-3.5-1.9-5.3-1
				c-1.3-1.4-2-1-3.6-1c0-0.3,0.7-0.4,0.2-0.6c-0.9-0.4-0.7,0.6-1.3,0.5c-0.3-0.2-1-1.4-2.1-1.3c0.7-0.9-2-0.8-3.5-1.6
				c0.3,0.5,1.5,1.1,1.4,1.9c-3-0.3-4.9-2.2-7.8-3.3c2.2,0.5,5.2,2.1,7.2,3.1c-0.1-0.8-1.6-1.4-2.7-2c13.5,0.8,35.8,7.7,50.4,15.9
				c-0.6,1.2,2.1,3.1,4.4,4.4c-0.8,0.1-0.4,0.6-1.2,0.7c-0.3-0.5-1.7-0.5-2.6-1.2c0.7,1,4.6,2.2,6.7,3.5c0.2-0.6-0.9-0.4-1.5-0.8
				c-0.3-0.5,2.3,1,3,0.6c-1.6-1.6-2.4-1.8-4.1-2.3c0.9-0.9,5,2.7,6.6,3c0.9,0.7-0.4,0.6-1,0.2c2.4,1.5,5.1,3.2,7.3,3.7
				c-0.9-0.4-2.9-1.7-5.3-2.9c2.1-0.1,4.7,2.5,7.5,3.4c-0.1,0.8-0.7,0.4-1.6,0c0.2,1,1.8,1.1,2.2,0.2c0.6,0.7,1.8,1.3,2.6,1.2
				c-4-1.8-7.5-5-11.8-6.7c0,0.3,0.6,0.4,1.2,0.6c-0.7,0.6-2.9-1.4-5.2-2.1c0.3,0,0.5-0.1,1-0.2c-1.3-1.4-5.2-2.1-6.5-3.8
				c9.8,4.6,19.9,8.9,29.4,15.2c-1.9,0-4.9-1.9-7.1-2.4c0.9,0.7,4.2,2.6,5.3,2.9c-2.4,0.1-5-3-7.8-3.3c11.8,6.7,21.6,11.6,34.9,17.8
				c-5-3-9-4.5-13.1-6.8c0.2-0.3,0.5-0.3,1-0.2c-2.6-1.5-8.4-4-11.1-6c0.5-0.3,1.7,0.8,2,1c-0.9-0.9-2.7-1.7-4.5-2.8
				c7.6,2,14.3,5.8,22.2,8.5c0,0.3,0.9,0.4,0.2,1c16.1,8.7,33.7,16.6,46.8,25.3c0.6,0.2,0.7-0.4,1.3,0.1c7.3,5.5,18.3,8.9,26.8,15.3
				c2.5,2,6.3,2.5,7.5,5c7.5,3.6,19.5,10,23.6,15.3l1.8,1.3c0.4,0.7-0.1,1.3,0.9,2c1.9,0,3.2,1.9,5.1,3.5c0.5-0.1,0.8-0.1,1-0.4
				c-1.3,0.2-0.6-0.4-2.1-1.3c0-0.3,2.3,0.7,2.9,1.2c-0.8,0.1-0.3,1.7-1.2,0.7c0.8,1.5,2.6,2.8,5.2,4c-0.4,0.6-0.6-0.2-1.4-0.3
				c1,1.2,1,3.1,3.5,3.5c-1.4,1.3,2.4,3.4,0.6,5.3c-0.2,0.3,0.9,0.7,0.9,0.9c-1,0.7,1.2,2.5-1,3.9c-1.8-1.1-3.7,1.9-5.8,2.5
				c-0.1,0.8,1.7,0.3,0.7,1c-1.6-1.4-3.6-0.8-4.9-0.6c-1.7-0.8-1.6-1.9-2.6-2.8c-3-0.6-4.8,0-7.5-2c-0.6-0.4-0.9-0.9-1.6-1.4
				c-0.6-0.2-1,0.2-1,0.2c-0.3-0.2-0.6-0.7-0.9-0.9c-0.9-0.4-2.1,0.1-2.7-0.1s-1.3-1.4-1.6-1.6c-1.5-1.1-3.2-1.4-5.2-2.4
				c-9.7-5.2-21-12.5-31.8-18c-2.9-1.4-6.1-3.3-8.8-4.8c-11.5-6.7-23.2-13.2-35.7-19.3c-0.3-0.2-2.7-1.7-4.7-2.7
				c-23.3-11.6-54.2-26.2-79.3-39.1c-0.1-0.5-0.9-0.4-0.1-0.8c-0.6-0.2-0.5,0.1-0.7,0.4c-0.9-0.9-0.9-0.9-2.2-2.1
				c-2.5-2.3-7.4-4.2-8.3-6.5c4.5,2.8,9.1,6.6,13.5,8.9c-2.3-2.8-7.4-4.7-8.8-8c-1.9-0.2-2.2-1.8-3.5-1.6
				C439.7,126.6,435.1,126.2,434.1,125z M420.3,108.7l2.6,1.2C423.4,109.6,420,108.5,420.3,108.7z M436,113.2
				c-1,0.2-0.9-0.9-1.9-0.2C435,113.4,435.6,114.1,436,113.2z M459,142c1.1,0.4,1.4,0.3,2,1C461.5,142.1,459.2,141.7,459,142z
				 M455.9,140.6c0.6,0.2,1.5,1.1,2,0.8C457.7,140.6,456.6,140.2,455.9,140.6z M634,213.9c-1.2-0.6-3.1-3-4.1-2
				C631.7,212.7,633,214.1,634,213.9z M430.5,122.7c-0.5,0.1-0.6-0.4-1.7-0.8c-0.1-0.8,1.1,0.1,1.9,0.2
				C430.5,122.4,430.2,122.4,430.5,122.7z M427,118.7c-0.2,0.3-0.3,0-0.3-0.2c0.5-0.1,1.7,0.5,2.3,1
				C428.8,120.2,427.9,118,427,118.7z M423.1,107.8c0.7-0.6,1.7,0.8,2.2,0.5C425.4,109,423.6,107.9,423.1,107.8z M643.3,221.8
				c-0.6-0.2-2.3-2.6-1.8-2.9C642.5,220.1,642.7,221.1,643.3,221.8z"/>
		</g>
	</g>
</g>
</svg>
