<?xml version="1.0" encoding="utf-8"?>
<!-- Generator: Adobe Illustrator 19.0.0, SVG Export Plug-In . SVG Version: 6.00 Build 0)  -->
<svg version="1.1" id="a86c84ac-c86b-458f-bb45-d629fc1b571b"
	 xmlns="http://www.w3.org/2000/svg" xmlns:xlink="http://www.w3.org/1999/xlink" x="0px" y="0px" viewBox="42 91.5 4263.6 818.5"
	 style="enable-background:new 42 91.5 4263.6 818.5;" xml:space="preserve">
<style type="text/css">
	.st0{opacity:0.1;}
	.st1{fill:#FFFFFF;}
	.st2{fill:none;stroke:#000000;stroke-miterlimit:10;}
</style>
<title>fall</title>
<g class="st0">
	<g>
		<g>
			<path class="st1" d="M3773.6,776c0.9-0.2,1.7-1.7,1.9-2.7C3773.8,772.5,3774.7,774.9,3773.6,776z M3856.5,370.9
				c-0.6,0.8-0.8,1.6-2,1.3c-0.5-1.4-0.8-2.4-0.9-4.4C3855.9,367.4,3854.4,370.4,3856.5,370.9z M3769.4,783.3
				c-1.3,0.2-1.1,2.8-2.3,2.5c1.2-1.4,1.2-3.6,1.8-4.4C3769.8,781.5,3769,783.1,3769.4,783.3z M3754.4,822.2c0,3.9-2.4,7.6-3,10.6
				C3751.2,829.4,3753.7,826.4,3754.4,822.2z M3749,840.6c-0.2-3,2.2-10.3,0.8-3.8C3749.4,838.1,3749.1,839.3,3749,840.6z
				 M3748.5,794.5c0.8,0.6-0.4,4.3-0.9,4.6C3747.1,797.5,3747.8,796.4,3748.5,794.5z M3744.1,812c-1.3,0.2-0.9-1.5-0.7-2.6
				C3744.1,809.8,3744.4,810.8,3744.1,812z M3748.2,783.6c-0.8-0.1,1-3.2-0.2-3.5C3749.3,778.6,3748.8,783.3,3748.2,783.6z
				 M3751.6,715.4c-1.6-0.8-0.2-5.2,0.9-6.3C3752.5,710.8,3752.4,713.5,3751.6,715.4z M3851.6,458.6c-0.7-0.9,0.2-3.3-0.3-4.7
				C3852,454.8,3852.2,456.1,3851.6,458.6z M3855,411.5c-0.4-0.2-0.4-0.2-0.5,0.3c-2.4,7.6-4.1,19.8-6.2,25.8
				c2.6-12.3,4.8-24.8,9.2-33.8c2.3-5.1,6.2-9.1,3.8-14.2c1.1,0.6,2,3,2,4.7c-0.3,5.2-6.3,9.4-7.3,14.8c-0.6,2.9,0.6,4-0.5,6.8
				C3854.8,414.5,3855.2,412.8,3855,411.5z M3769.9,780.7c-1.6-0.3,0-2.2,0.2-3.3c-0.6,0.8-1.8,0.8-1.9,2.7
				c-0.2-0.9-1.1-1.1-0.8-2.4c-3,4.5-2.3,6.5-3.9,10.4c-0.4-0.2-0.2-0.9-0.5-1.4c-1.6,3.5-3.3,9.7-3.4,14.4
				c-0.8-0.1-0.5-1.4-0.3-2.7c-1.3,0.2-1.5,4.9-2.1,2.1c-0.8,3.8,0.2,3.5-1,6.6c0-3.9-0.7-4.9,0.1-9c-0.5,0.3-0.8,1.6-1.4,2.4
				c-1.1-1.1,0.9-1.9,0.8-3.8c-2.9,5.9-4.3,12.8-5.8,19.9c0-2.2,0.5-6.3,1.2-10.4c-1.4,2.4-2.3,6.5-3.3,9.7
				c-0.2-3.5-0.9,0.2-1.7,1.7c3-16.6,3.7-22.1,6.6-39.9c-0.7,3.3-1.5,4.9-1.6,7.9c-0.1,0.8-1.6,1.5-1.3,0.2
				c-0.5,0.3,0.7,2.6-1.1,2.8c-2.1-2.7,0.8-9.8,0.2-13.7c-0.5,0.3-0.8,1.6-1.9,0.5c-0.4,2.1,1.9-0.5,0.7,2.6
				c-2.4-3.1,0.2-7.3,0.5-10.2c0.6-2.5,0.2-5.5,1.4-9.2c-2,1.8-2.1,7.7-3.1,10.9c-0.6,0.8-0.3-0.5-0.2-1.3c1-6.6,2.7-18.8,3.9-25.1
				c-2.1,2.1-1.6,5.7-2.5,10.3c-0.4-0.2-0.2-0.9,0-1.7c-2.3,6.5-4.2,20.2-4.7,29.2c-0.1,2.5,0.3,4.7,0.3,6.9c-0.4,2.1-1.4,7-0.2,9.5
				c-1.5,3.2-0.9,4.6-0.2,6.9c-0.8-0.1-0.7-0.9-1.2-0.3c-0.8,1.6,1.1,1.1,1.3,2c-0.6,0.8-2.3,2.5-1.2,4.1c-1.6-0.8-0.8,3.8-1,6.6
				c0.6-1.1,1-3.2,2-3.5c0.2,5.2-1.9,9.5-3.1,14.9c0-3.9,2.1-10,2.9-14.1c-1.3,0.2-1.6,3.5-2.4,5.6c-2.7-23.9,1-64.8,7.9-93.9
				c2.1,0.4,4.2-5.6,5-9.7c0.5,1.4,1.1,0.6,1.8,2c-0.6,0.8-0.1,3-1,4.9c1.7-1.7,1.9-9,3.1-13.1c-0.8-0.1-0.3,1.6-0.9,2.4
				c-0.6,0.8,0.4-4.3-0.2-5.2c-1.6,3.5-1.5,5.2-2.1,8.2c-1.9-1.2,2.5-9.8,1.8-12.9c0.8-1.6,1.1,0.6,0.5,1.9c1.5-4.9,3-10.1,3.4-14.4
				c-0.8,1.6-1.7,6.2-2.6,10.6c-1-3.3,2.4-9.5,2.6-14.5c1.3-0.2,0.9,1.5,0.7,2.6c1.5-0.9,0.8-3.8-0.6-4c0.8-1.6,1.2-3.6,0.6-5.1
				c-0.8,8-5.4,15.7-6.1,23.3c0.4,0.2,0.6-1.1,0.9-1.9c1.1,1.1-1.2,5.9-1.6,10c-0.3-0.5-0.2-0.9-0.5-1.9c-1.5,3.2-1.6,9.6-3.4,12.7
				c3.6-19.4,6.8-38.7,12.7-57.7c1,3.3-1.4,9.2-1,13.1c0.8-1.6,2.1-8.2,2.6-10.6c1,3.6-2.5,10.3-2.3,15c5.8-23.4,9.7-42.8,13.8-68.5
				c-2.5,10.3-3.2,17.4-4.9,25.7c-0.3-0.5-0.7-0.9-0.5-1.9c-1.5,5.2-3,16.6-5,22.1c-0.8-0.6,0.6-2.9,0.4-4.3c-0.9,2.4-2,5.2-2.7,8.5
				c0.7-13.7,3.5-27.3,4.5-42.1c0.5-0.3,0.8-1.6,1.9-0.5c7-31.7,11.8-65.5,19.2-92.9c0.3-1.2-0.7-0.9-0.8-2.4
				c5.4-15.7,5.2-36,11.5-53.5c2-5.2,1.2-11.8,4.2-16c2.1-14.7,5.8-38.3,11.8-48.8l0.9-4.1c1.1-1.1,2-1.3,2.8-2.9
				c-1.2-2.8,1.3-6.7,3-10.6c-0.2-0.9-0.7-0.9-1.4-1.2c0.8,2.4-0.3,1.2-0.9,4.6c-0.5,0.3,0.4-4.3,0.4-6c0.5,1.4,2.4-0.8,1.9,1.2
				c1.9-2.7,3-6.2,3.6-11.3c1.1,0.6-0.3,1.2,0.4,2.2c1.4-2.7,3.9-4,3-7.9c2.7,1.4,4-6.5,7.8-4.4c0.8,0.1,0.3-1.6,0.9-2.4
				c1.4,1.2,3.4-3.6,6.8-1.2c-0.8,3.8,4.9,4.9,6.6,7.8c1.3-0.2-0.3-2.7,1.2-1.9c-1,3.2,0.9,6.3,1.6,8.9c-0.2,3.3-2.1,3.8-2.9,5.9
				c0.5,5.3,2.2,8.2,0.6,13.8c-0.3,1.2-0.9,2.4-1.2,3.6c-0.3,1.2,0.5,1.9,0.5,1.9c-0.2,0.4-1.2,1.4-1.4,2.4c-0.3,1.6,1,3.6,0.9,4.4
				c-0.1,0.8-1.5,3.2-1.7,4c-0.7,3.3-0.5,6.3-1.3,10.1c-3.1,19.6-9,43.3-12.6,65.4c-0.8,5.8-2.2,12.5-3.3,18.3
				c-5.4,23.8-9.7,47.4-14.1,72c-0.1,0.8-1.6,5.7-2.4,9.5c-8.2,46.1-18.8,107.5-30.9,157.1c-0.9,0.2-0.8,1.6-1.3,0.2
				c-0.1,0.8,0.2,0.9,0.5,1.4c-0.9,2.4-1.4,2.4-2.3,4.7c-2.4,5.6-4.3,14.6-7.4,17.5c3.2-8.9,7.2-18.2,9.2-27.9
				c-3.7,5.3-5,15.8-9.6,19c0.5,3.6-2.3,4.7-1,6.6C3770.5,770.1,3771.4,778.1,3769.9,780.7z M3748.9,811.6l1-4.9
				C3748.9,805.7,3748.9,811.6,3748.9,811.6z M3751,782.5c0.5,1.9-0.9,2.4,0.2,3C3751.2,784.2,3752.8,782.8,3751,782.5z
				 M3787.9,729.5c0.6-2.5-0.3-2.7,0.9-4.1C3787.1,724.9,3787.1,729.2,3787.9,729.5z M3786.8,735.2c-0.2-1.3,1-3.2,0.4-3.8
				C3786.1,732,3786,734.5,3786.8,735.2z M3823.4,391.2c-0.6,2.5-3.2,7.1-0.8,8C3823.2,396.3,3824,393,3823.4,391.2z M3767.7,787.6
				c0.2,0.9-1.1,1.1-0.7,3.3c-1.3,0.2,0-2.2-0.2-3.5C3767.2,787.9,3767.5,788.4,3767.7,787.6z M3762.1,795.5
				c0.3,0.5-0.2,0.4-0.5,0.3c-0.2-0.9,0.1-3,0.5-4.6C3763.8,792,3761.1,794.5,3762.1,795.5z M3746.4,807.3c-1.1-0.6,0.6-2.9,0-3.9
				C3747.4,802.4,3746.6,806,3746.4,807.3z M3831.1,370.8c0.2,1.3-2.9,5.4-3.5,4.8C3828.8,373.9,3830.2,372.9,3831.1,370.8z"/>
		</g>
	</g>
	<g>
		<g>
			<path class="st1" d="M3802.4,160.1c-0.8-0.1-1.3,0.2-1.4,0.5C3802.7,161,3801.5,160.2,3802.4,160.1z M3778.5,263.1
				c0.4,0.2,0.5-0.3,1.7,0c0.8,0.6,1.1,0.6,1.5,1.6C3779.6,264.2,3781,263.7,3778.5,263.1z M3805.2,158.9c1.2,0.3,0.6-0.8,1.9-0.5
				c-0.9,0.2-0.6,0.8-1.1,1.1C3805.2,159.4,3806,159,3805.2,158.9z M3814.8,150.1c-0.7-0.9,1.2-1.9,1.4-2.7
				C3817.1,148.9,3815,149.3,3814.8,150.1z M3817.8,145.9c0.7,0.9-0.6,2.5-0.1,0.8C3817.7,146.4,3817.8,145.9,3817.8,145.9z
				 M3824.9,159.5c-0.8-0.1-0.2-1.3,0.3-1.2C3826.3,159,3825.4,159.2,3824.9,159.5z M3827,155.2c1.2,0.3,1.1,0.6,1.1,1.1
				C3827.4,155.7,3827,155.7,3827,155.2z M3826.8,162.5c0.8,0.1-0.6,0.8,0.7,0.9C3826.5,163.7,3826.4,162.8,3826.8,162.5z
				 M3834.1,182.1c1.6,0.3,0.9,1.5,0,1.7C3833.8,183.3,3833.5,182.4,3834.1,182.1z M3770.3,238.2c0.8,0.6,0.2,0.9,0.9,1.5
				C3770.5,239.1,3770.2,239,3770.3,238.2z M3774,251.5c0.4,0.2,0.4,0.2,0.4,0.2c1.2-1.9,1-4.9,2.6-6.4c-0.7,3.3-0.9,6.3-4.3,8.1
				c-1.5,0.9-5,1.5-1.6,3.5c-1.2-0.3-2.4-1.4-2.7-1.9c-0.5-1.4,5-1.5,5.3-2.8c0.1-0.8-1.1-1.1-0.5-1.9
				C3773.8,250.6,3773.7,250.9,3774,251.5z M3805.2,159.4c1.6,0.3,0.3,0.5,0.2,0.9c0.4,0.2,1.7,0,1.4-0.5c0.3,0.5,1.1,0.6,1.1,0.6
				c2.4-0.8,1.2-1.4,2.3-2.5c0.4,0.2,0.3,0.5,0.8,0.6c0.9-0.7,1.7-2.3,1.2-3.6c0.8,0.1,0.8,0.6,0.7,0.9c1.2,0.3,0.6-1.1,1.7,0
				c0.1-0.8-0.7-0.9,0-1.7c0.7,0.9,1.5,1.6,1.3,2.4c0.4,0.2,0.5-0.3,0.9-0.2c1.1,0.6-0.5,0.3-0.1,0.8c2-1.3,2.3-3,3-4.5
				c0.3,0.5,0.5,1.9,0.3,2.7c0.9-0.2,1.2-1.4,1.7-2.3c0.7,0.9,0.8,0.1,1.3-0.2c-0.4,4.3-0.4,6-0.9,10.6c0.1-0.8,0.6-1.1,0.4-2.1
				c0.2-0.4,1.3-0.2,1.2,0.3c0.4,0.2-1.1-1.1,0.6-0.8c2.4,0.9,0.7,2.6,1.8,3.8c0.4,0.2,0.5-0.3,1.6,0.3c0.2-0.4-1.6-0.3-1.1-1.1
				c2.7,1.4,0.8,1.8,1.1,2.8c-0.1,0.8,0.5,1.4-0.1,2.5c1.7,0,0.9-1.9,1.4-2.7c0.4,0.2,0.4,0.2,0.3,0.5c0,1.7,0.2,5.2-0.1,6.5
				c1.7,0,0.8-1.6,0.9-2.4c0.4,0.2,0.3,0.5,0.3,0.5c1.2-1.4,1.2-5.3,0.4-7.7c-0.2-0.9-0.9-1.5-1.3-2c0.2-0.4,0.3-1.6-1.2-2.8
				c0.9-0.7,0.3-1.2-0.8-1.8c0.8,0.1,0.8,0.6,1.2,0.3c0.5-0.3-1.1-0.6-1.6-0.8c0.4,0.2,1.9-0.5,0.6-1.1c1.6,0.3,0.1-0.8,0-1.7
				c-0.5,0.3-0.6,0.8-1.4,0.5c-0.9-1.5,0.6-2.5,0.8-3.8c0.7,0.9-0.6,2.5-0.8,3.8c1.2,0.3,0.9-0.7,1.5-0.9c6.6,7.4,9,19.1,6.3,26.2
				c-2.1-0.4-3.6,1-3.8,1.8c-0.8-0.6-1.2-0.3-1.9-0.9c0.4,0.2-0.2-0.9,0.3-1.2c-1.3,0.2-0.6,2.5-1,3.2c0.8,0.1,0.2-0.4,0.5-0.3
				c0.4,0.2,0.2,1.3,0.9,1.5c0.9-0.7,0.6-1.1,0.9-1.9c1.9,0.9-0.9,2.4,0.2,3.5c-0.5,0.3-1.2-0.3-0.8-0.6c-0.6,1.1-1.4,2.4-1.2,3.6
				c0.5-0.3,0.8-1.6,1.1-2.8c1.4,1.2-0.9,2.4-0.4,3.8c-1.2-0.3-1.1-0.6-1.1-1.1c-1.3,0.2-0.1,0.8,1.1,1.1c-0.5,0.3-0.6,0.8,0.2,1.3
				c-0.4-2.2,3.4-3.6,2.9-5.4c-0.4-0.2-0.5,0.3-0.5,0.3c-1.1-0.6,0.3-1.6,0.1-2.5c0.4,0.2,0.3,0.5,0.8,0.6c0.9-0.7,0.1-2.5,1.5-3.2
				c-0.6,5.1-1.3,10.1-4.3,14.6c-1.4-1.2,0.1-2.5-1-3.6c-0.5,0.3-0.9,1.9-1.1,2.8c-1.4-1.2,0.9-2.4,0-3.9
				c-2.4,5.6-3.4,10.5-3.7,17.4c0.9-2.4,0.5-4.6,1-6.6c0.4,0.2,0.8,0.6,0.8,0.6c0.6-1.1,0.4-4.3,1.6-5.7c0.8,0.1-0.1,0.8,0.2,1.3
				c0.5-0.3,1.1-1.1,1.2-1.9c1.3,3.7,0.6,7.4,1.9,11.6c-0.4-0.2-0.5,0.3-1.6-0.3c-2.5,8.1-2.2,16.7-5.8,23.4
				c-0.2,0.4,0.8,0.6,1.1,0.6c-3.4,3.6,0.2,9.4-3.7,13.4c-1.1,1.1,0.7,3.2-1.7,4c0,3.9,0,10.4-4.6,11.9l-0.3,1.2
				c-0.9,0.2-1.7,0-2.2,0.4c1.4,1.2-0.3,1.6-1.4,2.7c1.6,0.3,2.1,0.4,2.9,0.6c-1.1-0.6,0.2-0.4,0.3-1.2c0.4,0.2,0.2,1.3,0.5,1.9
				c-0.8-0.6-2.2,0-2.1-0.4c-1.4,0.5-2,1.3-1.9,2.7c-1.2-0.3,0.2-0.4-0.8-0.6c-0.9,0.7-3.6,0.5-1.7,1.7c-2.8-1.1-2.8,1.1-7.3-0.2
				c-0.8-0.1-0.2,0.4-0.5,0.3c-1.6-0.8-2.7,0.3-6.6-1c0.1-0.8-5.8-2.5-7.9-3.3c-1.2-0.3,0.7,0.9-0.9,0.2c0.6-0.8-1.8-2-2.9-2.8
				c-0.2-0.9,1.4-0.5,2-1.3c-1.5-1.6-3.4-2.8-2.6-4c0.2-0.4,0.5-0.3,0.6-0.8s-0.8-0.6-0.8-0.6l0.9-0.2c0.2-0.4-1.4-1.2-1.5-1.6
				c0.2-0.4,0.9-0.7,0.9-0.7c0.1-0.8-0.5-1.9-0.3-2.7c0.3-5.2,2.7-11.1,3-16.6c0-1.7,0.2-3.3,0.5-4.6c2.1-6,2.9-11.8,3.3-18.3
				c0.2-0.4,0.8-1.6,0.9-2.4c1.5-11.7,3.2-27.8,7.8-40.1c0.8,0.1,0.5-0.3,1.2,0.3c0.2-0.4-0.3-0.5-0.8-0.6c0.5-0.3,0.9-0.2,1.5-0.9
				c1.5-0.9,2-3.5,5.1-3.7c-1.7,2.3-4.6,3.7-5.1,6.3c2.6-0.7,2.9-3.7,6.9-3.7c-1.1-1.1,1.5-0.9,0-1.7
				C3806.2,162.5,3804.1,160,3805.2,159.4z M3822.1,154.2l-0.3,1.2C3823,156.1,3822.1,154.2,3822.1,154.2z M3824.3,162.4
				c-0.8-0.6,0.5-0.3-0.7-0.9C3824,161.9,3822.7,162.1,3824.3,162.4z M3794.6,170.9c-0.1,0.8,0.7,0.9-0.3,1.2
				C3796.3,172.6,3795.8,171.2,3794.6,170.9z M3795.3,169.8c0.3,0.5-0.6,0.8,0.2,0.9C3796.3,170.9,3796.1,169.9,3795.3,169.8z
				 M3809.5,263.5c0.1-0.8,2-1.3-0.4-2.2C3808.8,262.1,3808.7,262.9,3809.5,263.5z M3806.8,158c-0.3-0.5,0.9-0.2,0.1-0.8
				c1.2,0.3,0.3,0.5,0.7,0.9C3807.1,158.1,3806.8,157.5,3806.8,158z M3810.8,156.6c-0.4-0.2,0,0,0.4,0.2c0.3,0.5,0.2,0.9,0.2,1.3
				C3809.9,157.3,3812.5,157.1,3810.8,156.6z M3825.6,156.2c1.2,0.3-0.1,0.8,0.7,0.9C3824.9,157.3,3825.5,156.7,3825.6,156.2z
				 M3804.5,268.1c-0.3-0.5,1.8-0.8,2.6-0.7C3806.4,267.7,3805.1,267.4,3804.5,268.1z"/>
		</g>
	</g>
	<g>
		<path class="st1" d="M3559.3,407.5c1.4,4.1,1.7,8.1,0.8,12.2c-0.9,4.1-1.6,7.9-1.7,12.6c0.2,0.9,0,1.7,0.3,2.7
			c0.2,0.9,0.2,1.3-0.1,2.5c-0.2,0.4-0.1,0.8-0.3,1.6l-0.4-0.2c-1.2,5.3-1.2,10.4-1.3,14.8c-0.1,4.7-0.6,9.3-1.2,14
			c0.2,1.3-0.1,3-0.6,5.1c-1.1,1.1-1.5,3.2-1.3,6.7c-0.1,0.8-0.8,1.6-0.8,1.6c-0.4-0.2-0.5,0.3-0.6,0.8c-0.6,2.9-0.7,5.5-0.3,8.1
			c0.4,2.2,0.2,5.2-0.3,8.1c-0.2,0.4-0.6,0.8-0.9,0.7c-0.2,0.4-0.6,1.1-0.3,1.6c-0.6,2.5-0.9,4.6-1,6.6c0,2.2-0.4,4.3-1,6.6
			c0,2.2-0.5,4.6-0.4,7.7c-0.1,3-0.4,6-1.3,8.4c-0.6,1.1-0.9,2.4-0.4,3.8c0.5,1.9,0,3.9-0.2,6.9c-0.1,0.8-0.8,1.6-1.4,2.4
			s-1.2,1.4-1.4,2.4c-0.6,2.5-0.6,5.1-0.2,7.3c0.4,2.2,0.3,4.7,0.2,7.7c-0.2,0.4-0.6,0.8-0.9,0.7c-0.3-0.1-0.5,0.3-0.3,1.6
			c-0.1,0.8-0.3,1.6-0.1,2.5s0.2,1.3,0.5,1.9c-0.7,5.5-1.4,10.9-2.1,16.4c-0.7,5.5-1.5,11.7-2.9,18l-0.9,0.2l-1.4,2.4
			c-0.1,2.5-0.1,4.2,0.6,5.7c0.5,1.4,0.2,3-0.6,5.1c-0.1,0.8-0.9,1.9-1.4,2.7c-0.6,0.8-1.2,1.4-1.4,2.7c-0.4,2.1-0.4,4.3-0.2,7.3
			c0.2,3,0.1,5.6-0.3,8.1c-0.2,0.4-0.1,0.8-0.6,0.8s-0.5,0.3-0.3,1.6c-0.3,1.2-0.1,2.5-0.2,3.3c0.2,0.9-0.3,1.2-0.8,1.6
			c-0.1,0.8-0.8,1.6-1.7,1.7c-0.9,0.2-1.5,0.9-1.4,2.7c1.4,4.1,1.7,8.1,1.1,11.5s-1.3,6.7-1.7,10.4c-0.2,0.4,0.2,1.3,0.4,2.2
			c0.2,0.9,0,1.7-0.1,3c-0.3-0.5-0.8-0.6-1.1-0.6c-0.4,0-0.5,0.3-0.6,0.8s0.2,1.3,0.4,2.2c0.2,0.9,0,1.7,0,2.2l-2.2,0
			c-0.3,1.2,0.2,3,1.1,5.3c0.8,1.8,0.7,3.2-1,3.2c0.5,5.3,0.9,8.4,0.9,9.7c0.2,1.3,1,3.6,1.4,7.7c-1.1,1.1-1.4,2.7-1,4.9
			c0.4,2.2-0.1,4.7-0.5,6.3c-0.2,0.4-0.6,0.8-0.9,0.7c-0.4-0.2-0.6,0.8-0.4,2.1c0.2,3-0.2,6.9-1.7,12.6c-1.5,5.2-3.6,9.2-6.2,11.1
			c-1.2-0.3-2.2,0.4-2.5,1.6c-0.3,1.2-0.9,2.4-2.3,2.5c-0.9,0.2-1.6-0.3-2.3-1.7c-0.7-0.9-1.5-1.6-2.7-1.4
			c-4.6-0.5-9.6-1.1-15.2-1.8c-5.5-0.7-10.8-2.2-15.5-4.1c-1.5-7.2-2.3-13.8-1.8-20.6c0.5-6.8,1-13.1,1.2-18.6
			c0.2-5.5,0.6-11.5,1-17c0.2-5.5,1.7-10.4,4.2-14.3c-0.6-4-0.6-7.4-0.8-10.9c-0.2-3.5,0.2-7.3,0.6-11.5c0.3-1.2,0.8-3.8,1-7.1
			c0.7-3.3,1.3-6.2,1.4-9.2c0.1-0.8,0.3-1.6,0-2.2c-0.3-0.5-0.2-0.9-0.5-1.4c0.1-0.8,0.8-1.6,1.2-1.4c0.4,0.2,0.9-0.2,0.6-0.8
			c0.4-3.8,0.7-7.2,0.7-10.1c0.1-3,0.2-5.5,0.3-8.1c0.1-0.8,0.3-1.6,0.1-2.5c-0.2-0.9-0.5-1.4-0.3-2.7c0.2-0.4,1.1-1.1,2.1-2.1
			c0.9-0.7,1.6-1.5,1.7-1.7c0.6-2.5,0.6-5.1-0.2-7.7c-0.3-2.7-0.2-5.2,0.2-7.3c0.1-4.2,0.5-9,1.2-14.4c0.4-2.1,1-3.2,1.6-3.5
			s0.9-1.9,1.2-5.3c0.2-0.4,0.1-2.5,0.5-6.3c0.1-0.8,0.3-1.6,0.8-1.6c0,0,0.5-0.3,0.6-0.8c0.9-1.9,1.5-4.9,1.8-8.7
			c0.4-3.8,0.7-7.6,1.1-11.4c0.6-2.9,1-4.9,1.3-6.7c0.1-0.8,0.9-1.9,1.4-2.7c0.6-0.8,1.2-1.4,1.4-2.7c0.4-2.1,0.9-4.1,0.9-6.3
			c0-2.2,0.4-4.3,1.7-6.2c0.1-0.8,0.9-1.9,1.5-3.2c0.6-1.1,0.9-1.9,1.5-3.2c0.1-0.8,0-2.2-0.5-3.6c-0.5-1.4-0.7-3.2-0.2-5.2
			c0.2-0.4,0.1-0.8,1.2-1.4c0.9-0.7,1.6-1.5,1.7-2.3c0.6-2.5,0.5-4.6,1-6.6c0-1.7,0.4-4.3,1.2-7.6c0.2-0.4,0.6-1.1,1.2-1.9
			c0.6-0.8,1.2-1.4,1.4-2.7c0.4-2.1,0.5-4.6-0.2-7.7s0.5-4.6,2.9-3.7c-0.4-2.2-0.4-4.4-0.1-5.6c-0.2-1.3,0.7-3.3,1.5-5.2
			c0.2-0.4,0.3-1.6,0.6-2.9c-0.2-1.3,0.1-2.5,0.4-3.8c0.4,0.2,0.8,0.1,1.6,0.3s0.8,0.1,0.9-0.7c1.1-1.1,0.9-1.9,0.2-3.3
			c-0.7-0.9-1.3-2.4-0.8-4.1c1.1-1.1,1.7-1.7,2.1-2.1c0.5-0.3,1.1-1.1,1.7-2.3c0.2-0.4,0.3-1.2,0-2.2c-0.2-0.9-0.5-1.9,0-2.2
			c0.6-1.1,0.9-1.9,1.5-3.2c0.1-0.8,0.9-1.9,1.5-3.2c0.8-1.6,1.4-2.7,2.1-3.8c0.6-1.1,1.4-2.7,2-5.2c4.6,0.9,10.1,1.3,15.9-0.1
			C3551.2,403.3,3555.6,404.2,3559.3,407.5z M3476,713.9c-0.5-1.4-0.7-2.6-0.2-3.5c0.1-0.8,0.4-2.1,0.9-2.4c0.1-0.8,0.3-1.2,0.3-1.6
			c0.2-0.4-0.7-0.9-1.9-1.2c-0.1,0.8-0.6,2.9-1.2,5.3C3473.8,712.6,3474.3,713.9,3476,713.9z M3477.8,689.4
			c-0.4-2.2,0.6-5.1,2.1-7.7c1.4-2.7,1.3-4.4-0.5-5.3c0.4,2.2-0.1,4.7-2.2,6.8C3475,685.8,3475.1,687.5,3477.8,689.4z M3529.7,502.6
			c-0.2,3.3,0.1,5.6,1.2,6.2c1.1,0.6,1.6,2.5,1.5,5c-0.9,0.2-1.4,0.5-1.2,1.4c0.2,0.9,0,1.7-0.1,3c-0.2,0.4-0.6,1.1-1.7,1.7
			c-0.6,0.8-1.7,1.7-2.3,2.5c-0.1,0.8-0.4,2.1-0.1,3c0.2,0.9-0.1,2.5-0.1,4.2c-0.2,0.4-0.6,1.1-1.2,1.9s-1.2,1.4-1.4,2.7
			c-0.4,2.1-0.9,4.1-1,6.6c-0.1,2.5-0.5,4.6-1,7.1l-0.9,0.7l-0.6,0.8c-0.6,1.1-1.1,2.8-1.5,5.2c-0.6,2.5,0.5,3.6,2.3,3.4
			c-0.5-1.9-0.7-3.2,0-3.9c0.6-0.8,0.8-1.6,0.9-2.4c0-1.7,0.2-3.3,1-4.9c1.1-1.1,1.4-2.7,1.2-4.1c-0.2-0.9-0.2-1.3,0.3-1.2
			c0.4,0.2,0.5-0.3,1.1-1.1c0.8-1.6,1.1-2.8,0.9-4.6c-0.2-1.3,0.1-3,1-4.9c1.4-2.7,2.9-5.4,4.4-8.5c1-3.2,1.9-5.6,1.9-6.9
			c0.1-2.5,0.5-4.6,1.4-7c0.9-2.4,1.3-4.4,1.9-6.9c0.1-0.8,0.6-2.5,1.2-4.1c0.3-1.6,0.8-3.8,1.2-5.3c0.6-1.1,1.1-2.8,0.6-5.1
			c-0.4-2.2,0.4-4.3,1.5-5.2c-0.5-1.4-0.7-2.6-0.8-4.1c-0.2-1.3-0.4-2.2-1.1-2.8c-2.6,4.1-4,8.7-5.1,14.1
			C3533.9,494.8,3532.2,499.3,3529.7,502.6z M3590.9,257c0.4,2.2,0.7,4.9,0.3,6.9c-0.6,2.5-0.6,5.1-1.3,7.9
			c-0.2,0.4-0.1,0.8-0.6,0.8l-0.8,1.6c-0.3,1.2-0.1,3-0.1,4.2c0.2,1.3,0.2,3.5-0.4,6c-0.6,2.5-0.6,5.1-1,7.1
			c-0.1,2.5-0.6,5.1-1.6,7.4c-0.3,1.2-1.1,2.8-2.9,3.7c-0.6,1.1-0.9,2.4-0.8,3.8c0.2,1.3-0.9,1.9-2.5,1.6c0.8,1.8,1,3.3,0.6,4
			c-0.6,0.8-1.2,1.4-1.4,2.7c-0.2,0.4,0.2,1.3,0.4,2.2c0.2,0.9,0,1.7,0,2.2l-0.4-0.2l-0.4-0.2c-0.2,0.4-0.3,1.2,0,2.2
			c0.3,1,0.5,1.9,0.2,3l-1.7,0c-0.2,0.4,0.2,1.3,0.4,2.2c0.2,0.9,0,1.7,0,2.2c-1.1,1.1-1.4,2.4-0.4,4.3c0.5,1.9,0.2,3.5-0.4,4.3
			c-0.8,1.6-1.3,4.4-1.8,8.7c-0.6,2.5-0.5,4.6-0.5,6.8c0,2.2-0.1,4.2-0.5,6.8c-7.1,1.1-12.6-1.4-16.8-7.7c-2.5-0.1-5.1-0.6-7.2-0.7
			c-2.5-0.1-4.6-0.9-6.5-2.3c-0.9-1.5-2-3-2.8-5.3c-0.8-2.4-2-3-3.7-2.9c0.3-5.2,0.1-10.7-0.9-16.2s-0.8-10.5,0.2-15.4
			c0.2-0.4,0.6-0.8,0.9-0.7c0.4,0.2,0.5-0.3,0.3-1.6l-0.2-1.3c0.2-0.4,1.1-1.1,1.7-2.3c0-2.2,0.4-4.3,1-6.6c0.5-2.3,0.6-5.1,0.3-8.1
			c-0.2-0.9,0-2.2,0.1-4.2c0-1.7,0.2-3.3,0.9-4.6c0.2-0.4,0.9-0.7,1.8-0.8c0.9-0.2,1.3-0.2,1.1-1.1c0.6-2.5,0.5-4.6,0.1-6.5
			c-0.5-1.9-0.2-3.5,0.4-4.3c0.8-1.6,1.4-2.7,2.1-3.8c0.6-1.1,1.2-1.9,2-3c0.6-1.1,0.9-1.9,0.9-2.4c0.1-0.8,0-1.7,0.1-2.5
			c0.1-0.8,0.9-2.4,2.1-4.3c1.2-1.9,2-3.5,2.4-5.6c4.1-0.8,8-0.9,11.3-0.7c3.3,0.2,6,2.1,7.9,5.6c4.1-1.4,7.6-1.1,9.8,0.8
			C3586.4,253.1,3588.7,254.8,3590.9,257z"/>
	</g>
	<g>
		<path class="st2" d="M3353.1,358.4"/>
	</g>
	<g>
		<g>
			<path class="st1" d="M3235.8,664.6c0.9-0.2,1.7-1.7,1.9-2.7C3236,661.3,3236.9,663.5,3235.8,664.6z M3318.4,259.5
				c-0.1,0.8-0.8,1.6-1.6,1.5c-0.5-1.4-0.8-2.4-0.9-4.4C3318.3,256.1,3316.8,259.3,3318.4,259.5z M3231.8,672
				c-1.3,0.2-1.1,2.8-2.3,2.5c1.2-1.4,1.2-3.6,1.8-4.4C3232.1,670.4,3231.3,672,3231.8,672z M3216.7,711.1c0,3.9-2.4,7.6-3,10.6
				C3213.5,718.2,3215.9,715.2,3216.7,711.1z M3211.2,729.2c-0.2-3,2.2-10.3,0.8-3.8C3211.8,726.7,3211.5,728,3211.2,729.2z
				 M3210.9,683.2c0.8,0.6-0.4,4.3-0.9,4.6C3209.4,686.3,3210,685,3210.9,683.2z M3206.5,700.7c-1.3,0.2-0.9-1.5-0.7-2.6
				C3206.4,698.7,3206.6,699.4,3206.5,700.7z M3210.1,672.3c-0.8-0.1,1-3.2-0.2-3.5C3211.1,667.2,3211,672,3210.1,672.3z
				 M3214,604.1c-1.6-0.8-0.2-5.2,0.9-6.3C3214.8,599.7,3214.4,602.1,3214,604.1z M3314,347.3c-1.1-1.1-0.2-3.5-0.3-4.7
				C3314.3,343.5,3314.4,344.9,3314,347.3z M3317.3,300.2c-0.4-0.2-0.4-0.2-0.5,0.3c-2.4,7.6-4.1,19.8-6.2,25.8
				c2.6-12.3,4.8-24.8,9.2-33.8c2.3-5.1,6.2-9.1,3.8-14.2c1.1,0.6,2,3,2,4.7c-0.3,5.2-6.3,9.4-7.3,14.8c-0.6,2.9,0.6,4-0.5,6.8
				C3317.1,303.1,3317.5,301.6,3317.3,300.2z M3231.8,669.4c-1.6-0.3,0-2.2,0.2-3.3c-0.6,0.8-1.8,0.8-1.9,2.7
				c-0.2-0.9-1.1-1.1-0.8-2.4c-3,4.5-2.3,6.5-3.9,10.4c-0.4-0.2-0.2-0.9-0.5-1.4c-1.6,3.5-3.3,9.7-3.4,14.4
				c-0.8-0.1-0.5-1.4-0.3-2.7c-1.3,0.2-1.5,4.9-2.1,2.1c-0.8,3.8,0.2,3.5-1,6.6c0-3.9-0.7-4.9,0.1-9c-0.5,0.3-0.8,1.6-1.4,2.4
				c-1.1-1.1,0.9-1.9,0.8-3.8c-2.9,5.9-4.3,12.8-5.8,19.9c0-2.2,0.5-6.3,1.2-10.4c-1.4,2.4-2.3,6.5-3.3,9.7
				c-0.2-3.5-0.9,0.2-1.7,1.7c3-16.6,3.7-22.1,6.6-39.9c-0.7,3.3-1.5,4.9-1.6,7.9c-0.1,0.8-1.6,1.5-1.3,0.2
				c-0.5,0.3,0.7,2.6-1.1,2.8c-2.1-2.7,0.8-9.8,0.2-13.7c-0.5,0.3-0.8,1.6-1.9,0.5c-0.4,2.1,1.9-0.5,0.7,2.6
				c-2.4-3.1,0.2-7.3,0.5-10.2c0.6-2.5,0.2-5.5,1.4-9.2c-2,1.8-2.1,7.7-3.1,10.9c-0.6,0.8-0.3-0.5-0.2-1.3c1-6.6,2.7-18.8,3.9-25.1
				c-2.1,2.1-1.6,5.7-2.5,10.3c-0.4-0.2-0.2-0.9,0-1.7c-2.3,6.5-4.2,20.2-4.7,29.2c-0.1,2.5,0.2,4.8,0.3,6.9c-0.4,2.1-1.4,7-0.2,9.5
				c-1.5,3.2-0.9,4.6-0.2,6.9c-0.8-0.1-0.7-0.9-1.2-0.3c-0.8,1.6,1.1,1.1,1.3,2c-0.6,0.8-2.3,2.5-1.2,4.1c-1.6-0.8-0.8,3.8-1,6.6
				c0.6-1.1,1-3.2,2-3.5c0.2,5.2-1.9,9.5-3.1,14.9c0-3.9,2.1-10,2.9-14.1c-1.3,0.2-1.6,3.5-2.4,5.6c-2.7-23.9,1-64.8,7.9-93.9
				c2.1,0.4,4.2-5.6,5-9.7c0.5,1.4,1.1,0.6,1.8,2c-0.6,0.8-0.1,3-1,4.9c1.7-1.7,1.9-9,3.1-13.1c-0.8-0.1-0.3,1.6-0.9,2.4
				c-0.6,0.8,0.4-4.3-0.2-5.2c-1.6,3.5-1.5,5.2-2.1,8.2c-1.9-1.2,2.5-9.8,1.8-12.9c0.8-1.6,1.1,0.6,0.5,1.9c1.5-4.9,3-10.1,3.4-14.4
				c-0.8,1.6-1.7,6.2-2.6,10.6c-1-3.3,2.4-9.5,2.6-14.5c1.3-0.2,0.9,1.5,0.7,2.6c1.5-0.9,0.8-3.8-0.6-4c0.8-1.6,1.2-3.6,0.6-5.1
				c-0.8,8-5.4,15.7-6.1,23.3c0.4,0.2,0.6-1.1,0.9-1.9c1.1,1.1-1.2,5.9-1.6,10c-0.3-0.5-0.2-0.9-0.5-1.9c-1.5,3.2-1.6,9.6-3.4,12.7
				c3.6-19.4,6.8-38.7,12.7-57.7c1,3.3-1.4,9.2-1,13.1c0.8-1.6,2.1-8.2,2.6-10.6c1,3.6-2.5,10.3-2.3,15c5.8-23.4,9.7-42.8,13.8-68.5
				c-2.5,10.3-3.2,17.4-4.9,25.7c-0.3-0.5-0.7-0.9-0.5-1.9c-1.5,5.2-3,16.6-5,22.1c-0.8-0.6,0.6-2.9,0.4-4.3c-0.9,2.4-2,5.2-2.7,8.5
				c0.7-13.7,3.5-27.3,4.5-42.1c0.5-0.3,0.8-1.6,1.9-0.5c7-31.7,11.8-65.5,19.2-92.9c0.3-1.2-0.7-0.9-0.8-2.4
				c5.4-15.7,5.2-36,11.5-53.5c2-5.2,1.2-11.8,4.2-16c2.1-14.7,5.8-38.3,11.8-48.8l0.9-4.1c1.1-1.1,2-1.3,2.8-2.9
				c-1.1-2.8,1.3-6.7,3-10.6c-0.2-0.9-0.7-0.9-1.4-1.2c0.8,2.4-0.3,1.2-0.9,4.6c-0.5,0.3,0.4-4.3,0.4-6c0.5,1.4,2.4-0.8,1.9,1.2
				c1.9-2.7,3-6.2,3.6-11.3c1.1,0.6-0.3,1.2,0.4,2.2c1.4-2.7,3.9-4,3-7.9c2.7,1.4,4-6.5,7.8-4.4c0.8,0.1,0.3-1.6,0.9-2.4
				c1.4,1.2,3.4-3.6,6.8-1.2c-0.8,3.8,4.9,4.9,6.6,7.8c1.3-0.2-0.3-2.7,1.2-1.9c-1,3.2,0.9,6.3,1.6,8.9c-0.2,3.3-2.1,3.8-2.9,5.9
				c0.5,5.3,2.2,8.2,0.6,13.8c-0.3,1.2-0.9,2.4-1.2,3.6s0.5,1.9,0.5,1.9c-0.2,0.4-1.2,1.4-1.4,2.4c-0.3,1.6,1,3.6,0.9,4.4
				c-0.1,0.8-1.5,3.2-1.7,4c-0.7,3.3-0.5,6.3-1.3,10.1c-3.1,19.6-9,43.3-12.6,65.4c-0.8,5.8-2.2,12.5-3.3,18.3
				c-5.4,23.8-9.7,47.4-14.1,72c-0.1,0.8-1.6,5.7-2.4,9.5c-8.2,46.1-18.8,107.5-30.9,157.1c-0.9,0.2-0.8,1.6-1.3,0.2
				c-0.1,0.8,0.2,0.9,0.5,1.4c-0.9,2.4-1.4,2.4-2.3,4.7c-2.4,5.6-4.3,14.6-7.4,17.5c3.2-8.9,7.2-18.2,9.2-27.9
				c-3.7,5.3-5,15.8-9.6,19c0.5,3.6-2.3,4.7-1,6.6C3232.7,658.8,3233.6,666.7,3231.8,669.4z M3211.2,700.5l1-4.9
				C3211.1,694.3,3211.2,700.5,3211.2,700.5z M3213.4,671.1c0.5,1.9-0.9,2.4,0.2,3C3213.4,672.9,3215.1,671.6,3213.4,671.1z
				 M3250.3,618.1c0.6-2.5-0.3-2.7,0.9-4.1C3249.4,613.7,3249.3,618,3250.3,618.1z M3248.9,623.9c-0.2-1.3,1-3.2,0.4-3.8
				C3248.4,620.8,3248.3,623.4,3248.9,623.9z M3285.8,279.9c-0.6,2.5-3.2,7.1-0.8,8C3285.5,285.1,3286.3,281.8,3285.8,279.9z
				 M3230,676.4c0.2,0.9-1.1,1.1-0.7,3.3c-1.3,0.2,0-2.2-0.2-3.5C3229.5,676.7,3229.8,677.2,3230,676.4z M3224.5,684.2
				c0.3,0.5-0.2,0.4-0.5,0.3c-0.2-0.9,0.1-3,0.5-4.6C3226,680.7,3223.4,683.1,3224.5,684.2z M3208.6,696.1c-1.1-0.6,0.6-2.9,0-3.9
				C3209.8,691.1,3208.9,694.8,3208.6,696.1z M3293.5,259.7c0.2,1.3-2.9,5.4-3.5,4.8C3290.7,262.5,3292.6,261.5,3293.5,259.7z"/>
		</g>
	</g>
	<g>
		<g>
			<path class="st1" d="M3260.2,257.5c0.7,0.9,2.2,0,3.5-0.2C3263.2,255.9,3262.3,258.3,3260.2,257.5z M3602.4,89
				c-0.8-0.1-1.9,0.5-2.1-0.4c0.6-1.1,1.2-1.9,2.8-3.4C3604.6,86.4,3601.4,87.1,3602.4,89z M3252.5,259.4c-0.7-0.9-2.6,0.7-3.3-0.2
				c1.9-0.5,3-1.6,4.1-1.4C3254.1,257.9,3252.4,258.4,3252.5,259.4z M3215.4,270.6c-2.3,2.5-7.5,2.8-9.1,4.6
				C3208.5,272.6,3212.5,272.5,3215.4,270.6z M3199.3,277.6c2.1-2.1,8.3-4.7,3-1.6C3201.3,276.3,3200.3,277.3,3199.3,277.6z
				 M3231.8,249.3c-0.1,0.8-3.1,2.4-3.9,2.3C3228.6,250.5,3229.9,250.3,3231.8,249.3z M3216,256.8c-0.7-0.9,0.3-1.6,1.2-1.9
				C3218.2,255.2,3217.6,255.9,3216,256.8z M3239.4,242.3c-0.2-0.9,2.8-1.1,2.1-2.1C3243.2,240.2,3239.7,242.9,3239.4,242.3z
				 M3289.7,204.6c-0.5-1.9,3.7-3,4.9-2.9C3293.2,202.7,3291.6,203.6,3289.7,204.6z M3535.7,134.5c0.3-1.2,2.7-2.1,3.6-2.7
				C3538.2,132.9,3537.1,134,3535.7,134.5z M3572,110.7C3572.2,110.3,3571.8,110.1,3572,110.7c-7.4,2.3-17.5,7.5-22.5,9.1
				c10.9-5.1,21.1-10.3,30-11.8c5.3-1.1,10.4,0,12.7-5.1c-0.3,1.2-1,3.2-2.6,4.6c-4,2.6-10.7-0.1-15.1,2c-2.8,1.1-2.8,2.9-5.5,3.2
				C3569.1,112.2,3571,111.7,3572,110.7z M3255.1,257.6c-0.5-1.4,1.8-0.8,2-1.8c-0.8-0.1-1.6-0.3-3,0.2c0.6-0.8,0.3-1.2,1.2-1.9
				c-5.2,0.2-6.1,2.1-10.1,3c0.2-0.4,0.9-0.7,0.6-1.1c-3.6,1-9.3,3.3-12.3,5.6c-0.2-0.9,0.6-1.1,1.7-1.7c-0.7-0.9-4.4,2.1-2.9-0.6
				c-3,2-2.1,2.1-5.5,3.2c2.6-2.4,2.9-3.7,6.7-5.1c-0.8-0.6-1.9,0.5-2.6,0.7c0.3-1.2,2.4-0.8,3-1.6c-5.8,1.4-11.6,4.1-17.4,7.2
				c1.5-0.9,5.1-3.7,8.4-5.2c-2.7,0.3-5.7,2.6-8.9,3.3c2.1-2.1-0.8-0.6-2.5-0.1c13.6-7.5,17.6-10,32.2-18.7
				c-2.8,1.1-4.7,1.6-6.7,3.4c-0.5,0.3-2.2,0-0.7-0.9c-0.3-0.5-1.2,1.9-2.8,1.1c0.7-3.3,7.6-5.3,10-8.3c-0.3-0.5-1.3,0.2-1.6-0.8
				c-1.8,0.8,1.6,0.8-1.7,1.7c0.8-3.8,4.8-4.1,7.6-5.8c2.4-1.3,4.5-2.9,7.3-4.6c-2.5-0.6-6.6,3-10,4.4c-0.9,0.2,0.2-0.4,0.6-0.8
				c5.5-3.2,15.1-8.9,20.6-12.2c-2.9-0.6-4.7,2-8.6,3.7c0.2-0.4,0.6-0.8,1.1-1.1c-5.6,2.3-17.2,8.5-24,13.9
				c-1.6,1.5-3.3,3.2-4.8,4.1c-1.8,0.8-5.8,3.1-6.8,5.9c-3.2,0.7-3.5,1.9-5.1,3.7c-0.3-0.5,0.3-1.2-0.2-0.9
				c-1.9,0.5-0.3,1.2-0.4,2.1c-0.9,0.2-3.5,0.2-3.3,1.5c-0.5-1.9-3,1.6-5.5,3.2c1.2,0.3,3.3-1,3.9,0c-3.7,3-7.7,4.1-12.2,6.5
				c2.8-2.9,7.8-4.4,11.5-6.2c-1.1-1.1-3.6,1-5.2,2c15.1-16.6,46.3-38.2,72-50.5c0.5,1.9,6.5,0.1,9.9-1.9c-0.6,1.1,0.2,1.3-0.1,2.5
				c-0.8-0.1-2,1.8-4.4,2.1c2.2,0,7.3-4,11.4-5.4c-0.2-0.9-1.9,0.5-2.4,0.8c-0.8-0.1,3.4-2.3,3.7-3c-3.6,0.5-4.7,1.6-7.2,3.2
				c-0.4-2.2,8.6-3.7,10.7-6.3c1.9-0.5-0.3,1.2-1.1,1.1c4.2-1.7,9.4-3.6,12.3-5.6c-1.3,0.2-5.2,2-9.1,4.6c1.9-2.7,8-3.5,11.7-6.7
				c0.7,0.9-0.3,1.6-1.7,1.7c1.6,0.3,3.3-1.5,2.6-2.4c1.9-0.5,3.3-1.5,4-2.6c-6.4,3.9-14.4,5.1-20.5,9.1c0.3,0.5,1.3-0.2,1.9-0.5
				c0,1.7-4.7,2-7.8,4.4c0.2-0.4,0.6-0.8,1.1-1.1c-3.2,0.7-7.8,4.4-11.4,4.9c16.4-8.6,31.6-17.5,49.4-24.3
				c-1.7,2.3-7.3,4.6-10.1,6.9c1.9-0.5,7.5-3.1,9.1-4.6c-2,3-8.6,3.7-12.2,7c20.4-9.5,36.7-17.3,57.7-29.3
				c-9.2,5-14.7,8.6-21.5,12.3c0.2-0.4,0.1-0.8,1.1-1.1c-4.7,2-13.6,7.5-18.6,9c0.1-0.8,2-1.8,3.1-2.4c-2.4,0.8-4.7,1.6-8,3.1
				c10.2-7.7,21.8-13.6,32.8-21.1c0.3,0.5,1.9-0.5,1.6,0.8c27.3-13.3,54.6-28.8,78.7-38.8c0.9-0.2,0.6-1.1,1.2-1.9
				c14.7-4.7,29.6-16.2,45.9-21.8c5.2-2,9.5-6.1,14.1-5.7c11.7-6.7,31.6-17.5,43-18.2l3.5-1.9c1.2,0.3,1.9,0.9,3.8,0.8
				c1.7-2.3,5.7-2.6,9.7-3.7c0.5-0.3,0.6-1.1,0-1.7c-0.4,2.1-0.9,0.2-3.5,1.9c-0.4-0.2,3.1-2.4,4.5-2.9c-0.6,1.1,1.9,1.2,0.3,2.7
				c3,0.1,6.3-0.9,10.5-3c-0.3,1.2-1.3,0.2-1.6,1.5c2.7-0.3,5.5,0.7,7.7-1.9c0.7,3.2,6.6-0.8,7.8,3.8c0.2,0.9,1.9-0.5,2.4-0.8
				c0.4,2.2,4.6,0.9,4.6,4.5c-3,1.6-0.5,6.8-2.1,10c0.7,0.9,1.7-1.7,2.2-0.4c-3.3,1-4.2,3.9-5.6,6.2c-2.5,1.6-4.4,0.4-5.8,0.9
				c-3.7,3.5-4.6,5.9-9.9,8.7c-1.3,0.2-2.4,0.8-3.3,1c-0.9,0.2-1.1,1.1-1.1,1.1c-0.5,0.3-1.7,0-2.7,0.3c-1.4,0.5-1.9,2.7-2.8,3.4
				c-0.9,0.7-3.2,0.7-4.1,0.8c-2.8,1.1-5.3,2.8-7.8,4.4c-16.4,8.6-36.7,17-54.7,27c-4.8,2.4-10.2,5.7-15,7.6
				c-20.4,9.5-40.1,19.2-60.1,30.1c-0.5,0.3-4.7,1.6-8,3.5c-38.2,20-88.6,48-131.2,68.3c-0.8-0.6-1.3,0.2-0.7-0.9
				c-0.9,0.2-0.6,0.8-0.6,1.1c-2.6,0.7-2.7,0.3-5.3,1.1c-5.5,1.5-13.1,5.4-16.9,4.7c8.3-2.6,17.9-5.4,25.2-9.4
				c-6.1,0.4-14.1,5.2-19.3,4.1c-2.3,2.5-4.9,0.7-5.5,3.2C3262.6,251.9,3258.2,257.4,3255.1,257.6z M3219.8,259.8l4.4-2.1
				C3224.4,256.4,3219.8,259.8,3219.8,259.8z M3241.6,244.2c-1.1,1.1-2.4,0.8-2.1,2.1C3240.8,245.7,3242.6,245.6,3241.6,244.2z
				 M3302.3,241.2c1.8-0.8,1.6-1.5,3.5-1.9C3305.1,238.3,3302.1,240.3,3302.3,241.2z M3297.6,243.7c0.9-0.7,3.3-1,2.7-2.1
				C3299.3,241.4,3297.3,242.7,3297.6,243.7z M3568.5,73.8c-2.4,0.8-7.2,1.5-6.4,3.9C3565,76.1,3567.4,74.8,3568.5,73.8z
				 M3248.5,260.2c-0.6,0.8-1.2-0.3-2.5,1.6c-1.1-1.1,1.5-0.9,2.1-2.1C3248.2,260.1,3248,260.5,3248.5,260.2z M3239.5,260.4
				C3239.4,260.9,3238.9,261.2,3239.5,260.4c0.1-0.8,1.6-1.5,3.1-2.4C3243,259.8,3239.6,259.3,3239.5,260.4z M3221.5,255.5
				c-0.2-1.3,2.5-1.6,2.6-2.4C3225.4,253.2,3222.1,254.7,3221.5,255.5z M3588.2,68c-0.9,0.7-5.8,0.9-5.5-0.2
				C3584.4,67.6,3586.3,68.8,3588.2,68z"/>
		</g>
	</g>
	<g>
		<g>
			<path class="st1" d="M3652.7,129.1c-0.6,0.8,0.5,1.9,0.7,2.6C3655.2,131.4,3653.1,131,3652.7,129.1z M3892,404.9
				c-0.2-0.9-0.5-1.4,0.4-2.1c1.2,0.3,2.4,0.9,3.5,2C3894.2,406.7,3893.2,403.5,3892,404.9z M3649.7,122.5c0.6-1.1-1.3-2.4-0.7-3.2
				c0.5,1.4,2.1,2.7,2.3,3.4C3650.8,123.6,3650.2,122,3649.7,122.5z M3628.6,91.4c-3.2-1.5-4.4-6.1-6.3-7.3
				C3625,85.4,3626,89.1,3628.6,91.4z M3618,78.4c2.7,1.4,6.9,6.2,2.5,2.3C3619.7,80,3619.1,79.1,3618,78.4z M3653.4,99.9
				c-0.9,0.2-3-2.3-2.9-2.8C3651.5,97.5,3652.1,98.4,3653.4,99.9z M3642.2,87.7c0.6-1.1,1.3-0.2,2.4,0.9
				C3643.6,88.9,3643,88.3,3642.2,87.7z M3661.5,104.7c0.6-0.8,1.6,2.5,2.7,1.4C3664.7,107.9,3661.8,105.6,3661.5,104.7z
				 M3710.5,140.5c1.2-1.4,4.1,2.6,4,3.9C3713.3,143.8,3711.8,142.5,3710.5,140.5z M3834.3,352.9c0.9-0.2,2.5,2.3,3.8,2.5
				C3836.5,354.8,3835.3,354.5,3834.3,352.9z M3864.7,381.3C3865.2,381.3,3864.8,380.8,3864.7,381.3c-3.9-6.4-11.1-14.8-13.7-19.1
				c6.7,9.2,14.2,17.1,17.1,25.5c2,4.7,1.9,9.4,7.8,10.6c-1.4,0.5-3.3-0.2-4.6-0.9c-3.4-2.8-2.3-9.6-4.8-13.9
				c-1.3-2.4-3.5-2-4.3-4.4C3862.9,379.1,3863.6,380.5,3864.7,381.3z M3651.5,124c0.6-1.1,1.9,1.2,2.3,1.7c-0.2-0.9,0.3-1.6-1.1-2.8
				c0.8,0.1,1.4-0.5,1.9,0.9c-1.6-4.7-3.4-4.5-5.6-8.1c0.5-0.3,0.8,0.1,1.3-0.2c-1.5-3.3-4.9-7.5-8.8-9.6c0.6-0.8,1.2,0.3,2.4,1.4
				c0.3-1.2-3-3.7-0.3-2.7c-2.1-2.7-2.7-1.4-4.3-4.4c3,2,4,1.7,6.4,4.3c0.1-0.8-0.9-1.5-0.8-1.8c1.4-0.5,1.5,1.6,2.5,2.3
				c-2.9-4.9-7.4-9.8-11.8-14c1.6,0.8,4.4,3.6,7.4,6.2c-0.8-1.8-3.7-4.6-5.5-7.2c2.7,1.4,0.3-1.2,0-2.2
				c10.7,10.4,13.9,13.6,26.4,24.4c-2.1-2.1-2.7-3.6-4.9-4.9c-0.4-0.2,0-1.7,0.3-1.2c0.1-0.8-2.4-0.9-1.6-2.5c3-0.2,7,5.4,10.7,6.9
				c0.2-0.4-1.1-1.1,0.3-1.6c-1.4-1.2-0.3,1.6-2.4-0.9c3.6-0.5,5.3,3.7,7.2,4.9c1.9,1.2,3.7,2.9,6.2,5.6c0-2.2-4.5-5.3-6.6-7.8
				c-0.2-0.9,0.5-0.3,0.8,0.1c4.3,4.4,12.8,11.3,16.6,15.5c-0.3-2.7-3-3.7-5.9-6.8c0.5-0.3,0.8,0.1,1.1,0.6
				c-3.7-4.6-12.3-13.3-19.1-18.1c-2.3-1.7-3.8-2.1-5.7-3.3c-1.4-1.2-4.1-4.8-7.3-4.5c-1.1-2.8-2.4-2.6-4.8-3.5
				c0.2-0.4,1.3-0.2,0.6-0.8c-1.1-1.1-1.4,0.5-2.2,0c-0.3-0.5-0.7-2.6-2.4-3.1c1.5-0.9-2.5-2.3-4.3-4.4c0.2,0.9,1.6,2.5,1,3.6
				c-4.3-2.1-6.1-6-9.8-9.3c3,2,6.6,6.1,9,8.7c0.3-1.2-1.6-3-2.9-4.5c19.7,8.8,49,31.6,66.2,52.1c-1.6,1.5,1.4,5.8,4.1,9
				c-1.2-0.3-0.9,0.7-2.2,0.4c-0.2-0.9-2.3-1.7-3.2-3.3c0.5,1.9,5.6,5.9,8,9c0.6-0.8-1.1-1.1-1.8-2c-0.2-0.9,2.9,2.8,4.1,2.6
				c-1.5-3.3-2.6-4-4.8-5.7c1.8-0.8,5.9,6.8,8.1,8.2c0.9,1.5-0.9,0.7-1.6-0.3c2.7,3.6,5.8,7.6,8.8,9.6c-1.1-1.1-3.4-4.2-6.3-7.3
				c3.2,1,5.6,6.4,9.3,9.3c-0.6,1.1-1.3,0.2-2.4-0.9c-0.3,1.6,2.1,2.7,3.2,1.5c0.5,1.4,2,3,3.2,3.3c-4.9-4.9-8.4-11.7-13.8-16.6
				c-0.2,0.4,0.7,0.9,1.5,1.6c-1.4,0.5-3.5-3.7-6.6-6.1c0.4,0.2,0.8,0.1,1.6,0.3c-1.1-2.8-6.6-6.1-7.6-9.3
				c12,12.4,24.7,24.5,35.3,39.2c-2.8-1.1-6.2-5.6-9.2-7.6c0.9,1.5,4.8,6.2,6.3,7.3c-3.6-1.2-5.8-7.3-9.8-9.3
				c13.8,16.6,25.7,29.4,42,46.2c-5.8-7.3-10.9-11.8-15.7-17.5c0.5-0.3,0.9-0.2,1.6,0.3c-3-3.7-10.3-10.7-13.2-15.2
				c0.9-0.2,2.1,2.1,2.4,2.6c-0.8-1.8-3.1-4.1-5.1-6.7c10.2,7.3,18.1,16.7,28.3,25.2c-0.2,0.4,1.1,1.1-0.3,1.6
				c19.1,22,40.9,43.7,55.5,64c0.8,0.6,1.3-0.2,1.9,0.9c7.8,12.3,22.3,23.6,31.3,37.9c2.6,4.4,8,7.3,8.4,11.7
				c9.2,9.6,23.4,25.9,26.6,36.1l2,3c0.2,1.3-0.9,1.9,0.2,3.5c2.8,1.1,3.7,4.6,5.6,8.1c0.8,0.1,1.2,0.3,1.7,0
				c-2.1-0.4-0.7-0.9-2.4-3.1c0.2-0.4,3,2.3,3.6,3.4c-1.2-0.3-1.4,2.4-2.2,0.4c0.3,2.7,2.3,5.6,5.5,8.9c-0.9,0.7-0.8-0.6-1.9-1.2
				c0.8,2.4-0.3,5.2,3.2,7.2c-2.8,1.1,1.7,6.4-2.1,8.2c-0.5,0.3,0.9,1.5,0.8,1.8c-1.9,0.5,0.4,4.4-3.7,5.3
				c-2.1-2.7-6.6,0.8-10.1,0.5c-0.6,1.1,2.4,1.4,0.5,1.9c-1.6-3-4.9-3.2-7-3.7c-2.1-2.1-1.3-3.7-2.3-5.6c-4.1-2.6-7.2-2.7-10.1-7.2
				c-0.7-0.9-0.8-1.8-1.6-3c-0.8-0.6-1.6-0.3-1.6-0.3c-0.3-0.5-0.5-1.4-0.8-1.8c-1.1-1.1-3.2-1-4-1.7c-0.8-0.6-1.1-2.8-1.5-3.3
				c-1.6-2.5-4-3.9-6.4-6.5c-11.5-13.2-24.3-30.4-37.3-44.7c-3.5-3.7-7.2-8.4-10.4-12.1c-13.4-16.5-27.2-32.7-42.4-48.9
				c-0.3-0.5-3.1-4.1-5.5-6.7c-28.2-30.4-66-69.5-96.2-102.9c0.1-0.8-1.1-1.1,0.3-1.2c-0.8-0.6-0.8-0.1-1.3,0.2
				c-0.8-1.8-0.8-1.8-2.1-4.4c-2.4-4.8-8.7-10.4-8.7-14.4c5.1,6.7,9.9,15,15.1,20.9c-1.9-5.5-8.4-11.2-8.6-16.9
				c-2.7-1.4-2.3-3.9-4.3-4.4C3658.9,129.6,3652.3,126.4,3651.5,124z M3640.1,92l3.2,3.3C3644.2,95.1,3639.8,91.5,3640.1,92z
				 M3661,107.5c-1.6-0.3-0.8-1.8-2.7-1.4C3659.4,107.3,3659.9,108.6,3661,107.5z M3679,163.4c1.4,1.2,1.9,1.2,2.4,2.6
				C3682.7,164.9,3679.5,163.1,3679,163.4z M3675.2,159.6c0.8,0.6,1.6,2.5,2.5,2.3C3677.9,160.6,3676.5,159.4,3675.2,159.6z
				 M3899.4,369c-1.5-1.6-2.9-6.2-5-5.3C3896.7,365.9,3897.8,368.7,3899.4,369z M3647.4,118.6c-0.8-0.1-0.7-0.9-2.1-2.1
				c0.3-1.2,1.6,0.8,2.7,1.4C3647.6,118.1,3647.1,118,3647.4,118.6z M3644.5,110.7c-0.5,0.3-0.4-0.2-0.3-0.5
				c0.8,0.1,2.3,1.7,2.9,2.8C3646.3,113.9,3646.2,110.1,3644.5,110.7z M3644.8,92.2c1.4-0.5,2.1,2.1,3,2
				C3647.5,95.3,3645.5,92.7,3644.8,92.2z M3908.8,386c-0.8-0.6-2-5.2-1.1-5.3C3908.6,383,3908.3,384.6,3908.8,386z"/>
		</g>
	</g>
</g>
</svg>
